/* XPM */
static char *c9baa87eeab843ebab43884da9393675CXCES3tENYQHvPmR[] = {
/* columns rows colors chars-per-pixel */
"60 60 256 2 ",
"   c #1F130B",
".  c #1B1615",
"X  c #241B0C",
"o  c #2D1C0C",
"O  c #28140C",
"+  c #361B0B",
"@  c #251D14",
"#  c #2D1C15",
"$  c #251D1C",
"%  c #2B1E19",
"&  c #351E13",
"*  c #270C00",
"=  c #36220D",
"-  c #2C2414",
";  c #25231C",
":  c #2C231D",
">  c #2B271A",
",  c #332313",
"<  c #34241C",
"1  c #332B1D",
"2  c #3B2B1C",
"3  c #3A2614",
"4  c #3A321A",
"5  c #2D2915",
"6  c #251F21",
"7  c #232323",
"8  c #2B2523",
"9  c #2D2B25",
"0  c #2A242B",
"q  c #252B2B",
"w  c #2C2B2C",
"e  c #252628",
"r  c #332521",
"t  c #322A24",
"y  c #322C2A",
"u  c #3B2C27",
"i  c #29312B",
"p  c #3D3222",
"a  c #36332A",
"s  c #2D2B32",
"d  c #282B31",
"f  c #312E34",
"g  c #2B3232",
"h  c #353234",
"j  c #383636",
"k  c #1E2422",
"l  c #482B18",
"z  c #4B321A",
"x  c #512E14",
"c  c #422C22",
"v  c #45332B",
"b  c #483727",
"n  c #5A3D2B",
"m  c #553828",
"M  c #4D3C32",
"N  c #453B38",
"B  c #553F35",
"V  c #522A20",
"C  c #653E26",
"Z  c #6B311B",
"A  c #3F423B",
"S  c #58422A",
"D  c #5A4433",
"F  c #54443A",
"G  c #5B493B",
"H  c #584537",
"J  c #4C4330",
"K  c #6C4225",
"L  c #65422B",
"P  c #6B442B",
"I  c #6D492D",
"U  c #674226",
"Y  c #72452C",
"T  c #724A2D",
"R  c #7B4B2D",
"E  c #784429",
"W  c #6B4631",
"Q  c #6D4A33",
"!  c #6D4D3C",
"~  c #634837",
"^  c #724730",
"/  c #744C34",
"(  c #7B4D34",
")  c #744E38",
"_  c #7A4E39",
"`  c #784530",
"'  c #755136",
"]  c #7C5235",
"[  c #75523B",
"{  c #7B543B",
"}  c #7D593D",
"|  c #76583C",
" . c #68523D",
".. c #3F3E43",
"X. c #423E44",
"o. c #594A45",
"O. c #4F4C50",
"+. c #6C5342",
"@. c #6A5A48",
"#. c #745442",
"$. c #7B5642",
"%. c #765A44",
"&. c #7D5A43",
"*. c #745A4A",
"=. c #7C5B4A",
"-. c #725749",
";. c #795D52",
":. c #6B4F44",
">. c #6D624D",
",. c #7C644E",
"<. c #7A6656",
"1. c #7F755A",
"2. c #786C60",
"3. c #814B2E",
"4. c #844E34",
"5. c #835435",
"6. c #8A5435",
"7. c #82553C",
"8. c #8A563B",
"9. c #835A3D",
"0. c #8B5B3D",
"q. c #885937",
"w. c #925D3D",
"e. c #955839",
"r. c #8C4F2D",
"t. c #A65D3A",
"y. c #89613D",
"u. c #97633D",
"i. c #A4673D",
"p. c #815742",
"a. c #845C43",
"s. c #8B5D43",
"d. c #845E49",
"f. c #895F4B",
"g. c #895642",
"h. c #925E43",
"j. c #985E45",
"k. c #815F53",
"l. c #856145",
"z. c #8B6244",
"x. c #85624B",
"c. c #8C644B",
"v. c #86694D",
"b. c #8C6A4D",
"n. c #936344",
"m. c #9A6544",
"M. c #9B6A46",
"N. c #93644A",
"B. c #99664A",
"V. c #936A4C",
"C. c #9B6B4C",
"Z. c #956846",
"A. c #9A704F",
"S. c #846453",
"D. c #8B6552",
"F. c #8D6A52",
"G. c #8B6C5B",
"H. c #846956",
"J. c #946B53",
"K. c #9B6C53",
"L. c #936D59",
"P. c #936852",
"I. c #897157",
"U. c #947154",
"Y. c #957359",
"T. c #9C735B",
"R. c #9C7759",
"E. c #A16B45",
"W. c #A36D4B",
"Q. c #A86848",
"!. c #A4714C",
"~. c #AA744D",
"^. c #AB774A",
"/. c #A26E53",
"(. c #A96C55",
"). c #A37354",
"_. c #AB7554",
"`. c #AC7A55",
"'. c #A4745B",
"]. c #A27A5C",
"[. c #AC7B5B",
"{. c #AA7657",
"}. c #B37354",
"|. c #B27A55",
" X c #B37D5B",
".X c #BC7B5C",
"XX c #B87659",
"oX c #B4714D",
"OX c #8D7261",
"+X c #847464",
"@X c #987864",
"#X c #857469",
"$X c #A77B64",
"%X c #B87D63",
"&X c #C27B5C",
"*X c #C47956",
"=X c #C07F66",
"-X c #A78458",
";X c #B4825C",
":X c #BA835D",
">X c #BA865A",
",X c #9B8B79",
"<X c #A9856A",
"1X c #B48363",
"2X c #BB8563",
"3X c #BC8B63",
"4X c #B98A69",
"5X c #BA936A",
"6X c #A88872",
"7X c #B68A74",
"8X c #B79376",
"9X c #AC9175",
"0X c #BBA576",
"qX c #9D815C",
"wX c #C5825C",
"eX c #C5875C",
"rX c #C28464",
"tX c #C38B65",
"yX c #CA8B64",
"uX c #C4836B",
"iX c #C58E6A",
"pX c #CA8D6B",
"aX c #CA8464",
"sX c #D48B68",
"dX c #C5936A",
"fX c #CA936D",
"gX c #C6976B",
"hX c #D5946E",
"jX c #C98E75",
"kX c #CC9573",
"lX c #C59B72",
"zX c #CD9C74",
"xX c #C8977A",
"cX c #D39374",
"vX c #D39B75",
"bX c #D69479",
"nX c #DA9977",
"mX c #D18D74",
"MX c #E29B79",
"NX c #C9A47A",
"BX c #D2A47C",
"VX c #D9A27D",
"CX c #C4A06E",
"ZX c #E5A47C",
"AX c #BA9781",
"SX c #D89D84",
"DX c #CD9685",
"FX c #DDAD85",
"GX c #D9A883",
"HX c #DAB48B",
"JX c #D4B293",
"KX c #E6A987",
"LX c #EBB697",
"PX c #ECB790",
"IX c #E29F84",
"UX c #E5D0A5",
/* pixels */
"{ a.c.L.D.L.$.L.T.L.<XK. X X X{.xX1XxX4X4X4XNXHXNX-XNX5X5XlXHXNX8XlX5XHXUXJXBXGX0X0X3XzXBX-XlX>XlXlXBXzXFXdXfXVXnXfXfXvX",
"a.9.a.p.J.L.d.J.T.P.K.s.C._.m.w./.'.[.[.4X5X1XBXBXlXlX5XlXHXFXFXNXNXkXzXHXNXPXLXHXNXzXfXBXlXKXKXFXFXBXzXzXzXdXfXfXcXvXvX",
"a.Y { P D.d.p.p.T.c.8.5.w.W.e.6.j.(.e.w.W..Xm.iXvXGXfXtXfXLXbXKXfX.X.XXXKX3XcXyXGXtXpX}.rXhXMXKXzXlX~.`.;XvX;X^.W.:XtX:X",
"c.9.s.{ P.c.p.a.$XK.n.B.B. XW.~.%XuXXX}.%XcX=XSXcXcXcXcXbXKXbXIXMXsXsXhXPXcXnXwXnXhXhXaXhXnXKXMXfXlX;X3XtXzX:X|.rXpXfXfX",
"N.N.N.c.a.c.{ P.T.K.C./.n.`.W. X(.Q.uX=XmXbXbXbXcXQ..XrXmXcXbXaXsXhXhXMXnXsXZXKXwXsXwXaXhX&XhXXXkXGXPXFXVX:X:XfXvXpXtXfX",
"N.N.a.a.T 9.( K.N.B.C.C.m.W.m.{.B.e.%X}.%XrXkXrXnXe.Q.}.uXcXnXXX*X*X.XsXwXsXZXKXoX*XQ.|.&Xt.*Xu.vXNXFXVXKX:X X:XtX|.~.:X",
"N.s.s.8.g.N.g.K.).B.{.).[.{./.{.4X1X4X[.2XfXiXfXfX|.;X|.2XvXkX:XsXeXeXvXZXnXHXCXeXyX3XgXvX.XfX3XVXBXkXgXBXfX:X:XtXtXiXkX",
"7.T 7.( K.N.0.s.n.4.n.h.{.W.B.n.).1XC.M.`.tXu.^.u.>X>X^.u.;XM.^.hXeXzXeXsX^.CX-XtX.XlXlXVXpXdXzXgXFXvXdX_.;X XtX|.iXzXiX",
"s.Y ( 8.V.0.B.n.B.n.n.0.[.C.B.B.[.`.u.;X`.|.E.i.i.>X|.;Xi.>XfX;XhX^.tX3XyX!.5X-X|.|.5XHXtXiXzXdX3XkXzXzX_. X X:XiX2X;X`.",
"p.( { 9.7.s.n.s.8.B.B.).1X$XK.[.1X;X~.`.:X>XeX|.wXyXwXyXyXhXvXtXnXiXzXzXhXkXBX5XrX:X3XBX2XyXvXvXgX>X3XtXiXtXiX2XnX:X_. X",
"P ` ^ 9.Y s.n.n.] n.0.$X7X8XJ.K.%X X|.u.Q.e.Q.r.oXt.r.i..XXXpXaX%XpXvXkXXXcXLXLX}.rXiXkXXX}.Q.|.3Xu.u.E.iXrXfX:XFX{.M.4X",
"/ _ { s.7.N.C.C.0.N.7.N.'.$XP.T.$X1X%X XrX}.XXQ.&X}.oX.XcXXXrX.X=XjXKXSXuXxXLXLXj.%XjXmX&X&XQ.&XdX~.!.^.tXfXvXrXiXm.n. X",
"f.) p.a.s.( 7.( N.N.a.` c.d.L.6X@X$XT.7X$X'.(.[.uXuXXX[.xX%XxXSXDX7XDXxXGX7X4X(.7XxXjXuXuXbX}.rXiXdX:X;X~.iXpX.XkX2X2XjX",
"d.W { { a.C ` Y s.9.( ^ @XD.=.#.OXG.*.OXd.&.d.T.f.N.p.J.7X<XAXJX7XL.@XL.9XD.$X$X7X].m.h.[.vXQ.j.E.;X`.!.6. X.X_.W.). X{.",
"=.) &.d.a.a.N.N.s.a._ a.$XD.m + 1 1 - p 2 2 D +.+ l l H.,X>.p p c 3 l 3 4 = | 9XS l x x 9.NX).M.E.|.|.W.E.:XtX|.W./. X{.",
"/ { { d.^ c.V.K.N.$XJ.L.$.~ + < ; i i ; 1 o M J a 1 X <.,X>.> 9 1 1 2 c 4 4 #.9XJ 4 l l S 9X-X4XtX;X:X~.:X:XtX~.%X{. X1X",
"Y ] p.^ K a.'.'.N.s.9.$.#.m < y q q e a , 3 J p i q 1 <.6X~ ; i k A : c & l ! OXa a t 2 l D.K.m.|.e.:XE.W.m.|.M.{.W.!.;X",
"9.z.c.a.p.c.P.s.K.K.N.L.G.G r ; d q q a 3 l G N g g t *.@X~ : h q j r v V m =.<.t y w y c F.$X[. XE.:XE.!.E._.W.`.!.).1X",
"R ( ] { p.a.9.( h.g.9.d.,.G r 8 w k .   * l ~ F w d : ~ b.n : g g k   O + V ;.;.t a w 9 2 $.'. X|.~. X~.;X X_.[.`.!.C.{.",
"R T Y / p.9.{ 7.7.] ` { -.M r t 7 7 $ # + V +.B e s : D a.m < s i . : o & m S.:.t a q 8 < ~ K._.w.m.E.E.;X Xm._.).M.n.M.",
"z.z.a.a.c.a.9.N.s.s.c.J.S.H < 8 6 h o.;.d.P.G.M 0 f r ~ z.C r h i j <.<.;.k.H.M t 9 7 8 u D T.[.m.~.W.E.;X Xu.[.).C.M.M.",
"] z.a.p.c.{ ( s.s.N.N.D.*.M : t 8 N o.<.L.$X@XB 0 f < ~ c.C < y g O.#X#XOX@X*.2 9 w k 7 u b L.).1X2X;XW. X~.n.1X;X[.[.[.",
"K 9.] / p.{ ^ 8.0.9.{ &.+.b : y 8 a a v C f.OXG 0 w % ~ V.C % w w j o.H ! OX! < t h 9 9 u & x.N.;X`. Xn._.w.w.{.1X1X1X[.",
"9.U.z.{ b.c.9.N.9.g.z.F.H.G r : 8 8 @ # l { G.o.s d % ! L.L : w e y - o m OXG < t j h h u & H.L.[.!.3XW.1Xn.M.[.{.[.[.[.",
"] K U / [ ^ T ( 7.K K m -.F r 9 9 y t , x } ,.G e q % D x.n : w 9 : p o S @XG - 8 w ..h : 2 n F.C.2X!.M.B.[.M.).n.).).n.",
"] R T ' { { ] ] s.7.p.W *.M @ ; ; ; ; , m l.,.M e d : G v.S : w 9 t v 2 D <.M r y X.O.h 8 < b v.V.{.B.w.B.).n.0.z.n.n.y.",
"] ] { } a.l.s.s.9.z.T.F.G.G : 9 9 ; @ o S b.H.F e d ; G v.S ; w 9 @ - , @.<.p 1 9 O.O.h 9 r c ,.V.{.{.M.{.{.).C.A.C.C.K.",
"Y T T / { a.a.9.Y 7.T.Y.@XG : 8 ; @ - 2 Q U.,.v k q ; H v.m ; q 8 @ # 2 <.@., 1 6 X.X.s y r < ,.9.B.{.n.M.0.M.Z.C.n.Z.).",
"R ] { { { a.a.{ ] a.T.D.OXF @ ; @ t M +.b.R.x.b 7 q % D x.m ; q 8 v G  .I.b X u 6 s d 0 h : X +.z.n.!.0.u.q.n.0.C.z.z.).",
"} } } } &.{ { ] z.s.c.$.,.F : 9 8 v o.*.s.V.x.H 7 w : G b.n : w r M @.>.+Xb - t y s d 0 h 8 X S R.M.C.M.).[.1X{.K.B.Z.).",
"' T / [ ' P K P ] ( { L +.b @ : % u F ~ Y ( ) n 7 w % ~ b.n : 0 r v @.@.1.b 1 : 9 s s 0 0 y - b b.u.n.).A.1X4X1XB.z.s.Z.",
"l.} } x.l.{ ] 9.9.7.c.[ *.M % : # v @.S.a.s.[ m $ 0 # G S.n # 8 % M +X>.>.5 1 - . $ 0 . . t 1 3 a.n.A.[.0.K.[.1Xz.z.s.z.",
"b.&.} a.p.{ ( 7.N.p.&.x.-.:.# < r c ;.@XS.x.,.M u : : o.+XG X < 2 D +X@.@.- 1 - < < < u   1 1 , ,.R.z.U.U.z.].b.R.] z.b.",
"$.$.{ { { ] ] R s.( ) $.;.-.& O O 2 +.,.&.x.=.b # X @ F 2.F O = o m 1.@.F X o o M D ~ D , , - o ' b.9.V.Z.l.].V.V.9.l.z.",
"[ &.a.{ { z.s.5.z.9.c.x.OX-.c # & n &.d.c.T.b.~ + o , G <.H + = + ~ G.,.S , , 3 ! -.H.-.m 3 3 + { K.B.).K.V.$X'.Z.C.z.N.",
"W / / ^ / ] ] R 9.a.Y.x.H.n l 3 z ! { { N.V.9.Q z z b +.<.~ l x m d.@XG.~ z z m #.#.D.[ ! V m l { N.h.B.n.0.B.h.s.[.h.h.",
"W L K ^ / T T R ] z.J.d.S.S n m W { ] ] n.0.R { P L ~ %.x.' U U ` D.T.D.! W W Q f.p.p.( d.) [ I 8.h.8.0.0.6.6.( 5.).0.6.",
"$./ / } 9.] 5.0.] 9.{ } v.%.%.! &.a.9.0.M.u.5.Z.{ [ $.x.x.l.9.9.8.N.T.a.{ { a.p.K.h.7.7.K.N.z.a.h.h.h.h.n.N.n.0.0.C.n.h.",
"' / ^ / ] ] 9.9.K ] U / | | %.$.[ 9.8.8.w.q.5.9.{ { d.x.x.b.C.C.N.K.$Xa.z.{ c.a.h.j.6.h.C.C.0.N.7.6.0.0.h.B.B.B.B.n./.C.",
"Q ' / I T 9.0.9.K z.T } Q ! %.x.[ z.N.0.8.0.q.( / [ =.x.a.x.K.V.C./.1X9.z./ z.5.` 8.3.w.h.n.5.V.7.7.n.s.n.K.K.'.N.] C.B.",
"] T ] l.9.K K 5.Z.9.V.} b.x.x.x.x.a.z.N.n.Z.N.9.x.=.$.S.&.a.a.V.V.s.].R.z.U.z.9.s.n.m.w.w.u.Z.Z.z.a.z.z.Z.Z.9.U.J.z.z.c.",
"' I Y ] / K C Y z.] 9.] l.b.l.x.S.$.[ { ] 9.9.' d.! n +.#.x.p.c.s.0.].R.R.<XV.y.9.0.B.w.n.q.y.y.] ] z.z.Z.Z.] 9.9.] ] 9.",
"9.{ ] { } ] ] ] V.z.z.z.z.U.l.b.F.&.{ { 7.a.a./ D.%.~ *.=.D.p.a.{ c.R.U.R.qXl.} z.0.M.w.n.q.y.y.] z.V.} ] 9.] l.z.l.9.l.",
"T / / / ] { 9.{ a.9.{ a.] c.{ l.x.=.x.c.c.z.a./ =.x.;.G.S.D.p.s.9.R.R.b.U.b.y.z.V.Z.0.w.q.0.0.z.9.z.z.] 9.V.l.l.Z.z.9.] ",
"C T / T ^ ] { 9.( ] { p./ c.9.V.[ | l.Z.s.0.9.( / &.=.G.d.f.8.s.N.$XR.Y.<X@XR.R.B.n.R h.3.n.5.z.] ] ] ] ].8XV./ Z.z.9./ ",
"T ] { ] / / { p.{ { a.a.9.z.9.c.{ { s.z.5.5.s.g.d.x.$.x.$.c.8.g.N.P.c.$XAX8X7X].N.h.3.m.8.M.5.0.] 9.z.9.C.[.z.7.Z.Z.z.7.",
"^ ^ / / ^ I W / { ^ { Y ( ( Y Y 9.} 9.0.4.6.u.h.V.L.c.c.7.s.6.0.g.7.$.$X7X$X$XP./.8.3.6.j.w.q.3.8.n.C.7.5.s.5.s.( 5.6.7.",
"( ^ Y ` / ^ I ^ { K / C { { T C ] R ] 5.R 3.5.5.( c.P.P.( 4.5.n.7._ p.$XL.[ s.p.'.` E Z h.R 5.K s.6.7.5.B.).7.( Y ] 9.0.",
"^ I U T p.{ / { a.T { { c.9.a./ ] 7.] 7.N.a.{ b.&.x.d.Y.s.c.7.s.c.p.&.<X@Xv.[ x.P.g.8.N.N.a.{ } 9.g.s.s.9.] ] { { ] ] / ",
"C K K ^ { / K I J.9.^ ^ U T { { Y / Y T { &.&.L./ ! [ { { { 9.a.p.a.F.6XR.%.I | a.{ ( 9.a.a.x.U.] 7.a.s.7.] ] 9.} { ' ' ",
"I / / { 9.] ^ / c.a./ p.K { { { U ] { { c.b.D.L.) Q p.{ c.{ z.z.a.a.J.U.I.| ' &.s.a.a.s.a.a.b.R.{ a.c.c.a.{ 9.c.} } } } ",
"{ { / / { { { p.' ' { c.p.c.z.a.( 9.a.9.a.c.D.x.$.&.P.P.T.s.z.s.N.a.F.x.R.F.U.x.p.s.N.N.s.{ a.b.s.s.z.z.a.{ { p.{ { { { ",
"I I U C I / Q / [ I { ' p.a.L.c.s.{ Y C C [ p.$.{ d.c.T.N.c.] { ^ ^ a.a.Y.v.l.Q P _ s.s.9.( { p.a.9.{ { { / / / I ^ / / ",
"C P U U / / P P { / a./ &.{ P.a.s.{ ( ` ^ { p.[ $.d.p.L.a.s.( 9.` { x.a.,.| } ' ( 7.s.g.9.{ &.l.a.9.9.9.9.{ { 9./ / / ' ",
"C / / Q ) ) Q Q / { c.x.{ { d.p.9.( s.N.a.p.p./ p.p.a.c.a.9.8.s.N.P.c.b.l.v.F.T.a.s.h.s.s.s.c.x.a.a.z.z.p.9.a.b.&.} { { ",
"L / / K P P P / ^ a.x.c.L [ p.c.( K { s./ P / W _ ) a.{ a.` 7.7.7.( P a.&.F.a.z.` ( 7.g.s.c.c.a.{ 9.a.p./ ^ { x.a.} { / ",
"[ / | P / W { [ [ / &.a./ { x.} ( 7.9.8.p.p.{ ) &.{ $.s.c.a.7.9.a.9.a.[ x.a.x.p.7.7.8.g.s.a.c.F.l.{ a.} { &.{ c.x.l.a.p.",
"[ / { L / P / Q / Q { &.! [ &.[ { 7.9.{ { { { [ ) / / 9.a.9.] 7.a.9.a.{ F.b.U.V.a.7.( ( ( 7.a.F.J.a.l.a.a.a.{ p.{ { / / ",
"! Q [ L / W ) W / Q | $.) ) [ ) { 7.{ ] ) { $.[ Q W Q { p.{ { 9.9.{ a.{ b.b.Y.F.s.7.` T ( { p.c.Y.x.x.a.d.x.) ) { ) / / ",
"P P / L [ Q [ Q [ [ { $.| [ [ [ { 9.{ ] [ { $.{ ) Q / &.a.p.9.a.9.{ a.[ v.x.F.c.s.7.( _ 8.p.&.&.F.a.a.&.a.x./ ^ { { { { "
};
