/* XPM */
static char *result[] = {
/* columns rows colors chars-per-pixel */
"60 60 159 2 ",
"   c #16140F",
".  c #220000",
"X  c #2D0000",
"o  c #330002",
"O  c #390006",
"+  c #37010C",
"@  c #3B010C",
"#  c #3E0611",
"$  c #3D0913",
"%  c #3E1218",
"&  c #28241F",
"*  c #3D2526",
"=  c #302C26",
"-  c #3E2B29",
";  c #3B352E",
":  c #3E3A33",
">  c #40010C",
",  c #410611",
"<  c #400A14",
"1  c #440F19",
"2  c #46101A",
"3  c #4A121C",
"4  c #401B1F",
"5  c #461720",
"6  c #4B1722",
"7  c #4F1C26",
"8  c #4F1F28",
"9  c #511D26",
"0  c #53222A",
"q  c #5B232C",
"w  c #572932",
"e  c #5C2D34",
"r  c #5E2F38",
"t  c #413B33",
"y  c #5F353B",
"u  c #63343C",
"i  c #65383F",
"p  c #45413A",
"a  c #49463F",
"s  c #623740",
"d  c #663A41",
"f  c #683B41",
"g  c #4B4640",
"h  c #4F4941",
"j  c #534D45",
"k  c #555047",
"l  c #5A554C",
"z  c #5B5752",
"x  c #5A5852",
"c  c #664245",
"v  c #634748",
"b  c #6D434A",
"n  c #6D4C4F",
"m  c #70474C",
"M  c #6F4F53",
"N  c #754C52",
"B  c #6B5354",
"V  c #635D55",
"C  c #765357",
"Z  c #7B555A",
"A  c #745D5D",
"S  c #7D585C",
"D  c #676059",
"F  c #6C665D",
"G  c #6F685F",
"H  c #7D5D61",
"J  c #6D6A62",
"K  c #736D64",
"L  c #75726B",
"P  c #79746C",
"I  c #797671",
"U  c #7D7A74",
"Y  c #815C61",
"T  c #826265",
"R  c #86636A",
"E  c #88656A",
"W  c #826868",
"Q  c #817471",
"!  c #8D7374",
"~  c #837E76",
"^  c #827E79",
"/  c #927477",
"(  c #93767A",
")  c #937C7D",
"_  c #87827C",
"`  c #8A857D",
"'  c #9A7C80",
"]  c #8E8780",
"[  c #8E8A83",
"{  c #8D8E89",
"}  c #9D8385",
"|  c #938E87",
" . c #938E89",
".. c #9D8888",
"X. c #96928A",
"o. c #98948E",
"O. c #9B9690",
"+. c #9D9992",
"@. c #A28689",
"#. c #A08989",
"$. c #A49593",
"%. c #A39B96",
"&. c #AD9897",
"*. c #AD959A",
"=. c #A29E99",
"-. c #AB9D9C",
";. c #B29C9F",
":. c #A5A29B",
">. c #A9A49D",
",. c #B59EA3",
"<. c #ACA7A0",
"1. c #ACAAA3",
"2. c #B9A3A4",
"3. c #B1ABA5",
"4. c #BBA7AC",
"5. c #B3AFA9",
"6. c #BCACAB",
"7. c #B5B1AB",
"8. c #BAB5AF",
"9. c #BCB6B1",
"0. c #BDBAB4",
"q. c #C1AFB3",
"w. c #C4B4B5",
"e. c #C3BCB6",
"r. c #C4BDB8",
"t. c #C9BEBB",
"y. c #C5C3BB",
"u. c #CAC4BF",
"i. c #C7C5C0",
"p. c #CAC4C0",
"a. c #CECAC4",
"s. c #CDCDC9",
"d. c #D1C4C5",
"f. c #D0CBC5",
"g. c #D3CDC9",
"h. c #D9CECF",
"j. c #D5D1CB",
"k. c #D9D2CE",
"l. c #DCD4D2",
"z. c #DCDAD4",
"x. c #DFDFDB",
"c. c #E0D6D2",
"v. c #E1DCD6",
"b. c #E3DDDA",
"n. c #E5E2DC",
"m. c #E8E4DE",
"M. c #E6E5E1",
"N. c #EBE6E1",
"B. c #EDEAE4",
"V. c #EEEBEA",
"C. c #F1ECE6",
"Z. c #F2EEE9",
"A. c #F4F2EC",
"S. c #F8F5EF",
"D. c #F4F2F1",
"F. c #F9F6F2",
"G. c #F7FAF4",
"H. c #FCFAF5",
"J. c #FEFEFD",
/* pixels */
"@ @ > @ @ @ > > @ @ @ @ @ @ @ @ @ @ > @ @ @ @ @ @ @ @ > , @ @ @ @ @ @ @ @ @ @ @ @ @ @ @ @ @ O @ @ + + + @ @ O @ + @ @ @ ",
"@ @ @ @ @ @ @ @ > @ @ @ @ @ @ @ @ @ @ > @ @ @ > @ @ @ o X o @ > @ @ @ @ @ @ @ @ @ @ @ @ @ @ + @ @ @ # + @ @ @ @ @ @ + @ ",
"> > @ > > @ > @ @ > O > > O @ @ @ @ @ @ @ > @ > @ < o u w.E o O @ > @ @ @ @ @ @ @ @ @ @ @ @ + @ @ @ @ + + + @ @ @ + + + ",
"> > > > @ O @ > @ > @ @ @ @ @ @ @ @ @ @ @ @ @ @ @ X 7 A.J.F.t.T o > @ @ @ @ @ @ @ @ @ @ + + @ @ @ + @ @ @ @ + @ @ @ @ @ ",
"> > > > @ @ > @ > > @ @ @ @ > @ @ @ @ @ @ @ @ @ @ ' N.J.B.N.x. .9 @ @ @ @ @ @ @ @ @ @ @ + @ @ + @ + + @ @ @ + @ + @ @ + ",
"@ > O @ > > @ @ @ > @ @ O @ > @ @ > > > @ @ > o ,.J.J.J.Z.M.M.1.v X @ @ @ @ + @ @ @ @ @ @ @ @ @ @ @ @ @ + + + @ @ @ @ O ",
"> > > @ > @ > @ > @ @ > @ @ @ @ @ > O @ > @ o N J.F.J.H.z.] I z.0.b , @ @ @ @ + @ + @ + @ @ + + @ + @ @ @ @ @ + @ @ @ @ ",
"> @ @ > > > @ @ @ @ @ @ @ @ > @ @ > @ @ @ @ @ c.J.H.J.N.M.U   L V.H.( X , @ @ @ + @ @ + @ @ + @ @ @ @ @ @ + @ + + + + + ",
"> @ > > @ > > @ @ @ @ @ @ @ > @ @ @ @ @ @ X S J.J.J.J.B.D.b.g & z a.r.O @ @ @ @ @ @ @ @ @ @ @ @ + @ + @ @ @ + + @ @ + @ ",
"@ @ > > @ > @ @ @ > > @ @ > @ O @ @ @ @ > o 2.J.H.J.H.Z.Z.H.:.: = I l.6 O @ @ @ @ + + @ @ + @ @ @ + @ @ @ @ + @ @ @ + + ",
"@ @ O > @ @ > @ @ > O @ @ @ @ > > @ > > @ < c.J.J.J.J.J.J.Z.b.V : x g.i X @ @ @ @ @ @ @ @ @ @ + @ @ + @ @ + @ @ @ + + + ",
"> > @ > > @ > @ @ @ @ > > @ @ @ > @ @ @ O 0 C.J.H.J.l.*.x.J.B.O.: g 0.S X , @ @ @ @ @ @ @ @ @ + @ @ @ + @ + + + + + # @ ",
"@ @ @ > O > @ @ @ > @ @ @ > > @ @ @ @ > o i S.H.H.J.,.. @ ) M.0.j t :.! X @ @ + @ @ @ @ @ @ @ @ @ @ @ + @ + @ + + + + + ",
"> O > @ @ > > O @ @ @ @ @ > > @ @ @ @ > o N G.H.H.J.q.o @ X ) 0.P ; { ..o # @ # + @ @ @ + @ @ @ + @ + @ @ @ @ + + @ @ + ",
"> > @ @ @ > @ @ O @ @ > @ > @ @ @ @ @ , o Z S.H.H.J.p.O # O 0 O. .: I $.O @ @ @ @ @ O + @ @ @ @ @ @ + @ @ @ @ + + @ @ @ ",
"@ @ @ @ > > @ @ @ @ @ @ @ @ > O @ @ @ > o Z S.F.H.J.b.@ @ @ , I o.h P &.@ @ @ + + @ @ @ @ @ @ + @ @ + + + + + + @ + @ @ ",
"@ @ @ @ @ @ @ @ O > > @ @ O > @ @ @ @ @ o N A.S.H.H.D.6 O > @ A X.x L -.@ @ @ @ @ @ + @ @ @ @ + + + + @ + # @ O + @ + @ ",
"> > > > > @ > > > > @ @ @ @ @ @ @ @ @ # o i C.Z.F.F.J.i o > o n O.V P :.@ @ @ @ @ @ @ @ @ @ + @ @ + + + @ @ @ @ @ + @ + ",
"@ > @ @ @ @ @ @ @ > @ @ @ @ > > > @ @ @ o q n.Z.F.S.J.E o < o v :.F ~ -.@ @ + @ # + O @ @ @ + @ + @ # + @ @ + @ + + @ + ",
"O @ @ > @ @ @ @ > @ @ > @ @ @ > @ @ @ @ O 3 j.Z.S.Z.J.;.X , o c 1.G [ %.O @ + + @ + @ @ @ + + @ @ + @ O @ + @ @ + # @ + ",
"> > @ @ @ @ > @ > @ @ @ @ @ @ @ > @ @ @ @ @ e.Z.Z.A.J.h.O > o c 5.G +. .o @ @ @ @ + @ @ @ @ + + @ + + @ @ @ @ @ @ O + + ",
"> > @ > > > O > > @ @ @ @ @ @ @ @ @ @ @ @ o &.A.C.Z.H.F.9 @ o n 9.K 7.! o # @ @ @ + @ @ + @ # @ @ O + @ + @ + @ @ + + @ ",
"> @ @ > > @ @ @ > @ > > > O @ @ @ @ @ @ < o ! C.N.Z.A.J.Z o o Y 9.P y.A o @ @ + @ @ @ @ @ @ @ @ @ + # + + @ @ + # + @ + ",
"@ @ @ @ > @ @ > @ @ @ > @ > > @ @ @ @ > > o b m.m.C.B.J.&.X O / 8._ s.s X + # @ + @ @ @ @ @ O + @ @ @ @ + @ + + + @ @ + ",
"@ > @ @ @ @ @ > > @ > @ @ > > @ @ > @ > @ O 0 j.b.B.C.J.l.@ O $.5.+.a.3 O @ @ @ + @ @ + @ @ + + @ @ @ @ @ @ + + + @ @ @ ",
"> @ @ @ @ > @ @ @ @ > @ @ @ @ @ > @ @ > @ O # q.v.m.m.S.J.w , 9.1.9.8.@ @ @ + @ + @ + @ + @ @ @ @ + @ + @ + @ @ + + @ + ",
"@ > @ @ > > @ > > @ O > @ > @ @ @ @ @ @ @ > o ..z.v.m.Z.J.R 9 a.>.j...o # + @ @ @ @ @ @ @ @ @ @ @ @ @ + + # + @ + + + @ ",
"@ > @ > @ @ @ @ @ @ @ > > @ > @ > @ @ @ @ < X S j.k.n.m.J.6.C s.1.n.C X @ + @ @ @ + @ @ @ @ @ + + @ @ @ @ @ + + @ @ + @ ",
"@ @ > @ @ @ @ > @ > @ @ > @ @ @ @ @ > @ @ > O e u.f.v.m.J.V.6.y.y.z.8 o @ @ @ + O + @ + @ @ @ @ @ @ @ + + + + @ @ + @ @ ",
"@ O @ @ @ @ > @ @ @ @ @ @ @ @ @ @ > > @ @ @ @ $ 3.u.j.n.S.J.n.0.z.w.O @ @ @ @ + @ @ @ @ + @ @ + + @ + + + + + @ + + + + ",
"@ @ @ > @ @ > @ @ > > > @ @ @ @ > @ @ @ @ @ @ o ` u.f.z.Z.J.V.e.B.( o , @ @ @ @ @ + @ @ + @ @ + + @ @ + + @ + + + # @ + ",
"@ @ @ > @ O > > @ > @ > @ > @ @ O > O @ @ @ @ o N t.r.j.M.J.D.j.N.y o @ @ @ @ @ @ + @ @ @ @ @ @ + @ @ + + + # + + @ @ + ",
"@ @ @ @ > @ > @ @ @ @ > O @ @ @ @ @ @ @ @ @ > O 0 7.9.a.v.F.J.A.t.@ @ @ @ + @ @ + + @ @ + @ @ @ + @ @ @ + + @ + @ @ + @ ",
"@ @ @ @ @ @ > > @ @ @ @ @ > @ @ @ @ @ @ @ @ @ @ @ $.7.e.k.S.J.J.( X @ @ @ + @ @ @ @ + @ @ + + @ + @ @ + @ @ + + @ + + + ",
"@ > @ > @ @ @ > @ @ @ @ @ @ @ > @ @ @ @ @ @ @ @ o P 9.7.u.m.J.J.r o @ @ @ @ @ @ @ @ @ @ @ + @ + + @ O + + + @ @ + @ @ + ",
"@ @ @ @ O @ > @ > @ @ > > @ @ @ @ @ @ @ > @ @ @ o i 8.>.y.z.H.H.0 O @ @ + @ + @ @ @ @ + O @ @ @ + @ + @ + @ + + + @ + + ",
"@ > @ @ > @ > @ O @ > @ @ @ @ @ @ @ @ > @ @ @ @ O 2 :.>.7.j.C.J.W X , @ @ @ @ + @ + @ + @ @ + + + @ + @ + + # + + @ + @ ",
"@ @ > > > @ @ @ @ @ @ > @ @ @ @ @ @ @ @ @ @ @ @ @ O ` >.>.u.n.J.4.. @ @ @ + + @ + + @ @ + @ @ + @ + @ + @ + + @ # + + + ",
"> > @ > @ @ @ @ > @ @ @ > O > @ @ @ @ @ @ @ @ @ @ o C 1.+.q.z.H.M.< @ @ @ O @ @ @ @ @ @ @ + @ + + @ @ + + @ + @ + + @ O ",
"@ @ O @ @ @ @ > @ @ > @ @ > @ @ @ > @ @ @ @ @ @ @ o d 1.X.<.u.C.J.s o @ @ @ @ @ @ + + + + + + @ @ + @ + + + + @ + + + + ",
"@ > @ @ @ @ @ > @ > @ @ @ @ @ @ @ @ @ @ @ @ @ @ # X @.0.` %.y.v.J.( X # + + @ @ + @ + @ + @ + @ @ + @ @ @ + + + @ + @ + ",
"> > @ @ @ @ @ > @ @ @ @ @ @ @ @ @ @ @ @ @ @ @ @ @ o g.s.` X.8.j.H.9.X # + @ + + + @ @ @ @ @ @ + + + O + + # @ + @ + + + ",
"O @ @ @ @ @ @ @ O @ > @ @ @ @ @ @ > @ @ @ > @ @ O 2 A.b.` ` >.u.B.b.$ O @ @ + + @ + @ @ @ @ + + + + + + + @ + + + @ @ + ",
"@ @ @ @ @ @ @ @ @ @ @ @ @ @ @ @ @ @ @ @ @ @ @ @ o y J.A.| _ =.e.l.F.r o # @ @ + @ @ + + @ + @ + # @ @ + @ + + @ + + + + ",
"> @ @ @ @ @ @ @ @ @ @ @ @ @ > @ @ @ > @ @ @ @ > X H J.J.=.P +.7.f.H.S X # + + + @ + @ @ + + + + + @ O @ + + + @ + + + + ",
"@ @ @ @ @ @ @ @ @ O @ @ @ @ @ @ @ @ @ > @ @ @ < X } J.J.0.L X.3.r.A.#.X # + + + @ @ @ + + @ + @ + + + @ @ @ + @ + O + + ",
"@ > @ @ @ @ @ @ @ > @ > @ @ @ @ @ @ @ @ > @ @ @ X ,.J.J.j.K ` >.8.n.6.X @ @ @ + @ + @ @ + + @ @ @ + @ @ @ + + + + @ + # ",
"> @ @ > @ @ > @ @ @ @ @ @ @ @ @ @ @ @ > @ @ @ @ o w.J.J.N.P P :.5.k.p.+ + @ @ @ + @ + @ @ @ + + @ + + @ + + @ + + + + + ",
"> @ @ @ @ @ @ > @ @ @ @ @ > > @ @ @ @ @ @ @ @ @ o d.J.J.A._ F O.3.p.g.2 @ @ @ @ @ @ + + @ + @ + + @ @ + + + + + + @ + + ",
"> @ > @ @ @ @ @ @ @ @ @ @ @ @ @ @ @ @ @ O @ @ @ @ l.J.J.H.o.V ` <.0.j.7 o @ @ @ @ + @ @ @ @ + @ + + @ + + + + @ + + + @ ",
"@ > @ @ @ @ @ @ > > @ @ @ @ @ @ @ @ @ @ @ @ @ @ @ h.J.H.H.:.l P +.5.s.w o + @ @ + @ @ @ @ + @ + @ + @ + + + + + + @ + + ",
"@ @ @ @ > @ O > @ @ @ @ @ @ @ @ @ @ @ @ @ @ @ @ O a.J.H.J.7.l D | >.u.r o # + @ + @ + + + + + @ + + + + @ + + + + + @ # ",
"@ > > @ @ @ @ @ @ @ @ @ @ @ @ @ @ @ @ @ @ @ @ @ o 6.J.J.J.9.l z I O.0.e X # + + + @ + + @ + + + @ + + + + + @ + + @ + + ",
"@ @ @ @ @ @ @ > @ @ @ @ @ @ @ @ @ @ @ @ @ @ @ # X } J.J.J.0.l z J ] 1.0 o # @ + @ + + @ + @ @ @ @ + @ @ @ + # + @ + + # ",
"@ > @ @ @ > @ @ @ @ @ @ @ @ @ > @ @ @ @ @ @ @ @ o b G.J.J.7.k l D P  .1 O + + @ @ @ + + + @ + + + + + @ + @ + + + @ + + ",
"@ @ @ @ @ @ @ @ @ @ @ @ @ @ > @ @ @ @ @ @ @ @ @ @ $ p.A.V.=.h k l J B + + @ @ + @ @ @ @ @ + + + + @ @ + + @ + + + @ + + ",
"@ > @ @ @ > @ O @ @ @ @ > @ @ @ @ + @ @ @ @ @ @ @ o n z.a.U p g k x % o @ @ + + + @ @ + @ + + @ + @ @ + + + + + + + + + ",
"@ @ @ @ @ @ @ @ > @ @ @ @ @ @ @ @ + @ @ @ @ @ @ @ @ O B { x p g g 4 @ + @ + + + @ + @ + @ @ @ @ + + @ + + + + + + + + + ",
"> @ @ > @ @ @ @ @ > > @ @ @ @ > @ > @ @ @ @ @ @ @ + @ O % - - * $ @ @ @ + @ + + @ @ + + + + + + + @ + @ + + + @ + + + + ",
"@ @ @ > @ > > @ @ @ @ @ > @ O @ @ @ @ @ @ + @ @ + + + # O O O @ + @ + @ @ + @ @ + @ + @ @ + + + @ @ @ @ # + @ + + # + + "
};
