/* XPM */
static char *_c1500a301b1411490547eba7874085aXeiQeLyZXhINE0bX[] = {
/* columns rows colors chars-per-pixel */
"60 60 154 2 ",
"   c #0E000E",
".  c #130312",
"X  c #180715",
"o  c #170816",
"O  c #1A0916",
"+  c #1D0D19",
"@  c #1F111D",
"#  c #200F1A",
"$  c #23141D",
"%  c #27181F",
"&  c #231722",
"*  c #261922",
"=  c #2A1D25",
"-  c #271E28",
";  c #2B1F28",
":  c #2C2027",
">  c #2E232B",
",  c #2F282F",
"<  c #30262E",
"1  c #31292F",
"2  c #2F2830",
"3  c #332C33",
"4  c #392F35",
"5  c #363136",
"6  c #383437",
"7  c #373338",
"8  c #393539",
"9  c #3D3C3D",
"0  c #403F3F",
"q  c #3F403F",
"w  c #40403F",
"e  c #3E3E41",
"r  c #403E40",
"t  c #3F4042",
"y  c #434443",
"u  c #404244",
"i  c #414344",
"p  c #414445",
"a  c #424444",
"s  c #434444",
"d  c #434544",
"f  c #424445",
"g  c #424545",
"h  c #434545",
"j  c #434645",
"k  c #424446",
"l  c #424546",
"z  c #434646",
"x  c #424647",
"c  c #434647",
"v  c #424747",
"b  c #444645",
"n  c #414343",
"m  c #484347",
"M  c #434847",
"N  c #444847",
"B  c #434748",
"V  c #434848",
"C  c #434849",
"Z  c #434A4A",
"A  c #444848",
"S  c #444949",
"D  c #454949",
"F  c #44494A",
"G  c #45494A",
"H  c #46494A",
"J  c #444A4A",
"K  c #454A4A",
"L  c #444A4B",
"P  c #454B4B",
"I  c #464A4A",
"U  c #464B4A",
"Y  c #464B4B",
"T  c #454C4C",
"R  c #464C4C",
"E  c #474C4C",
"W  c #474C4D",
"Q  c #464D4D",
"!  c #474D4D",
"~  c #464D4E",
"^  c #474D4E",
"/  c #464E4E",
"(  c #474E4E",
")  c #474E4F",
"_  c #474F4F",
"`  c #454A4B",
"'  c #484C4C",
"]  c #484D4C",
"[  c #484D4D",
"{  c #4A4C4D",
"}  c #4E4D4D",
"|  c #4C4E4E",
" . c #4A4D4D",
".. c #484F50",
"X. c #4C4F50",
"o. c #494F50",
"O. c #485050",
"+. c #495151",
"@. c #4B5152",
"#. c #4B5252",
"$. c #4B5253",
"%. c #4B5353",
"&. c #4C5252",
"*. c #4C5354",
"=. c #4D5354",
"-. c #4C5454",
";. c #4D5454",
":. c #4D5455",
">. c #4D5555",
",. c #4E5455",
"<. c #4F5556",
"1. c #4F5657",
"2. c #4F5757",
"3. c #4D5354",
"4. c #4F5858",
"5. c #505453",
"6. c #505355",
"7. c #505657",
"8. c #515656",
"9. c #525758",
"0. c #515758",
"q. c #515858",
"w. c #515859",
"e. c #525858",
"r. c #525959",
"t. c #52595A",
"y. c #535A5A",
"u. c #525B5B",
"i. c #535B5B",
"p. c #525C5B",
"a. c #545B5C",
"s. c #545C5C",
"d. c #555C5D",
"f. c #545D5D",
"g. c #555D5D",
"h. c #565D5D",
"j. c #535A5A",
"k. c #5D5D5B",
"l. c #5A5D5C",
"z. c #5B615F",
"x. c #586060",
"c. c #586161",
"v. c #5B6363",
"b. c #5D6464",
"n. c #5D6565",
"m. c #5D6766",
"M. c #5B6363",
"N. c #606260",
"B. c #666864",
"V. c #777B77",
"C. c #777B76",
"Z. c #787B77",
"A. c #797C78",
"S. c #787B78",
/* pixels */
"D Q Q +.s.s.' D Q <.r.v.Q Q Q +.s.s.' D +.<.s.s.' Q Q +.s.s.Q Q Q +.s.s.' D Q <.r.v.Q Q Q +.s.s.' D +.<.s.s.' Q Q +.s.s.",
"9 n n a M *.9 n n a C <.9 n n a M *.9 9 D D a Q 9 n n a M *.9 n n a M *.9 n n a C <.9 n n a M *.9 9 D D a Q 9 n n a a <.",
"9 n n 0 w a 9 n 9 n w a 9 n n 0 n a 9 n n 9 w a 9 n n 0 w a 9 n n 0 w a 9 n 9 n w a 9 n n 0 n a 9 n n 9 w a 9 n n w 9 D ",
"3 9 9 9 n n 3 9 8 9 n n 5 9 9 9 n n 9 9 3 9 n i 5 9 9 9 n n 5 9 9 9 n n 3 9 8 9 n n 5 9 9 9 n n 9 9 3 9 n i 5 9 9 9 n a ",
": 8 3 5 8 e < 3 7 3 8 t 5 5 : 3 8 t 8 5 3 8 8 e < 7 3 5 8 e < 7 3 5 8 e < 3 7 3 8 t 5 5 : 3 8 t 8 5 3 8 8 e < 7 3 5 8 i ",
"Q r.r.D C Q <.a.s.D a Q +.r.r.D C Q <.a.s.D a Q +.r.r.D C Q Q r.r.D C Q <.a.s.D a Q +.r.r.D C Q <.a.s.D a Q +.r.r.D C Q ",
"a C <.9 n a a D ..9 n D Q a Q 9 n a a D ..9 n D Q a Q 9 n a a C <.9 n a a D ..9 n D Q a Q 9 n a a D ..9 n D Q a Q 9 n a ",
"0 0 a 8 8 b Q n a 9 n 0 9 0 a 8 8 a Q n a 9 n n 9 0 a 7 8 a n 0 a 8 8 b Q n a 9 n 0 9 0 a 8 8 a Q n a 9 n n 9 0 a 7 8 a ",
"9 n n 3 3 9 n n n 9 n 3 9 n a 3 5 9 n n n 9 9 3 9 n i 3 3 9 9 n n 3 3 9 n y i 9 n 3 9 n a 3 5 9 n n n 9 n 3 9 n a 5 5 9 ",
"5 8 n 3 5 3 3 3 9 3 3 , 5 5 9 = : = 3 5 9 3 < : 8 8 e > 3 3 5 8 t 3 5 3 3 3 9 , 2 , 8 3 9 = : = 3 3 9 3 > : 5 3 9 = < 3 ",
"a D Q Q r.7.> = : = = = , 3 5 5 5 : = 8 a n n 9 i D Q Q r.r.D a Q +.r.0.* X + + . X 6.X.X.| ' | : = : = = = * 3 5 1 ; % ",
"9 n n a C <.3 3 5 5 9 3 : 3 3 3 n 1 7 p.v.v.m.*.9 y n a C <.r w D Q a Q = ; < ; % X n 5.m.m.V.A.3 3 5 5 9 3 : e n D 9 3 ",
"9 n n 0 0 a < : 3 3 3 3 ; 3 3 , 3 , 9 D Q +.r.a.9 n n 0 w a 9 n n 9 0 a : , : * : $ 5 n 9 n 9 k.4 = 3 3 3 5 , n D C D @.",
"3 9 9 9 n n : = = = , : * , : , 3 : 3 n n n a @.5 9 9 9 n n 9 9 3 9 n n < 2 , = = $ 3 e 8 9 t I 1 * = = , : * 8 ' s.v.i ",
"= 5 : 5 8 e > 3 < = = : = : = : : : 3 n 0 n n a < 7 3 5 8 t 5 5 3 8 8 e < : > > : $ * < 3 < 5 s < 3 < * = : * < 9 N.k.3 ",
"Q 0.7.D C Q <.i.a.D a Q +.0.r.D D c > 8 3 8 9 e ..r.r.D C Q Q r.r.D a Q +.7.0.D a T 3 = = = : 5 Q r.7.D a D e 3 6 N n 3 ",
"a C <.9 n a a D ..9 n D Q a Q 9 n n : = : = ; 3 D a Q 9 n a a C <.r w D Q a Q 9 n D a 9 3 3 8 e a C <.r n 9 9 D e 8 3 9 ",
"0 0 a 8 8 b Q n a 9 n 0 9 0 a 8 8 a 3 , 5 < , 3 r 9 a 7 8 y n 0 a 9 n n 9 0 a 9 n w n D D 9 n n 0 w a 9 n 1 > n c 5 8 n ",
"9 n n 3 5 9 n n n 9 9 3 9 n i 3 3 9 9 9 e 8 9 3 9 y a 5 5 9 9 n n 9 9 3 9 y a 9 9 3 9 w i 5 9 9 9 n n 5 6 % , t n 9 9 3 ",
"5 8 t : 3 3 5 8 e 5 3 , 8 8 e : 3 3 5 8 n 5 3 < 5 3 9 = , , 5 8 e 3 5 3 5 3 9 3 3 , 5 8 e 3 7 3 5 8 e < 3 : 3 5 t 5 5 3 ",
"a D Q Q 0.r.D a Q +.<.h.D C Q Q r.r.D c +.' Q h.* X + O . X i D Q +.r.0.* * 1 5 3 = i C Q +.<.v.D c +.' ..v.D c Q Q r.r.",
"9 n n a C <.r n n a D <.r n n a C <.r n a e D <.; = < ; % X 8 n D Q a Q 5 n D y 9 > 8 n n a D <.r n a e D r.5 8 a a M 4.",
"9 n n 0 0 a 9 n 9 n 0 a 9 n n 0 0 a 9 n 9 8 9 a : , : * : $ 5 n 9 9 n i ' %.C ' I 3 8 n 9 n w a 9 n 9 8 9 a 3 5 9 n 0 D ",
"3 9 9 9 n n 3 9 8 9 n n 5 9 9 n n i 7 n 5 n b n 3 3 , : ; $ 5 n 3 9 n t 7 i.z.7.b 3 3 9 8 9 n n 5 9 5 t a n 3 5 3 5 9 a ",
": 8 3 5 8 e < 3 7 3 7 n 3 5 : 1 5 9 3 3 1 3 3 9 : : > = * + , 3 , 8 8 e * m B.9 9 : 3 5 5 3 7 n 5 8 3 5 8 e < < < 3 7 a ",
"Q r.r.D C Q <.a.a.D c D i r.7.< * ; = * * + $ : 3 n 7.+   . . . o t D Q : 3 b 9 3 9 +.0.h.D C Q <.s.s.D a Q +.r.r.<.<.v.",
"a C <.9 n a a D ..9 y A i a Q e a 9 8 , * $ : 3 9 n b +   . .   . 8 y a 8 = 5 8 9 a a D <.r n a a D ..9 n D Q a +.b M r.",
"0 0 a 8 8 b Q n a 9 +.c 9 w i 8 s.D w 3 ; + ; , 5 9 n $   . .   X 5 9 y n 5 5 9 9 9 n 0 a 8 9 a Q n a 9 n n 9 9 b n 9 D ",
"9 n n 3 3 9 n n n e ' 9 a w a 3 ' n 9 3 = X = = 8 n n : X .   . $ 1 5 9 9 y n 3 5 , 9 n a 5 5 9 n n n 9 9 3 9 n a 9 9 a ",
"5 8 t 3 5 3 3 3 9 5 9 , 9 9 9 1 a n 9 : % o * < , 5 5 < * $ $ * > ; 3 : 5 8 e < 5 : < 3 9 3 3 , 3 5 t 7 5 3 8 8 t 7 8 a ",
"a c Q +.r.<.< 7 a a a 9 n T T > 3 5 - + % 9 0.r.: = = : = ; a D Q +.0.7.D a Q +.<.s.< * ; = * + . 3 ' +.0.v.D C Q <.s.m.",
"9 n D D Q i.e r.v.v.m.*.9 n a 9 > e X + : 3 D <.3 3 5 5 9 3 8 n D D Q s.r n n a D <.i A 9 8 , = . 3 b n D <.r n a a D s.",
"9 n n n Q r.i D Q +.p.a.9 n Q a w a @ * = 3 b +., : 3 3 3 3 6 n 9 n Q r.9 n 9 n n i 9 m.M n 3 , X : e 9 n a 9 n ' a 9 C ",
"8 9 3 9 y +.8 9 n n a @.7 9 9 9 n n * : 3 9 D n : = = = < : 8 n 3 9 y +.8 8 8 9 n n 3 T n 9 3 = . X 8 e n n 5 9 9 9 n a ",
"3 3 : 8 8 t 5 n r n n a 3 7 3 5 3 9 = = : 3 8 3 = 3 < % % = , , = 8 8 i 3 3 5 3 8 9 < a n 9 : s -   * 3 8 t 3 7 3 5 8 i ",
"Q 0.r.D D D > 8 3 8 9 t +.r.i.a.' @.| ' | b a Q +.r.7.* O O + . X i c c D r.0.D a Q , 3 8 e a 4.e   . i D Q +.r.r.D C Q ",
"a C <.9 n n : = : = ; 3 D a Q D @.m.m.V.S.r n D Q a Q = ; < ; % X 8 a 9 9 D *.r w D 9 : i b w a ' + . 8 n D Q a Q 9 n a ",
"0 0 a 8 8 a 3 , 5 < , 3 n 0 a 9 9 9 n 9 k.s 9 n 9 0 a : , : * : $ 5 a < > n a 9 n 0 n n a 9 n 9 D = . 8 n 9 9 0 a 7 8 a ",
"9 n n 3 3 9 9 9 e 8 9 3 9 n a 7 9 8 9 q I e 9 3 9 n n < 2 , : = $ 3 8 * , t n 9 9 3 9 y n 3 n n 3 5 % 5 n 3 9 n a 3 5 9 ",
"5 8 e < 5 3 3 5 9 3 , : 8 8 t : , 3 < 5 i 3 3 : 8 8 e > : : = * # * 3 = 3 5 e 3 5 : 3 5 9 = 3 3 > D X.1 : = 3 3 9 > 3 , ",
"a D Q Q r.7.: * : = = = i D T 3 = = = > 5 +.<.h.D C Q Q 0.*.: = = = = : a D T <.h.a.@ : 7 9 3 : 3 c <.*.: . = 8 a n a 9 ",
"9 n n a C <.3 3 5 5 9 3 6 y a a 9 3 3 8 9 a D <.r n n a C <.5 3 5 7 9 3 6 y a a D 7.< 8 n D D > 1 D C v.5.. 7 p.v.v.m.7.",
"9 n n 0 0 a < : 3 3 3 3 6 n n n D D 9 n n n 0 a 9 n n 0 0 a < : 3 3 3 3 6 n Q a 9 a 5 a a i ;.3 5 b a s.I + 9 Y Q @.r.v.",
"3 9 9 9 n n : = = = < : 3 n 9 9 w i 5 9 9 9 n n 5 9 9 9 n n : = = = , : 3 n 9 9 n n 1 9 D h.l.: 9 ' a r.3 $ 3 n n n a <.",
"= 5 : 5 8 e > 3 < % % * = 3 , 5 8 e 3 7 3 3 8 e , 5 3 5 8 t : 3 < * % = , 3 , 5 8 e * 5 t z.b > 9 D ' ' * % 3 n 0 n w D ",
"Q 0.7.D C Q <.s.i.* O O + . X i D T <.a.s.D c +.' Q v.D C Q Q 0.r.i.' | | ' 5.D a D & * 3 9 9 : 9 n b 5 = s < 8 3 8 9 r ",
"a C <.9 n a a D ..= ; < ; % X 6 y a a D ..9 n a e D <.9 n a a C <.I @.m.m.V.Z.r 9 a t : = 7 3 ; 8 n 9 : 8 ..: = : = : 3 ",
"0 0 a 8 8 b Q n a : , : * : $ 3 9 a Q n a 9 n 9 8 9 a 7 8 a n 0 a 9 9 9 n 9 k.s q n n 9 , : * , 3 7 5 : ' e 3 , 5 < , 3 ",
"9 n n 3 5 9 n n n < 2 , = = # , 5 9 n n n 5 9 5 n b i 3 5 9 9 n n 7 9 8 9 q I e 9 3 9 y n = . & 3 3 3 3 i 5 9 9 e 8 9 3 ",
"5 8 t : 3 3 5 8 e < : > > : $ * 5 3 5 8 t 3 8 3 3 5 9 ; 1 , 5 8 n : , 3 < 5 i 7 3 , 5 5 3 * + . * 3 1 , 3 , 5 8 t 5 3 , ",
"a D Q Q 0.r.D a Q +.<.s.D D T Q r.r.D a Q +.r.7.* * 1 5 3 = i D T 3 = = = > 5 +.7.i.; 3 3 1 ; * *.@.| | ' 5.D C Q Q 7.r.",
"9 n n a C <.r n n a D <.r n y a C <.r w D Q a Q 5 n D a 9 > 8 y a a 9 3 3 8 9 a D <.3 9 n D e 3 n @.m.m.V.Z.0 n n a C 4.",
"9 n n 0 0 a 9 n 9 n 0 a 9 n n 0 w a 9 n n 9 n i ' %.C ' I 3 8 n n n D D 9 n n n 0 a 3 t D C D ' 8 q 9 n 9 k.s 9 n 0 9 D ",
"3 9 9 9 n n 3 9 8 9 n n 5 9 9 9 n n 9 9 3 9 n t 7 i.z.7.b 3 3 t 9 9 w i 5 9 9 9 n n : 7 ' s.M.n 3 9 8 9 q I 8 9 9 9 n a ",
": 8 3 5 8 e < 3 7 3 8 t 5 5 : 3 8 t 8 5 3 8 8 e * m B.9 9 : : 8 3 5 8 e 3 7 3 3 8 t ; , 9 N.k.3 = < 3 < 5 i 3 7 3 5 8 i ",
"Q r.r.D C Q <.a.s.D a Q +.r.r.D C Q <.a.s.D a Q : 3 b 9 3 9 Q r.r.D C Q <.a.s.D a +.a 3 8 b n 5 3 = = = > 5 +.r.r.D C Q ",
"a C <.9 n a a D ..9 n D Q a Q 9 n a a D ..9 w D 8 = 5 8 9 a a C <.9 n a a D ..9 n D Q n 9 8 3 9 a 9 3 3 8 t Y a Q 9 n a ",
"0 0 a 7 8 a Q n a 9 n n 9 0 a 8 8 a Q n a 9 n n n 5 5 9 9 9 n 0 a 7 8 a Q n a 9 n n 9 w D 3 3 a n N D 9 n n 9 0 a 7 8 a ",
"9 n n 3 5 9 n n n 9 9 3 9 n a 3 5 9 n n n 9 9 3 9 y n 3 5 < 9 n n 3 5 9 n n n 9 9 3 9 n i 3 5 9 9 n i 7 9 9 9 n a 3 5 9 ",
"3 5 t 3 3 , 3 5 e 3 3 , 5 5 e = > = 3 5 9 3 < : 3 5 9 : 3 = 3 5 t 3 3 , 3 5 e 3 3 , 5 5 e = > = 3 5 e , 3 3 5 5 9 : 3 3 "
};
