/* XPM */
static char *_55311ce152e4290e93008df5d6d637bZwcrUpY0hu7KN5fg[] = {
/* columns rows colors chars-per-pixel */
"60 60 227 2 ",
"   c None",
".  c #4C3D0B",
"X  c #47390E",
"o  c #503F0A",
"O  c #4E3F11",
"+  c #54430A",
"@  c #59460B",
"#  c #5D4A0C",
"$  c #5E4C12",
"%  c #574615",
"&  c #4F4010",
"*  c #614E0E",
"=  c #65510E",
"-  c #69540F",
";  c #6E580F",
":  c #614E12",
">  c #665212",
",  c #6A5512",
"<  c #6E5913",
"1  c #6E5A1C",
"2  c #67541A",
"3  c #735D13",
"4  c #745E1B",
"5  c #776015",
"6  c #7B6314",
"7  c #76611D",
"8  c #7C651B",
"9  c #4B422C",
"0  c #56492C",
"q  c #544B37",
"w  c #5A513C",
"e  c #534931",
"r  c #6E5C25",
"t  c #725E26",
"y  c #675835",
"u  c #7A6424",
"i  c #7D6823",
"p  c #75612B",
"a  c #7A652B",
"s  c #7D692A",
"d  c #766020",
"f  c #7C6A3C",
"g  c #786536",
"h  c #6F6031",
"j  c #5C5442",
"k  c #675D48",
"l  c #6C614C",
"z  c #6D6145",
"x  c #7C6D4B",
"c  c #766848",
"v  c #776B52",
"b  c #7E7155",
"n  c #846A16",
"m  c #896E17",
"M  c #846B1C",
"N  c #896E1B",
"B  c #806718",
"V  c #8C721C",
"C  c #8C741B",
"Z  c #91761B",
"A  c #95791C",
"S  c #9B7D1C",
"D  c #846C23",
"F  c #836D2B",
"G  c #886F23",
"H  c #8C7323",
"J  c #8D742C",
"K  c #887127",
"L  c #917724",
"P  c #957A24",
"I  c #9A7D23",
"U  c #937A2C",
"Y  c #9A7E2B",
"T  c #907628",
"R  c #816D33",
"E  c #816E3A",
"W  c #867134",
"Q  c #8C7533",
"!  c #8F7834",
"~  c #8A753C",
"^  c #947B32",
"/  c #997F34",
"(  c #947D3C",
")  c #957B37",
"_  c #806E45",
"`  c #867243",
"'  c #85744B",
"]  c #8A774B",
"[  c #8D7A4C",
"{  c #8B7846",
"}  c #937D44",
"|  c #937E4B",
" . c #8D7C53",
".. c #867856",
"X. c #927F53",
"o. c #8C7E63",
"O. c #9E801D",
"+. c #A3831E",
"@. c #AA891F",
"#. c #9E8124",
"$. c #9D822B",
"%. c #9F892F",
"&. c #9D8232",
"*. c #9C833B",
"=. c #9F8B31",
"-. c #A38423",
";. c #AB8B23",
":. c #A2852B",
">. c #A68A2C",
",. c #AA8C2C",
"<. c #A28825",
"1. c #B08F2B",
"2. c #B4932C",
"3. c #BD9B2B",
"4. c #B79528",
"5. c #A28633",
"6. c #A58933",
"7. c #AB8D33",
"8. c #A1863C",
"9. c #A48A3B",
"0. c #AA8D3C",
"q. c #AD9234",
"w. c #AB9239",
"e. c #B29434",
"r. c #BC9B33",
"t. c #B4953B",
"y. c #BB9B3B",
"u. c #B59839",
"i. c #AE952A",
"p. c #BDA23C",
"a. c #C09E34",
"s. c #C19D2E",
"d. c #C9A42A",
"f. c #C3A234",
"g. c #CAA534",
"h. c #CBA933",
"j. c #C9A63A",
"k. c #C8A83C",
"l. c #D1AC39",
"z. c #D9B43A",
"x. c #D8B02D",
"c. c #E6BD3A",
"v. c #EEC338",
"b. c #F0C537",
"n. c #9C8342",
"m. c #9B854D",
"M. c #978247",
"N. c #9B8554",
"B. c #958357",
"V. c #9E9059",
"C. c #A48A43",
"Z. c #A58C4C",
"A. c #A78C46",
"S. c #AD9243",
"D. c #AC914B",
"F. c #A59049",
"G. c #B49847",
"H. c #A48C52",
"J. c #A38D5B",
"K. c #AC9253",
"L. c #AB9459",
"P. c #B29A5E",
"I. c #BBA446",
"U. c #B8A65A",
"Y. c #988865",
"T. c #948A68",
"R. c #A6946C",
"E. c #B19A64",
"W. c #B9A973",
"Q. c #C8A645",
"!. c #D7B94B",
"~. c #C7AA56",
"^. c #D7B658",
"/. c #D1AC44",
"(. c #E3BC45",
"). c #E3BC4B",
"_. c #C6AA66",
"`. c #CBB46A",
"'. c #D7B968",
"]. c #C5AE76",
"[. c #DBBD75",
"{. c #C3B579",
"}. c #D9C552",
"|. c #ECC44B",
" X c #EEC443",
".X c #F4CD4B",
"XX c #ECC454",
"oX c #EAC759",
"OX c #F2CA5D",
"+X c #F1C755",
"@X c #FBD857",
"#X c #FDE55D",
"$X c #D6C677",
"%X c #D7C367",
"&X c #E8C669",
"*X c #F2CB64",
"=X c #F3CE6D",
"-X c #FBD869",
";X c #E9CC76",
":X c #F7D479",
">X c #EDD371",
",X c #FEE667",
"<X c #FFF16C",
"1X c #FFEB7A",
"2X c #FBE876",
"3X c #FEF679",
"4X c #EEE261",
"5X c #C7BA83",
"6X c #D8C988",
"7X c #DCD089",
"8X c #E8D787",
"9X c #F6DD88",
"0X c #E6DB99",
"qX c #E6CA82",
"wX c #FCE888",
"eX c #FFFB82",
"rX c #FFFE8C",
"tX c #FFF387",
"yX c #FFFD94",
"uX c #FFFE9C",
"iX c #FBF499",
"pX c #EFE390",
"aX c #FFFDA4",
"sX c #FEFDAC",
"dX c #FCF6A4",
"fX c #FEFDB1",
"gX c #F2ECA5",
/* pixels */
"                                                                                                                        ",
"                                                            R.T.b                                                       ",
"                                            W.5X6X6X7X6X6X6X7X6X$X].R.Y...b v                                           ",
"                                    Y.W.6X0XgXdXsXaXaXdXiXiXpX8X;X;X:X8X6X].R.Y.b l                                     ",
"                                W.{.6XgXfXsXaXaXuXyXiXtXtXwXwXwX9X;X'.^.^.~.`.'._.E.B.v                                 ",
"                            o.5X8X0XfXsXaXuXyXrXtXtXtX1X1X1X2X2X-X-X&X$X&X'.'.'.'._._.L.X...                            ",
"                        v T.7X8XpXfXaXuXyXrXeX3X3X<X,X,X,X,X@X@X@X+X&X-X*X-X-X:X:X:X;X[._.J. .                          ",
"                      v R.0X9X7XsXuXyXrXeX3X<X,X#X#X@X@X@X.X Xc.g.!.@X|.|.XXOX*X*X=X:X:X:X[.L.[ z                       ",
"                    v R.0XwX'.iXuXrXeX3X<X#X@X@X.X(.z.h.3.;.I M P !.r.2.f.z.(.|.XXOX*X=X:X:X[.J.[ k                     ",
"                  v R.8X$X%X$X8X3X<X,X@X.X(.l.3.-.Z n 3 3 < 3 M 7.P 3 8 V -.2.l.(.|.XX*X*X=X:X[.N.] k                   ",
"                l Y.$X`.$XiXyX2X>XoXj.2.-.V 6 3 3 8 K $.7.w.q.e.k.K # , 3 8 V -.r.z.).XXOX*X=X;X_.] _ j                 ",
"                 .`.`.8XuXrX3X,X+X!.Q.$.6 G &.w.u.q.$.H B 3 - = 6 7.H # = 3 5 B L ,.j.(.XXOX*X&X'.N.g y                 ",
"              v P._.9XyXrX3X-X).r.I V H I.I.%.M < * @ + + + + + @ = Y H # # , 3 6 N -.g.).XXOX*X&XH.f { q               ",
"              B.L.qXiXyXeX,XXXy.P 5 * $ G.3 # + + + + . . o + . + @ * H H * @ * < 3 M #.j.).XXoX'.} n.H.e q             ",
"            ..B.W.9XyXrX3XOXj.:.N < * 2 9.- = @ @ @ + . + @ @ o + # # @ D L = + @ > 3 B #.j.).XX~.f G.{ 9 q             ",
"             .B.].wXrXeX-X).e.L 8 < - 4 Y ; < # # * @ + @ # # @ @ * - * @ G P , + @ * , 5 I y.Q.( F Q.h 9 e             ",
"             . .`.wXtX1XOX/.>.H 8 3 < 7 H 3 3 = = - * @ @ = = # # - 3 < # # H Z M B B 6 5 8 G J r T *.0 9 9 j           ",
"            ] ] _.:X1X-XXXy.$.H B 6 3 8 T 6 6 < ; 3 3 = = < ; - - 3 6 6 3 6 8 < 5 M H P Y 5.0.*.i D t 0 9 9 w           ",
"            ' ' P.;X:X-X^.t.$.P V n 6 N Y n n 6 6 n B 6 6 6 6 6 6 6 n n C N > - < 3 6 6 8 N H ! a L r 0 9 9 w           ",
"            ' _ N._.&X&X!.t.:.I Z C m N $.Z C V m m m m m m m n n m C S V < 6 m Z Z A A A P P J p L F 0 e 9 j           ",
"            x ' ' K.~.^.Q.t.>.-.#.O.S P :.-.+.+.+.S S S S S S A A A S N 3 n A S S S S S I I #.Y R s U y e e j           ",
"            c V.V.[ K.~.Q.t.7.,.;.;.,.$.B N H I #.-.+.+.+.+.+.+.O.I M 3 Z S S O.O.O.+.#.#.#.$.&.! p ^ y e q             ",
"              c U.K.| K.G.t.e.,.q.e.,.+.+.A C M 8 M H P I -.+.+.I B 6 S O.S S O.+.+.-.-.-.:.:.5.( g ^ g q w             ",
"              k c H.D.n.Z.S.9.t.u.1.;.;.@.+.+.+.+.S C m B M V P V C O.O.O.S S O.+.+.-.-.-.:.5.8.( g Q g w w             ",
"              k z x m.A./ *.D.t.,.-.-.-.+.+.+.O.O.S O.O.+.O.A A S +.+.+.O.O.+.+.-.-.#.#.:.5.6.8.( g g y w               ",
"                k c ' N.S.:.A.0.6.:.-.-.-.-.-.+.+.O.O.+.+.@.@.+.#.-.+.+.+.+.+.-.-.#.#.$.:.5.9.n.{ E g k                 ",
"                  l x ' H.0.*.D.0.6.>.:.-.-.-.-.+.+.+.+.+.+.+.+.#.-.O.S O.-.-.-.-.#.$.$.5.8.C.} ~ f k j                 ",
"                    l x [ Z.5.C.S.0.7.6.:.-.-.-.-.-.O.S S O.+.+.#.$.-.S O.-.-.-.:.:.5.5.9.C.} ~ _ k j                   ",
"                      l ' X.A.*.Z.S.S.9.5.:.$.$.#.I I I I I #.-.-.$.:.:.>.>.>.6.6.9.9.C.C.} ( _ k j                     ",
"                        l b X.n.n.Z.D.S.0.5.5.&.$.Y Y I I I #.:.,.6.&.6.9.9.9.9.C.n.n.} } } x k                         ",
"                          l v ..} | H.D.D.A.9.8.&.&.&.Y Y $.5.0.0.$.:.:.>.5.5.5.*.*.n.{ | x k                           ",
"                              c x ' M.m.H.K.D.A.C.C.8.8.8.C.C.8.:.0.S.D.D.D.Z.Z.m.| ' ' v k                             ",
"                          [ ( ! F f { } | m.m.Z.Z.Z.Z.Z.C.8.8.C.D.K.K.K.J.J.N.X.' x c '                                 ",
"                    G ( S.0.>.N K J &.$.$.n.} } | M.m.m.m.m.N.N.N.N.B.B.X. .[ W g u p ~.` y                             ",
"                  i H A.t.7.t.-.D 3 7 I O.5.9.&.&.Q g ~ Z.| | | n.{ ` n.A.( U L ! R J R ! W g g ~                       ",
"                4 < N 9.t.w.e.0.8 < 3 3 M 5./ 5.5.8 > d Q.Q.y.a.,.>.0.t.Y L P -.#.F U ! P S I Y ^ ! 6.e.                ",
"              > * : , H w.9.T U D M 8 5 8 Q i N 8 # t W r.j.j.g.2.,.u.e.M N P >.I B 5 N +.+.+.O.-.P :.$.h               ",
"              $ @ > D =.i # : Q ~.Z.` _ f f Q D 1 , r ! L P :.M 3 5 ^ 9.6./ 0.Q.u.8 6 4 V A S #.I I -.A H a             ",
"            t @ # 8 H I.7 + r [ U.%XG.n.( ~ U.s % $ D a.% 1 g.4 . % 8 r.2 X L u.6.) J u 8 6 M / U 4.A n B i             ",
"            2 + @ 3 $.j.B + t ' [ S.6.:.Y ( 4X>.$ J 2.x.> I c.+.+ G ,.x.< X 6 h.R &.L H N 3 $ F 5.2.-.M 6 r g           ",
"            s : * T 0.a.I 5 W ] [ D.Q.Q.t.F.#XC & D 3.4.@ V d.m . 7 4.;.. O @ g.Q H A H N V 8 J / &.P M 3 t R           ",
"            9./ Y 7.9.r.2.6.*.[ x Z.|.|.(.~.}.: & H O.8 X 1 A : & D A < . $ . L Q J 7.e.r.l.f.:.K U G 6 6 s f           ",
"            u ^ S.0.$.>.r.Y Q [ c { (. X(.!.k.D 1 3 6 4 t 7 6 7 d 4 6 u u 4 u U R W y.t.7.,.2.1.&./ i G J F f           ",
"          : # d C.D.G.y.Q.G u _ c c /. X Xz.3.-.#.I #.$.$.I V P #.:.#.$.I #.$.$.! W ( *.,.:.L $.6.:.Y U F < p           ",
"        , # * : 8.^./././.:.J ` x c G.v.c.c.c.c.l.u.0.n.n.F , < i n.Z.*.M 6.e.w.&.U 7.5.i H Y 5.U U T H 7 # $ $         ",
"        G = * , S.G.! e.Q.:.9.D.x c ( 4.s.3.s.r.7.:.$.J 8 3 3 6 V G.S.8 M -.;.Y K D B D F F ^ F 2 > 8 N > * * * 1       ",
"          7 > 5 H D p T 6.F ' I.} N.E 6 m Z -.a.z.z.f.0.H 3 5 -.r.}.$.8 B :.&.5 3 3 1 7 J s U J t 3 D 8 , = = 8 !       ",
"            5 N B B ! Y M 2 R C.M.m.~ V m 4.c.v.v.v.v.c.h.q.p.$.e.y.P #.2.6.M 3 5 5 5 t D s T J J Y H 3 3 = u } W       ",
"                M M $.$.5 i , g } ^ Y #.>.l.c.v.b.b.b.b.v.z.f.-.h.h.>.P -.;.A B 6 6 6 7 a D Y ^ G L 7 3 8 8 R R         ",
"                          D = a / :.Y a &.G.Q.z.z.l.x.x.d.h.4.3.x.<.B M -.4.;.#.G 6 6 i ` u 7 t                         ",
"                                7.e.I i *.}.z.p.>.Y T f.r.f.f.h.2.3.d.3.+.#.Z M L D 6 u c                               ",
"                                          !.i.I #.T F p.                                                                ",
"                                                                                                                        ",
"                                                                                                                        ",
"                                                                                                                        ",
"                                                                                                                        ",
"                                                                                                                        ",
"                                                                                                                        ",
"                                                                                                                        ",
"                                                                                                                        "
};
