/* XPM */
static char *a6428c4854a14294aa28b301a47fe5c9QKTd7LS3ppWRQfQi[] = {
/* columns rows colors chars-per-pixel */
"60 60 195 2 ",
"   c #020201",
".  c #0E0503",
"X  c #140302",
"o  c #1C0304",
"O  c #130D09",
"+  c #1B130D",
"@  c #17120E",
"#  c #1B1612",
"$  c #1E1A16",
"%  c #230203",
"&  c #2C0202",
"*  c #2C0907",
"=  c #2B0A09",
"-  c #320101",
";  c #3B0202",
":  c #3C0F0B",
">  c #350D0B",
",  c #37110E",
"<  c #231B15",
"1  c #291C15",
"2  c #241E1A",
"3  c #291F19",
"4  c #271613",
"5  c #331714",
"6  c #3C1512",
"7  c #341A16",
"8  c #3B1A15",
"9  c #331E19",
"0  c #3A1D19",
"q  c #26211C",
"w  c #2B231D",
"e  c #32251E",
"r  c #3A251E",
"t  c #32281F",
"y  c #272220",
"u  c #2C2521",
"i  c #2E2924",
"p  c #322721",
"a  c #3C2522",
"s  c #342A24",
"d  c #392C26",
"f  c #352D29",
"g  c #382E29",
"h  c #35302B",
"j  c #39302B",
"k  c #3E3B37",
"l  c #3E3838",
"z  c #3B3734",
"x  c #440303",
"c  c #4C0202",
"v  c #430807",
"b  c #490708",
"n  c #440C0A",
"m  c #4A0909",
"M  c #4F0806",
"N  c #520202",
"B  c #5B0201",
"V  c #5A0D07",
"C  c #44120E",
"Z  c #4B110E",
"A  c #561209",
"S  c #431411",
"D  c #431A15",
"F  c #471A15",
"G  c #630102",
"H  c #6B0102",
"J  c #690C06",
"K  c #740102",
"L  c #7B0103",
"P  c #791307",
"I  c #44231E",
"U  c #433E3B",
"Y  c #3F403A",
"T  c #45403D",
"R  c #45413E",
"E  c #43403B",
"W  c #4C433D",
"Q  c #4C4542",
"!  c #4B4542",
"~  c #474141",
"^  c #504742",
"/  c #544B45",
"(  c #534E4A",
")  c #59524E",
"_  c #5F5D5A",
"`  c #5C5B57",
"'  c #615E5C",
"]  c #64615E",
"[  c #69615E",
"{  c #6C6663",
"}  c #676360",
"|  c #706865",
" . c #706762",
".. c #71706E",
"X. c #840202",
"o. c #8D0102",
"O. c #8D0902",
"+. c #930102",
"@. c #9B0302",
"#. c #970903",
"$. c #9D0A03",
"%. c #951807",
"&. c #861B09",
"*. c #A30A03",
"=. c #AF0C04",
"-. c #A60604",
";. c #B10D04",
":. c #AF1404",
">. c #A71506",
",. c #B31504",
"<. c #B91604",
"1. c #BB1D05",
"2. c #B01A09",
"3. c #A6260A",
"4. c #B72306",
"5. c #BD2406",
"6. c #BA2C0C",
"7. c #B3210A",
"8. c #B3320B",
"9. c #BE3B11",
"0. c #C21D05",
"q. c #C32206",
"w. c #C42B06",
"e. c #CB2C07",
"r. c #C42909",
"t. c #D02E07",
"y. c #CE3507",
"u. c #CE3409",
"i. c #CD3C0B",
"p. c #C73207",
"a. c #D03507",
"s. c #D43C0A",
"d. c #D63908",
"f. c #CD440C",
"g. c #CC4D0E",
"h. c #DC4507",
"j. c #DD4D07",
"k. c #D3420C",
"l. c #DA440A",
"z. c #D54D0C",
"x. c #DD4B0A",
"c. c #DD530B",
"v. c #DD5B0E",
"b. c #CF4310",
"n. c #D44A13",
"m. c #D74712",
"M. c #CC581A",
"N. c #D55311",
"B. c #DD5911",
"V. c #E14B07",
"C. c #E24C09",
"Z. c #E3540A",
"A. c #E3590E",
"S. c #E75508",
"D. c #E35B10",
"F. c #DD631A",
"G. c #EA630B",
"H. c #E8650E",
"J. c #F1720C",
"K. c #E26114",
"L. c #EC6C13",
"P. c #E76714",
"I. c #EE7216",
"U. c #F17A16",
"Y. c #F4801B",
"T. c #B9B8B6",
"R. c #BEBDBB",
"E. c #C3BEBE",
"W. c #C4C1BF",
"Q. c #C1BFC0",
"!. c #C5C3C2",
"~. c #CECAC9",
"^. c #DBDBDA",
"/. c #E1DFDD",
"(. c #E1E0DE",
"). c #E1DFE0",
"_. c #E2E1E1",
"`. c #EAE9E7",
"'. c #F7FBFA",
"]. c #F9FBFA",
"[. c gray98",
"{. c #FBFBFB",
"}. c #FAFAF9",
"|. c gray99",
" X c #FDFDFD",
".X c #FFFFFD",
"XX c #FEFEFC",
"oX c #FDFFFE",
"OX c #FEFEFE",
"+X c #FEFFFF",
"@X c white",
"#X c #FEFEFF",
"$X c #FDFDFE",
"%X c #FFFFFF",
"&X c #F6F6F6",
/* pixels */
"@X@X@X@X@X@X@X@X@X@X@X@X@X@X@X@X@X@X@X@X@X@X@X@X@X@X@X@X@X@X@X@X@X@X@X@X@X@X@X@X@X@X@X@X@X@X@X@X@X@X@X@X@X@X@X@X@X@X@X@X",
"@X@X@X@X@X@X@X@X@X@X@X@X@X@X@X@X@X@X@X@X@X@X@X@X@X@X@X@X@X@X@X@X@X@X@X@X@X@X@X@X@X@X@X@X@X@X@X@X@X@X@X@X@X@X@X@X@X@X@X@X",
"@X@X@X@X@X@X@X@X@X@X@XXX@X@X@X@X@X@X@X@X@X@X@X@X@X@X@X@X@X@X@X@X@X@X@X@X@X@X@X@X@X@X@X@X@X@X@X@X@X@X@X@X@X@X@X@X@X@X@X@X",
"@X@X@X@X@X@X@X@X@X@X@X@X@X@X@X@X@X@X@X@X@X@X@X@X@X@X@X@X@X@X@X@X@X@X@X@X@X@X@X@X@X@X@X@X@X@X@X@X@X@X@X@X@X@X@X@X@X@X@X@X",
"@X@X}.}.}.}.}.}.@X@X@X@X@X@X@X@X@X@X@X@X@X@X@X}.}.{.}.}.}.}.}.'.|.@X@X@X@X}.}.}.}.}.}.{.}.{.}.'.}.}.}.}.}.}.@X@X@X@X@X@X",
"@X..k ! T E U U T / ^ ^ ^ ^ W T ) ! Q ) ( / U U T ~ ! T T k k U U / ^ ^ W k U U T U Q T z ! T T U T U l T Y W ~.@X@X@X@X",
"@X` < p w w w 3 # 2 < < < 2 < # w < 3 w 3 w # p w w w w w < u w # < 2 < + w p w e e e w 2 p w w w e < w e $ O E.@X@X@X@X",
"@X{ q s p p s e q u 2 q u s u q s w s s p t p s u p p u p w s p 3 h f f u q q q q q w 3 u s e p p s w i s w w !.@X}.@X@X",
"@X} 3 p w p p w i d q f d s t q s w < w 3 q q s s s p s s q p e 2 s w e 3 q u 2 u u f w w s w u p p q u p 3 3 E.@X@X@X@X",
"@X' 3 s p p p w q p < u w w q 3 s q u f p s 2 3 3 q 3 3 w < q q q w q q 2 f d q f s s e w s p p p s 3 2 w w # W.@X@X@X@X",
"@X' 1 p p p w w < u q u w w q q g q u p u e < s s r 7 7 5 4 r a d f s f w q w < u w w 3 q s p p p w q f f g w !.@X@X@X@X",
"@X_ 3 s p p s w w g p s s s s 2 w < q s p p q r , * % o o X X o = r p p 3 2 u u u u u q q s p p p s q u p u < W.@X@X@X@X",
"@X] w s p p s w w s w e p w w q u q u p w e 8 * X o % & - - - - % * 0 e 3 u s p p s s w u s p p p s q u p s 1 !.@X@X@X@X",
"@X_ + q w q 3 < u d p s p s p q g w $ u 3 > & o ; N B N c N N N x - & 6 3 u s e w p u q 2 q 3 w 3 3 < s s p 1 W.@X@X@X@X",
"@X' 2 p f w w u 3 u w w e w 3 3 s q u d S & x H X.+.@.o.o.o.o.L K G c ; : p s s p p s u 3 s u f < s q w w u < !.@X@X@X@X",
"@X{ w p p q u e < u i w $ w w 2 u 2 3 C - N X.@.=.-.@.:.1.1.=.-.+.X.K B ; 8 w w q q w q u d w s 3 s 3 2 u w O W.@X@X@X@X",
"@X] 3 p p w 2 2 u f s d q s s 2 u w 6 ; N X.+.;.*.$.w.l.l.l.h.d.<.*.X.H N v r i u $ u q u s w p 2 2 3 f s s # !.@X@X@X@X",
"@X' 3 s s 3 i s u p e p 3 s w u j r b x X.+.*.<.4.G.G.A.B.x.s.x.j.q.*.X.B x F r s 3 f p u p p p 3 f w w u p + !.@X@X@X@X",
"@X_ q s s 3 s w u s p s w f e q s C x G @.@.u.V.J.x.z.A.A.A.x.u.5.s.0.@.K x v D w 3 s w i s p p 3 s 3 s p s + !.@X@X@X@X",
"@X_ + 3 w 3 2 2 $ 3 3 w 2 q < 2 a v c L +.q.C.S.Z.f.P.k.i.b.B.H.d.5.w.<.+.G ; F p u f w $ 3 < w 2 q < 2 w q # !.@X@X@X@X",
"@X| < q s s s w w f p s s s u q I x B L #.d.Z.c.N.v.6.B v J 6.L.L.G.y.e.*.X.c n r q s w q s 2 f s s 3 u f f w !.@X@X@X@X",
"@X{ < w s e s w u s w p e w e < 6 c G X.,.x.I.A.n.6.V o o % B 6.D.v.S.d.1.o.G n r u g w u p q f e s w u e w 1 W.@X@X@X@X",
"@X| < u p w u w p s s s s s p 2 S c H #.0.k.Y.g.9.G o       & >.n.z.Z.C.e.+.H v 3 2 w < w s w p w e w s p f 1 !.@X}.@X@X",
"@X{ 1 3 q w u 2 3 w q w w w q e D c K *.e.h.U.M.8.- .       o %.x.k.k.S.e.+.H M a u s u u s < y w i $ w u w < W.@X@X@X@X",
"@X{ < w f p s p 2 u u q w u q 1 D N K *.t.j.L.M.s.V X     . o 3.i.7.i.S.q.o.G M r p s w q s 3 g p d w 2 u u # W.@X@X@X@X",
"@X| 1 w s u p q u g s s s s s 3 D N K #.0.x.A.F.8.&.o X . % J l.K.2.y.s.,.X.c v e p p w i s 3 s w s 3 i s f 3 !.@X@X@X@X",
"@X] + 2 s s s w u s p w e e e $ 9 b H O.,.a.A.z.g.3.P A V %.s.P.I.5.p.q.*.K x S p p p w q q < s p s w s p p < !.@X}.@X@X",
"@X{ < q u w w q u s p p p p w q d Z N K *.,.V.c.z.D.r.s.k.m.Z.U.H.e.5.:.X.H x D p w p w 2 s 2 w w w 3 s p s 3 W.@X}.@X@X",
"@X{ 1 q q p q 2 w s p p p p p u s 0 M B X.@.2.C.x.c.c.N.v.K.H.J.x.,.,.#.L G b r p u p w u s < u u q 2 i s p 1 !.@X@X@X@X",
"@X| 1 w h s d p $ 3 w w $ q 2 2 s p F N G +.o.>.u.y.a.s.k.f.x.S.4.*.@.X.K N D p p p s w u s q j s s w 2 q u + R.@X@X@X@X",
"@X[ + 2 w 3 3 < q f s p q g s q s p e Z N B +.@.,.a.C.S.l.y.u.1.,.$.L K B Z e e e p p q q p 3 s w e 3 u f g < T.@X@X@X@X",
"@X_ 2 s i i i w u s s w q f e q p u p 0 x x c K o.*.5.y.y.1.;.,.$.H N N v 1 3 w u $ w 3 # w 2 u w w $ p s s + T.@X@X@X@X",
"@X{ w p p p s w q u w q 2 p w $ w < 2 s 0 b c N H L K L o.+.O.L G c c C 1 i s s s q j p u g s s s d w w e p + T.@X@X@X@X",
"@X' 3 p p p w q $ u 2 3 w u q q j w u f s r n x N G K K K G B N c b D p q s p w p < w q u p w p e w 3 2 u w O Q.@X@X@X@X",
"@X] 3 s p p p w i g q s s s p q s w s s s s < 5 6 n b N M M v n S 9 s s w u s p t < u q i s s s p s w f f s # !.@X@X@X@X",
"@X] q s p s s p u s 3 p e p w 3 s w 3 q q 3 $ h f d e 7 I 8 0 e p 2 s p 3 u s e p q j e 2 w 3 q 3 q < u w p + !.@X@X@X@X",
"@X' # q 2 2 w < u d q s s p p u s 2 q s i s q s e p q y p 3 f s e 3 d s w w e w w 2 p 1 3 f s u u s q s s s + !.@X@X@X@X",
"@X| 2 s 2 i s u 2 e < q w w w 2 s w u p p p u s p p q u d 3 2 q 3 q 3 3 $ 2 3 $ s w w 2 u s p p p s w 2 q 3 # !.@X@X@X@X",
"@X .< s q s s u 2 w w u u i u q s w q s p p 3 s p p w i s 3 i s p g 3 s u s p y g s s p u p p w p t 3 u s s w !.@X@X@X@X",
"@X{ + s 2 p p w u s s s s p p 3 3 $ u s p s u s e p q u s w s p w p 3 p 3 u w u s t p w q p w p p p w s p u < W.@X@X@X@X",
"@X| 1 s w f s e u d p s s p p q j u 2 w w 3 2 f p s w f d q f s p d 3 y 2 i s q w 3 w < w s p s p s w i s s 3 !.@X@X@X@X",
"@X`./.(./._.(.(._.(.(.(.(.(.(./.).^.^.^.^.^.^.(./.(./.^.(.^._.(._.(./._._.(.(.^.^.^.^.^.^.(.(./.(././.(.(.(./.&X@X@X@X@X",
"@X@X@X@X@X@X@X@X@X@X@X@X@X@X@X@X@X@X@X@X@X@X@X@X@X@X@X@X@X@X@X@X@X@X@X@X@X@X@X@X@X@X@X@X@X@X@X@X@X@X@X@X@X@X@X@X@X@X@X@X",
"@X@X@X@X@X@X@X@X@X@X@X@X@X@X@X@X@X@X@X@X@X@X@X@X@X@X@X@X@X@X@X@X@X@X@X@X@X@X@X@X@X@X@X@X@X@X@X@X@X@X@X@X@X@X@X@X@X@X@X@X",
"@X@X@X@X@X@X@X@X@X@X@X@X@X@X@X@X@X@X@X@X@X@X@X@X@X@X@X@X@X@X@X@X@X@X@X@X@X@X@X@X@X@X@X@X@X@X@X@X@X@X@X@X@X@X@X@X@X@X@X@X",
"@X@X@X@X@X@X@X@X@X@X@X@X@X@X@X@X@X@X@X@X@X@X@X@X@X@X@X@X@X@X@X@X@X@X@X@X@X@X@X@X@X@X@X@X@X@X@X@X@X@X@X@X@X@X@X@X@X@X@X@X",
"@X@X@X@X@X@X@X@X@X@X@X@X@X@X@X@X@X@X@X@X@X@X@X@X@X@X@X@X@X@X@X@X@X@X@X@X@X@X@X@X@X@X@X@X@X@X@X@X@X@X@X@X@X@X@X@X@X@X@X@X",
"@X@X@X@X@X@X@X@X@X@X@X@X@X@X@X@X@X@X@X@X@X@X@X@X@X@X@X@X@X@X@X@X@X@X@X@X@X@X@X@X@X@X@X@X@X@X@X@X@X@X@X@X@X@X@X@X@X@X@X@X",
"@X@X@X@X@X@X@X@X@X@X@X@X@X@X@X@X@X@X@X@X@X@X@X@X@X@X@X@X@X@X@X@X@X@X@X@X@X@X@X@X@X@X@X@X@X@X@X@X@X@X@X@X@X@X@X@X@X@X@X@X",
"@X@X@X@X@X@X@X@X@X@X@X@X@X@X@X@X@X@X@X@X@X@X@X@X@X@X@X@X@X@X@X@X@X@X@X@X@X@X@X@X@X@X@X@X@X@X@X@X@X@X@X@X@X@X@X@X@X@X@X@X",
"@X@X@X@X@X@X@X@X@X@X@X@X@X@X@X@X@X@X@X@X@X@X@X@X@X@X@X@X@X@X@X@X@X@X@X@X@X@X@X@X@X@X@X@X@X@X@X@X@X@X@X@X@X@X@X@X@X@X@X@X",
"@X@X@X@X@X@X@X@X@X@X@X@X@X@X@X@X@X@X@X@X@X@X@X@X@X@X@X@X@X@X@X@X@X@X@X@X@X@X@X@X@X@X@X@X@X@X@X@X@X@X@X@X@X@X@X@X@X@X@X@X",
"@X@X@X@X@X@X@X@X@X@X@X@X@X@X@X@X@X@X@X@X@X@X@X@X@X@X@X@X@X@X@X@X@X@X@X@X@X@X@X@X@X@X@X@X@X@X@X@X@X@X@X@X@X@X@X@X@X@X@X@X",
"@X@X@X@X@X@X@X@X@X@X@X@X@X@X@X@X@X@X@X@X@X@X@X@X@X@X@X@X@X@X@X@X@X@X@X@X@X@X@X@X@X@X@X@X@X@X@X@X@X@X@X@X@X@X@X@X@X@X@X@X",
"@X@X@X@X@X@X@X@X@X@X@X@X@X@X@X@X@X@X@X@X@X@X@X@X@X@X@X@X@X@X@X@X@X@X@X@X@X@X@X@X@X@X@X@X@X@X@X@X@X@X@X@X@X@X@X@X@X@X@X@X",
"@X@X@X@X@X@X@X@X@X@X@X@X@X@X@X@X@X@X@X@X@X@X@X@X@X@X@X@X@X@X@X@X@X@X@X@X@X@X@X@X@X@X@X@X@X@X@X@X@X@X@X@X@X@X@X@X@X@X@X@X",
"@X@X@X@X@X@X@X@X@X@X@X@X@X@X@X@X@X@X@X@X@X@X@X@X@X@X@X@X@X@X@X@X@X@X@X@X@X@X@X@X@X@X@X@X@X@X@X@X@X@X@X@X@X@X@X@X@X@X@X@X",
"@X@X@X@X@X@X@X@X@X@X@X@X@X@X@X@X@X@X@X@X@X@X@X@X@X@X@X@X@X@X@X@X@X@X@X@X@X@X@X@X@X@X@X@X@X@X@X@X@X@X@X@X@X@X@X@X@X@X@X@X",
"@X@X@X@X@X@X@X@X@X@X@X@X@X@X@X@X@X@X@X@X@X@X@X@X@X@X@X@X@X@X@X@X@X@X@X@X@X@X@X@X@X@X@X@X@X@X@X@X@X@X@X@X@X@X@X@X@X@X@X@X",
"@X@X@X@X@X@X@X@X@X@X@X@X@X@X@X@X@X@X@X@X@X@X@X@X@X@X@X@X@X@X@X@X@X@X@X@X@X@X@X@X@X@X@X@X@X@X@X@X@X@X@X@X@X@X@X@X@X@X@X@X"
};
