/* XPM */
static char *_677eae43be947f59278925a6818cbf97rcRzp3iPgvi5CJn[] = {
/* columns rows colors chars-per-pixel */
"60 60 256 2 ",
"   c #123700",
".  c #2A3D03",
"X  c #0E1D00",
"o  c #483801",
"O  c #543D00",
"+  c #483609",
"@  c #643F00",
"#  c #1B4500",
"$  c #1D5400",
"%  c #244B00",
"&  c #2B4E02",
"*  c #264501",
"=  c #394C01",
"-  c #2C5403",
";  c #2C5B04",
":  c #2B5707",
">  c #325505",
",  c #335A05",
"<  c #32550B",
"1  c #3B550A",
"2  c #345C0C",
"3  c #3B5C0D",
"4  c #3B5703",
"5  c #355C13",
"6  c #3B5D13",
"7  c #3B5C19",
"8  c #3B5515",
"9  c #3A4B11",
"0  c #35630C",
"q  c #3B620D",
"w  c #376809",
"e  c #356311",
"r  c #3C6413",
"t  c #3C6A14",
"y  c #3D641A",
"u  c #3E6B19",
"i  c #346A12",
"p  c #3E741B",
"a  c #3E7117",
"s  c #2D6109",
"d  c #3D6421",
"f  c #474602",
"g  c #5B4501",
"h  c #5C4B02",
"j  c #564605",
"k  c #455708",
"l  c #58570B",
"z  c #494917",
"x  c #475917",
"c  c #585B16",
"v  c #504A1A",
"b  c #644D02",
"n  c #684A02",
"m  c #6B5302",
"M  c #685607",
"N  c #755806",
"B  c #685715",
"V  c #765A14",
"C  c #704500",
"Z  c #46650B",
"A  c #5A6807",
"S  c #426415",
"D  c #4C6314",
"F  c #426A16",
"G  c #42651A",
"H  c #4C641C",
"J  c #446B1C",
"K  c #4A6D1C",
"L  c #496A15",
"P  c #546B1C",
"I  c #586619",
"U  c #44721C",
"Y  c #4B731C",
"T  c #487618",
"R  c #53721E",
"E  c #55791E",
"W  c #7A630C",
"Q  c #786306",
"!  c #68651A",
"~  c #7A6617",
"^  c #6A7417",
"/  c #595925",
"(  c #594E20",
")  c #675826",
"_  c #725D21",
"`  c #456C22",
"'  c #4B6D23",
"]  c #4B6B2A",
"[  c #476624",
"{  c #536E23",
"}  c #576A27",
"|  c #457323",
" . c #4C7323",
".. c #4C7A23",
"X. c #4E742A",
"o. c #487A27",
"O. c #527424",
"+. c #5A7324",
"@. c #537A24",
"#. c #52752A",
"$. c #5B762B",
"%. c #547B2B",
"&. c #5B7C2C",
"*. c #597D26",
"=. c #567C32",
"-. c #5A7D33",
";. c #577634",
":. c #596B32",
">. c #676825",
",. c #7D6A24",
"<. c #766A27",
"1. c #667629",
"2. c #78772B",
"3. c #696A33",
"4. c #756A35",
"5. c #657A35",
"6. c #787734",
"7. c #717E43",
"8. c #825B01",
"9. c #815D13",
"0. c #866708",
"q. c #846B1C",
"w. c #866918",
"e. c #936C19",
"r. c #8A7214",
"t. c #8A721B",
"y. c #937B1D",
"u. c #967718",
"i. c #8F700B",
"p. c #A37E1A",
"a. c #AA7A0E",
"s. c #876C25",
"d. c #8B7524",
"f. c #8B7429",
"g. c #877529",
"h. c #937424",
"j. c #95762A",
"k. c #937C2D",
"l. c #997926",
"z. c #856E35",
"x. c #847334",
"c. c #897837",
"v. c #937C34",
"b. c #9C7C32",
"n. c #927B39",
"m. c #A37C29",
"M. c #A57B25",
"N. c #A87F32",
"B. c #927C45",
"V. c #55811D",
"C. c #4D8228",
"Z. c #54832B",
"A. c #5B812D",
"S. c #568628",
"D. c #5C8334",
"F. c #5C8B34",
"G. c #5E8339",
"H. c #568935",
"J. c #5E9237",
"K. c #61832D",
"L. c #628929",
"P. c #648434",
"I. c #638A34",
"U. c #61853B",
"Y. c #638B3A",
"T. c #6B8938",
"R. c #798537",
"E. c #6A943D",
"W. c #649339",
"Q. c #718E36",
"!. c #5F8C41",
"~. c #688B44",
"^. c #6B9343",
"/. c #679843",
"(. c #739A4A",
"). c #759847",
"_. c #798C46",
"`. c #7CA854",
"'. c #73A34B",
"]. c #9D811C",
"[. c #A1811E",
"{. c #9B8224",
"}. c #9D832A",
"|. c #9A8728",
" X c #898539",
".X c #9C8334",
"XX c #9C833D",
"oX c #968638",
"OX c #8F8E2F",
"+X c #A4832C",
"@X c #A58728",
"#X c #B59529",
"$X c #A48B33",
"%X c #A3833A",
"&X c #A38B3C",
"*X c #A88637",
"=X c #AB943B",
"-X c #B69738",
";X c #B18C2E",
":X c #B7A03A",
">X c #C39834",
",X c #C2A537",
"<X c #898444",
"1X c #988645",
"2X c #989654",
"3X c #90944B",
"4X c #A28B44",
"5X c #A68B48",
"6X c #AB944A",
"7X c #A89246",
"8X c #B49648",
"9X c #A99754",
"0X c #B59C56",
"qX c #AB8D49",
"wX c #85AB5A",
"eX c #96A44C",
"rX c #BBA548",
"tX c #B6A659",
"yX c #ABAA58",
"uX c #BEA665",
"iX c #B7B66C",
"pX c #8BB562",
"aX c #C5A948",
"sX c #C7AD59",
"dX c #CAB453",
"fX c #D8BA55",
"gX c #D9B550",
"hX c #E4B954",
"jX c #CAB667",
"kX c #D5BC6B",
"lX c #C8AF6F",
"zX c #E3BA6A",
"xX c #BFC36E",
"cX c #DBC257",
"vX c #E4C95A",
"bX c #DBC468",
"nX c #C8CA76",
"mX c #D8C879",
"MX c #D2D57B",
"NX c #E8C668",
"BX c #E5CA75",
"VX c #E8D579",
"CX c #F4D470",
"ZX c #F9E67A",
"AX c #D2BC80",
"SX c #DECE86",
"DX c #E9D687",
"FX c #F3D78A",
"GX c #FDE886",
"HX c #FDF48A",
"JX c #E8EC92",
"KX c #FEE899",
"LX c #FCFA97",
"PX c #E5E58B",
"IX c #FEFEA3",
"UX c #FFEBA7",
/* pixels */
"J J %.I.I.Y. .% r @. . .Y.A.K D.Y @.@.# (.=.* !.] ] ] G J O.&.&.H 5.$.^.K e % %.t |  .S S P 1.1.*.q A.T T , %.q Y.#. . .",
"D.#.@. .F  .%.r  .&. .J K J r F @.Y F - (.~.* d ] ;.;.< - K 3 & 3 H = G - 2 - F.; u  .J 3 > = * q - Z - , % q -  ., r (.",
"E.A.O.F - S %.@.F K O.K 2 F K 2 ..F q J D.~.< 7 ] 8 X.8 x $.< 3 6 x * 6 6 ` y ~././.%.2 - S &.T.q Z Y q @.F @.A.J - % : ",
"D. . . .r K #.K , q %.%.r  .&.2 F F r #.& [ 7 ;.[   7 ' -.P.3 P.x ] 8 ;.%.D.y %.t | o.|  .&.P.I.q E F , Y F r A.2 K J % ",
"%.r J  . .%.%.r J J D.%.q K %.r  . .S D.% 5 [ ;.8 . 7 G ' $.3 { x ] 8 ;.X.=.: e : t | | ..%.%.@.Y I.Y q r , % r r r y ' ",
"A.r q Y  .%.%.K  .K  .K 2 r %.D.Y.A.r D. .' ] < * ' ' 1 1 +.+.1 x :.8 [ 7 ` < ` G.H.%.u t U ....T F.@.%.F J 2  .(.2   y ",
"D.r r  .K  .%. . . .K  . .r J ^.Y.D.r ' P.G #.1 1 P.D P D k P.D [ 5.[ ] 8 [ y D.< u o.C.o.a ; # , r F A., J J  .`. .2 J ",
"#.r K %.Y J  . .%.Y.D.Y.Y.2 % O.O.&.S < #.* $.$.T.T.= R.1.X l I x 7.:.5.x [ 6 D.r u t e t ..o.U U  .%.)., K K G * =.U.2 ",
"D.r r > A.2 #.(.%.(.2 D.D.2 (.O. .K { &.5.+.4 . k I ^ 2.R.R. X3X6.} x k I 5.{ 1 O.I.%.; : U | s F.^.2 % %.5   r 5 r y 5 ",
"^.J r r K r %.^.@.&.K %.#.J #.O.&.D D P P D L.eXnXMXPXJXPXPXMXMXiXlXiX2X6.>.I I 1.1.&. .K u t e % &.J - #.^.D.U.' X.X.X.",
"J - r ^.A.%.%. .O.r  .F 3 S , O.P.= * +.eXyXMXLXJXLXIXIXIXIXLXKXDXDXmXiXyX9X X2.>.c D 5.-.r 2 ` J Y.D.G r ' J 2 ` ' ' [ ",
"F - J wX%.Y.#.q #.r  .r 2 2 , O.P k I yXJXIXLXIXLXLXHXGXZXVXVXVXBXbXjXkXmXmXjX0Xc.c k } $.' ' D.#.2 J #.6 - 5 5 ' [ y 5 ",
"^.J r ^.,  .#.F J K r %. ., J K D  XnXJXLXLXHXHXHXHXGXZXGXGXZXZXhXNXZXCXBXzXBXDXjX2X<.I } 5.5.G.U.2 J =.y G =.` -.=.X.] ",
"D.r r %.S #.%. .> 2 > D.D.2 r 3 3XnXPXJXHXLXLXHXCXCXCXCXNXfXaX>XhXhXhXNXNXNXBXFXFXmX9X>.c } :.[ ~.U.U. .5 %.U.< =.X.] ] ",
"r , F  .Y.%.#.F  .& 3 K %.@.r &.nXnXMXPXHXLXZXvXvXcX,X#Xa.0.N C >Xa.i.;XgXNXNXzXFXDXlX<X>.x x 8 < J %.` y G.^.X.] [ 7 5 ",
"D. . .> D.S S q wX; #.r O.wX+.yXnXbXVXHXVXdX:X-Xi.Q N N 0.p.-XaX8.N 8.i.;X>XgXNXkXBXSXiX<X/ x } < 2 ` =.X.J X.G.-.X.y 5 ",
"wX .  (.3 { J D.Y.e , O.1.>.<XnXVXGXLXGXbX8Xk.~ 7X4XXXv.g.,.~ V 4X~ g m W 0.@XdXNXbXkXkX<X4.. 7.& Y.#.-  .%.J #.G.G 5 J ",
"J @.O.P.x 5.&.% J J  .+.>.6.0XmXLXHXVXaXk.s.n.qX_ _ B B j j f f c <.<.M h N {.-XdXBXVXkX1X<Xv :.[ K - % 6 < 5 Y.wX-., < ",
", #.^.3 x P.).> r %.&.k k c.AXKXLXGXbX$XN m s.4Xg j O o o o o o o ! 2.B O g N 0.@XbXVXuX1X2X/ x ;.J r r y r ` G.U.` - % ",
"u r %.S +.T.^.Y.e #.%.k x <XSXUXGXNXaX}.W b N s.b h g j j j h h l j h ~ W n n m 8.-XjX4Xc.1X( z -.G.D.J 6 D.^.%.2  .-.#.",
"i : r %.I.(.K D.u J  .$.6.2XkXKXKXbX@X0.m m W g.M M b h h h h b B j g ~ t.0.0.0.N e.&Xf.x.4.z z ;.%.X.2 : -.(.D.<  .D.%.",
"i s e - r ).2 U (.%.S { 6.1XlXUXGXdX].0.W W ~ d.N N M m m m m M b ,.s.N m 0.i.8.e.w.b.,.x.) + z 8 2 r #.D.%. .%.J r 2 6 ",
"o.i o.  2 &.2 ..pXY.S k c x.lXKXBXrX{.y.y.r.w.t.~ ~ ~ ~ W W W W V v.b.N C 8.0.8.l.e.%XV x.) + v 8 J ` -.(.=.2 J D.' J %.",
"p $ /.% (. .- %.F.H.#.{ >.6.qXlXBXrX{.y.r.0.y.$Xr.r.r.t.r.r.r.w.j.q.w.e.e.e.u.M.e.e.%XB x.) ( v 5.wX#.# r X.y  .` G X.~.",
"o./.o.J I.J % U Z.u r $.R.c.n.4XsX8X$X}.$X$X{.r.|.{.{.{.{.{.{.{.t.d.h.l.l.M.M.M.l.j.%Xz.z.4.v / ;.G y X.K : 6 D.X.' G r ",
"; H.H.Z.E. .0 Y.p p | $.5.6.1X0X8X=X&X=X=X=X{.r.i.i.r.r.y.y.{.|.t.t.h.l.m.m.m.N.*X%X5Xz.x.4.v / T. . .-. .< < ` ` J y y ",
"$ |  .#.Y. .r F.| H.F.O.H >.<X9X&X&X&X=X=X$X{.y.y.u.u.r.i.r.r.u.y.h.l.l.m.m.N.N.*X%X5Xz.4.4.z } G < 2 #.-. . .=.#. . . .",
"u U 2 r &.O.r U Z.J.H.u 1 I 6.c.4X4X&X&X.X}.@X@X@X@X[.y.u.u.u.u.{.}.}.+Xm.m.m.l.b.%XqXx.4.3.v 5.-.J r '  .y 2 < U.D.%.#.",
"D.#.S S K K J o.H.H.| 0 x 1.6.<.1X1X4X&X.X}.+X@X{.[.[.[.@X@X@X;X{.{.}.{.m.m.l.l.b.5X9Xc.3.>.x 7.~.%.J G J G 2 - G 2 & # ",
"@. .' H x 3 K H./.H.p i ' 1.1.B c.B.5X6X7X$X}.y.@X@X[.[.M.@X@X+Xy.l.{.{.+X+X+X%Xb.XX1X4.) / 9 :.-.#.J y ' %.=.#.(.~.=. .",
"O.S D +.{ O. .U H.C.C.o. .H I >.z.c.1XqX6X=X+X{.@X@X@Xp.u.u.u.u.y.{.{.}.+X*X*X*Xb.c.x.B >.3.8 ] ~.~.-.` K #.#.J X. .J G ",
"E.S 1 &.(.wXD.% i i o.Z. .k I R.x.c.c.XX4X7X=X=Xl.u.u.l.M.+X+X*X$X}.$X$X$X*X%X%X4Xx.<.c 7.3X;.-.G  . .J  .Y.^.U.` ` ' X.",
"F q ).I.&.E. .U Y.Z.A.- * > = 3Xc ! <.<.x.1X7X5X.XsX.Xh.*Xm.=XqX.Xk..X&X4X6X5X,.<.6.5.x 9 ] ;.d : X.J  .5 Y. .y =.G.~.~.",
"I...(.I.Z.(.Y.E., q A.O.+.1.P 3X= >. Xc.<.2.1X5X1XXX4XqXN.j.N.h.0X6X6X4Xv.c.c.2.4.6.3.} ] -.~.~.| #.X.=.| X.` ` < y X.-.",
"A.J Z.F ; F t q , q Y L P R D R.<. X1Xc.x.n.1Xv.1X~ XX6X%X8X8X4Xv..X5X5Xv.s.,.,.x.>.c } { x [ #.G 0  . .-.J X.D.5 7 [ ] ",
", , U Y F Z.I.A.W.E.P.&.1.P D 1.9X0X7Xg.,.g.v.v.9Xv.v.q.s.%Xj.k.s.k.v..Xv.s.,.c.c.<.! I c k 1 3 , -  .r -.J G.U.=.X.[ 5 ",
"Y @.%.A...Z.W.Z.@.I.K.T.Q.P k c  X6X0XoXM h ~ XXk.4Xs.n v.sX9X0X7X9X.Xg.v.v.g.v.v.oX X2.6.R.6.+.3 J D.,  .J G.X.=.] 7 : ",
"A.A.Y F ; : U ; F @.S D P = k l g.q.f..Xk.~ ~ d.m g.g b 4XtXlX9Xg.6XoXg.7X6Xs.V f.oXoXoXoX3X X1.> G K % 2 ' %.r y 7 5 5 ",
"3 F q Y F a /.Z.I.).L D D = ! 2.6Xm g b.sX8Xt.w.&Xq.o f.~ h XXo O oXk.~ 7X0Xs.m q.q.d..XoXg.! l x G < < < ' J r r 5 5 y ",
"Y P.%.E.Z.t Z.; q P.S +.>.f c ! 0Xm O }.sX$Xt.}.BXW O kXv.M SXB V 9Xf.O w.7Xb.h.~ m N .X=Xt.M ! _.U.6 %.S  .< 5 ' y < - ",
"K *.Y.I...a H.'.E.q T.4 k l <. XqXj.N h.h.aX=Xl.VXm t.rX~ f.0XB ,.4X~ o w.%Xh.l.w.w.j.}.j.~ W ! 1.' G x < > r  .% 2 X.D.",
"P.O.Y Z.W.W.F.Z.F.F T.P 6. X9X5X0X5Xh.*X+XbXbXdXdXb m d.g b ~ o M d.b o V j.j.qX8X8X*Xj.w.w.w.,.x G ' $.{ S 6 r : r  .%.",
"Z S K U t 0 a C...*.P.P >.>.9XXXqXXXV w.W dXbXcX:XN N y.w.d..Xq.q.k.~ N j.j.h.8X*X8X=Xb.k.}.d.! } ' ' #.+.' #.D. ...%.H.",
"&.T.E.D.i ; C.`.: @.K c f j uXlXuX9Xf.q.N aXbXNXcX,X;X;X@Xe.w.e.$X$Xk.%X8Xb.e.*X9.j.b.f.k.oXs.h } H H [ { O.-.E.q 0 0 t ",
"T.L & - t t 0 ; Z.).+.>.f l 9X9XuX0X1XXXw.=X:X:X#X,X#X].u.m @ 0.=Xj.w..X7Xj.w.j.h.b.f.V V ,.! f x x H $.$.' S r F r 0 0 ",
").R > F W.W.p $ '.Y.D 1.c <.s.B B.c.x.7Xt.y.0.0.].,X,X#X#Xu.0.-XsX}.w.t.h.9.V w.s.j.c.,.<.<.B f 5.} } { { G 6 3 I.F.A.Z.",
"P D q t t 0 0 i 0 # * >.! XXs.z.B.4.<.9Xk.{.i.u.fXCXCXvXhX>Xp.-XdX$Xh.b.e.V V V V ,.x.n.c.4.>.c _.5.H G S S K  .@.@.@.T ",
"K.@.Y F 0 w C./.U - +._.c 2.h B.B.B j n.,.d.l.:XaXfXcXcXvXaX#X-X$Xd..X7Xk.q.~ ~ c.,.<.>.I c } 5.H x 6 G K G r r  .%.Z.C.",
"Z w V.S.F T E.E.U r x H { H } 3.3.) 4.1X5X<.,.tXmXrX|.|.=XrXaXdXXXoXoXoXg.^ ^ 2.2.>.T.5.1 3 G % &.-  .D.D. .2 /.5 X.X.5 ",
"V.w T V.; F ).I.pXY.S G ;.U.;.:.3.) ) 6.2X1X X2X X2.2.OXOXOXOXt.tX3X X X X2.I D R +.%. .r t u 2 ; - Z...r t 2 G.| | d 5 ",
"T ; T S.w T W.F wX&.3 6 #.-.#.[ 5.7.3.>._.<X6.1.! A A A ^ A A A  X2.I I I D k = D R F 2 t F r q # 0 Z.0 - u r u X.y y ` ",
"w w w w T @.@.Y , q J  .' ' ' #.{ _._.x x H D k P Z Z Z Z Z A ^ k k k k 4 = 4 D P K.J 2  . .r F U Y U q J D. .2 u y y ` ",
"T F.; # S.Z.q E., Y I.I.&.O.O.&.3 D.%.- - F F q , Z E L.L.V.E L.Z k D D D Z R P.&.E.O.J D.D. .%.Y.%.F ..D.D.Z. .2 `  .5 ",
"t /.F , '.F.- @.I.I.A.E R R K q F.W.U ; ..W.S.T w t T S.S.S.J.).I.Y 4 Z K R Y K Y %. .J #.D.%.%.U F 0 ..| ;  .G.5 Z.D.r ",
"U %.Y  .Y.Z.q q E.K.Y q L @.R q `./.T a F.F.C.C.U a a p a p C.W.I.T , , q S q q F J  . .G ' #.K J  ., J q # K Z.K %.D.%.",
"/.r 2 2 # r I. .@.*.@.R @.T.Q.W.W.S.U U T w i J.0 t ..Z.o.i ; ; ..T U t 0 0 J A. .U D.D.r J %.r ^.^.r J K 3 A. .O.K  .A.",
"| u Z.U I.F A.%.F Y @.Z L K 4 E @.T S.0 I.T t E.(. .D.U Y.e % U U C...C.0 ..0 /.#.J =.%.~.2 < * J K D.wX-.r  .- r ,  ., ",
"U r Z...W.F F , & , @.@.K.I.K K.T.Z.K.q I.F - Y *.r &.J ^.%.#.(.U Z.H.F.U ..% %.#.r  .y X.& y ` #. .%.(.&.S %.3 Y 2 Y 3 ",
"..t Y Y F.U F - , q A.A.K.P.L R &.K E 4 Q.K > J P S $.> $.O.{ D.F o.Z.Z.F K %  . .r  .5 G * y #.O.J S  .J <  ., Y.S A.I.",
"I.U 0 q ..@.%.@.A.F *.Y S K 3 S R k D 4 ).&.1 K +.+.5.. 1 1 > < t t F , - 2 - D.K e X.G ' * < 5 J 3 - - S & F & O.% L T."
};
