/* XPM */
static char *result[] = {
/* columns rows colors chars-per-pixel */
"60 60 227 2 ",
"   c #2C1B11",
".  c #251811",
"X  c #321E13",
"o  c #3B2819",
"O  c #2F2118",
"+  c #3D2E22",
"@  c #3D322A",
"#  c #48311D",
"$  c #56351B",
"%  c #753F1A",
"&  c #493627",
"*  c #563E29",
"=  c #4E3C30",
"-  c #5A4429",
";  c #5A4837",
":  c #654626",
">  c #7A4C25",
",  c #785327",
"<  c #684E37",
"1  c #675338",
"2  c #755539",
"3  c #73502F",
"4  c #7C6331",
"5  c #584B42",
"6  c #5D5248",
"7  c #6C5A46",
"8  c #67584A",
"9  c #755D48",
"0  c #655B53",
"q  c #6B5E54",
"w  c #625651",
"e  c #74624D",
"r  c #78674B",
"t  c #6E6356",
"y  c #7C6955",
"u  c #756758",
"i  c #7D715C",
"p  c #736A65",
"a  c #796D64",
"s  c #7B7167",
"d  c #7F7672",
"f  c #824C1E",
"g  c #9D581E",
"h  c #A85A1D",
"j  c #B2671E",
"k  c #965D24",
"l  c #81582E",
"z  c #9B6325",
"x  c #85673C",
"c  c #9B7538",
"v  c #916F37",
"b  c #A86A24",
"n  c #B47828",
"m  c #A87A37",
"M  c #AC722E",
"N  c #876B48",
"B  c #87734C",
"V  c #9A7947",
"C  c #826D55",
"Z  c #816E5B",
"A  c #8C7552",
"S  c #84725D",
"D  c #8B735A",
"F  c #8A7858",
"G  c #947B58",
"H  c #A67A48",
"J  c #A17E52",
"K  c #847463",
"L  c #8B7D6D",
"P  c #887867",
"I  c #917F6A",
"U  c #987F64",
"Y  c #877C72",
"T  c #BC892E",
"R  c #B78839",
"E  c #B38C3C",
"W  c #C9993A",
"Q  c #CE952A",
"!  c #D5AA39",
"~  c #E0BA3F",
"^  c #EFC73D",
"/  c #978357",
"(  c #A68747",
")  c #B68846",
"_  c #BA974E",
"`  c #A78955",
"'  c #A9935B",
"]  c #B7985A",
"[  c #B68153",
"{  c #BCA35A",
"}  c #948465",
"|  c #95826C",
" . c #9B8767",
".. c #8D8175",
"X. c #8A827D",
"o. c #948472",
"O. c #9C8A73",
"+. c #9B8C7C",
"@. c #93867B",
"#. c #9E917E",
"$. c #A38A64",
"%. c #A38C6D",
"&. c #A98D63",
"*. c #A2936D",
"=. c #AB966A",
"-. c #B69B65",
";. c #BB9C63",
":. c #B59969",
">. c #A18D74",
",. c #AA9473",
"<. c #A99578",
"1. c #B49C74",
"2. c #B99F71",
"3. c #BFAC7E",
"4. c #B7A479",
"5. c #AFA47A",
"6. c #C69D4A",
"7. c #CB9C45",
"8. c #C89348",
"9. c #D3AD4C",
"0. c #DBB549",
"q. c #C5A459",
"w. c #D2AC5C",
"e. c #CFB357",
"r. c #DBB554",
"t. c #D3B35D",
"y. c #D9B858",
"u. c #CBA449",
"i. c #E3BE4A",
"p. c #E5BB52",
"a. c #E2BE5B",
"s. c #E1B652",
"d. c #C69F61",
"f. c #C3A364",
"g. c #CAAC6B",
"h. c #C8AA66",
"j. c #D8B964",
"k. c #C3AD7A",
"l. c #CBB278",
"z. c #D8BE77",
"x. c #C8B06B",
"c. c #DFC054",
"v. c #EAC549",
"b. c #F0CB42",
"n. c #E9C553",
"m. c #ECCC54",
"M. c #E8C65A",
"N. c #F0CE54",
"B. c #EFD05A",
"V. c #F3D153",
"C. c #F2D35C",
"Z. c #F3D14D",
"A. c #D9C477",
"S. c #EACD62",
"D. c #E2C669",
"F. c #EDD26C",
"G. c #EED161",
"H. c #F2D464",
"J. c #F1D66A",
"K. c #F4DA6C",
"L. c #E2C975",
"P. c #ECD475",
"I. c #E9D37C",
"U. c #F2DC7C",
"Y. c #968C83",
"T. c #9D9287",
"R. c #9F9690",
"E. c #AA9C89",
"W. c #A59988",
"Q. c #A49C94",
"!. c #A99F94",
"~. c #A49F9D",
"^. c #B49F84",
"/. c #B4A38B",
"(. c #B8A886",
"). c #BDB286",
"_. c #A9A19A",
"`. c #BAAD9C",
"'. c #B6AA96",
"]. c #AFA18B",
"[. c #AFA7A2",
"{. c #BFB4A6",
"}. c #C8B787",
"|. c #C7BA94",
" X c #CAB789",
".X c #C0B4A8",
"XX c #DAC686",
"oX c #CEC495",
"OX c #D7CA95",
"+X c #DDD19B",
"@X c #D6D09D",
"#X c #E3CD8C",
"$X c #E5D286",
"%X c #E9D68B",
"&X c #E8D799",
"*X c #F0DD8B",
"=X c #F3E49A",
"-X c #D3CAA3",
";X c #DED7B8",
":X c #D8D0AF",
">X c #E6DCA8",
",X c #E4DDB3",
"<X c #EDE2A3",
"1X c #ECE6AB",
"2X c #F5ECAB",
"3X c #F3E7A5",
"4X c #F8F2AF",
"5X c #F6F0AE",
"6X c #ECE6B9",
"7X c #F3ECB4",
"8X c #F5EDBE",
"9X c #F9F4B3",
"0X c #F8F4BC",
"qX c #F7F2B8",
"wX c #E1DBC2",
"eX c #EAE3C6",
"rX c #F2EDCA",
"tX c #F6F3CB",
"yX c #F9F5CA",
"uX c #F8F5C5",
"iX c #F1EED8",
"pX c #F8F6D3",
"aX c #FBF9D4",
"sX c #F9F7DA",
"dX c #F9F8EA",
"fX c #FDFDF6",
"gX c None",
/* pixels */
"gXgXgXgXgXgXgXgXgXgXgXgXgXgXgXgXgXgXgXgXgXgXgXgXgXgXgXgXgXgXgXgXgXgXgXgXgXgXgXgXgXgXgXgXgXgXgXgXgXgXgXgXgXgXgXgXgXgXgXgX",
"gXgXgXgXgXgXgXgXgXgXgXgXgXgXgXgXgXgXgXgXgXgXgXgXgXgXgXgXgXgXgXgXgXgXgXgXgXgXgXgXgXgXgXgXgXgXgXgXgXgXgXgXgXgXgXgXgXgXgXgX",
"gXgXgXgXgXgXgXgXgXgXgXgXgXgXgXgXgXgXgXgXgXgXgXgXgXgXgXgXgXgXgXgXgXgXgXgXgXgXgXgXgXgXgXgXgXgXgXgXgXgXgXgXgXgXgXgXgXgXgXgX",
"gXgXgXgXgXgXgXgXgXgXgXgXgXgXgXgXgXgXgXgXgXgXgXgXgXgXgXgXgXgXgXgXgXgXgXgXgXgXgXgXgXgXgXgXgXgXgXgXgXgXgXgXgXgXgXgXgXgXgXgX",
"gXgXgXgXgXgXgXgXgXgXgXgXgXgXgXgXgXgXgXgXgXgXgXgXgXgXgXgXgXgXgXgXgXgXgXgXgXgXgXgXgXgXgXgXgXgXgXgXgXgXgXgXgXgXgXgXgXgXgXgX",
"gXgXgXgXgXgXgXgXgXgXgXgXgXgXgXgXgXgXgXgXgXgXgXgXgXgXgXgXgXgXgXgXgXgXgXgXgXgXgXgXgXgXgXgXgXgXgXgXgXgXgXgXgXgXgXgXgXgXgXgX",
"gXgXgXgXgXgXgXgXgXgXgXgXgXgXgXgXgXgXgXgXgXgXgXgXgXgXgXgX*.=.(.gXgXgXgXgXgXgXgXgXgXgXgXgXgXgXgXgXgXgXgXgXgXgXgXgXgXgXgXgX",
"gXgXgXgXgXgXgXgXgXgXgXgXgXgXgXgXgXgXgXgXgXgXgXgX5.-.x.j.t.D.j.h.{ gXgXgXgXgXgXgXgXgXgXgXgXgXgXgXgXgXgXgXgXgXgXgXgXgXgXgX",
"gXgXgXgXgXgXgXgXgXgXgXgXgXgXgXgXgXgXgXgXgXgXgXx.L.M.n.n.p.p.p.p.r.w.-.gXgXgXgXgXgXgXgXgXgXgXgXgXgXgXgXgXgXgXgXgXgXgXgXgX",
"gXgXgXgXgXgXgXgXgXgXgXgXgXgXgXgXgXgXgXgXgX}.l.F.H.n.n.p.p.p.p.p.p.p.t.-.gXgXgXgXgXgXgXgXgXgXgXgXgXgXgXgXgXgXgXgXgXgXgXgX",
"gXgXgXgXgXgXgXgXgXgXgXgXgXgXgXgXgXgXgXgXgXC ] D.r.r.s.p.p.p.p.p.n.p.e.t.1.gXgXgXgXgXgXgXgXgXgXgXgXgXgXgXgXgXgXgXgXgXgXgX",
"gXgXgXgXgXgXgXgXgXgXgXgXgXgXgXgXgXgXgXgXA # & ( 6.r.t.u.s.p.p.p.Z.e.y.M.;.(.gXgXgXgXgXgXgXgXgXgXgXgXgXgXgXgXgXgXgXgXgXgX",
"gXgXgXgXgXgXgXgXgXgXgXgXgXgXgXgXgXgXgX,.A }.oX=.m Q g.6.Q 9.r.s.p.{ { 1 - G gXgXgXgXgXgXgXgXgXgXgXgXgXgXgXgXgXgXgXgXgXgX",
"gXgXgXgXgXgXgXgXgXgXgXgXgXgXgXgXgXgXgXG oX0X5X&XG g T g.n W W ) v ' 4 , - & ^.gXgXgXgXgXgXgXgXgXgXgXgXgXgXgXgXgXgXgXgXgX",
"gXgXgXgXgXgXgXgXgXgXgXgXgXgXgXgXgXgX$.=.0XuX8X7Xl.M k E N V -.3.E.4.XX*XA.* C gXgXgXgXgXgXgXgXgXgXgXgXgXgXgXgXgXgXgXgXgX",
"gXgXgXgXgXgXgXgXgXgXgXgXgXgXgXgXgXgXG oXtX7X#Xz.g.f.2 * A N N N oXoX-X9X<XG ; `.gXgXgXgXgXgXgXgXgXgXgXgXgXgXgXgXgXgXgXgX",
"gXgXgXgXgXgXgXgXgXgXgXgXgXgXgXgXgXgXG -XrXrX,X XL.z.C e i   r @X0XuX|.1X1X).& W.gXgXgXgXgXgXgXgXgXgXgXgXgXgXgXgXgXgXgXgX",
"gXgXgXgXgXgXgXgXgXgXgXgXgXgXgXgXgXgX*.yXiXiXdXOX#X X1.).i e 3X9XyXtX6X@XqXOX; I gXgXgXgXgXgXgXgXgXgXgXgXgXgXgXgXgXgXgXgX",
"gXgXgXgXgXgXgXgXgXgXgXgXgXgXgXgXgX} (.aXiXeXdX>X&X&X3.|.1 } 4X9XyXpXdX1X7X<X7 e gXgXgXgXgXgXgXgXgXgXgXgXgXgXgXgXgXgXgXgX",
"gXgXgXgXgXgXgXgXgXgXgXgXgXgXgXgXgXP ).aXdX,XfXpXuX4Xk.(.+ u 5X9XyXsXfXtX2X=XF 1 gXgXgXgXgXgXgXgXgXgXgXgXgXgXgXgXgXgXgXgX",
"gXgXgXgXgXgXgXgXgXgXgXgXgXgXgXgXgXC oXsXfXeXpX8X5X<X5.} . ; 1X5X0XsXfXeX1X5X} ; '.gXgXgXgXgXgXgXgXgXgXgXgXgXgXgXgXgXgXgX",
"gXgXgXgXgXgXgXgXgXgXgXgXgXgXgXgXgXS oXaXfXiX2X<XOX@X(.u O - @X5X9XpXdX;X8X5X .- E.gXgXgXgXgXgXgXgXgXgXgXgXgXgXgXgXgXgXgX",
"gXgXgXgXgXgXgXgXgXgXgXgXgXgXgXgXgXC ).aXdX6XsXtX7X<XF ..@ + ).3X2XuXuX:XqX=XB & E.gXgXgXgXgXgXgXgXgXgXgXgXgXgXgXgXgXgXgX",
"gXgXgXgXgXgXgXgXgXgXgXgXgXgXgXgXgX7 5.aXrX7XsX0X4X3.o 8 t . *.=X<X0X6X;XqX*Xr = .XgXgXgXgXgXgXgXgXgXgXgXgXgXgXgXgXgXgXgX",
"gXgXgXgXgXgXgXgXgXgXgXgXgXgXgXgXgXr  .9X1XsXyX9X3XA O O i @ 1 $XXX@X+X5X4X%X1 = `.gXgXgXgXgXgXgXgXgXgXgXgXgXgXgXgXgXgXgX",
"gXgXgXgXgXgXgXgXgXgXgXgXgXgXgXgXgX=./ *X=XqX9X5X$X1     @ 7 =.@X$X@X+XoXoX{ # 1 gXgXgXgXgXgXgXgXgXgXgXgXgXgXgXgXgXgXgXgX",
"gXgXgXgXgXgXgXgXgXgXgXgXgXgXgXgXgX3./ A.I.P.U.A.' # .   + r 8 } i / / / & : o A gXgXgXgXgXgXgXgXgXgXgXgXgXgXgXgXgXgXgXgX",
"gXgXgXgXgXgXgXgXgXgXgXgXgXgXgXgXgXgX( e.F.G.K.G.0.( 4 : B F - 4 ' D.{ ' : - o / gXgXgXgXgXgXgXgXgXgXgXgXgXgXgXgXgXgXgXgX",
"gXgXgXgXgXgXgXgXgXgXgXgXgXgXgXgXgXgXD.H.B.D.C.K.K.C.B.S.D.{ S.F.K.K.D.] ( : < 1.gXgXgXgXgXgXgXgXgXgXgXgXgXgXgXgXgXgXgXgX",
"gXgXgXgXgXgXgXgXgXgXgXgXgXgXgXgXgXgXP.H.v.e.m.C.V.B.B.B.G.F.J.K.J.H.C.e.q.h.]  XgXgXgXgXgXgXgXgXgXgXgXgXgXgXgXgXgXgXgXgX",
"gXgXgXgXgXgXgXgXgXgXgXgXgXgXgXgXgXgX$XH.V.c.c.V.V.V.B.m.B.C.C.F.C.V.V.A.5.=.' gXgXgXgXgXgXgXgXgXgXgXgXgXgXgXgXgXgXgXgXgX",
"gXgXgXgXgXgXgXgXgXgXgXgXgXgXgXgXgXgXgXP.V.Z.m.c.e.c.{ c.m.V.V.C.V.V.0.t.M.M.L.gXgXgXgXgXgXgXgXgXgXgXgXgXgXgXgXgXgXgXgXgX",
"gXgXgXgXgXgXgXgXgXgXgXgXgXgXgXgXgXgXgX$XC.Z.0.v.S.S.y.M.n.0.N.C.N.p.q.u.8.y. XgXgXgXgXgXgXgXgXgXgXgXgXgXgXgXgXgXgXgXgXgX",
"gXgXgXgXgXgXgXgXgXgXgXgXgXgXgXgXgXgXgXgXJ.v.W b.b.b.^ ^ v.9.E 7.W 7.9.n l g.gXgXgXgXgXgXgXgXgXgXgXgXgXgXgXgXgXgXgXgXgXgX",
"gXgXgXgXgXgXgXgXgXgXgXgXgXgXgXgXgXgXgXgXgXp.E W M T n M M E ) k R ) n z : (.gXgXgXgXgXgXgXgXgXgXgXgXgXgXgXgXgXgXgXgXgXgX",
"gXgXgXgXgXgXgXgXgXgXgXgXgXgXgXgXgXgXgXgXgXXXq.M h j h h b M m c m > % : 2 gXgXgXgXgXgXgXgXgXgXgXgXgXgXgXgXgXgXgXgXgXgXgX",
"gXgXgXgXgXgXgXgXgXgXgXgXgXgXgXgXgXgXgXgXgXgXg.b b Q j h b g b f > % : v 9.( gXgXgXgXgXgXgXgXgXgXgXgXgXgXgXgXgXgXgXgXgXgX",
"gXgXgXgXgXgXgXgXgXgXgXgXgXgXgXgXgXgXgXgXgXgXgX2 z Q M g f z f $ * < 3 ( v.( e K &.gXgXgXgXgXgXgXgXgXgXgXgXgXgXgXgXgXgXgX",
"gXgXgXgXgXgXgXgXgXgXgXgXgXgXgXgXgXgXgXgXgXgXgXgX( a.( > 3 - < 8 t 7 9 9 y L +./.' :.gXgXgXgXgXgXgXgXgXgXgXgXgXgXgXgXgXgX",
"gXgXgXgXgXgXgXgXgXgXgXgXgXgXgXgXgXgXgXgXgXgXgXgXf.L.4.P | 8 8 L P e I U 0 t Y.(.=.$.gXgXgXgXgXgXgXgXgXgXgXgXgXgXgXgXgXgX",
"gXgXgXgXgXgXgXgXgXgXgXgXgXgXgXgXgXgXgXgXgXQ.e (.}.8.J >.Z 7 D D ; q E.E.Y s p Q.I gXgXgXgXgXgXgXgXgXgXgXgXgXgXgXgXgXgXgX",
"gXgXgXgXgXgXgXgXgXgXgXgXgXgXgXgXgXgXgXgXW.p C &.|.|.U I @.Y Z 9 < S <.| Y a +.Q.a gXgXgXgXgXgXgXgXgXgXgXgXgXgXgXgXgXgXgX",
"gXgXgXgXgXgXgXgXgXgXgXgXgXgXgXgXgXgXgXgXs 0 y %.{.R.P U C Z Z w 9 `.|.+.| %.|.1.I gXgXgXgXgXgXgXgXgXgXgXgXgXgXgXgXgXgXgX",
"gXgXgXgXgXgXgXgXgXgXgXgXgXgXgXgXgXgXgX~.d 0 o.o.Y X.Y 5 Y q w 8 p L O.@.o...,.:.I gXgXgXgXgXgXgXgXgXgXgXgXgXgXgXgXgXgXgX",
"gXgXgXgXgXgXgXgXgXgXgXgXgXgXgXgXgXgX!.s R.X.w t 0 R.R.0 I /.J 2 y 0 K Y !.].;.&.>.gXgXgXgXgXgXgXgXgXgXgXgXgXgXgXgXgXgXgX",
"gXgXgXgXgXgXgXgXgXgXgXgXgXgXgXgXgXgXQ.W.I I I Z X.[.Y 8 D (.d.H x t P P !.'.$.,.2.gXgXgXgXgXgXgXgXgXgXgXgXgXgXgXgXgXgXgX",
"gXgXgXgXgXgXgXgXgXgXgXgXgXgXgXgXgXgXY Z P >.T.P [.`.K Y p !.K K N y o.T.~.W.>.=.f.gXgXgXgXgXgXgXgXgXgXgXgXgXgXgXgXgXgXgX",
"gXgXgXgXgXgXgXgXgXgXgXgXgXgXgXgXgX!.E.I I 1.!.[.wX-XW.X.K t 5 q 7 L +.Q.~.Y...>.<.gXgXgXgXgXgXgXgXgXgXgXgXgXgXgXgXgXgXgX",
"gXgXgXgXgXgXgXgXgXgXgXgXgXgXgXgXgX`.1.%.<.&.>..X:X>.K K Y p w p Y Y.Y.E.!.Y L I o.gXgXgXgXgXgXgXgXgXgXgXgXgXgXgXgXgXgXgX",
"gXgXgXgXgXgXgXgXgXgXgXgXgXgXgXgXgXgXk.<.+.T.o.%.I Y.L O.Q.Y U <.+.E.,.O.T.%.1.>.E.gXgXgXgXgXgXgXgXgXgXgXgXgXgXgXgXgXgXgX",
"gXgXgXgXgXgXgXgXgXgXgXgXgXgXgXgXgXgXf.) H [ ] J U ,.:.2.k. X Xz.g.t.f.d.f._ V x >.gXgXgXgXgXgXgXgXgXgXgXgXgXgXgXgXgXgXgX",
"gXgXgXgXgXgXgXgXgXgXgXgXgXgXgXgXgXgXk.h.-.;.&.&.D D V H H 8.8.H 6.7.d.w.w.) c H f.gXgXgXgXgXgXgXgXgXgXgXgXgXgXgXgXgXgXgX",
"gXgXgXgXgXgXgXgXgXgXgXgXgXgXgXgXgXgXF.C.J.J.P.I.$X$X$X#X&X&XXX] D.P.I.P.J.S.p.j.gXgXgXgXgXgXgXgXgXgXgXgXgXgXgXgXgXgXgXgX",
"gXgXgXgXgXgXgXgXgXgXgXgXgXgXgXgXgXgXgXgX! ! 0.^ i.V.C.m.S.P.L.M.p.n.N.N.p.p.gXgXgXgXgXgXgXgXgXgXgXgXgXgXgXgXgXgXgXgXgXgX",
"gXgXgXgXgXgXgXgXgXgXgXgXgXgXgXgXgXgXgXgXgXgXgXgXgXgXgXgXgXgXm gXgXgXgXgXgXgXgXgXgXgXgXgXgXgXgXgXgXgXgXgXgXgXgXgXgXgXgXgX",
"gXgXgXgXgXgXgXgXgXgXgXgXgXgXgXgXgXgXgXgXgXgXgXgXgXgXgXgXgXgXgXgXgXgXgXgXgXgXgXgXgXgXgXgXgXgXgXgXgXgXgXgXgXgXgXgXgXgXgXgX",
"gXgXgXgXgXgXgXgXgXgXgXgXgXgXgXgXgXgXgXgXgXgXgXgXgXgXgXgXgXgXgXgXgXgXgXgXgXgXgXgXgXgXgXgXgXgXgXgXgXgXgXgXgXgXgXgXgXgXgXgX",
"gXgXgXgXgXgXgXgXgXgXgXgXgXgXgXgXgXgXgXgXgXgXgXgXgXgXgXgXgXgXgXgXgXgXgXgXgXgXgXgXgXgXgXgXgXgXgXgXgXgXgXgXgXgXgXgXgXgXgXgX",
"gXgXgXgXgXgXgXgXgXgXgXgXgXgXgXgXgXgXgXgXgXgXgXgXgXgXgXgXgXgXgXgXgXgXgXgXgXgXgXgXgXgXgXgXgXgXgXgXgXgXgXgXgXgXgXgXgXgXgXgX",
"gXgXgXgXgXgXgXgXgXgXgXgXgXgXgXgXgXgXgXgXgXgXgXgXgXgXgXgXgXgXgXgXgXgXgXgXgXgXgXgXgXgXgXgXgXgXgXgXgXgXgXgXgXgXgXgXgXgXgXgX"
};
