/* XPM */
static char *result[] = {
/* columns rows colors chars-per-pixel */
"60 60 155 2 ",
"   c #070707",
".  c #070906",
"X  c #080A07",
"o  c #070908",
"O  c #0B0C0B",
"+  c #110E0F",
"@  c #0E110E",
"#  c #12120F",
"$  c #19130E",
"%  c #0F0D10",
"&  c #110F10",
"*  c #0F1210",
"=  c #131313",
"-  c #1A1512",
";  c #151916",
":  c #1C1915",
">  c #161618",
",  c #191619",
"<  c #16191A",
"1  c #191A1A",
"2  c #221A15",
"3  c #281F17",
"4  c #231E1A",
"5  c #281F19",
"6  c #1D211F",
"7  c #25211D",
"8  c #2B221D",
"9  c #31261F",
"0  c #32281F",
"q  c #1C1E20",
"w  c #1F2325",
"e  c #222323",
"r  c #2B2622",
"t  c #232826",
"y  c #2E2926",
"u  c #262628",
"i  c #262B2B",
"p  c #2D2C2C",
"a  c #322721",
"s  c #332A24",
"d  c #352D29",
"f  c #392F2A",
"g  c #2E302F",
"h  c #36312C",
"j  c #39312D",
"k  c #2D3332",
"l  c #343432",
"z  c #3C3532",
"x  c #333B37",
"c  c #3D3836",
"v  c #363B3C",
"b  c #3A3D3C",
"n  c #423732",
"m  c #423A35",
"M  c #433D3A",
"N  c #493F3B",
"B  c #3A413E",
"V  c #45413F",
"C  c #49423E",
"Z  c #373C40",
"A  c #3A3F43",
"S  c #3D4145",
"D  c #3E4349",
"F  c #444443",
"G  c #4D4541",
"H  c #424946",
"J  c #41464A",
"K  c #454A4D",
"L  c #4C4C4C",
"P  c #524A46",
"I  c #554E4B",
"U  c #4D514F",
"Y  c #54514E",
"T  c #59524F",
"R  c #454B52",
"E  c #4A4E54",
"W  c #4D5254",
"Q  c #4F5857",
"!  c #4D545A",
"~  c #4F5858",
"^  c #535253",
"/  c #5A5654",
"(  c #5A5857",
")  c #51565B",
"_  c #545A5D",
"`  c #5A5C5D",
"'  c #625D5A",
"]  c #56605F",
"[  c #58605F",
"{  c #65605C",
"}  c #565C61",
"|  c #595E62",
" . c #5B5F68",
".. c #576162",
"X. c #5C6264",
"o. c #5F6867",
"O. c #5D646A",
"+. c #5F696B",
"@. c #616465",
"#. c #6A6361",
"$. c #616967",
"%. c #6E6965",
"&. c #62666A",
"*. c #646A6C",
"=. c #6A6C6D",
"-. c #736F6E",
";. c #67706E",
":. c #69716F",
">. c #73716E",
",. c #666C72",
"<. c #6A6D71",
"1. c #677170",
"2. c #6C7373",
"3. c #6F7877",
"4. c #6E767A",
"5. c #6F797B",
"6. c #727373",
"7. c #787676",
"8. c #717977",
"9. c #737679",
"0. c #747C7C",
"q. c #797D7D",
"w. c #77807F",
"e. c #767E81",
"r. c #7B7E81",
"t. c #768081",
"y. c #7B8384",
"u. c #7E8887",
"i. c #7D8788",
"p. c #7D8A8A",
"a. c #838485",
"s. c #888683",
"d. c #8B8886",
"f. c #838589",
"g. c #828A8A",
"h. c #8B8B8B",
"j. c #918E8D",
"k. c #92918F",
"l. c #8E8F93",
"z. c #8F9695",
"x. c #939394",
"c. c #969B9B",
"v. c #9B9C9D",
"b. c #A19F9F",
"n. c #9EA19F",
"m. c #9E9FA1",
"M. c #9DA4A3",
"N. c #A3A3A4",
"B. c #A5A7AA",
"V. c #A7ACAE",
"C. c #A9A9AB",
"Z. c #ACB4B3",
"A. c #B3B3B6",
"S. c #B4B6B9",
"D. c #B8B9BD",
/* pixels */
"a a a a a a a a a 2 y c h h : z z z z z s s + - - - - - r = - - # - + $ $ # # r s a a a a a $ $ - $ $ = - - - $ 8 : + + ",
"a a 0 0 a a a a 9 2 y s 9 9 - j a a a a 9 8 4 j f f f f f f h f s f - h d f 7 r d a a a a a $ f f s f f f f f f f f 5 y ",
"a s d s a a a s a 2 y d s 0 : j 9 a a a a 8 4 f a r 9 a 0 9 y r a y - h 9 0 2 - : 4 5 : , 2 + f s s a s a a a s s f 4 r ",
"z L P F M c M c l p c m n c s M j j j j f s y z f s a f d d d s s f 4 z d d a y c m M c M M d M m m m M m n m G P P c r ",
"n.8.=.=.2.<.<.=.=.&.2.<.&.&.,.*.@.@.` ` @.| | ( ( ( / ^ ^ ^ ^ L Y W L ( / / ^ ) ` |  .#.,.=.&.,.@.&.%.=.6.7.9.&.=.-.f.s ",
"c.=.=.=.=.=.=.=.,.=.=.=.=.=.=.,.=.*.=.=.=.=.=.*.&.*.&.*.*.%.*.*.=.=.=.,.,.,.&.,.,.=.<.<.<.<.<.=.<.,.,.&.*.<.=.*.=.,.a.d ",
"d.2.X.( X. .} _ } _ _ _ ) _ } ) _ _ _ _ _ _ } | | | | } } ) } ) _ _ | X.X.} } } ) } } |  . .} } _ _ } _ | | | | ` @.x.r ",
"C q.X.F K S A Z A A J J D A D D S A A A D J J J J J J D D J D J D D K R R J D D D D A D D J D D D J A A A V J S J ,.N.r ",
"2 V :.W ! J J J K D ) } E D !  .! J R ! }  . .X.| | | | | | | | ....} .. .}  .}  .! R D ! } } D R ~ } D J R J K ) v.z r ",
"j C 8.` ^ | ) ! ) W  .) E  .,.+.} W  .&.,.,.,.<.<.<.,.*.,.&.&.&.+.*.1.,.,.,.,.,.e.O. .! ! O.,. .E _  .! _ E ) | q.v.s 8 ",
"s j %.@.| &. .^ E } } E O.<.,. .E } _ _ O.<.<.=.&.&. .| } ( _ _ } ~ ] ..+.,.,.1. .!  .} D O.,.,.+.! ) } W W | <.h.l - 7 ",
"9 9 d 6.6.@.&.) ! | ! ! O.O.} ! D W ! _ &.=.| } } ) | | X.&.&.&.$.o.X._ } _ ~ o.O.! ! ! A !  .O.,.! ) } E W &.l.%.c 4 r ",
"9 a s j ' %.@.) | } ! } E R ) K Z A ! | X._ _ $.=.:.2.2.2.2.*.2.:.:.:.=.2.,.X._ }  .! Z Z E ! R ! ! } !  .! @.C.M a 2 r ",
"a a s a n =.) ` ,.| } &.E ! | ! E K ) | ` *.6.0.2.:.:.;.*.$.$.@.$.;.=.=.<.6.0.2. .} } D E _ } ! !  .} } ,.X.=.C.m a : y ",
"a s 9 a f ' 9.|  . . .@.}  .| ! ! _ ` o.2.2.2.2.$._ K S v x k x k B H W _ $.1.2.2.,. ... .~ } O.} O.O.O. .X.<.N.m a 2 : ",
"a a a a a m a.R ) )  .| } &. .) _ Q 2.6.2.=.` H g w 1 ; ; * * ; ; ; 1 1 t v W O.,.5.4.O.~ } ..,.! ! O.! ! _ =.b.C s 2 4 ",
"8 8 5 5 8 j r.' O.E R } +.1.;...] ;.3.;.@.^ g 1 - < > ; < ; < ; ; ; ; ; ; < w v _ :.2.3.+._ O.,.&.} E R  .@.=.j.m a : r ",
"4 d 5 4 4 4 7. . .E !  .,.1.+...1.w.;.X.J w , , - > > > ; < < ; ; ; - ; ; ; < 1 g W *.2.e.+...+.,.&.| R | =.q.' j a 8 s ",
"d f d d a u -.) } ! }  .} +...2.y.3.$.F q & > > < < < < 1 < < - < - - < - - > > > i _ 2.e.i.+. .} ! | ( ( @.f.z - - - y ",
"a a a a a 4 ' K J R ! } } ..*.y.0.:.U 6 > > , q > , , , < < < < < ; - < < - ; > ; ; k ` 4.e.e. .} } ) R D @.a.F h h 5 r ",
"a a a a 8 4 T } A Z R  .O.} 5.y.:._ i < < < 2 , , , , , , < , 1 > , , > , > , > > < q A O.,.i.,.) } R Z Z 9.Y z a a 2 r ",
"a a a a a 2 G r.) R }  ...+.i.5.*.b < > > , , , , , , , , , > > - , 1 - - > > , < < < q E 4.e.e. . .} J ^ c.f f 0 a 8 f ",
"a a a a 8 2 M 7. . .,.&._ 3.w.$.( u - - > , , , , , , , , , , > , , , > < , > > q > % < Z O.<.y.O. .*.| | x.h f a a 2 y ",
"a a a a a u n I <.&.e.&.o.w.2.[ S 1 > > > , , & , , , , , > , > , > > > > > , > > > > > w ! ,.r.,. .*.*.@.m.l z a a 4 r ",
", - , 5 2 $ 4 z 9.&.*. .O.i.3.[ p > > - > - - : - , , , - , , > > > = > = > > = > > > * > F =.w.8.| &.@.2.N.m z a a 2 - ",
"f f d f d d d V f.) | | *.t.2.[ w * > = * ; = ; , - = , , & , & > - > = = > , = = > > > * v $.8.e.} X.@.x.%.r f a 0 2 8 ",
"a a a a a a a M e._ | } 4.t.$.W 1 = = > > > ; # & = , = > = & , = = > - = , - , = - = > * i [ 2.i.X. .8.h.n - h 0 a 2 r ",
"a 2 a a a a a M <.*.=.X.0.e.X.H > = ; = = > @ ; = = = = = = = = = > * = , & & = = > * > > q ( :.f.=.X.q.{ f - j 0 s 2 r ",
"a s a a a a 5 n =.=.*.X.w.w.$.B @ ; # ; @ ; # # # ; ; ; - = = = ; = > = > = - = = ; # = ; 6 U ;.y.;.[ 7.%.j 8 j 0 0 2 r ",
"a a a a a a a n { =.*.X.;.w.$.k @ @ @ @ ; @ ; @ @ @ @ * * * @ = * = @ = # # @ @ # = # # @ ; U ;.y.=.X.:.>.h $ y 5 5 - r ",
"a a a a a a a a C $.;.[ w.w.;.B @ @ * * @ ; @ @ @ @ @ @ * * @ @ @ # @ # @ # # # @ ; # * @ 6 W 2.y.:.[ 7.$.d 2 7 7 7 - r ",
"8 a 8 a 8 a 8 u z $.;.] ;.w.;.B @ ; * * @ @ ; @ ; @ ; * * * @ = # @ = # # = # # # # @ ; @ ; W 2.g.2.[ w.' j a f s f 4 r ",
"2 , , $ , 2 - - r  .&.@.0.8.*.b * @ * = # * = @ # @ # # = # = # # = # = = # # = @ # @ = @ ; U ;.u.;.[ w.T s 0 0 a a 3 5 ",
"n f n s f d n f M #.@.@.q.2.*.v * @ # @ # @ @ # @ ; @ @ @ # @ @ @ # # @ # # # + @ # # * @ ; U 1.u.;.[ w.I s 0 0 a 9 4 5 ",
"9 a 9 9 a 9 a a f / | &.q.w.;.v * * @ @ @ @ # @ @ @ @ @ O # @ @ @ @ @ @ # @ O # O @ @ @ * ; Q 1.u.;.X.q.' n 9 9 a a 2 y ",
"a a a 8 9 a a a s z ) @.w.0.;.v O @ @ @ @ @ @ @ @ @ @ @ @ @ @ O @ # O @ O + + @ + # @ # @ ; U 1.y.:.X.8.q.n 9 9 a a 8 d ",
"a a a 8 9 a a a 0 h =._ w.8.=.B * * * * * * @ @ @ @ * * O * @ @ O # O = O & + + O + @ O * ; U 2.i.1.X.:.x.N a a a a 2 2 ",
"a a a s a a a 5 8 a =.=.w.0.*.v O = % * % * % % # @ O = * = @ = @ # = O = & & & & = O @ * ; U ;.t.;.X.w.s.m a a a a 2 4 ",
"a a a a a a a s a 8 U z.q.0.o.v * O O = * = O = @ = O = & O = O = O = = & & & & & = @ @ @ = U 1.u.;.( a.T s a r a a 2 r ",
"a a a a a a a s a 8 L n.0.8.o.B % O = % = O = & # @ = O % = % = O = & % & & & & & O @ @ @ ; Q 3.p.2.y.d.m 0 8 5 a a 5 s ",
"r 9 a a a a r a 0 : V n.0.3.o.v % & & & % = & & = & & & = & & = & & & + & & + + & & * O = = W :.u.w.M.{ f 0 s s a a 7 y ",
"- : 8 - $ $ - - $ + F n.w.5.;.v O % & % & O & & O & & O O % + O + + + + + + % % & O % * * > W 2.p.w.Z.C 0 0 a 9 a a 2 r ",
"f j j h - h j h j c x.h.w.0.*.B O % % % + & & & & & & + & + + % % O + + + + % % & O % O @ = U 8.p.8.B.C 0 0 a a a a 2 r ",
"a a 9 a $ h a 9 j / a.$.0.2.X.v % % O % O & % O O % % & & O % % % & % % % % % % & % & O @ - W 2.g.2.w.v.C 0 a s 0 s : 5 ",
"a a 0 a # j 0 9 C h.*.X.y.0.=.v % % % % % % % % & % % % + % % % % % % % % % & % % % % O * * W *.y.3.+.c.` 4 # - $ $ # + ",
"a a 9 a # h a N h.q.$.=.w.w.;.v % % O % % % % % % % O % + O O % % O % % O % % % O % % % % > W 2.y.2.o.2.x.C - h j j 5 8 ",
"a a a a - h j #.a.*.;.*.w.0.:.v % O O % O % % O % % % O O + O @ % % O % % % % O % O * O % - W 2.y.8.O.=.q.x.y d a a 4 r ",
"- $ $ # - M 7.N.8.*.*.*.y.0.$.B O O O O O O O O O O O O O O @ @ O O O O O O O % O O O O O = U *.y.2.| =.=.A.z f a a 2 r ",
"h d : z G f.9.r.,.e.+.,.i.e.+.B . . @ X X @ X X X O O O X X # X o o X @ X O O O X O X O O # U $.y.<.E ) *.A.l y 5 r 5 d ",
"a 7 4 f G x.&.E  .,.,.+.e.e.+.S . . X X X X X X O O X X X X X X O o O X X X O X X X X X X # U :.y.2.) ) } l.M e 4 4 4 d ",
"a 8 4 G j.f.&.)  .,.+.,.e.,.O.x . X X X X X X X X X X O X X @ X o X X X X O X X X O   O X @ U 8.i.4.O.*. .9.x.P f f 4 r ",
"a 5 5 / a.,. .} } ,.,.,.e.e.+.x . . X X X X X @ O X X X X X X X O O O X X X X O X O o o @ @ U 1.i.4.+.,.<. .r.-.f a 2 5 ",
"a 8 h m.6.=.&.!  .+.O.O.t.2.+.x .   X o X X X .       X o o o   o o o o X . . . o o o O o * W 2.p.4.,. .} )  .C.N a 2 - ",
"a 8 c C.<.,.,. . .! !  .t.5.+.B     o o X @ X .                         X X . .   o o o   # U 2.p.e.O. .! } | B.P a 2 r ",
"a n %.x.&.&.&.,...! ! ..i.5.*.x     o o o o X o     o o             o o     . .   o       = U 2.i.e.&.&.} ! | q.x.y + r ",
"M x.j.&.^ ) ) &.+.~ ! ..t.2.+.v o o o o o o o X o   o o o o     o o o o o   o . O o   o o O W ,.i.4.&.,. .) ^ | x.C 4 r ",
"j.a.-.@.} ` | | *. .! | y.t.*.k o o o + O O o O O O O O O o O O O O o o o o o   o       o & L 2.p.5.O.,.<.&.! ` x.m 5 f ",
"S.a.=.=.@.,.-.<.4.<.&.@.0.e.o.k + O - 8 r 8 5 d s d s d d 5 h d r 2 = , > - > = , - > - = 1 F 6.p.1.X.+.<.=.&.6.k.n 5 y ",
"P d.m.b.A.D.D.D.S.D.S.V.M.M.z.2.G f j m C G P / / #.-.7.7.6.7.7.7.6.6.-.-.6.-.6.6.-.2.6.=.%.6.y.z.c.M.B.m.v.v.l.I s 2 r ",
"a a a a a a a a a : s d f f : f a a a a r 5 4 d a a a a s 5 f s 9 a , f a a r r a a 2 : 2 2 + f s s 5 l a a a r a a 2 r "
};
