/* XPM */
static char *_7eb89dbdb09451a92b2656ac6ecbb6dWHqCm2xyS2cAvf7E[] = {
/* columns rows colors chars-per-pixel */
"60 60 256 2 ",
"   c #030B00",
".  c #080501",
"X  c #160300",
"o  c #071600",
"O  c #191700",
"+  c #050019",
"@  c #280301",
"#  c #390402",
"$  c #281C00",
"%  c #351801",
"&  c #2F0014",
"*  c #192700",
"=  c #173700",
"-  c #0B2D04",
";  c #292900",
":  c #372900",
">  c #293700",
",  c #343C00",
"<  c #3C3D00",
"1  c #3A3401",
"2  c #352F19",
"3  c #08022D",
"4  c #2D0831",
"5  c #2C2D28",
"6  c #480400",
"7  c #550300",
"8  c #4F1604",
"9  c #750401",
"0  c #671500",
"q  c #700C02",
"w  c #482801",
"e  c #4B3B01",
"r  c #463A00",
"t  c #583A01",
"y  c #542D0A",
"u  c #6D2D06",
"i  c #50322C",
"p  c #642130",
"a  c #1D4600",
"s  c #1F5308",
"d  c #274901",
"f  c #344501",
"g  c #3C4300",
"h  c #394B04",
"j  c #2C5402",
"k  c #2B5804",
"l  c #355C0B",
"z  c #375707",
"x  c #395A14",
"c  c #2C4F15",
"v  c #3B620D",
"b  c #396806",
"n  c #3D6413",
"m  c #3B6519",
"M  c #33700C",
"N  c #34562A",
"B  c #366928",
"V  c #1F5B18",
"C  c #434402",
"Z  c #4B4402",
"A  c #444B02",
"S  c #4A4A02",
"D  c #474B0B",
"F  c #534A02",
"G  c #564706",
"H  c #465508",
"J  c #575704",
"K  c #494913",
"L  c #475A15",
"P  c #585715",
"I  c #5B4A12",
"U  c #675705",
"Y  c #6B4D07",
"T  c #476507",
"R  c #566605",
"E  c #477406",
"W  c #426414",
"Q  c #436B15",
"!  c #43651C",
"~  c #446C1A",
"^  c #4B681B",
"/  c #556619",
"(  c #4A721D",
")  c #487318",
"_  c #567518",
"`  c #597501",
"'  c #686507",
"]  c #6C7113",
"[  c #4F542E",
"{  c #6C4D2D",
"}  c #456B23",
"|  c #4A6A23",
" . c #566A25",
".. c #4C7322",
"X. c #4B7528",
"o. c #527A25",
"O. c #547C2B",
"+. c #587629",
"@. c #587934",
"#. c #4E6F35",
"$. c #667628",
"%. c #757927",
"&. c #6E712E",
"*. c #0C054E",
"=. c #2F0A53",
"-. c #0B056B",
";. c #292162",
":. c #710E4E",
">. c #581C5A",
",. c #39554F",
"<. c #4E6E48",
"1. c #6B724D",
"2. c #655B5E",
"3. c #901005",
"4. c #A80403",
"5. c #B11506",
"6. c #922C03",
"7. c #B12C03",
"8. c #B5092C",
"9. c #8C2E2F",
"0. c #B4272D",
"q. c #D60501",
"w. c #C71902",
"e. c #D10F06",
"r. c #E90403",
"t. c #F70703",
"y. c #ED100F",
"u. c #CD2D0F",
"i. c #EB2E18",
"p. c #DC0632",
"a. c #EF0A2C",
"s. c #F53125",
"d. c #D43331",
"f. c #904E0C",
"g. c #AF4A08",
"h. c #907310",
"j. c #934B33",
"k. c #88742A",
"l. c #B0782F",
"z. c #A85B1F",
"x. c #D05930",
"c. c #F75226",
"v. c #CF6C36",
"b. c #E56C20",
"n. c #8B3553",
"m. c #931D65",
"M. c #B25245",
"N. c #A06657",
"B. c #EA6A52",
"V. c #DB6452",
"C. c #DE1A4C",
"Z. c #56861A",
"A. c #708E0C",
"S. c #5A822C",
"D. c #5D8333",
"F. c #5B853A",
"G. c #4D882D",
"H. c #648838",
"J. c #758837",
"K. c #689239",
"L. c #6D8A28",
"P. c #77A629",
"I. c #588D4B",
"U. c #698943",
"Y. c #739848",
"T. c #6F904A",
"R. c #75A44A",
"E. c #7C9772",
"W. c #3A8619",
"Q. c #888F08",
"!. c #B18F03",
"~. c #93A902",
"^. c #AEAB0A",
"/. c #8B8B2E",
"(. c #95B031",
"). c #AEAC2B",
"_. c #CE8F35",
"`. c #D3B21F",
"'. c #AFCB20",
"]. c #D2D110",
"[. c #F5D70D",
"{. c #D7E913",
"}. c #F2EF0B",
"|. c #D6D231",
" X c #F2D235",
".X c #D2EA2C",
"XX c #FCFB28",
"oX c #FBF939",
"OX c #F2EA2E",
"+X c #90914A",
"@X c #B4924C",
"#X c #8EA752",
"$X c #B2B253",
"%X c #908D75",
"&X c #B1B36D",
"*X c #B4976B",
"=X c #CD914C",
"-X c #D6B157",
";X c #F2B470",
":X c #E29E57",
">X c #B2C84E",
",X c #BBC96F",
"<X c #D3CD47",
"1X c #EED753",
"2X c #D0EF4F",
"3X c #F4F14D",
"4X c #CCD173",
"5X c #F0CD72",
"6X c #D3E869",
"7X c #FCF968",
"8X c #F5EE72",
"9X c #030396",
"0X c #0E048B",
"qX c #2F0593",
"wX c #1403AF",
"eX c #2D05AE",
"rX c #2B2C9C",
"tX c #45018F",
"yX c #5005AE",
"uX c #6C0AAC",
"iX c #6D1D94",
"pX c #0F06D1",
"aX c #2E09D5",
"sX c #2C0BF7",
"dX c #1307E4",
"fX c #6D07CB",
"gX c #4D04CC",
"hX c #5E6194",
"jX c #8C0398",
"kX c #A93097",
"lX c #900AAC",
"zX c #B00BB2",
"xX c #9F22A1",
"cX c #CA07B4",
"vX c #C42497",
"bX c #936692",
"nX c #AF0CD0",
"mX c #B10EE9",
"MX c #971AD4",
"NX c #C602D2",
"BX c #CB02E6",
"VX c #C76E9E",
"CX c #748B9D",
"ZX c #A09E94",
"AX c #FDA7B4",
"SX c #E3A894",
"DX c #ACC69F",
"FX c #D3D390",
"GX c #EFD58F",
"HX c #F9F091",
"JX c #FCEFAD",
"KX c #DFDCA4",
"LX c #FEB9C1",
"PX c #FDF4D3",
"IX c #FDF3F8",
"UX c #EDD4DC",
/* pixels */
"+.L J.+.U.O.( d l X.F.O.F.I.I.#.@.@.x m T.F.V X.B m m ~ O.D.+.^ Q S._ K.) b d o.W ^ ..W W ^ +.D.O.v S.^ ^ l O.l H.o.( ( ",
" .W | W o.+.S.O.H.o.~ ~ } } m x f L h | Y.@.d m X.X...~ l z H W z b j W j z j H.z W ..~ l z j d v j W j l d v j ..z n Y.",
"Y.Y.| v z v z _ ^ T / $./ f , L C K g D $.^ j ^ O.~ l n ( ..W j l v a v v ) n K.Y.K.O.l j n O.H.n Q ( l o.~ o.S.~ j d z ",
"O.K.l ..^ +._ J.H H H P P C r I I J r < J A A  .L z j W H.H.o.l n ~ z o.o.S.n o.W ( o.....O.H.H.v o.~ l ..Q n S.l ~ Q d ",
"n O.j H.$.$./ J ] J 1 : e G G e r Z Z F J F S J A P $. .^ L ^ @.n | l O...O.l n l n ( ....O.O.o...H...n n l d n n n W ..",
"O.O.l H.T > f o ; e G G t t t t G Z F J U ' ] %././.&./ z z W +.n X.x } x } l ~ H.H.O.~ n ~ ......D.o.O.Q ~ l ..Y.l = W ",
"..l j +.h = /.] $ 1 F U Y t t Y ' J J ' ' k././.+X%.P A D L L x ! @.} | x } n D.l Q o.O.o.~ j a l m Q D.l ~ ! ..R...l ~ ",
"U.W W $.H h JXFX/.C O : U U G J J J ] /././.k.' e Z Z C < g D D L U.@.@.x } x D.n ! W n Q ..o.......O.Y.l | ~ ! d O.H.l ",
"$.^ z T _ * $XL.$X4X%.; . J P %.L./././.] S Z r F F Z r r Z D D h ! @.+.+. .^ L ^ +.O.! x ~ ( Q H.T.x d @.n = m x n m x ",
"J./ H / R f _ &X  H &XFX+XC * < , * g , A R C C S Z Z G I I I r g L  .+.+.$.+. .H.J.@.n z n Q n d @.! d +.U.D.H.} ..X.X.",
"^ z T J.$.$.= 4XJ o * $.,XFX&X%.U -X' : r C ' S < C F I G e t G C A A A H / / / L / +.^ |  .! z m F.F.m x } } l } | } } ",
"W j ( #XL.J.* #X#X  O &XJX&XFXFXGX:XHX=X% r r < A A C Z e e t I F S < , g J / / h H ^ / +.$.+.! O.x } O.x l m x | } m x ",
"K.b ) S.T T R / FXX X k.JXPXPXSX3.7.6.:X:Xy t U / g > C P I G e F J J J ' %.%.$.%.$.L h L  .$.H.H.x } @.} } @.} @.@.X.} ",
"G.M M ) E T J.: FXG # 6 u V.PXPXu.w.w.7.:X=X@ ; , , A L D 1 r G Z U ' h./././.%.] / H g h L  .+.U.F.U.X.x O.F.c O.X.} } ",
"k M M M L._ ] ; GX8 # M.9.7 9 B.s.q.q.i.5.v.JXU , f z H g , D %.U ' h.h.] ] ' J < g h A D D D L x } O.} x @.U.X.| } x x ",
"W.G.M k Z._ , 1 GXf.7 6.5.d.8.4.r.y.y.q.u.3.u FX/.h o > / %.%.%./././.] J Z g , A A S S g f D L L x  .@.+.} X.F.@.X.m x ",
"R.Z.s Z.b z /.o GXY 7 7.u.e.y.y.y.r.r.a.p.3.{ FX,X,XA.R X % r e t G r C S H L d j h F F H z K K g h H L /  .+.+.D.! x m ",
"v S.) L.E L.T g GXt 6 6.w.y.y.r.r.t.a.a.p.8.N.PX4X$XQ.6X5X-Xk.U h.t Z , C P > a l h e r f z P P I D A A H L /  .#X@.l j ",
"c T.U.^ z #X* $.FX% 6 M.0.4.e.q.t.t.t.y.y.4.3.9.PXGX1 ; h.-X;XGX5XHXU ; t e  .L H H G G h z g 1 Z S S D L /  .+.@.| l d ",
"<.[ #. .$.$.* &XDXX @ LXLXB.x.w.r.t.r.t.y.e.4.4.3.3.X . f.f.u u z.f.5X@X8 w : h , < t G H H K K Z F P / $. . ./ h  .H.O.",
"<.* L J./.> R FX<.. bXIXIXUXAXB.q.t.t.r.r.e.r.s.q.8.@ % V.6.0 g.b.z.u =X:Xy r F F J Y t g g D P &.&.&.&./ P D f > | H.@.",
"N L +.> > > 4X,X    ZXIXUXIXIXAXe.t.t.r.e.e.q.r.a.8.@ X V.6.0 g.b.6.8 u ;XSX% $ e t Y Y J J P P &.] P J D S A h f h x L ",
"l o.R o , ~.7X).g     2 %XIXIXAXe.r.r.t.i.i.y.a.p.8.# @ V.d.6.6.b.5.6.z.3.x.JX@Xw 8 u Y ' %.%.%.I G Z Z C C D K H x ! @.",
"_ = o ` 2X7XoX.X3XA., o . 2 bXSX5.t.t.r.5.3.4.C.C.3.X % V.4.3.g.c.7.q g.B.6.6 @X;Xv.u w : r Z Z Z G G F Z C g g > f  .U.",
") P.b (.2X3XXX{.}.XXOX~.C X X 6 7.e.q.q.0.7 AXAXM.p . % d.w.3.7.c.w.9 x.u.7.0 l.f.v.;X;X@XZ ; Z G Z e Z Z < < g  .+. .x ",
"m ) E R <X|.XX}.}.}.}.XXOX^.G @ q 4.a.p.0.# SXIXIXN.  : B.w.3.g.c.w.9 x.i.w.0 l.g.6.6.-X@X&XZ C F e e Z Z C C D  .^ L ! ",
"B N X.> /.1XOXXX}.}.{.}.XXoXOX`.u 7 3.3.n.p DXIXIX1.  r B.5.9 x.c.w.9 x.i.w.0 l.7.3.7 h.-XHXg * D Z Z Z S A D L &.| | @.",
",.<.#.f J 8XQ.^.OXoXoX}.].[.XX7X5Xj.M.7 6 X <.DXPXT.  $ x.u.9 x.c.w.9 x.i.w.0 l.7.7.0 h.GXk.. , D Z C S A A H L U.@.+.@.",
"<.<.1.h S 8X$ : U @XGXHX7XOX[.[.G X y 6 t $ o o &.1 * y M.7.9 x.s.w.9 x.i.e.0 v.u.3.0 5X5XX O  .S Z C S C g D L L L j = ",
"<.N J.> ] 4XO . + =.2.ZXGX8X3X3XU . J %.8X<X`   X X . i M.6.9 B.s.w.9 x.i.e.0 _.7.4.f.HXt @ / , D S S S g f z ^ U.T.H.} ",
"+.z ` f A.GX; 3 eXwXwXqX2.*X X3X:   b E |.3X7X1Xv.0 X X p j.9 c.i.5.9 x.i.e.0 =X7.7._.-X@ G &.* A S S A h h L  .+.X.} m ",
"H._ H H H GXX *.9XdXsXaXqX>.z.=X8 @ T A.oXOX|.Y 6 u k.$ @ 0 7 g.d.5.q v.u.5.0 =X5.5.:Xh.w t ;  .S A A H A A L +. .! ! @.",
"B X.` Q., 8X2 3 9XpXpXwXyXxXm.vXm.m.SX7X.X{.R X l.@ 1 3X' < X @ 3.3.0 =X7.7.3.B.8.4.-X' w 1.w 1 S S S S A A h h  .| @.U.",
"I.m (.Q.O 5X[ 3 -.9XpXwXfXMXzXcXcXm.9.k.>X6X/.X GXHX].oX8X>Xg { 7 q # u u 6.6.B.8.3.<XR X y I %.S A S S S A A h L | X.@.",
"G.s P.A.; @X*X. *.0XwXwXfXmXzXcXcXjX=.=.,.CX2.X f.8XOX].8X/.X i j.u X @ f.6.q B.8.9 ).A.; i G 1 S S S S S S A h H  .#.} ",
"M M j $.J J KX  + *.eXeXfXmXNXcXzXxXtX0X9X9XrX4 @ u _.1X1Xr X 8 # @X$Xe 8 6 7 u M.q Q.~.O K F r S S S S S S S A D  .+.x ",
"M R.l $.%.; ,X .  + -.qXfXmXNXNXzXlX-.eXdXpXaXqXiX& N.HX8XG # 8 @ ] 7X3X`.8 # 7 q 7 J >X  r S J S S S S Z Z Z A C  . .f ",
"M G.F.L P : ] 4X  . *.tXfXmXNXNXzXlXqXeXdXpXwXqXxX:.n.N.=Xw # y X A.3X{.3X7X;Xu 7 # ; ,X> K g C S Z Z Z Z Z Z A D P ^ x ",
"M M @.[ K P g ,XR . + =.uXnXBXNXzXlXyXwXwX9X=.2.n.n.n.>.{ & & >.. $..X{.XX[. X8X_.Y ; +X[ 2 F F Z Z Z Z Z Z Z Z K K L L ",
"G.T.m T.$.J.J ] &X; X & :.nXBXNXzXjXyX0XrXCX%XGXN.j.p p p >.=.*.*.DXHX{.}.}.[.oX7X|.^.4X+X$ I G Z Z Z Z Z Z Z D D g h L ",
"I.T.~ +.J.$.%.h ,X%.% @ m.zXzXBXNXuXuX*.ZXDX$XHX=X5X`.Y e 4 -.aXwXrX%X1X3XOX[.[.}.XXXX|.4XG % { e Z Z Z r r Z D K D H  .",
"B I.o.L.L._ J./ > JXF @ :.kXzXNXNXlX=.=.KX(.<X1Xh.!.].^.U i rXwXaXwX>.j.v. X1XOX}.}.].oX7X/.@ i G Z e Z Z G D D < , f L ",
"N @.S.Z.E T H.U.z / GXt # :.xXjXzXjXtX>.KX~.{.XX!. XOX].(. .5 ;.9XwXiXxXm.0.B.;XoXoX}.}.}.|.e w I G Z Z G K Z < A D L  .",
"<.@.( E b b O.U.L * R JX8 # m.kXzXiXyX*.U.'.~.].!.`.].^.'.A.> ,.0XwXuXnXzXxXkX9.k.|.3XoX}.XX!.% G D Z Z Z C < < , f H ^ ",
"T.O.v b E _ ~ ! U.H.H / KXw @ n.xXMXeX-.x 2X^.].`.!.`.OX'.~.] 5 ;.qXfXmXmXnXnXiX=.5 j.-XXX}.3X' 1 < C C < < < A f H ^ ^ ",
"U.n v n S.K.v k Y.U.x , %.GXw # 4 MXqXrX5 R..X{.3X X`.|.].~.J 5 -.eXMXmXnXlXnXMXqX-.=.i ^.].6XJ $ > C C < < C L H  .@.+.",
"S.l ~ } X.D.b ) j = c [ [ %.HXU # 6 -.9X9X*.+X<X_.:Xl.h.].^.F [ rXwXfXnXcXvXzXuXwXpXgX=.+X6XK . ; , C D C g D H f ^ +.| ",
"S.W @.m x m b K.n m 1.E. .> h 7X<X@ 3 -.rX-.i *X;X:X;X5X<X).{ 3 9XaXMXnXjXm.xXMXeXdXsXwXZX4X  [ K D K K D C g f z  .H.+.",
"Q W O.D.~ ..K.Y.S.k } +.z ( _ o ).8X+X  + 3 =.iXVXAXJXHX5X1.*.0XwXwXiXxXzXzXzXjXqXwXsXwXZX,X  I e G G G Z D D D h  .@.x ",
"D.v o.O.j Q Y.H.R.( ~ ( Q H.K.H O ' >X4X= O 4 4 kXM.M.j.{ =.0XpXsXaXiXxXnXnXzXlXyXeXpX9XUX#X. G e G G G G S A h L | | x ",
"o.j ( S.l ( K.Q R.o.v v ( O.o.^ &.H f >X6X(.$ 8 p :.m.kXiXqXwXpXdXaXuXMXnXnXzXjXqXgXaX0XIXR O F F F F F Z C D H  .L ! X.",
"W v v W ( o.o.( ( Q l W D.( v ( Y.$._ a E '.2Xh.6 6 :.xXtX0XpXaXdXaXfXmXmXmXzXjX=.tX0XhXPX; 1 U F Z C g g A L  .L L ! | ",
"( H.j a S.S.v K.l ( ( S.Y.O.n L.d A.#X- - T |.3XOXh.8 6 4 -.0X9XeXeXfXMXmXnXzXjX>.4 4 ZX,XO G F S g g A H H / @.z | +.x ",
"W Y.Q l R.H.j o.o.K.S.o.S.Q l _ A.P.a <.E.! = OXXXXX3X=Xi + + 3 3 =.iXMXnXnXxXm.@ w /.HX%.. r Z h f z ^ / ^ ^ +.x D.H.! ",
"Q O.( o.K.S.v l H.K.o.v W Q n E (.L.<.CX,.<.` R XXXX X1XHXHX(.T o O 4 :.:.:.:.p y /.2X>X> ; e [  .W W | ^ W ~ +.| D.H.@.",
"K.v l v d v H.( O.O.) n O.Y.Y.K.Z.Z.<.N <.#._ h ' Q.F O < A.'.2X2X>X+Xj.u j.N.N.GX6X'.=    .1. .T.O.Q n l k Q D.O...o.D.",
"..Q S.( H.Q O.o.Q ( o.v Q ( l o.G.m G.B I.#.! T.D ; [ [ &.h = j A.(.4XGX7X7XHXHX&XH - = #.[ D f W ~ D.#XS.n ..k n z ..z ",
"Q v O.o.K.Q ~ v j z o.o.S.H.( S.K.G.G.M F.} c <.1.2.2.1.%X$.` A.= j f g A < ; ; * = b v ,.5 z T ( ..G.R.O.m O.n ( l ( l ",
"( v ( ( H.( Q z l v S.S.S.D.Q ) Z.M E k U.#.N <.<.[ @.h +. .[ <.#.@.#.H H h f H d B F.} <.N .._ ) m n X.~ k ..l H.W D.H.",
"K.( v v o.o.o...S.Q S.( v ~ v b E M b k Y.<.N <.<.#.O.a z N ,.,.N #.N c H z T @.I.#.B s ,.N l j n l k k n d ~ j o.d ^ H."
};
