/* XPM */
static char *result[] = {
/* columns rows colors chars-per-pixel */
"60 60 226 2 ",
"   c #130E0C",
".  c #16120E",
"X  c #19130E",
"o  c #171412",
"O  c #1A1511",
"+  c #1D1915",
"@  c #1F1C1A",
"#  c #221A15",
"$  c #241D1A",
"%  c #281F18",
"&  c #26211D",
"*  c #2B221D",
"=  c #3F2914",
"-  c #31261F",
";  c #3B2C1B",
":  c #2B2622",
">  c #2B2826",
",  c #2E2925",
"<  c #322721",
"1  c #332A24",
"2  c #352D2A",
"3  c #392F2B",
"4  c #3F3526",
"5  c #37312C",
"6  c #39312D",
"7  c #353636",
"8  c #3C3532",
"9  c #3D3936",
"0  c #45260B",
"q  c #462A0E",
"w  c #4A290E",
"e  c #5B3C0E",
"r  c #432611",
"t  c #442A12",
"y  c #4A2C14",
"u  c #4B2B1B",
"i  c #502D13",
"p  c #463016",
"a  c #4C3316",
"s  c #4F3817",
"d  c #44331D",
"f  c #4C351B",
"g  c #4E391D",
"h  c #523416",
"j  c #5B3714",
"k  c #573B16",
"l  c #5C3B14",
"z  c #54351B",
"x  c #59361A",
"c  c #543A1C",
"v  c #5D3C1A",
"b  c #613B0D",
"n  c #603716",
"m  c #613D16",
"M  c #623D1A",
"N  c #443523",
"B  c #4B3622",
"V  c #443A27",
"C  c #4B3924",
"Z  c #43352C",
"A  c #45392B",
"S  c #4C3B2C",
"D  c #5A3520",
"F  c #543B22",
"G  c #5A3C22",
"H  c #503D2A",
"J  c #413631",
"K  c #433A35",
"L  c #4B3D32",
"P  c #443D39",
"I  c #4A3F3A",
"U  c #513D31",
"Y  c #623E22",
"T  c #6A3E22",
"R  c #5E4115",
"E  c #5C411D",
"W  c #624117",
"Q  c #694416",
"!  c #63421B",
"~  c #69451D",
"^  c #66491D",
"/  c #6A491E",
"(  c #704B1F",
")  c #5C4222",
"_  c #4C4235",
"`  c #44413E",
"'  c #4A433D",
"]  c #534434",
"[  c #52463D",
"{  c #534B3E",
"}  c #644422",
"|  c #6A4622",
" . c #664822",
".. c #6C4B24",
"X. c #65492A",
"o. c #6D4D2B",
"O. c #724C25",
"+. c #714D2A",
"@. c #784C2A",
"#. c #6F5126",
"$. c #6D502B",
"%. c #725325",
"&. c #75532C",
"*. c #79552C",
"=. c #77582C",
"-. c #7C5A2E",
";. c #6F4E32",
":. c #755532",
">. c #7B5632",
",. c #775932",
"<. c #7C5A33",
"1. c #75573B",
"2. c #7D5C3A",
"3. c #7F6136",
"4. c #373A41",
"5. c #3A3D42",
"6. c #3D4246",
"7. c #3F4248",
"8. c #444342",
"9. c #4B4542",
"0. c #4E4946",
"q. c #42454A",
"w. c #48474B",
"e. c #454A4E",
"r. c #4D4C4C",
"t. c #514640",
"y. c #544C43",
"u. c #584F43",
"i. c #524D4B",
"p. c #5A5145",
"a. c #5B534B",
"s. c #58554A",
"d. c #454B51",
"f. c #4A4D53",
"g. c #4C4F58",
"h. c #514F55",
"j. c #4D5155",
"k. c #4D545A",
"l. c #4F585D",
"z. c #545454",
"x. c #5A5654",
"c. c #555857",
"v. c #5C5A54",
"b. c #52555B",
"n. c #555A5D",
"m. c #5B5B5C",
"M. c #655B4E",
"N. c #635B55",
"B. c #6A5D55",
"V. c #635E59",
"C. c #685F5A",
"Z. c #57605F",
"A. c #65625C",
"S. c #6B635B",
"D. c #6B695C",
"F. c #74655C",
"G. c #535760",
"H. c #555B61",
"J. c #5A5E63",
"K. c #565F68",
"L. c #566062",
"P. c #5C6265",
"I. c #56626B",
"U. c #5C646B",
"Y. c #5E686D",
"T. c #5E6972",
"R. c #626365",
"E. c #696762",
"W. c #6C6B64",
"Q. c #62666B",
"!. c #656A6D",
"~. c #6A6B6D",
"^. c #726C63",
"/. c #7A6E67",
"(. c #716D6C",
"). c #67706F",
"_. c #6D716D",
"`. c #71736E",
"'. c #79716E",
"]. c #656C73",
"[. c #696E71",
"{. c #6C7273",
"}. c #677079",
"|. c #6D757A",
" X c #6C777B",
".X c #727573",
"XX c #747975",
"oX c #787B77",
"OX c #727779",
"+X c #747B7C",
"@X c #797D7D",
"#X c #815C2F",
"$X c #815731",
"%X c #815D35",
"&X c #825D3A",
"*X c #826337",
"=X c #84623A",
"-X c #89663C",
";X c #8B6A3D",
":X c #906F3F",
">X c #886541",
",X c #8D6B43",
"<X c #8E6D4A",
"1X c #926D46",
"2X c #926F4A",
"3X c #8D704B",
"4X c #937246",
"5X c #95734B",
"6X c #997A4D",
"7X c #987950",
"8X c #A07C52",
"9X c #877C78",
"0X c #7B817F",
"qX c #6B7C82",
"wX c #767E81",
"eX c #797E81",
"rX c #768082",
"tX c #7B8384",
"yX c #7D8688",
"uX c #7F898A",
"iX c #828685",
"pX c #858987",
"aX c #848A8A",
"sX c #8B8F8E",
"dX c #8D9190",
"fX c #929795",
/* pixels */
"< < < < < < < < < # > 8 3 3 + 7 8 J 8 8 1 1 . o o o X + : o o o o o   . . . . : 1 1 < < < < X O O X O O o o O O : O     ",
"1 3 3 1 < < < < < # > 1 < < O 6 < < < < - & $ 8 3 3 3 6 2 6 5 5 1 2 + 5 1 5 & : 1 < < < < < X 3 3 < 2 3 3 3 3 3 6 8 < 1 ",
"K ' ' K 8 3 3 6 3 : 6 8 6 3 & K 3 3 6 3 5 1 > 9 3 3 6 6 6 6 6 6 6 6 : 9 5 6 : & : > , : & : + 9 8 3 3 3 3 5 5 8 8 P 9 8 ",
"i.z.c.c.j.f.z.z.r.f.b.x.z.z.r.c.b.z.h.b.z.z.z.c.z.z.a.z.z.x.x.z.x.z.r.c.z.z.z.s.z.z.z.b.n.n.j.b.z.z.z.z.z.z.x.x.c.x.x.8.",
"A.R.~.Q.[.[.~.].Q.].!.!.Q.Q.Q.].[.~.].].].~.~.~.~.~.~.Q.~.~.~.Q.!.Q.~.~.[.[.[.!.!.!.!.).].).[.[.].).!.!.!.Q.Q.Q.Q.~.~.r.",
"9.i.j.j.z.k.e.e.w.d.w.d.w.g.w.w.d.w.w.w.w.w.e.d.j.d.d.d.e.r.w.e.d.d.d.z.b.l.j.d.d.d.e.e.e.d.d.d.d.e.e.d.d.d.d.j.b.f.w.8.",
"Z i.z.6.q.q.5.5.5.7.q.w.w.7.w.w.w.7.7.7.7.e.e.d.e.d.d.d.w.d.d.d.d.7.d.d.d.d.d.d.e.e.q.6.6.q.e.e.e.6.7.d.q.6.8.7.5.q.q.` ",
"1 K m.j.z.d.e.d.g.7.G.K.g.g.h.J.H.g.w.b.K.U.U.U.U.I.T.U.I.I.Y.Y.T.U.I.U.Y.U.U.U.Y.I.P.l.d.d.m.J.n.g.d.J.m.e.d.d.w.e.b.8.",
"X : r.d.c.J.H.k.b.g.H.b.h.G.Q.[.b.b.b.J.Q.}.].}.}.].}.}.T.T.Y.I.I.Y.].].}.}.}.}.}.].].J.J.h.b.Q.~.J.g.k.J.j.b.f.H.J.V.` ",
"3 9 i.z.b.Q.Q.b.g.k.K.G.K.qX].Q.b.c.n.j.L.].!.}.T.Y.I.H.l.l.l.k.k.k.l.l.G.K.Y.].].].K.b.b.h.h.~.~.].Q.b.H.c.j.j.P.~.r.5 ",
"1 1 2 K v.P.Q.G.b.G.G.g.U.Q.J.G.8.w.b.n.n.Y.Y.J.l.n.L.P.P.Q.].Y.[.[.!.P.K.J.J.G.J.Q.Q.b.b.r.5.f.K.U.U.d.k.K.b.f.Q.b.2 : ",
"- * % 1 P m.J.b.J.K.b.b.g.w.g.h.q.7 q.n.R.L.n.L.).).)._._.`.`.~.`.(..X`.OX{.~.Q.H.G.G.G.g.4.7.k.h.d.k.b.k.J.J.b.~.v.> : ",
"- 1 1 - 6 x.b.U.].U.G.T.G.g.K.J.g.g.k.n.n.L.!.XX@XXX.X`.W.D.D.S.S.S.W.W.`.`.XX.X[.!.U.n.g.7.l.l.G.k.l.U.b.U.[.R.[.i.* > ",
"- - 1 < 1 K V.G.K.J.Q.Q.G.G.U.G.k.b.G.P.!.{.{.{.`.S.s.0._ _ A V V A S ' y.z.D.`.OX[.}.!.L.l.H.H.H.J.n.Q.Q.Q.J.R.OXi.% > ",
"< < < < < Z m.f.G.g.J.G.g.Q.Q.K.b.l.U.{.OX.XW.v.' V 4 N C N d ; ; d N V V N K y.A.~.{.+X].L.l.l.U.].l.G.J.c.b.b.~.i.% + ",
"< < < < < 3 x.b.Q.g.g.G.U.[.}.K.K.Y..X.X^.A.y.V d d B F z f B = ; p g c z f d N K y.D..X).).Y.L.T.].U.G.f.d.J.J.~.t.$ $ ",
"% * % % * , i.J.J.g.k.U.!.].T.I.T. X{.W.N.] u p c ) c } } c f = = p E ! l M Y F d A [ A.`.0X`.P.I.].T.H.G.j.P.R.~.' # : ",
"* 2 * $ $ O I G.G.G.b.G.I.].I.T.qX0X`.M.] N p c o.3.| &.&X} a r p s =.3.| @.>.o.B d N [ D.`.0X XU.U.K.G.n.f.J.Q.W.` * 1 ",
"2 2 2 2 < @ P w.w.f.b.g.J.U.I. X0X0XD.] N g E E 1.7X$.%X4X .h r p s <.4X*.$X1X&.) ) N V { ^.XXtX|.K.H.n.b.f.d.Q.i.: . , ",
"< * < < * O 2 w.5.4.g.G.K.l.].rX X_.{ d N ) ) E  .<.~ o.=.E a r t a / =.( | @.| ) ) F N S s.W.rXwXI.G.G.l.7 9 ~.0.5 & : ",
"< < < < * # 8 r.g.7.g.U.U.J.+X+X_.v.V 4 ) ) ) E l l m m l l z r y z l l e R R R E ) G C N L D.{.wX}.H.J.l.7 d.~.P < # : ",
"< < < < < # 6 I b.b.Q.].G.!.wX+XD.{ ; E ) ) $.E ~ %.W ( %.! x r u z | %.W ^ #.R ^ $.} G z C p._.wXwXH.].Q.m.J.(.P < * 2 ",
"< < < < * # 3 2 h.Q.[.[.l. X@X_.v.V d ) E ,.>X#.=.,X( #X;X| k 0 y j -.:X( =.:X%.%.;X#.v G B S A.{.yXQ.K.[.Q.m.~.K < # , ",
"< < < < < : 3 Z J.!.].U.n.wX+XW.{ E E E ) 3.-X .%.;XO.-.;X| h t i z *.;X#.%.*X#.%.;X%.M } f d v.Q.eX[.H.~.Q.Q.x.3 < # , ",
"# O O * # . # $ i.G.Q.G.U.tX0XW.[ B G X.Y M v l l M m M m x z r u x n n l v R l m b M T Y D N i.OX@X Xm.U.Z.~.' 1 - # + ",
"2 2 2 3 2 2 2 7 0.b.G.b.].+X{.v.L B G } Y M | M W / m M ~ M D r u D X...M M R R M T n M ;.F C ' ~.OXyXm.J.OXx.P - - # & ",
"< < < < < < < 1 9.H.!.n.+XyX~.u.N a $.&XO.O.*X/ ..*X( *.&Xo.z u y D >.%X| #.2.#.%.#X~ @.>X} d Z A..XyXP.J.sX9 5 - - # : ",
"< $ < < < < < < 6 R.].G.{.0X_.y.S a 1.2X@.<.5X%.<.6X&.%X1X..z r y x >.5X*.2.1X=.#X4X-.$X5X;.s S V.{.tXQ.J.aX9 5 1 - # : ",
"< < < < < < * * 3 z.!.m.+X+XXXs.C c } } M ~ ~ m W ^ M / | M z r y z M | M Y } ! ~ ~ W m o.! d _ A.{.yXQ.n..XP 6 - - # : ",
"< < < < < < 2 < 1 r.!.L.+X{.`.s.S z v M M m ! l l m l l m v z r t k W W M M v l m m m m E R c L V.`.tX!.b.+X7 : * & X - ",
"< < < < < < < < 1 r.].n.+X0XoXp.d a | *./ ~ %.W ^ =.~ / -.| z r q k O.>.M O.>.|  .%.Q ~ =.E s C V..XtX_.n.sX9 & & & + : ",
"< < * * < < : * 1 ` Q.P.+X+XXXp.C k 2.5X>.*X6X=.3.6X&.;X6X$.h r t l &X8X>.&X5X-.*X6X-.-.6X$.a S S.oXrX).m.dX' 1 1 1 & * ",
"+ # O O # O # + $ > R.J.@XOX~.u.C k ..&.....<.^  .<.~ O.<.M a r y k ..,.| O.>.| ..=./ ..-.} g V N._.rX!.Z.dX' - 1 1 # * ",
"3 3 3 2 2 3 3 3 8 , b.m.eXOX(.a.C c R v v l R R R W m m l l x t y z l m l M v v l W m M M l F S A.XXyX!.Z.dX' - - - + & ",
"< < < < < < < < < $ w.J.eX+XoXp.C h v ! M v ~ R m / m M / M z = y x } ~ v ! } R W ~ m m  .v g S N._.yX).c.sX' - - - # : ",
"< < < : < < < < < $ 7.b.@XrX.Xp.C c :.,X*.>.,X$.*.5X+.%X2Xo.z t y G &X1X&.2.,X$.,.,X%.*.2Xo.p L A.XXtX).Z..X' , 1 - * 5 ",
"< < < * < < < < - & ` j.+X+X.Xu.C s &.>X=.:.,X .=.2XO.$X,X| D r t x >.,X+.:.>X&.&.;X&.*.<Xo.p S A._.rX).L._.` 1 - 1 # # ",
"< < < 1 < < < # - & ` R.@X0XXXp.C h E / W !  .R W | M ~ ~ v z t y i ! | M ! ^ ! W ~ m m | ! g K A.~.tX!.Z.iX' < - - # @ ",
"< < < < < < < 3 - # 8 XXyX+X_.p.C h k l v l R l l W m j m M z t y x M l l v M l l l n l v v s A A._.yXY.c.pX_ : - 1 # : ",
"< < < < < < < < - * 8 0XpXXX_.y.B s | :.| | :.^  .<./ O.>.| z t y c +.>.| o.:.| o.-.....>.! p A A.XXyX{.XXE.3 & 1 - # 1 ",
": < < < : < 1 - - # 5 @XpXXX_.y.d a ,.,X*.<.4X#.<.5XO.&X2Xo.z t y x >.5X&.2.<X=.-.,X*.>.5Xo.p L A.`.yX0XfX{ 1 1 < < $ 1 ",
"O # & O . O X X X . 5 0XaX+X`.p.B a o.<...o.2./ o.$X| *.$X! z r y z o.%X| $.>.| #.-.( O.<.} p S v.{.uX0XdX` 1 - < < $ > ",
"6 6 6 5 X 6 6 5 6 & ` oXaXXX`.p.B s l l j j l k e l m n j l z r y z l l l v l k l e l j l x g S V.0XyX0XyXK - - < < # : ",
"< - - < X 5 1 * 1 : m.R.tXXX_.p.N s ! o.M ! ..R W ..M ! O.! z r y x | O.M } ..W W  .W ~ ..v f V A.XXtX0X0X{ 1 1 < < # * ",
"< < - < X 6 - - 1 9.W.Z.0X X_.p.C a $.-Xo.:.,X .=.;XO.>.,X..z r u c %X,Xo.;.>X$.&.-XO.*.,XX.t V v.`.tX).U.x.& O O O     ",
"< < - < . 5 1 1 K R.L.P.0X0XXXp.B s ,.1X&.3.5X#.<.5X*.&X5Xo.z r y h <.2X*.&X5X:.=.,X*.>.2X;.p S A.).tX).Z..X8.9 3 3 $ : ",
": 1 < < . 6 1 6 v.W.!.R.yXrXXXp.C x v ! M v W R m ~ M m M M z t u x M M M ! M R E W W M ~ v g S V.`.yX{.P.W..X' < - + > ",
"X X . .   O $ 8 J.!.~.Q.0X+XXXy.d s v W M l W l j W m n W l z t y x M W l v W k m W m l W k d S V.{.tX{.P.Q.~.t.3 < # > ",
"6 2 $ 8 3 K z.~.~.[.].Q.0X+XXXp.C s X.=...| -.^ / -./ %.<.} x t y c :.<.~ ..,.o.O.<.| ~ %XE d S A.W.yX!.j.P.E.s., * * , ",
"< & $ 3 2 9.b.P.U.].{.U.rX0X`.p.g c 2.3X:.<.4X%.-.6X%.-X5X..h 0 i D 3.7X#.,.3X,.>.2X-.*.6X$.f K m.!.yXI.e.l.Z.Z.5 $ $ 1 ",
"< * # 3 J V.m.g.H.).!.Q.rX+X_.p.C c X.$.~ / %.^ Q %.~ | &.v a q i h } %.^ ^ $.} ..@.Q Q %.E g L A.OXyX).P.P.n..Xi.2 $ > ",
"- * $ 8 i.Q.Q.b.J.].).Y.rX X_.p.C c G G k l m e e W j l v G i y i j l e e R l v M m b b e k E S A..XtX{.P.R.Q.~.C.J # & ",
"< * $ 9.m.Q.Q.b.n.U.].Y.tX+X`.p.B z ) ;.! ! *.M ~ &.m | :.} i 0 y l ..%.R ^ ..} T @.M Q #.v z S N.XXuX{.!.!.R.m.~.t.$ . ",
"< * < C.Q.[.~.G.U.P.P.L.wX{.`.p.F x M.<X:.>.1X&.-.1X&.%X2X;.x w i x 2.5X#.=.<X>.>.1X@.-.4Xo.f U S.+XuX XY.L.j.j.R.x.> < ",
"< * 5 OX~.(.Q.U.I.j.d.l.tX+X.Xp.z c ;.2.o.&.%X..&.&X..:.2.Y h 0 w i $.=X..$.2.;.:.&XO...3.X.f S V.OXyX+XU.Z.b.c.m.E.2 > ",
"$ , x.eXJ.U.U.~.P.k.k.n.yX+X~.u.C F G ) c l v j l } l v ) z z r y z c E c v F G G ) v c E ) C L C.[.rX+X!.U.b.j.b.J.h.6 ",
"P (.[.R.h.h.G.Q.!.G.b.b.eX+X.Xu.S C d g z u z h s h a a f B B r u B f g g g g B z B z f g C S L C..XyX XQ.[.U.H.c.f.v.' ",
"E..XR.J.g.h.b.G.Q.J.j.j.@XyX+Xi.L L L S U B S H H H H S S U H Z S S S S C S S S S H C H H S A I m.@XaX[.m.P.R.J.z.f.m.` ",
"/.iXOXOX~.(.wX[.OX|.!.Q.[.].J.v.'.9X9X/./.^.F.^.B.F.B.N.a.t.y.t.t.{ [ [ [ [ _ [ y.t.I [ y.t.I a.r.Q.[.J.J.[.{.[.~.~.v.9 ",
"t.x.i.i.i.i.i.h.i.9.r.x.V.x.w.x.N.C.N.a.a.i.t.a.u.y.t.' I J ' J J Z * I Z J 8 8 J J 1 1 1 1 : 9.P 9 9 9.8.t.i.i.i.i.8 2 "
};
