/* XPM */
static char *WhatsApp_Image_2024_04_28_at_15_03_50__2_1714313119[] = {
/* columns rows colors chars-per-pixel */
"60 60 131 2 ",
"   c #010403",
".  c #050A05",
"X  c #080B06",
"o  c #020609",
"O  c #090708",
"+  c #050A09",
"@  c #0B0C0C",
"#  c #140D07",
"$  c #120C0D",
"%  c #0D100F",
"&  c #15120E",
"*  c #1B130D",
"=  c #0B0F11",
"-  c #130F10",
";  c #0E1111",
":  c #131313",
">  c #1A1514",
",  c #161817",
"<  c #1E1914",
"1  c #131619",
"2  c #1A1718",
"3  c #16191B",
"4  c #1A1A1A",
"5  c #211712",
"6  c #231B15",
"7  c #20171C",
"8  c #251E19",
"9  c #281F19",
"0  c #26211C",
"q  c #2B231D",
"w  c #1A1E21",
"e  c #261D21",
"r  c #281F23",
"t  c #1D2124",
"y  c #1E2925",
"u  c #232323",
"i  c #2D2621",
"p  c #2E2923",
"a  c #2D2529",
"s  c #252C2B",
"d  c #2B2D2C",
"f  c #302721",
"g  c #322A25",
"h  c #30272B",
"j  c #342D29",
"k  c #392F29",
"l  c #26312D",
"z  c #2A312F",
"x  c #36312B",
"c  c #39322C",
"v  c #2B2E31",
"b  c #362D31",
"n  c #2C3333",
"m  c #333333",
"M  c #3B3432",
"N  c #323836",
"B  c #3C3B35",
"V  c #323639",
"C  c #3E353A",
"Z  c #353A3B",
"A  c #3C3C3C",
"S  c #403732",
"D  c #423A36",
"F  c #443D3A",
"G  c #3F403B",
"H  c #43433D",
"J  c #3A3E41",
"K  c #443E42",
"L  c #483F44",
"P  c #3E4244",
"I  c #434444",
"U  c #4A4345",
"Y  c #474946",
"T  c #4C4A46",
"R  c #434749",
"E  c #494748",
"W  c #46494C",
"Q  c #4A4C4C",
"!  c #524C4A",
"~  c #4E504D",
"^  c #53524D",
"/  c #4B4E51",
"(  c #534E52",
")  c #4E5154",
"_  c #535455",
"`  c #595255",
"'  c #535957",
"]  c #5A5B56",
"[  c #535659",
"{  c #5C5358",
"}  c #55595C",
"|  c #5B5C5D",
" . c #57605D",
".. c #5C605E",
"X. c #5B5E61",
"o. c #625D61",
"O. c #5E6164",
"+. c #5F6865",
"@. c #636465",
"#. c #686560",
"$. c #626966",
"%. c #6B6A64",
"&. c #636669",
"*. c #6B666A",
"=. c #656A6C",
"-. c #6B6C6D",
";. c #66716D",
":. c #6A726F",
">. c #79766F",
",. c #6A6E71",
"<. c #6D7374",
"1. c #727576",
"2. c #727876",
"3. c #7D7D75",
"4. c #727679",
"5. c #7A7579",
"6. c #767A7C",
"7. c #7A7B7B",
"8. c #77827E",
"9. c #7A817E",
"0. c #7A7E81",
"q. c #7C8382",
"w. c #7F8A86",
"e. c #848485",
"r. c #838987",
"t. c #818589",
"y. c #858B8B",
"u. c #8A8A8A",
"i. c #8A908E",
"p. c #8D9194",
"a. c #929896",
/* pixels */
"* 6 9 5 6 6 6 * T ] -.>.*.,.&.| O.,.<.=.&.4.0.=.,.O.} X.=.=.,.,.&.,.0.&.,.0.0.0.0.O.0.=.O.;.0.W ) $.%.H * & * & 9 5 6 f ",
"f g k f f k p 0 ` %.3.0.4.5.5.,.,.1.6.<.,.0.<.,.0.0.,.,.0.0.,.0.0.0.,.0.0.&.=.0.0.&.0.0.,.0.0.X.-.7.>.^ c x c q S k f S ",
"q g k f g j p 0 u A Q Q I J I R P P R R P J P P J J J J J J J J ) P ) P P P P J J / J J P ) P P Y ^ H x 0 q q < f 6 * 5 ",
"9 q q q q q 0 < < j I F V m C P P V J R P n J P J J J J J J J P J J J J J J J s J P J t P P J P H B c 0 q x g 0 S k f k ",
"q f g f q g p 0 x A Q _ / E ! } X.) [ X.X./ [ ,.O.&.,.=.=.&.=.=.&.O.&.O.&.X.X.[ P &.} W X.} P } ^ G p q p G p 0 9 6 9 f ",
"q g g f g g p 0 j m E _ _ / _ } ) [ X.X.[ ) X.,.0.=.0.,.=.&.O.O.,.0.0.,.0.0.0.=./ O.X.[ X.[ / / ] H p 0 p p 8 # k k k H ",
"9 f g q i p 0 < x m I | @.X.} | X.&.,.O.[ X.&.<.0.&.&.O.O.&.X.} } [ [ X.&.=.X.[ [ X.0.=.O.X.X.P %.^ G g G x f 6 6 5 5 5 ",
"q f g i i p p 0 i u b ! | [ ) ( [ =.,.[ / [ O.O.O.[ ) P [ } X.P ) / ) X.&.=.X.[ ) / &.0.[ X.O.P ] H p 0 0 p 8 6 g 9 5 6 ",
"9 f k f q g p 8 & & 3 z ( @.O./ ) J [ W v / 0.X.P } 0.O.&.O.0.0.<.=.&.X.X.W ) X.P Z J / ) W [ $.G y p g q q p q x c c c ",
"6 9 q 9 0 q 0 < z p p m R | | _ 0.W ) [ J J } } &.0.0.w.0.0.&.0.<.0.0.0.,.&.X.) P / ) ) [ X.&.@.H x p x q p x q p p g f ",
"f S S f x x x q x j s a A } *.&.0.J / X.[ / } X.0.0.0.=.O.[ P W / X.<.0.0.0.=.) P O.O.[ [ =.-...G p q l q y p q f f q f ",
"9 f f q q p q < u d u 4 v ( @.&.O.) [ [ [ } X.0.0.X.J y t w w w w n J W X.0.0.=.) X.O.X.} O.O.| G p q g q q p q f g f f ",
"9 f f f f k p 0 j m d u d R _ W ) 0.[ W ) 0.0.0.[ J t = = = 1 1 o = 1 w V X.0.0.+.[ X.&.&.) ) O.Y l l g p p x q g g k k ",
"f k k f f f p 0 p x b u m _ | W ) 0.0.[ } 0.&.X.t w 1 1 w w 1 1 w 1 = = w V X.4.0.X.X.4.,.W / -.G 0 6 q 6 6 q 6 g g g f ",
"# 5 5 5 5 5 * # < p u u Z o.&.( [ 0.0.) 0.0.W J = 1 1 1 w w w 1 s w 1 1 1 1 J X.q.,.O.<.&.) [ &.B 6 6 q 6 < y 6 g f f f ",
"f f k f g k p q z M s 4 V | X.K [ &.[ O.w.0.J 1 w w 1 1 1 1 1 1 w = = w w o w W 0.4.,.O.} _ } | H g l x p p x q k g k k ",
"q c q g g 9 k 6 $ e r e r K L { [ [ X.p.:...s ; , , 2 , 2 2 2 2 > , , , 4 , 3 , ,.7.e.} -.T _ E G p g g q q g 5 6 0 5 5 ",
"q c q q q 5 h > h b b e r b L J X.[ ,.w.$.R t & 2 2 2 2 2 2 2 2 2 2 , , , , 2 , ( -.5.} } I A j c p g g 0 q p 6 f q 0 0 ",
"q S q q q 5 i * S S b a b L L L +.[ 0.q.+.u , : , , 2 2 > 2 2 2 , , > , , , , , m -.3.1.^ ` G d c q p g 6 q q 6 g g q q ",
"q c q p i 5 g > h r a r h L { o.<.[ q.<.' . , , > , > > 2 > > > , , 1 , 2 2 > , 0 @.5.u._ <._ B B q q g 6 q f 6 g f 0 0 ",
"9 k q f g 9 j 7 k k a e 7 b L *.=.} 9.@.I   , 4 1 > > 1 > > > > > > 1 1 1 > 1 > @ I -.e._ 1.@.U c q g g q f g 9 f q q 0 ",
"6 k q f g q M 9 b k b h e h { 5.O.+.8. .z + 4 4 > 2 - 2 > > 1 > : , : > : , : : @ s #.e.| *.&.I B q g x q f x 0 g q q 0 ",
"6 x 9 f f 9 k 7 k h h h h J { 5.' <.2..., , w , - 1 > > > - - > : : : , : : : 1 2 , *.u.-.} o.x x q q g 0 q g 0 g f q q ",
"9 x 9 q q 6 g 5 h 9 7 r r a K L ' 8.2...+ u 4 % - 1 - 2 - > > > , , : : : , 1 > 4 @ @.e.>.I T 4 c q q p 0 q f 0 f q 0 0 ",
"5 5 < 6 6 q * & 9 7 7 e e 2 K { } 8.<.G % 1 4 : 7 > 2 2 2 7 2 2 2 , , , 2 , , , 4 4 E 7.7.| A , < & * 0 0 < # # 0 6 0 0 ",
"c g g g c x p 6 D S S D J D { 5. .8.2.G ; : 4 1 1 > 2 2 2 > 2 > 2 , 2 , 2 , , > , 4 E 7.5.| A 4 c q q c k g q q x c g c ",
"g f q f x x p 6 r 9 r h r h L *. .8.2.G % ; 4 1 1 - > > - > - > : : : > 1 : : : & : Y 7.7...A 8 x p q g j g q g q q q q ",
"9 6 6 q f p p q h q r h r h L *.O.7.:.G % % , : - - 1 - - > - - : : ; : : : : : @ ; U 7.5...H w x 0 0 q q q q q p g g g ",
"k g q f x c g p b k h b h a L *.O.9.2.N = = , ; - - - - - - - > - ; : @ : % ; : @ = I 5.7.| I u B g f j c g g x g g x g ",
"c g q q q q 0 * k r a a r e D o.@.9.<.N o = , : - 2 - > > - > - : & : : : : : : @ & G 5.3.| A 8 j q q q g q q q f q f q ",
"f q 6 6 6 0 5 * S f a b r h K @.#.9.<.N O O - = 1 - - - > - > - : : : ; : : ; : @ @ P 5.6.| G 8 0 < 6 0 q 0 < * c c c c ",
"g f q q k B c x 7 > > 7 7 2 M ] $.9.:.N o O 1 - 1 > - 7 - > > > : , 1 > : : > > = : H 2.6.] Z < j q f c c g q q 6 6 * < ",
"q 9 6 9 q f q 6 g p p g g g H ^ ..y.2.z X % ; : & @ : $ $ - - - - - - - : @ : = $ @ F 7.7.] A 8 0 0 < q q q 0 0 f f q q ",
"c g p p x x f 6 x p p g g g H H ] y.<.s + @ ; : % : $ : - - - - - - - - : @ = & : @ A 7.7.| A u c g q j j g q q c x j x ",
"g q q f g g q 6 g f f p f f k H ] r.<.s + % ; : $ : : $ - - - - - - - - @ : : @ : @ A 2.7.@.A u j q q g j q q q j g f f ",
"0 6 6 9 p x p q x f f q p q f x ] r.:.z @ % % % - - - - - - * - - = - = : : @ : : O Z 5.e.@.P 8 0 < 6 q g q q g q g q q ",
"q 0 6 q x x g p x g g p q q f q _ q.:.d + @ % % - - : $ - - - - - = = - : @ : % : @ B 7.q.@.F e q 0 0 f x f f g c x x g ",
"p q 9 q f f 9 6 g g g q q x p 0 ^ 9.:.z % ; & % - ; - - - - - - - - & = $ : $ ; @ @ A 7.5.] B w p q 0 q f q 0 0 x g g g ",
"f q 9 0 q q 9 5 g x g q p x p < ~ 9.<.s + ; % % - : $ - - - * - = @ : : ; : % - @ = I 7.5.! m 4 p 0 0 q q 0 6 6 f q q q ",
"g p q p x x p q q x x q g c g < Q 9.:.l % ; % @ = $ : $ - - - - - : : @ : @ & = O $ Y 5.:.R z 0 g q q g c g q f x x g g ",
"q g g p f x f 6 * q 0 * 6 0 6 * Y 9.2.z @ @ % : - - - - - - - - $ : & = @ : @ : 1   I 7.e.A d u g p q q g q 0 6 0 0 6 * ",
"q g g q f x q 6 q g q q q g p < T 9.<.z % + % & - $ - - - - $ $ - - = : : % : : :   Y 5.e.A d 4 x j x x c j q 0 f f q 0 ",
"0 0 0 5 0 q 0 * g g p q q x g 0 ^ q.:.z + % % % $ - - $ - - $ $ @ ; : @ @ - : @ $   E 7.e.A d > q q q q q q q 6 g g q 0 ",
"6 0 q 5 5 q 6 * x f q q p p p q ^ r.:.z + % % % $ $ - $ $ $ $ $ $ @ @ : @ @ @ $ :   T 7.u.I j : < < 0 0 q 0 6 * g f q 0 ",
"q g g f g c g 0 c g f f g x c H ] r.2.z @ @ = @ $ - $ $ $ $ $ $ - = $ @ & = @ = $   E 5.u.T A 2 q q q q g g q 0 c g q q ",
"f x x g g c g 0 g q q 0 q q S ^ ..y.:.s @ ; @ @ O = $ $ $ $ $ $ @ @ $ @ @ @ @ $ $ . E 1.u._ I u g x g x x g q q q q 0 0 ",
"q q q q q g q 6 q 0 0 0 5 0 H #.$.y.<.s + ; = O O $ $ O $ $ $ O @ @ @ @ @ @ @ @ @ O E -.u.| _ x p q p q q q 0 5 0 5 * * ",
"q g g g g g f 0 q q q q 6 f H 9.$.i.<.s + ; = O = = O $ O $ $ $ @ % @ @ @ @ @ @ @   I ,.u.@.} A p g g p g f q 5 q q 0 5 ",
"0 f f f f f q 6 j x 4 j Z K @.&.-.q.;.l . + ; . + % @ @ @ @ $ @ X X X X & % X % =   R 4.t.} X.K u a g g q i p f k f f q ",
"6 f k f q f q 0 d x 4 d Z P @.=.$.q.;.G . + ; + = @ @ @ $ @ @ $ % X X X X X % X =   R <.0./ [ b h j x x g g g g g g q q ",
"q k k f p x p q d p 2 b I I *.-.;.q.;.l . . % . @ + @ @ @ @ @ O X X X X X X . % 1   R ,.4.) X.J u 9 9 0 0 6 6 9 f q 0 6 ",
"q f q q q p p < j d , A / Q &.-.+.8.;.n . . = . + + O @ O O O @ X X X X X . . . = o R <.0.X.*.) q 9 5 < 6 5 < * g f q 0 ",
"6 6 5 5 0 q 0 & j s 8 W X._ =.=.$.8.;.l . . + . + + O @ @ @ O X X X X X X X . % = o R <.t.&.0.X.H c j j g j g p g g g f ",
"f f q 6 q p q < d p u _ -.| @.@.+.8.;.l   . + o + + O O O O O O X X X X X X X X = o W 0.0.X.,.) H S g q g j g q 0 6 0 0 ",
"k k f q g c x 0 i u u | 1.{ | [ $.8.;.l   . =   O . O O O O O . . X . . . . X X = o L 0.t.O.&.W c g q 6 0 q 6 < 0 0 0 q ",
"f f 0 0 q x p < 0 0 u | 5.[ [ Q +.8.;.l   . +   + + O O O O O O . . . . . . . X = o J 0.t.O.&./ H S f q f g q 0 j k c c ",
"q f f q f x p q q N Y ~ X.<.@./  .w.:.l + + + + + + + + O O O . . . . . . . . . . 3 G 2.0.&.,.L ! F k q q g p p g q g g ",
"f f f q q g g q q G Y Y _ @.| W  .w.;.l . . . + + + + + O O O O . . . . . . . . . ; V q.0.,.0.X.! H k f q f q q g g p g ",
"f f q 9 f x f q A ! ] ' } &.@.'  .w.:.l . + + . . O O O O O O O X . . . . . . . o o n w.t.X.=.o.T F j f q g q q g p g q ",
"f f f q q x f 9 x I T I A I E P ' w.:.y . + = . . + + O O O O O . . . . . . . X 1 o s w.w.P W [ ! H k q f f f q p g g g "
};
