/* XPM */
static char *d78badf4e47d4bb9d6b80d54bbcc2f41Oup76x79brPspyG6[] = {
/* columns rows colors chars-per-pixel */
"60 60 251 2 ",
"   c #3D3529",
".  c #3B3936",
"X  c #3A2D28",
"o  c #2A3F06",
"O  c #563918",
"+  c #463B2B",
"@  c #543D28",
"#  c #473B36",
"$  c #523C34",
"%  c #6C3E16",
"&  c #1D4600",
"*  c #244B00",
"=  c #2B4A01",
"-  c #374A0A",
";  c #2D5402",
":  c #2A5603",
">  c #315605",
",  c #335B04",
"<  c #355C0B",
"1  c #375A0C",
"2  c #385B16",
"3  c #2E571B",
"4  c #3B630D",
"5  c #39630A",
"6  c #3D6412",
"7  c #3B661A",
"8  c #3D433A",
"9  c #3E682B",
"0  c #465A19",
"q  c #54591E",
"w  c #4D5011",
"e  c #6B461A",
"r  c #78481E",
"t  c #7B541F",
"y  c #416515",
"u  c #426A15",
"i  c #44651B",
"p  c #456C1B",
"a  c #486E1E",
"s  c #48681A",
"d  c #4B721D",
"f  c #48721D",
"g  c #4A6B16",
"h  c #59452D",
"j  c #485924",
"k  c #565D22",
"l  c #4B4334",
"z  c #4C453C",
"x  c #474439",
"c  c #534A3D",
"v  c #5C4B3C",
"b  c #564536",
"n  c #4F4E33",
"m  c #6D4A2A",
"M  c #6A4628",
"N  c #754C25",
"B  c #7A4C23",
"V  c #734C2B",
"C  c #754727",
"Z  c #675925",
"A  c #7C5325",
"S  c #7C542B",
"D  c #78572B",
"F  c #624634",
"G  c #6C4B33",
"H  c #634C3B",
"J  c #654C38",
"K  c #6C523B",
"L  c #66533B",
"P  c #755335",
"I  c #7B5533",
"U  c #7D5B34",
"Y  c #7A553A",
"T  c #7D5B3B",
"R  c #74573B",
"E  c #764D32",
"W  c #4B6823",
"Q  c #566727",
"!  c #4D7422",
"~  c #497427",
"^  c #537B25",
"/  c #547C2A",
"(  c #55782A",
")  c #497639",
"_  c #5B7934",
"`  c #516836",
"'  c #67662A",
"]  c #76652C",
"[  c #786735",
"{  c #677839",
"}  c #6B6E37",
"|  c #384643",
" . c #484943",
".. c #544D44",
"X. c #5C4C42",
"o. c #554946",
"O. c #595449",
"+. c #595954",
"@. c #49544D",
"#. c #624D43",
"$. c #655344",
"%. c #695847",
"&. c #735C44",
"*. c #7B5D43",
"=. c #735845",
"-. c #685B56",
";. c #735F53",
":. c #55704E",
">. c #7B644B",
",. c #786348",
"<. c #696258",
"1. c #796856",
"2. c #6D7650",
"3. c #79756C",
"4. c #797675",
"5. c #6E6E69",
"6. c #835B2D",
"7. c #8C5C2D",
"8. c #845629",
"9. c #925D2D",
"0. c #845B33",
"q. c #8B5D32",
"w. c #835C3B",
"e. c #8B5E3B",
"r. c #855435",
"t. c #925D35",
"y. c #95612F",
"u. c #856335",
"i. c #8C6234",
"p. c #85633C",
"a. c #8B633C",
"s. c #866A39",
"d. c #926233",
"f. c #92643B",
"g. c #92693D",
"h. c #886A31",
"j. c #845D43",
"k. c #8D5E43",
"l. c #856242",
"z. c #8A6442",
"x. c #8D6943",
"c. c #84644B",
"v. c #8B644A",
"b. c #886A4B",
"n. c #936846",
"m. c #866B55",
"M. c #8D745E",
"N. c #8A7558",
"B. c #927254",
"V. c #957659",
"C. c #90744B",
"Z. c #866C64",
"A. c #877567",
"S. c #967965",
"D. c #877B75",
"F. c #947B71",
"G. c #5B822D",
"H. c #57812F",
"J. c #5C8432",
"K. c #5B8536",
"L. c #638B34",
"P. c #658B3A",
"I. c #648737",
"U. c #6A923B",
"Y. c #698E35",
"T. c #6C8844",
"R. c #6D9543",
"E. c #739A46",
"W. c #748451",
"Q. c #7B827B",
"!. c #7E8D6E",
"~. c #6D9452",
"^. c #868E59",
"/. c #85847A",
"(. c #998777",
"). c #8F8D6B",
"_. c #A68B75",
"`. c #95AC72",
"'. c #96A963",
"]. c #897F80",
"[. c #898A84",
"{. c #988A87",
"}. c #97958A",
"|. c #989892",
" X c #84908A",
".X c #A4978A",
"XX c #A89C95",
"oX c #AA948F",
"OX c #9AA693",
"+X c #A8A49B",
"@X c #B5A699",
"#X c #ABB997",
"$X c #B3B495",
"%X c #AAA9A7",
"&X c #B5ACA8",
"*X c #BCB4AC",
"=X c #B8B5A8",
"-X c #B3AEB6",
";X c #BBBBB5",
":X c #BDBCBA",
">X c #BAB6B5",
",X c #ACB0A7",
"<X c #A3A3A3",
"1X c #C5B7AB",
"2X c #C4BBB4",
"3X c #C5BCBB",
"4X c #C7B9B6",
"5X c #D1BCBA",
"6X c #C0AE9A",
"7X c #B5C39D",
"8X c #BAC7AA",
"9X c #BDC2BC",
"0X c #BCC5B8",
"qX c #B8D2AB",
"wX c #C3C6A7",
"eX c #C3C3BD",
"rX c #CACBBD",
"tX c #C7C6BA",
"yX c #D2C7BE",
"uX c #C7D7BA",
"iX c #D5D4BE",
"pX c #BABBC5",
"aX c #C5BDC2",
"sX c #C2BFD2",
"dX c #BBC8C8",
"fX c #BDCBD6",
"gX c #BFCBE2",
"hX c #C3C4C3",
"jX c #CBC5C4",
"kX c #C4CBC4",
"lX c #CBCBC4",
"zX c #C3C3CB",
"xX c #C5CBCA",
"cX c #CBCCCB",
"vX c #CAC4CB",
"bX c #D3CBC3",
"nX c #D5CBCA",
"mX c #CBD2CB",
"MX c #C9D4C7",
"NX c #D4D5CA",
"BX c #CCCBD2",
"VX c #C8C8D7",
"CX c #D2CDD5",
"ZX c #C9D3D3",
"AX c #D7D4D6",
"SX c #DAE2D6",
"DX c #E3E4D6",
"FX c #CFD1E3",
"GX c #FCFDFA",
"HX c #F1EEE8",
"JX c #E0DDDC",
/* pixels */
"y Q { 2.).;XZXVXpXVXFXCXvXvXnXAX>XtXtX@X.X@X6X_.>.m.T M N e e V Y b.N.S._.@X1X1X@XnXnX-XjXJXAXjXkXmXMX;XrXNX+X%.2.j Q P.",
"Y.W 0 W.#XMXZXdXFXFXVXsXCXAX:X|.&X*X2X@X(.(.N.@ ,.B.b.U I N N 0.P b.m.*.>.(.(.A.@X1X4X3X3X-X:XJX9XkXkX;XtXNXiX$XW.j W T.",
"^.Q Q `.uXNXzXzXFXsXVXJXCX&X+X*X2X@XA.H h ,.M.*.R B.B.x.w.N N a.T V.V.G G N.M.H Z.(.@X4XjX&X<X:XkXmXmXkXeXrXNXiX).j = - ",
"{ { ).8XMX0XpXFXVXVXvXvX>X+X+X@X1.>.1.,.&.N.B.P P b.b.l.w.V N a.p.V.B.P P m.N.&.%.A.A.F.&X5X&X|.:XkXNXAXlX;X8XrXwXW.0 j ",
"j W.7XuXrX;XdXCXCXJXaX{..X2X.XL @ G V._.V.B.w.O T l.T U w.V V a.w.0.U I Y T c.c.M.N.H $ Z.@X1X4X%X,X:XNXNXrXtXrXDXOX2.` ",
"` `.qXuXrXmXcXpXBX>X&X*X@X(.N.m.w.0.a.w.N I z.U a.a.U T z.I V x.u.A N S U P T b.V.*.J =.m.Z.{.bX&X,X=XeXlXlXlXbXNX8XW.` ",
"!.#XtXtXkXAXCXaX:X%X&X2X(.h L _.S B q.f.q.e.e.N 0.a.w.z.v.V m x.a.q.6.S S 0.a.v.Y R *.V.S.*.=.(.1X>X>X;XeXcXlXrXlXNXOX2.",
"OX8XMXMXkXxXBXCX&XbX1X1.+ h [ U i.8.7.d.q.f.q.e B 0.z.n.v.M M z.6.g.i.B B a.n.w.U v.T P b.b.G @ XX&X>X2XjXCXnXeXeXSX,X2.",
"0X0XkXmXNXcXjX3X2XbXA.(.).O [ C.d.y.9.9.d.d.q.B 0.a.w.p.l.m m z.i.f.i.A A 6.i.a.e.I z.v.B.v.G S.(.D.yXjX&XnXjXcXcXlX=XOX",
"0X9XkXcXcXjX:X&X1X.Xv ,.N.Z p.u.y.y.9.9.d.d.q.B 0.a.w.p.l.m m z.i.d.i.A A 8.i.i.a.0.z.a.n.p.C B.;.;.XX2X&X3XcXcXcXcXeX=X",
"0XdXkXcXcXhX>X&X&XZ.F R ,.[ p.S d.d.9.7.d.d.7.B 0.a.w.p.l.m m z.i.i.i.A A 8.i.i.f.0.x.e.z.w.e v.K ;.F.1X1X*XnXlXhXxXeX;X",
"kXkXxXcXcXjX3X*X.X1.M.m.m V U i.i.f.t.q.f.f.0.N 0.a.p.l.l.m M z.u.i.i.A A 8.i.i.a.0.a.0.a.e.e l.m.Z.1.@X5X&XbX;XeXhXhX:X",
"ZXxXxXxXlXjXtX2X1.=.S.B.M V 0.a.i.a.a.q.a.a.0.V 0.a.p.l.l.m M z.u.i.u.D A U u.i.i.0.a.I a.a.N p.B.M.L (.1X*XbX;XhXlXlXeX",
"xXkXhXeXeX3X1X*XH K R T P U g.0.a.a.a.w.a.z.w.V 0.a.p.l.l.m M z.u.a.u.D A U u.i.0.0.a.S a.n.N a.Y *.h 1.@X2XrXrX0XkXhXeX",
"kXdXkXhXeX>X@XXX#.M.G P w.S n.0.a.z.l.w.l.v.w.V T l.p.l.l.m M z.u.a.u.D D U p.p.0.0.a.S a.n.V p.M *.>.&..XtX2XNX0XeXeX;X",
"kXkXcXmXlX*X+X{.<.@X>.,.*.O v.w.c.c.c.,.c.b.*.m T l.p.l.l.V M z.p.z.p.P D U p.p.l.p.z.I l.B.V T K M._.1.}.rX,XNXlXmXlX0X",
"mXlXlX0XrX,X;X3.l <.A.1.%.L ,.1.1.1.1.1.>.,.,.,.c.b.l.w.j.V m l.T b.m.,.K R >.m.m.>.b.m.*.*.>.=.1.3.<.O.[.0X;XAXkXmXlX:X",
"cXlXlX0XlX,X;X3.x l c X.$.%.$.$.O.v b b %.,.L @ h K K P *.Y m R &.%.b @ b $.%.v L b h b %.,.$.v o.o.o. .{.kX>XmXkXmXcX:X",
"cXxXcXhXcX,X:X4. .x z O.O.z l X.  O.+.c l X.v + v %.H @ F K G J $ X.O.X.c c c l l $.c l $.c + c -.o.#   [.lX;XlXkXmXcX9X",
"BXVXBXzXBX-X:X4.# <.XX4X{.X.$ O.+.+XlX}...l O.<.1X1XF.b $ $.H v # /.3X&X5.# x O.}.tX+X<.o.  O.%X5XXX-.  D.hX;XmXhXcXcX9X",
"VXVXCXzXCX-XpX4.X 4.AXGXnXZ.$ o./.AXGXeX+.. +.D.GXHX@X;.X.$.#.X.-.;XGXJX[.#  .-.JXGXcX3.o. .D.HXGXyX3.# D.eX>XkXeXxXcXhX",
"VXVXVXzXCX-XpX4.. +.{.XX{.-.$ $ O.[.+X/...x O.<..XXXA.v v #.v X.o.D.%X|.-.#  .+.{.XX[.+.o. .+.{.XXF.X.X D.eX;XcXeXxXcXhX",
"VXVXCXzXCX-X3X4.# $ $ $ $ $ b v   l l l l c v l + b b @ F F F %.X # o.z # z o.o.# # z ..o.z # X b $ + X /.tX;XcX9XxXcXhX",
"zXxXBXzXCX&X2X3.# #.%.%.K K =.L >.L h J %.%.J h L =.R =.*.K G c.$.$.#.v #.%.$.b 1.$.$.$.v $.;.%.H $.H b {.tX&XeX:XxXcXhX",
"hXhXlXeXbX&X1XA.A._.m.c.b.*.b.l.[ l.l.p.l.l.T V w.l.w.j.l.V m v.c.b.c.=.R *.c.c.c.c.c.c.c.c.c.c.c.m.(.A.(.2XeXCXzXcXcXpX",
"tXtXlXtXiX=X1XM.&.N.R P p.U x.a.0.a.a.q.i.a.0.B 0.a.q.e.e.C C n.a.x.z.I I w.z.z.z.z.z.z.z.z.z.l.*.>.S.m.(.*X2XcXhXvXvXhX",
"rXrXbXtXiX=XwXN.,.V.[ U a.6.i.6.7.d.d.7.7.d.7.r 7.9.9.t.t.r r f.i.f.a.8.S 0.a.a.i.i.i.i.i.i.i.a.v.c.M.m.(.2X3XjXjXBXBXzX",
"lXrXbXtXiX=X1XN.>.).z.p.g.6.i.8.7.y.y.9.9.d.7.r 7.9.9.9.t.r r f.f.f.d.8.8.8.d.d.d.d.q.q.q.q.i.i.x.l.N.m.(.4X3XjXjXBXBXzX",
"lXhXbXtXbX=X1XN.K B.I U a.q.f.q.7.d.d.7.7.d.7.B q.i.e.e.e.C C f.i.f.i.8.A 6.i.i.i.i.q.7.6.i.i.i.a.U b.,.F.1X2X3XvXBXBXzX",
"jXjXcXeXbX*X1XA.=.V.Y Y e.r.e.6.q.i.i.i.i.a.0.B 0.a.e.e.e.C C z.i.g.i.S A 6.i.i.i.u.0.6.6.u.u.i.a.w.B.c.F.1X4XaXzXBXBXzX",
"VXvXCXjXnX1X5XF.Z._.v.j.k.r.e.r.q.a.a.u.a.a.0.V w.l.j.l.l.G m v.p.s.p.D D U p.p.p.p.U U U [ p.a.a.a.V.m.(.1X5XnXzXBXvXdX",
"VXCXCXvXAX4X5XF.m.S.j.r.k.r.n.e.e.a.a.p.p.z.w.V w.l.j.l.l.G m v.l.x.p.U D U p.p.p.p.T U U T p.p.0.p.V.m.F.&X2XnXhXvXcX9X",
"VXVXVXzXAX>X5XA.F.c.Y w.e.q.7.t.a.a.e.z.n.n.0.C E e.e.r.e.E E k.e.x.z.I P l.b.z.I I w.z.w.x.n.I T c.m.&.(.1X*XNXlXlXrXeX",
"VXVXVXzXAX:X3XA.m.S.S.B.k.e.n.n.z.v.l.j.w.w.I V v.v.k.n.n.V C n.Y v.c.P G Y j.Y Y *.c.*.G Y v.c.m.M.S.1.(.1X;XNXlXlXtXtX",
"BXzXBXhXCX>X3XA.c 1.1.H h L &.&.,.,.,.&.&.>.,.K K J J c.m.F @ m.&.,.&.H L ,.1.%.L %.,.&.%.&.>.,.H %.1.%./.*X=XmXMXkXeX0X",
"cXjXbXjXNX>X3X3.# z z x x z c x   l n l l c c l l b l X.%.v b <.l z z + l c c +   x x l c c l + l + l l /.0X;XdXxXxXdX0X",
"bXyXbXtXNX*X2X3.x @.4.OX X+.|  .@.Q.|.4. .8  .+.[.}.3. .z ..O.+.8 3.|.[.+.| 8 8 Q.|.Q.@.x 8 @.4.XXA.O.x /.lXdXdXxXdXdXdX",
"bXyXbXtXNX*X:X3.. 5.xXGXZX5.| @. XSXGXMX5.8 +./.HXHX,X+.x O.+.@.+.>XGXJX X@.@.+.SXGXAXQ.@. .Q.SXGX1X3.z /.kXdXdXfXdXdXdX",
"nXbXnXeXNX>X;X3.. <.%XxX<X+.| @.5.,XlX|.@.8 @.<.lXlX}.O. .O.O.+. .[.eX,X5. .x  .+XcX%X+. .. +.&XyX.X-.# 4.hX:XdXZXZXfXdX",
"BXBXBXzXCX>X:X3.x  . .......z z l O.O.l l O.O.# X.%.c l X.#.X.$.# ..O.c z ....# + -...  -...  X.#.$ # # ].cXhXBXBXVXxXzX",
"VXVXVXpXzX%X>XD.# $ @ @ h K G h J h h h J F F F @ K K F G F F =.J J F h F F J J F F F F F F h h H $ #.X.D.aXvXvXaXvXBXjX",
"gXgXVXpXzX%X3XD.A.A.M.c.w.e.e.0.p.T T ,.l.p.T I I j.j.w.w.V C j.w.v.j.Y Y j.j.j.j.j.v.v.v.v.v.v.S.Z.F.Z.{.5X3XaXnXAXAXcX",
"FXFXFXfXCX:XtXF.m.M.B.a.8.8.d.f.a.a.x.x.x.a.0.S a.a.e.f.a.r % a.r.n.n.r.V e.n.e.0.0.e.z.n.n.n.v.Y =.A.Z.{.5XbXAX3XjXjX2X",
"fXdXdXdXZX,X=X1.>.>.[ D t t 7.d.D u.u.u.s.u.D t i.6.6.g.f.e % g.A g.g.B e 0.a.0.S S S 6.0.0.0.0.b.>.M.m.(.&X=XtXrXMXNXrX",
"ZXMXMXMXSX=XwX^.^.N.[ [ s.h.h.] ] ] [ ] [ [ ] Z ] D D s.s.e e C.D s.s.Z e [ s.[ u.u.s.s.s.p.u.[ C.,.N.2.(.8X8XuX8XtXuX8X",
"8X#X7X7XwX`.$X^.} Q k ' } } ' ' ' } ' ' ' } ' q ' ' Z ] ] w w [ [ [ ' Z Z ' [ [ [ [ [ [ [ [ ] ' ' w Q } !.#X#XqXqXuXuXqX",
"W.{ { } 2.j W.Q - - - W ` Q W Q { { _ 0 0 Q Q 0 Q } Q Q Q w - k } Q 0 q k Q Q ' q q k k k k k q Q 0 Q j ` :.` :.:.~.T.:.",
"{ Q W 0 W - T._ 0 W ( I._ W W ~ T.R._ i 2 W ( i _ T.{ Q W 0 - 0 T.W - W Q Q Q _ 0 0 0 0 W W W W - = s i 2 9 3 9 ) ) :.) ",
"y y ( J.s ( R.R.! , p J., 6 R., ; ! J.( i 6 i i 1 1 6 ! ( ! i i s 1 _ P.y 1 a y ( P.R.J.W 1 1 > P.> ! K.K./ 2 R.3 ) ) 3 ",
"G.4 ^ G.> p E.L.'.G.u / d / R.< , ; < p ( / ! d < 4 a J.J.( ! p ^ > 6 ! p p a > ! / J.! y 6 6 4 ; : ^ f 6 7 < K.~ ~ W 7 ",
"^ ; d G.5 d U.u E.G.; u / d / 6 ^ p p ^ J./ ! d d u 6 u a p a ^ P.a p ! a a a < a ! p 4 < 6 6 6 & < ^ 5 > ! 7 p / 7 7 ~ ",
"u 5 5 u d ^ ^ d ; u , d J.4 u / ^ L.P.^ 6 4 u u p u u u p u p ! y 6 6 6 ; * , y ( ^ a 6 y a a 6 ! ! f 6 ! P./ < p 7 7 ~ ",
"d L.; & G./ 4 U.; G.^ L.R.u u P., / / > * 4 d 5 , u / Y.U.G.^ ^ 4 6 < 1 6 6 ! P.J.J./ ^ / I.G.! P.^ 6 f H.H./ 7 < ~ ~ 2 ",
"u R.u , E.L.; ^ G.E.d d J.p u p G.L.^ > 4 L.L.4 u u d ^ G.G.P.E.P./ 1 4 / J.^ J.a ! ! ^ / I.J.! ! p < ! f : ! H.4 H.K.7 ",
"p / d d P.G.4 5 L.R.u < d ! ^ 4 '.U./ d / L.G.^ d u u u 4 u / U.J.( ; * a u ; 4 6 p a p d ! ! p ! ! , a 6 & ! H.! H.J./ ",
"U.4 < , * 4 L.! p P.! p ^ P.E.L.U.^ g d u , u L., u ^ L.^ u , , d / y < ! p y P.a ! ! a p a a u P.I.> 6 a 6 / a ( d ! J.",
"! u G.d L.u / ^ p d ^ 4 u d , ^ ^ g G.5 P.d u U.E.d G.d P.5 * d p ( ! / 6 / 6 E./ p / ( P.< ; & y a J.'./ 6 ! > 6 , ! , ",
"u 4 / ^ U.u p 5 ; , ^ ^ G.L.d G.P./ G.4 L.u ; ! / 4 / u U./ ^ R.^ J.I.P.a ! * ! ( 6 ! 6 ! ; 6 p ! ! / E./ y / 6 d < d 1 ",
"d 6 d d L.d u , < 5 G.G.G.J.u d / p ! < U.d ; d d 6 ^ ; ^ ! d J.p ^ G./ a a * ! ! 6 a < p * 6 ! ! i y ! s > ! 1 P.y G.Y.",
"U.d 4 6 ^ ^ ^ ! G.u G.d 4 p 5 6 d < u , E./ < d ^ ^ J.& , , ; > 6 6 u , ; 6 , P.a 1 ! 6 ! * ; < y 1 ; ; 6 = p > ^ * g Y."
};
