/* XPM */
static char *WhatsApp_Image_2024_04_28_at_15_03_50__1___1_1714313136[] = {
/* columns rows colors chars-per-pixel */
"60 60 236 2 ",
"   c #140E09",
".  c #1B140D",
"X  c #17110C",
"o  c #1D1611",
"O  c #1E1914",
"+  c #1D1B1C",
"@  c #141619",
"#  c #0C0E11",
"$  c #261B0A",
"%  c #341A02",
"&  c #231C15",
"*  c #251E19",
"=  c #251C16",
"-  c #3D2304",
";  c #35220C",
":  c #3A240B",
">  c #292216",
",  c #26211B",
"<  c #2B241D",
"1  c #2F281D",
"2  c #262015",
"3  c #352613",
"4  c #3B2712",
"5  c #3D2A15",
"6  c #322A1E",
"7  c #3C2C1A",
"8  c #3D301E",
"9  c #1A1D22",
"0  c #1D242C",
"q  c #252423",
"w  c #2D2621",
"e  c #2E2923",
"r  c #212429",
"t  c #2E2C2A",
"y  c #242A2E",
"u  c #302721",
"i  c #322B24",
"p  c #342E29",
"a  c #392F29",
"s  c #3A3325",
"d  c #35312B",
"f  c #3A332C",
"g  c #393327",
"h  c #282E34",
"j  c #362F30",
"k  c #2E333A",
"l  c #2C3336",
"z  c #333333",
"x  c #3C3633",
"c  c #3D3B36",
"v  c #353A3C",
"b  c #3A3B3B",
"n  c #34363B",
"m  c #421C00",
"M  c #4A2603",
"N  c #4C2B04",
"B  c #452B0C",
"V  c #4B2D0D",
"C  c #422507",
"Z  c #522D05",
"A  c #532E0A",
"S  c #4D310D",
"D  c #54320D",
"F  c #5A350D",
"G  c #5D3A0E",
"H  c #543105",
"J  c #432C15",
"K  c #422E1A",
"L  c #492C14",
"P  c #4D3314",
"I  c #44331C",
"U  c #4B341B",
"Y  c #4B3719",
"T  c #533413",
"R  c #5A3611",
"E  c #5C3A14",
"W  c #53371A",
"Q  c #54391B",
"!  c #5B3C1C",
"~  c #553814",
"^  c #623C14",
"/  c #623E19",
"(  c #6B3F18",
")  c #603E0E",
"_  c #443422",
"`  c #4D3A24",
"'  c #4C3C29",
"]  c #453928",
"[  c #533C23",
"{  c #5A3E22",
"}  c #523D29",
"|  c #443B34",
" . c #433C3B",
".. c #453A35",
"X. c #412F21",
"o. c #3C413D",
"O. c #5E411A",
"+. c #64421B",
"@. c #6A451D",
"#. c #6D491D",
"$. c #654214",
"%. c #5C4224",
"&. c #5C432A",
"*. c #5A452B",
"=. c #43423C",
"-. c #4D453A",
";. c #4B4436",
":. c #534435",
">. c #5C4C3D",
",. c #53493B",
"<. c #43402F",
"1. c #644424",
"2. c #6C4A24",
"3. c #63462B",
"4. c #644A2C",
"5. c #6B4C2B",
"6. c #684725",
"7. c #744D25",
"8. c #724F29",
"9. c #6E502B",
"0. c #75532C",
"q. c #79552A",
"w. c #6A4F34",
"e. c #634D34",
"r. c #6D5234",
"t. c #6D543B",
"y. c #695438",
"u. c #735434",
"i. c #755A3B",
"p. c #7B5A36",
"a. c #7F613B",
"s. c #353C41",
"d. c #3A3C42",
"f. c #3C3F48",
"g. c #2D3B48",
"h. c #413F40",
"j. c #3C4244",
"k. c #3D444A",
"l. c #3A464E",
"z. c #3F4D56",
"x. c #424344",
"c. c #44464A",
"v. c #464B4B",
"b. c #4B4C4C",
"n. c #484845",
"m. c #524D4C",
"M. c #584D43",
"N. c #4C514D",
"B. c #54524C",
"V. c #5B5447",
"C. c #464D52",
"Z. c #4A4D51",
"A. c #574F51",
"S. c #4C5355",
"D. c #45545B",
"F. c #4D555A",
"G. c #4A5659",
"H. c #535455",
"J. c #53555A",
"K. c #545A5C",
"L. c #5A5C5C",
"P. c #595A55",
"I. c #645545",
"U. c #775D42",
"Y. c #635D58",
"T. c #5B615C",
"R. c #7C6548",
"E. c #65655D",
"W. c #6C645A",
"Q. c #72675C",
"!. c #4D5B64",
"~. c #545D62",
"^. c #5C5E62",
"/. c #575D67",
"(. c #5C6264",
"). c #5C656A",
"_. c #59656B",
"`. c #5D6A73",
"'. c #4F6068",
"]. c #626464",
"[. c #6B6B65",
"{. c #64656B",
"}. c #636A6C",
"|. c #6B6C6C",
" X c #696565",
".X c #746C64",
"XX c #74736C",
"oX c #7A746B",
"OX c #7A7468",
"+X c #646B73",
"@X c #6B6C72",
"#X c #666D77",
"$X c #6B7274",
"%X c #6B747B",
"&X c #687479",
"*X c #727472",
"=X c #7A7573",
"-X c #7B7973",
";X c #73757A",
":X c #7B7B7A",
">X c #767A7A",
",X c #6D7069",
"<X c #615F60",
"1X c #825D37",
"2X c #8C6A3E",
"3X c #86633B",
"4X c #91653E",
"5X c #886946",
"6X c #916C44",
"7X c #97744B",
"8X c #836C52",
"9X c #987754",
"0X c #8B7256",
"qX c #A37E58",
"wX c #81786E",
"eX c #837B73",
"rX c #847C79",
"tX c #977C61",
"yX c #7D827C",
"uX c #7F8478",
"iX c #A9845B",
"pX c #83827E",
"aX c #88857B",
"sX c #A38463",
"dX c #A98C68",
"fX c #B28D62",
"gX c #B2916E",
"hX c #9F815D",
"jX c #767B83",
"kX c #6C7880",
"lX c #847C82",
"zX c #798183",
"xX c #838582",
"cX c #888785",
"vX c #899188",
"bX c #8D898A",
/* pixels */
". = = = & = & X c L.|.].].|. XJ.~.+X#X{.{.kXkX X XA.A.A.A. X XY.E.Q.,X[.,X[.,X,X$XT.}.,XK._.}.k.N.E.E.c O O O X = o = u ",
"1 i a i 6 i t * A.XXlX>X*X>X:X@X;XjXjXkXjXjXlXkXlXlXkXlXlXlXlXwXXXXXXX*XXXXXXX*XyX&XyXyX&XyXzX}.[.uXXXN.g g f i ..a u j ",
"< i a u i i i * q =.H.b.x.c.b.c.h.f.h.h.h.h.f.h.h.h.h.h.h.h. . .N.N.N.z.N.v.n.v.o.v.l.j.z.v.k.o.=.N.N.d , , 1 & u o . . ",
"= 1 1 * , w , + O p h.c z l b d.h.g.g.f.f.k g.h.k k f.g.f.n d.f.s.v v j.v v l y y l.l 0 j.o.l o.o.<.g 1 , e e < ..a a a ",
"< u i u u i e * p x b.H.b.x.b.J./.J.J.^./.J.J.{././.kX/.kX/.kX{.'.`.'.'._._.T.G.z.}.G.v.T.G.j.S.-.=.d e e d t < w = = p ",
"< u a u i i t * p z x.J.L.Z.Z.L.A./.^.^.J.J./.kXkXkXkXkXkX/./.kXkXkXyXkXzXzX&X`.z.(.T.G.K.G.N.v.T.=.t , < e 2 . X.a j ..",
"= 6 u < , w q & c z x.<X{.<XL.{.J.@X@X{.J.J.{.kXkXkXkX!.kX/.!.D.'.'.'.`.`.`._.K.G.K.}.}.T.K.K.v.,XN.z g f z t 2 = . . = ",
"< u i u i e w * e q j A.].J.b.L.h.@XjX<Xh.C./.#XkXA.D.z.z././.z.D.D.D.'.`.`._.K.G.G.$X&XG.T.(.j.T.<., , i d 1 O i = = = ",
"< 6 i 6 u i w * # @ + q c.{.<Xb.H.j.v.j.h b.+XG.k J./.{.kX#X#XjXzX&X_._.'.!.K.'.j.l o.G.F.C.F.(.o.1 q t q 1 1 , d g f f ",
"= = 6 * , , * O e p t t h.L.^.Z.].v.N.K.o.c.(.T.{.kX;X@XjX;X;XjX$X%X&X%X&X}.'.C.l.C.G.C.S.T.).].o.1 e g e 1 t 1 e i i e ",
"u a X.a a f p w t t r q b L.{.].}.Z.S.(.S.x.P.[.lXlX.XY.E.L.m.A.H.[.*XXX-XuX].S.v.T.(.G.S.).}.).o.q 1 t 1 q e , u * 1 < ",
"* u i w , u q + , e q q l H.].^.^.F.K.P.S.P.[.*X@X XA.....a 3 6 p -.M.m.T.-X-XE.G.T.(.K.K.T._.(.o.1 1 t 1 q e 2 i i i i ",
"< a u u u i e * t d h q z v.H.v.S.}.(.N.P.XX-XOXM.M.] 3 I K % 5 4 s 7 7 ] W.OX-XT.P.P.}.}.D.D._.n.t y g 1 y t 1 p i i i ",
"< u a u u a t * t d t t n H.P.Z.'.zX$XS.].yXXXP.i _ 7 K { ` L U W ` K 4 5 :.W.aX*XT.T.>X%XC.C.).o.> > e 2 2 1 O u i a u ",
"  $ & . . & X   q q q q d.^.{.J.!.yX}.T.-XuXB.;.3 ` } { 6.! M V 4.%.&.*.Y 7 :.Q.pX[.}.$X).D.!.`.v 2 + q 2 2 2 . i u u u ",
"6 i a u i p i * x d q + x P.L.v.G._.G.(.cXoX| 8 _ e.t.r.u.! % C 5.1.r.i.&.: J I.eX-X}.T.D.D.!./.o.1 e g 1 y t 1 p p a p ",
"1 f > 6 6 > i =   o r = q j A.A.G.D.).aXrXI.` } { w.tX5XgXW X.% r.gX4.dX>.&.*.5 8XrXeXY./.F.C.D.z p i w < < * * * & & . ",
"> f > 6 < & i . u a j = = u h.h.T.G.}.pXwX} L { W / 6.{ I.L 4 L P 4.O.4.Q ! P J V.OXoX^.F.C.g.h t i i w < * * * w 1 < , ",
"1 s > 1 > & 1   a a j q j ..h.h.}.'.$XuXY.K 4 1./ / L W W [ K [ W B 4.P ! 4.Y ` ] Q.aX|.^.!.g.0 t i , , = = = * p i u < ",
"> g > 1 > & i . w w u = u h.A. X}._.,X-XV.3 L w.{ / R W w.` 4 % ! O.! O.! 4.Q K K R.bX:X/.`./.g.t i 1 < < < * * i w , * ",
"> g > 1 u = a = u u u * o q h. X(.).$X.X,.5 [ 5X1Xu.5X5.tX1.` % r.9XO.9Xu.i.i.} K >.wXXX^.{.`.l.t i e w < < < < w 1 * * ",
"2 g > 1 u < ] * j a j t = w A.lXK.$X-XE.;.` 3.U.9X1X9X3.tX{ *.L 9.dX~ dXp.5X8Xe.X.' .XwX^.).#Xl.d t i e w < w < i w , < ",
"2 g > 1 u = a = u p p p w j A.lXS.yXzXP._ ' 3.6.6.E / M 5.: : % C 5.M 8.T Q 1.W } _ W.aX{././.k t i w < < < < < i u 1 * ",
"2 g > 1 = = u o u q = = = + ..h.F.xXvXM.7 ` &.T L ^ A ! 1.W J W T D 6.A T / W &.&.3 Y.bX{.F.c.# w w 1 , , < * , i w , * ",
". . . $ 2 2 .   o = o + * = u A.^.jX@XM.4 I.W 1.@.^ u.R 1X{ L L E q.R q.R u.T w.} K -.wX:XJ.k @ @ X X = * o   X = & = * ",
"s s 1 s g g 1 2 .. .x x  .h.A.lX].lXXX} X.8X1X0X4X7.qX( tXW L m u.qX+.sX+.sX1.9Xt.} M.rX>XJ.g.9 p u u p f i 1 w f f d f ",
"1 1 > 1 i g < 2 u i q * u u h.wX^.xX.Xh.X.8Xu.4X1X7.7X1.6X{ L L 0.7X@.qX2.9X5.0XU.} M.wX=XL.f.r d w q i p u < w , , , < ",
"> 2 2 2 1 e < 2 w w = = w w h.@XH.:XoXh.C I.L F ^ ^ A ( L 1.% W N F F M ^ A A Q &.K } OX=XL.h.r p w * 1 w < , w i i i i ",
"s 6 1 6 g g i 1 i a i p j e x  XP.uXXX-.; w.m A F ^ M ^ M 6.% L ^ @.#.G 7.^ / 5.[ L } wX=XL.d.9 c i i i f i i f i p i i ",
"g 6 1 > < > 2 o u p w t p w j Y.{.cXXX:.4 8Xw.1X1X( 4X( 4X{ L m H 1XM 1Xm 1XL u.3.X.M.wXeXL.k @ p < * w i , , , w w i w ",
"1 > O o & 2 o X j a p t j i  .|.].cXoX:.X.8X1X4X4X( qX@.qX! L m 1XfX7.gX7.gXu.qXw.[ M.wX=XL.n @ * O & * , = & o f f f f ",
"g 6 > 1 s c g g o = X   o . i Y.L.pXoX,.X.1X( 1X4X7.4X6.1X( L A @.1X( 1X( 4X{ 1Xw.U } wXXXL.d.r p w i f x i 1 < O & o o ",
"> 2 & 2 1 w , = p w w i p p ..B.T.uX*X,.*.Q P D ^ H F D E O.- ~ D H O.m 1.M A P W K I.wXwX<Xs.# q = & , u , * * i i w < ",
"g t e e p i w * i w w i i i | n.T.yXXX<.Y <.! E E Z #.N 9.P - B E 2.G +./ 7.R 6.3._ M.wX=X<Xf.9 f i w p a u , 1 f a p i ",
"i 1 < w i i 1 * a i 1 w e e p  .T.vX-X;.` e.i.a.p.@.7XE 9XY P B ! 3XZ 4XR 5XE 1Xw.` >.OX=X{.h.0 t q , i i w , , i i i u ",
", & & , i p u , p i w w w w i d T.uX-X;.:.i.5X5X6Xq.qX8.9X%.P B 3XiX0.fXp.gXp.tXt.` } =X=X{.h.r * & & 1 i w w i i i u , ",
"< , = 1 i f p i p i i < w w w w v.uX,X<.I e.r.2.q.#.q.@.9.*.- B D #.Z @.F 8.T 6.3.K >.wXrXL.d.9 q = * i p i i i p p p i ",
"e < * < e w , & i i i w w i e * N.yX,Xc 7 *.O.H G F F T R ! % P G +.^ G +.+.E 1.{ L :.eX:XJ.k 9 p , * w i < * * p i i e ",
"e < * , 1 w = o i p i w i d e O N.yX-X<.8 *.6.! @.G 2.D 9.O.: ~ D +.F F / / T 1.} K e.rX=Xm.h r e * * < 1 * & & i i 1 < ",
"i e < e p p i , i d i 1 i d i O =.uXXXc I t.i.5.1X@.6XG 5XY B B p.3X0.1Xu.3X8.U.{ K M.rX=Xh.k h t 1 < i p i w w p i i i ",
"w i i w i i e =   & & o X = O   N.zX,X,.<.0X5X5X7X2XiXp.sXO.Y - 0.iX7.fX2.sXu.sX8X4 M.OXlXb h r p e w u w w * & * * & . ",
", i e 1 i i i = w i i w i p e * o.uXE.<.; 4.! E E G O.R 9.B - - ~ +.( F 2.E ! 1.t.% e.wXrXn h 9 f i p p a p u * i i < < ",
"= , , & * < * . p i i i p f i , N.vXuXM.3 *.O.! Z ^ H O.1.O.B O.E F ( m 7.Z E L } % I.wXlXz r @ q < , 1 w 1 * & i i w * ",
"& * * & & < * X i i 1 , w i e , j.yXE.-.; e.O.O.+.@.+.O.4.O.: P E 8.A 2.R 8.A 3.{ ; I.=XrXd.r # + & = * , * & o i i , * ",
"w i p i i p i * p i 1 w e i d x K.yXT.;._ R.i.p.3X1X2X#.0X~ P - 5.7X#.iX( 9X6.9Xw.J e..XxXb.z # q < < u i i < * a i w * ",
"i i i i i a i , i w , < < e | B.-XvXE.>.' 8Xi.1X6X1X9X2.hX~ O.B 2.6Xp.6Xq.5Xp.9Xt.K M.Q.cXL.c.@ t i i i p i w * w 1 * & ",
", w e 1 w i 1 & , * , , = * =.E.].zXP.<.3 *.~ E / G @.N 9.: - - N G F H ^ T A 1.3.K I.Q.lX].!.r e w 1 w u w * & , = o . ",
"w i i w i p w * , w w w & , m.:X|.vX,XM.5 *.V R G ) Z G O.O.: P G #.Z ^ R 6.M W U 4 I..XcX{.^.k t i u w i w * & 1 , * & ",
"= u a < u u q = p z q p n c <X{.{.lXlXX.K U./ F #.$.q.$.9.O.; 5 R q.H q.H q.O.9.*.; :.Q.vXK.G.s.q i d i i e e 1 p i e , ",
"= 1 i 6 < u q & t d * h b b ].|.kXbXlX..X.8X1X4X2Xq.fX#.dX*.O.B p.iX#.fX#.fX2.hXt.I y.,XyXN.l.l w e i i i i e w i i 1 , ",
"1 i a u e p i , t t * z d.x.].@X#XlXjX..' U.u.3X#.$.2X$.R.O.; ; #.2XG 2X$.6XO.a.t.I I.oXxXS.C.j.+ , , , < , * * w < , & ",
"< u u < w i w * t t + c Z.b.{.@X{.kX@X..' 3.M F $.$.O.O.5 4.$ Y H $.G N O.S ~ O.%.3 V.oXvXT.).K., 2 O 2 * , = = i w 1 < ",
"= = & $ & , * o p e + v.^.J.{.|.).*XXX<._ %.M Z $.$.- O.B e.$ O.N O.$.N E S ~ ! } ; M.XXbX(.#X{.p p u i i i i i i i i e ",
"1 u * = , i q O t q 9 H.@XY.{.].,XuXOX] _ i.9.p.q.$.a.$.5XO.: - O.3XS 5X~ 3X~ U.y.I I.oXbX^./.F.c f i i i d i 1 * * < = ",
"a a u < i f p q w q + L.>XL.L.H.}.uXuX8 I R.a.2X2Xq.dX#.dX*.<.B i.dX2.dX*.dXr.tXU._ I.XXvX^./.Z.x p w * q 1 * & = * * * ",
"u u * = w p e & * + + L.:X<XL.v.H.uXuXs I R.r.6.9.O.q.O.9.<.; : O.i.Y i.! U.Q t.I.7 M..XbX{.+XF.x.x w 1 u i , & a f f x ",
"1 u u * w p i , t x h.b.].*X{.v.T.uX,X<.O.Y B ~ S S S P W U I 5 8 S Y Y P Y Y U I ,.-.|.lX@X{.h.m. .g 1 1 w w < i u i w ",
"u u 6 < < p e , q x c.b.H.].L.c.T.aXuX<.<.<.B O.P T P ~ ` ` I 5 I <.Y Y P I U I _ } n.wXlX;X%X/.m. .p w w w w , i i e i ",
"6 u < < u p p < x H. XL.J.L.].L.T.zX,Xs s I 3 O.L L L U U X.i 7 Y 8 5 I I I I 8 X.] ..rXlX<X/./.m. .i u w u 1 < i e i w ",
"< u 6 * < p p * i x.m.h.n x.v.x.N.uX,X6 ; 3 $ - L J C J 4 7 4 3 7 7 5 5 J J J 8 X.3 ..rXjXd.d.Z.n...i w w w w < w i u i "
};
