/* XPM */
static char *bd5668c196434079cc33b3860d802fe06livk2wu0Uz45YuR[] = {
/* columns rows colors chars-per-pixel */
"60 60 245 2 ",
"   c #090C13",
".  c #14171E",
"X  c #0F3700",
"o  c #1A1C24",
"O  c #1D232A",
"+  c #1B2927",
"@  c #1F392F",
"#  c #222127",
"$  c #22252C",
"%  c #24292D",
"&  c #28272E",
"*  c #242632",
"=  c #272933",
"-  c #2B2D35",
";  c #2B2D39",
":  c #2C3136",
">  c #2E323A",
",  c #273836",
"<  c #32353D",
"1  c #35393E",
"2  c #35373A",
"3  c #292F32",
"4  c #201E2C",
"5  c #1E4900",
"6  c #234C00",
"7  c #294704",
"8  c #2B5404",
"9  c #2E5A02",
"0  c #295506",
"q  c #335503",
"w  c #335C04",
"e  c #335C0B",
"r  c #385908",
"t  c #2B461A",
"y  c #2D5312",
"u  c #345C12",
"i  c #3A5E14",
"p  c #3C5D1B",
"a  c #35571A",
"s  c #324E1B",
"d  c #356105",
"f  c #35620D",
"g  c #3B640B",
"h  c #3D690C",
"j  c #396403",
"k  c #3B6413",
"l  c #3E6A14",
"z  c #3C641B",
"x  c #386417",
"c  c #184A38",
"v  c #3B5727",
"b  c #374738",
"n  c #3E5534",
"m  c #324A28",
"M  c #3C6522",
"N  c #446A0D",
"B  c #446908",
"V  c #426615",
"C  c #426C14",
"Z  c #436C1C",
"A  c #47691B",
"S  c #457115",
"D  c #46721C",
"F  c #4B741C",
"G  c #4D791E",
"H  c #4A7516",
"J  c #54771B",
"K  c #445D2A",
"L  c #465C38",
"P  c #456B23",
"I  c #4D6C23",
"U  c #4C6C2C",
"Y  c #466529",
"T  c #516B2A",
"R  c #457121",
"E  c #4C7424",
"W  c #4D7923",
"Q  c #4D742B",
"!  c #4F7A2B",
"~  c #47722B",
"^  c #527522",
"/  c #527C23",
"(  c #54752C",
")  c #537C2B",
"_  c #5A7C2B",
"`  c #4B6335",
"'  c #4C6A33",
"]  c #4B6639",
"[  c #526E35",
"{  c #526C3C",
"}  c #50653C",
"|  c #4E7333",
" . c #527433",
".. c #557B32",
"X. c #59753D",
"o. c #587839",
"O. c #617C35",
"+. c #343642",
"@. c #373944",
"#. c #3B3C44",
"$. c #3C3E4A",
"%. c #393643",
"&. c #303D4D",
"*. c #403F47",
"=. c #423E4A",
"-. c #284D43",
";. c #3D4147",
":. c #3E424A",
">. c #394644",
",. c #275B4A",
"<. c #3C4354",
"1. c #3F4658",
"2. c #3A5A57",
"3. c #33564D",
"4. c #306653",
"5. c #1C5242",
"6. c #454245",
"7. c #43434A",
"8. c #49474D",
"9. c #43494B",
"0. c #484946",
"q. c #49574A",
"w. c #525F4C",
"e. c #434553",
"r. c #454A54",
"t. c #4B4A52",
"y. c #434A5C",
"u. c #4B4E5C",
"i. c #41475B",
"p. c #4D535B",
"a. c #4E5A5C",
"s. c #4A5854",
"d. c #535B5E",
"f. c #52565A",
"g. c #504D50",
"h. c #4D6444",
"j. c #4E6A42",
"k. c #536A44",
"l. c #53634C",
"z. c #546C4A",
"x. c #546745",
"c. c #5D7942",
"v. c #597448",
"b. c #49655C",
"n. c #536455",
"m. c #596654",
"M. c #5A6A55",
"N. c #556559",
"B. c #5B6C5D",
"V. c #58665A",
"C. c #5D7355",
"Z. c #4F7043",
"A. c #627D48",
"S. c #616E5C",
"D. c #647859",
"F. c #464D61",
"G. c #494E62",
"H. c #4C5265",
"J. c #4F5568",
"K. c #4C5C63",
"L. c #525464",
"P. c #545D63",
"I. c #5A5C64",
"U. c #53566C",
"Y. c #56596A",
"T. c #5B5D6B",
"R. c #59566E",
"E. c #5D5B73",
"W. c #575670",
"Q. c #544F6D",
"!. c #625D6C",
"~. c #625E73",
"^. c #4A6964",
"/. c #546264",
"(. c #5D6464",
"). c #5E626C",
"_. c #5C6A6C",
"`. c #5A6967",
"'. c #587164",
"]. c #5E6274",
"[. c #5B7374",
"{. c #477068",
"}. c #626A64",
"|. c #63646C",
" X c #636B6C",
".X c #656B69",
"XX c #637264",
"oX c #697968",
"OX c #636472",
"+X c #636479",
"@X c #696A77",
"#X c #697676",
"$X c #72777A",
"%X c #558225",
"&X c #55822C",
"*X c #5B852A",
"=X c #5B8629",
"-X c #5A8332",
";X c #5C8636",
":X c #638A2D",
">X c #618C33",
",X c #658A3A",
"<X c #6A933B",
"1X c #64902E",
"2X c #59821C",
"3X c #5E8542",
"4X c #638441",
"5X c #688848",
"6X c #6B9243",
"7X c #749B47",
"8X c #698556",
"9X c #738D5B",
"0X c #759656",
"qX c #6E9054",
"wX c #7BA24F",
"eX c #59897A",
"rX c #748A68",
"tX c #7E9379",
"yX c #6D8776",
"uX c #83AB5D",
"iX c #84947C",
"pX c #767A83",
"aX c #807E89",
"sX c #699A88",
"dX c #758B8A",
"fX c #7BA693",
"gX c #83858E",
"hX c #8E9296",
"jX c #94969C",
"kX c #8B8C93",
"lX c #989BA2",
"zX c #89A1A3",
"xX c #9AAAAD",
"cX c #8CB6AD",
"vX c #A9B3B9",
"bX c #B3B5BD",
"nX c #A3A4AB",
"mX c #9AC8B6",
"MX c #BBBCC5",
"NX c #BEC1C9",
"BX c #AFD3CB",
"VX c #CACBD1",
"CX c #D3D6DD",
"ZX c #C8CBD2",
"AX c #D9DBE1",
/* pixels */
"U P ( ,X:X:XH 6 g A ;XZ :X<Xj H | Z.v.D.XX}.@XpXe.].2.2.2.5.,.,.,.,.4.{.3.3.^.s.b x.rXT r J J J H B J 2Xj j H h 1X^ F F ",
"c.U I J N J J H ) E ( e g J B =X| j.z.C.}.V.I.T.$.<.&.^.{.,.,.c 4.c 3.-.2.[.2., + n D.K 7 r q w H B B B w 9 w 8 G w g 7X",
"5X .I V w B %X*XV i  .P e V w w  .j.z.D.XX}.I.Y.T.<.K.zXsX4.eXeXcX,.cX2.dXBX#Xb.% b D.K a T A J q r q w F G G =XC 9 6 w ",
"5XT I J B N J F i p 8XqXU Q E q ' ] h.C.oX X).T.E.<.#XvXeXc sXmXsXc BX-.[.xXa./.b q.D.} K 4X,X0XI O.I i E A g / d S C 6 ",
"o.V V / J J ^ A U Y { k.s v X.U j.h.h.M.`.(.I.T.].<.[.vXeX-.sXmXsXc BX-.^.zXs.`.>.9.S.h.L v.[ X.Y A.[ p p 8 6 A f k z A ",
"o.e r F J _ _ ( { v.h.h.n L 8XA.8XC.C.B.N.f.L.).+Xy.K.zXdX{.eXsXfX2.mXb.yXxX#X#X, >.XXS.S.D.k.k.] D.A.{ Y p z _ 7Xe X V ",
"o.r r F F J _ X.v.tXoXyXtXrXtXrXrXoXXXN.q.9.f.OXL.y.>._.[.b.b.3.'.-.^.3.s. XP.r.;.9.#X#X$XiXD.oXiXiXiXrX{ v M x wXE r A ",
"..V A _ F V I [ L yXq.a.#XN.}.m.B.n.w.9.2 : e.|.).pXP./.[.^.'.b.'.'.'.#X/.`.pX$X).I.$X(.}.#XXX$X#XB.oXoX] `  .z 5 ) ;Xe ",
",Xr V g F q 4X9XM.n.>.P.OXP. XN.V.n.s.q.#.- = = > > > > , , , , @ @ , , , > < < $.r.f.(.`. X#X$X#X X XXXz.v s u u k x e ",
"6XV V V V r o.9XM.N.:.Y.+XY.|.f.s.s.q.9.#.> - ; $ O O O O + + + + + + + + % % * = < #.:.9.9.s.a.).). XoXD.Z.{ o.P E ! E ",
"A e V <X*X_ [ v.M.(.e.Y.+XY.|.u.% : : % $ O O O O O O O O O O + + + + + % % % & - < @.#.;.>.>.:.+XOX XXXM.} ' ~ P R R Z ",
"i u C wX:X,XY L M.(.r.Y.+XR.T.e.> @.#.@.1 @.@.1 > < < < > > > > 2 , 2 2 2 2 1 2 *.7.8.8.9.:.:.:.@X@X XB.h.n a u R Z l f ",
"5X) k :Xg ( Y k.S. Xr.U.+XT.!.=.< :.e.:.:.9.9.#.7.7.:.7.7.7.7.7.;.;.;.;.6.6.6.6.0.0.8.8.7.>.>.@.+X@X XB.x.] P P &X! R Z ",
"-XZ k ^ V ( X.v.M. Xr.U.+X~.!.%.* %.$.@.+.:.#.< ;.;.7.7.7.*.*.*.#.#.#.#.6.6.6.6.0.0.6.0.9.>.1 < OX@X.XB.x.{  .E ! R D Z ",
"Z 8 A ^ *X( X.L M.}.r.L.+X~.!.%.> e.u.e.e.p.p.7.#.#.#.#.*.*.=.*.#.#.7.*.*.6.*.6.g.0.0.0.9.9.>.1 OX@X.XM.x.{ | P D l f e ",
",Xl W k ^ i [ v m.`.e.L.+XOX!.< 4 %.7.#.#.r.t.@.7.7.7.7.7.7.=.7.8.8.8.8.0.0.0.0.8.6.6.0.9.9.>.1 T.@X.XM.z.A.4X-X&XD k e ",
"uXZ 5 <XV V ' C.oX`.<.G.+Xp.d.jXbXaX%.$.u.7.8.1 7.7.7.7.7.7.7.7.7.7.7.7.7.7.7.7.7.8.8.8.8.7.#.#.I.|..XS.z.` U ! -Xl e l ",
"l / W >Xk 4Xc.t B./.y.J.@XL.I.lXVXjX8.*.8.@.t.*.7.7.7.7.7.7.7.7.7.7.7.7.7.7.7.7.8.8.8.8.8.7.*.#.|.|.}.m.L K P E uX&X9 9 ",
"9 *X>XF q 0X9XL N./.u.U.@XL.d.jXVXjX8.#.7.1 t.8.7.7.7.7.7.7.7.7.7.7.7.7.7.7.7.7.8.8.8.8.8.7.#.#.@X|.(.w.L ` Q ..;XS 8 6 ",
"Z C / F E 0X9XrXN.`.H.H.).u.f.hXMXgX#.@.8.#.t.#.7.7.7.7.7.7.7.7.7.7.7.7.7.7.7.7.8.8.8.8.8.7.#.#.OX|.(.m.k.Z.4X6Xe D &XW ",
"l 8 D F 6X0XX.D.V._.H.u.T.p.d.hXVXhX@.1 t.7.t.@.7.7.7.7.7.7.7.7.7.7.7.7.7.7.7.7.8.8.8.8.8.7.#.#.|.|.}.S.C.c.4X,X9 D -X) ",
"C 9 F 5 E 4XK ] B._.u.u.+XT.(.hXAXlX7.@.8.*.t.*.7.7.7.7.7.7.7.7.7.7.7.7.7.7.7.7.8.8.8.8.8.7.#.#.|.|.}.S.C.Z.| E Z g e f ",
"E f / X k ..v z.B._.u.F.@XT.p.$XnXpX#.*.8.@.t.7.7.7.7.7.7.7.7.7.7.7.7.7.7.7.7.7.8.8.8.8.8.7.#.#.|.|.}.M.z.{ P l ;XD l &X",
"l 8 ;Xw <X;Xs D.B._.u.F.+Xp.1 t.g.8.- 7.t.1 8.7.7.7.7.7.7.7.7.7.7.7.7.7.7.7.7.7.8.8.8.8.8.7.#.#.|.T.V.m.z.{ U Z Z l W <X",
"W <XW D 6XQ t L XX/.y.U.Y.P.(.: # #.7.@.7.7.@.7.7.7.7.7.7.7.7.7.7.7.7.7.7.7.7.7.7.8.8.7.7.7.#.#.I.$X}.l.z.v y -X! D k f ",
"8 &X&X) <XU a D.'./.e.J.Y.I.|.> # #.7.@.7.7.@.7.7.7.7.7.7.7.7.7.7.7.7.7.7.7.7.7.7.7.8.7.7.*.#.#.L.|.V.w.z.v y ! D C l k ",
"5 D W ) ,XQ K D.B./.<.J.Y.T.|.< # #.7.@.7.7.@.7.7.7.7.7.7.7.7.7.7.7.7.7.7.7.7.7.7.7.7.7.7.*.#.#.I.|.(.M.C.` p R W G E W ",
"l D l C -XQ K z.B.d.<.J.Y.T.|.2 # #.7.#.7.7.@.7.7.7.7.7.7.7.7.7.7.7.7.7.7.7.7.7.7.7.7.7.7.*.#.#.|.|.}.S.C.{ Y z -X&X) ) ",
") W l g V z Y z.B.d.<.J.Y.T.|.2 # #.7.#.7.7.@.7.7.7.7.7.7.7.7.7.7.7.7.7.7.7.7.7.7.7.7.7.*.#.#.@.T.I.V.m.h.` Y 0 x 9 8 5 ",
"W E F Z e u ' D.B./.<.J.Y.T.|.< # #.7.@.7.7.@.7.7.7.7.7.7.7.7.7.7.7.7.7.7.7.7.7.7.7.7.*.*.#.@.@.|.I.(.m.L {  .x 6X>X&XW ",
"&Xl l W ^ ..X.k.'./.e.J.Y.I.|.> # #.7.#.7.7.@.7.*.*.*.*.*.*.*.*.*.*.*.*.*.*.*.*.*.7.7.7.*.#.@.@.@XI.}.S.L v.5X) ! D l l ",
"6Xf 8 G 7XuXA.t XX/.i.U.Y.I.|.: # #.7.@.7.7.@.7.*.#.*.#.*.#.*.#.*.#.*.#.*.#.#.#.*.#.7.#.#.@.@.%.!.f.(.m.L X.0X;XR Z Z R ",
"l F %X;X<X6Xc.L B./.y.U.U.Y.|.1 $ ;.7.@.7.;.@.:.#.;.#.;.#.;.#.;.7.;.#.:.8.8.8.:.@.> 7.r.u.@.o t.~.OX(.l.k.X.U x Q ..3X5X",
"G >X<X>X) ..A.8XB./.y.U.U.Y.OX+.$ ;.:.@.:.;.@.:.;.;.;.;.;.;.;.;.;.#.#.:.7.:.#.1 @.gXCXCXNXjX8.+.E.~.(.l.{  .Q Z u M | c.",
"S %X=XG C P X.D.B./.y.U.U.Y.OX+.$ ;.:.@.:.;.@.:.;.;.;.;.;.;.;.;.#.#.#.;.;.@.: % L.nXCXNXVXAXpX; R.~.(.l.}  .( ! u M ~ ' ",
"C C N C W ..c.k.B./.y.U.U.Y.OX+.$ ;.:.@.:.;.@.:.;.;.;.;.;.;.;.;.#.#.#.#.#.< $ o I.hXvXhXvXCXdX+.U.~.|.l.` [ ....! ~ M a ",
"G G F H ) ,X5XC.B./.y.U.U.Y.OX+.$ ;.:.@.:.;.@.:.;.;.;.;.;.;.;.;.#.#.#.#.@.- O . O $XZXMXbXnXf.< U.E.(.w.` U ( ) ! P a y ",
"F %X/ C w k [ D.B./.y.U.U.Y.OX+.$ ;.:.@.:.;.@.:.;.;.;.;.;.;.;.;.#.#.@.@.1 - $ o   > @X$XpX|.- +.R.E.(.w.` U E P z z x a ",
"S / / N w u Y z.B./.y.U.U.Y.OX+.$ ;.:.@.:.;.@.:.;.;.;.;.;.;.;.;.#.#.@.@.1 > = # O       = < O $.E.E.I.w.` U Z u z x x M ",
"%X%X%X=X>X6XA.k.B./.y.U.U.Y.OX+.$ ;.:.@.:.;.@.:.;.;.;.;.;.;.;.;.:.#.@.1 1 < - = % - 9.@.@.: o $.E.E.P.q.` U z 8 Z x y 0 ",
"*X=X=X=X_ ( A.rXN.`.<.H.H.H.@X< = #.8.#.@.:.;.< #.#.#.#.#.#.#.#.#.#.@.1 1 < < < - @.> - @.< - +.Q.E.|.w.v y i Z 5 e Q ;X",
"G S S / -X;Xc.D.N./.<.H.W.Y.).= $ @.9.#.< #.:.:.#.#.#.#.#.#.#.#.#.#.@.1 1 < < < - @.< > #.1 - %.Q.R.(.w.K p Z E 8 x E ) ",
"d S =X%XC i [ rXN.P.<.H.].T.L.= o - #.#.@.@.;.7.#.#.#.#.#.#.#.#.#.#.@.@.1 1 < < > #.1 < #.@.: @.Q.R.I.n.} U ( ) R W ) -X",
"G %X=XG w 8 ' rXn.P.i.G.+XT.p.r.- : 1 ;.7.#.@.1 #.#.#.#.#.#.#.#.#.#.@.@.1 1 1 1 < ;.@.< :.@.> #.E.E.I.m.v.o._ ) f f f x ",
"7XG w d W ( ' L n.P.H.F.E.Y.p.$XpXf.< 1 ;.#.1 < #.#.#.#.#.#.#.#.#.#.@.@.@.@.@.@.1 7.@.1 :.@.> #.E.R.d.l.{  .R Z l k k k ",
"*Xh 9 h ) ..Y m N.P.J.i.W.L.u.lXZXdX#.- 1 1 @.;.#.#.#.#.@.@.@.@.@.@.@.@.@.@.@.@.1 7.@.1 :.@.: @.Q.U.p.q.` Y k e ;X;X-X&X",
"S S S H C z Y z.B.K.H.<.E.Y.e.lXAXkX:.< #.1 1 9.@.@.@.@.@.@.@.@.@.@.@.#.#.#.#.#.1 7.@.< #.1 - +.Q.R.d.w.L p e e W / ) W ",
"<X/ g d k P [ D.'.a.G.&.].T.$.lXbX$X:.:.r.@.< :.@.@.@.@.@.@.@.@.@.@.#.#.#.#.#.#.+.:.@.< #.1 - +.R.Y.(.m.] Y z k F / &X%X",
"S h / *XF E 8XrXn._.y.i.].e.e.jXZXgXe.+.#.@.@.:.@.@.@.@.@.@.@.@.@.@.@.@.@.@.@.@.$.+.$.< $.:.* :.L.P.(.m.j.' Q W e W / w ",
">Xg G =Xw V qXD.w.`.u.F.].u.L.xXNXpX$.> $.$.$.$.@.@.@.@.@.@.@.@.@.@.@.@.@.@.@.@.$.+.$.< $.$.* :.).`.`.M.k.' Q E D D C d ",
"/ 8 S *Xg I 5Xh.w.`.F.F.E.G.L.jXMXpX7.+.:.:.@.+.@.@.@.@.@.@.@.@.@.@.@.@.@.@.@.@.$.+.$.< $.$.* :.L.s.q.L L v p e W h g S ",
"g 9 9 C ^ ( c.C.n./.y.y.W.G.e.).gXT.#.+.$.$.+.+.@.@.@.@.@.@.@.@.@.@.@.@.@.@.@.@.$.+.$.< $.$.* :.OX/.s.w.h.{ Q D l h h S ",
"S =X8 5 *X..Y rXV.a.1.y.E.U.:.+.; = = > +.+.#.:.@.@.@.@.@.@.@.@.@.@.@.@.@.@.@.@.$.+.$.< $.$.* :.OXP.s.q.h.X...) w S F w ",
"F 7XV w wX..7 z.N.p.y.G.E.+Xu.- o = #.$.@.< +.$.@.@.@.@.@.@.@.@.@.@.@.@.@.@.@.@.$.+.$.< $.$.* :.p.r.>.b n Y P R d %X=Xg ",
"G %XF G <X( a n n.p.H.H.U.OXI.< ; $.r.e.$.+.< +.@.@.@.@.@.@.@.@.@.@.@.@.@.@.@.@.$.+.$.< $.$.* :.T.P.a.q.L `  .-XS %X=X%X",
"<Xw 9 d 6 k 5XC.n.a.U.H.i.L.L.@.O ; +.%.+.#.$.$.@.@.@.@.@.@.@.@.@.@.@.@.@.@.@.@.$.+.$.+.$.$.* :.L.K.s.>.m v P ! G S H %X",
"/ g G C :Xi [ C.V./.u.W.U.U.OX@.= +.$.%.+.$.$.@.@.@.@.@.@.@.@.@.@.@.@.@.@.@.@.@.$.+.$.< $.:.* e.L.J.p.q.M.v | u g 9 H 9 ",
"S d G G <XZ ' ] n.P.y.U.U.L.).+.= +.#.%.+.$.$.@.@.@.@.@.@.@.@.@.@.@.@.@.@.@.@.@.#.+.$.< $.$.* e.U.U.a.q.C.v  .k F w H d ",
"G g S G <XQ ' ] n.a.i.J.U.L.T.< = +.#.+.+.$.$.%.@.@.@.@.@.@.@.@.@.@.@.@.@.@.@.@.#.+.$.< $.$.* <.U.U.p.q.M.v | e >Xh %X1X",
">XS d g ^ ( X.C.w.p.<.H.H.H.T.> * < @.+.+.@.#.+.+.+.+.+.+.+.+.+.%.%.%.%.+.+.%.%.@.< #.> $.$.* <.G.H.r.>.h.s P 8 W 6 N 1X"
};
