/* XPM */
static char *result[] = {
/* columns rows colors chars-per-pixel */
"60 60 186 2 ",
"   c #7D0B3F",
".  c #710B3F",
"X  c #061F55",
"o  c #34194E",
"O  c #3B184D",
"+  c #251C51",
"@  c #351E51",
"#  c #2A194D",
"$  c #0A2156",
"%  c #0C245A",
"&  c #072156",
"*  c #1E2557",
"=  c #122359",
"-  c #132B5C",
";  c #192F5D",
":  c #1B325B",
">  c #242457",
",  c #3F2153",
"<  c #2E3F5E",
"1  c #343E5D",
"2  c #142D61",
"3  c #1C3365",
"4  c #273E6C",
"5  c #491549",
"6  c #551345",
"7  c #680F42",
"8  c #740D41",
"9  c #631145",
"0  c #6C1044",
"q  c #661A4B",
"w  c #7C1342",
"e  c #562250",
"r  c #583359",
"t  c #78204E",
"y  c #702957",
"u  c #603056",
"i  c #713452",
"p  c #2F466E",
"a  c #304571",
"s  c #3F547B",
"d  c #354664",
"f  c #43567D",
"g  c #7F7B72",
"h  c #8C0A3C",
"j  c #8F0739",
"k  c #9E0537",
"l  c #990739",
"z  c #A60436",
"x  c #AB0133",
"c  c #B80736",
"v  c #CA0E38",
"b  c #D9123A",
"n  c #E81B3E",
"m  c #F21C3E",
"M  c #961F4A",
"N  c #A71944",
"B  c #87224C",
"V  c #933A57",
"C  c #AA3156",
"Z  c #B52A4B",
"A  c #E31F42",
"S  c #EC1E40",
"D  c #C52446",
"F  c #D72245",
"G  c #D72945",
"H  c #CA3049",
"J  c #C43350",
"K  c #E32242",
"L  c #EA2041",
"P  c #EB2A4A",
"I  c #E72B4B",
"U  c #8E4066",
"Y  c #AB5C79",
"T  c #B65471",
"R  c #AA4769",
"E  c #E5435E",
"W  c #DD6479",
"Q  c #888071",
"!  c #5B7091",
"~  c #5A6A8C",
"^  c #6E718E",
"/  c #647492",
"(  c #6D7C97",
")  c #6D859F",
"_  c #5E82A0",
"`  c #738BA5",
"'  c #7D93A8",
"]  c #7B92A9",
"[  c #6C89A6",
"{  c #8B8E91",
"}  c #96999B",
"|  c #9B9D9E",
" . c #929088",
".. c #A98699",
"X. c #8296AD",
"o. c #879AAD",
"O. c #8C9CAF",
"+. c #9D9FA2",
"@. c #959DA3",
"#. c #849BB2",
"$. c #879FB6",
"%. c #9DA2A7",
"&. c #8DA2B6",
"*. c #8AA1B9",
"=. c #92A4B5",
"-. c #92A6BA",
";. c #95AABD",
":. c #9AABBC",
">. c #98A6B3",
",. c #A3A5A5",
"<. c #A2A6A9",
"1. c #A6A9AC",
"2. c #AAACAD",
"3. c #ACAEB1",
"4. c #A2AFBE",
"5. c #B0ADB1",
"6. c #AEB1B4",
"7. c #AEB3B9",
"8. c #A2B0BF",
"9. c #B2B3B6",
"0. c #B3B5B9",
"q. c #B5B9BD",
"w. c #BABBBD",
"e. c #D58998",
"r. c #C298A1",
"t. c #9BAEC1",
"y. c #9DB1C4",
"u. c #A1B3C3",
"i. c #ABBCCB",
"p. c #A7BBCC",
"a. c #B5BCC2",
"s. c #BABEC2",
"d. c #B3BFCB",
"f. c #B9BBCA",
"g. c #BEC1C4",
"h. c #B3C1CD",
"j. c #BCC4CC",
"k. c #B5C2D1",
"l. c #BDC9D2",
"z. c #C3C4C5",
"x. c #CAC3C5",
"c. c #C4C5C9",
"v. c #C6C8CB",
"b. c #CACBCD",
"n. c #C6C7CB",
"m. c #D2CECD",
"M. c #D9C5C8",
"N. c #C2CCD6",
"B. c #CCCED1",
"V. c #DFCED2",
"C. c #CED1D3",
"Z. c #CCD6DE",
"A. c #D2D3D5",
"S. c #D4D6D9",
"D. c #D6D8DB",
"F. c #DBDBDD",
"G. c #E4CECF",
"H. c #E8C5C4",
"J. c #E9D0CF",
"K. c #EACDD0",
"L. c #E3DDDC",
"P. c #EDDADA",
"I. c #EBD3D5",
"U. c #F2DBDA",
"Y. c #E0E0DF",
"T. c #D7DDE3",
"R. c #DDDFE1",
"E. c #DEE1E4",
"W. c #E3E3E4",
"Q. c #E5E7E8",
"!. c #E6E9EA",
"~. c #EBEBEC",
"^. c #ECE7E5",
"/. c #F3EAEB",
"(. c #F4F0EF",
"). c #F8F3EF",
"_. c #EDEFF0",
"`. c #EEF0F1",
"'. c #F3F3F3",
"]. c #F8F6F5",
"[. c #FAF9F7",
"{. c #F5F7F8",
"}. c #F7F9F9",
"|. c #FCFCFC",
" X c #F8F8F7",
".X c None",
/* pixels */
".X.X.X.X.X.X.X.X.X.X.X.X.X.X.X.X.X.X.X.X.X.X.X.X.X.X.X.X.X.X.X.X.X.X.X.X.X.X.X.X.X.X.X.X.X.X.X.X.X.X.X.X.X.X.X.X.X.X.X.X",
".X.X.X.X.X.X.X.X.X.X.X.X.X.X.X.X.X.X.X.X.X.X.X.X.X.X.X.X.X.X.X.X.X.X.X.X.X.X.X.X.X.X.X.X.X.X.X.X.X.X.X.X.X.X.X.X.X.X.X.X",
".X- % 3 O..X.X.X.X.X.X.X.X.X.X.X.X.X.X.X.X.X.X.X.X.X.X.X.X.X.X.X.X.X.X.X.X.X.X.X.X.X.X.X.X.X.X.X.X.X.X.X.X.X.X.X.X.X.X.X",
".X- - - ^ .X.X.X.X.X.X.X.X.X.X.X.X.X.X.X.X.X.X.X.X.X.X.X.X.X.X.X.X.X.X.X.X.X.X.X.X.X.X.X.X.X.X.X.X.X.X.X.X.X.X.X.X.X.X.X",
".X- - > R .X.X.X.X.X.X.X.X.X.X.X.X.X.X.X.X.X.X.X.X.X.X.X.X.X.X.X.X.X.X.X.X.X.X.X.X.X.X.X.X.X.X.X.X.X.X.X.X.X.X.X.X.X.X.X",
".X2 2 B P e..X.X.X.X.X.X.X.X.X.X.X.X.X.X.X.X.X.X.X.X.X.X.X.X.X.X.X.X.X.X.X.X.X.X.X.X.X.X.X.X.X.X.X.X.X.X.X.X.X.X.X.X.X.X",
".X: e A S W .X.X.X.X.X.X.X.X.X.X.X.X.X.X.X.X.X.X.X.X.X.X.X.X.X.X.X.X.X.X.X.X.X.X.X.X.X.X.X.X.X.X.X.X.X.X.X.X.X.X.X.X.X.X",
".Xr F S S E .X.X.X.X.X.X.X.X.X.X.X.X.X.X.X.X.X.X.X.X.X.X.X.X.X.X.X.X.X.X.X.X.X.X.X.X.X.X.X.X.X.X.X.X.X.X.X.X.X.X.X.X.X.X",
".X.XS m m P e..X.X.X.X.X.X.X.X.X.X.X.X.X.X.X.X.X.X.X.X.X.X.X.X.X.X.X.X.X.X.X.X.X.X.X.X.X.X.X.X.X.X.X.X.X.X.X.X.X.X.X.X.X",
".X.XL m m m W .X.X.X.X.X.X.X.X.X.X.X.X.X.X.X.X.X.X.X.X.X.X.X.X.X.X.X.X.X.X.X.X.X.X.X.X.X.X.X.X.X.X.X.X.X.X.X.X.X.X.X.X.X",
".X.XL m m m E .X.X.X.X.X.X.X.X.X.X.X.X.X.X.X.X.X.X.X.X.X.X.X.X.X.X.X.X.X.X.X.X.X.X.X.X.X.X.X.X.X.X.X.X.X.X.X.X.X.X.X.X.X",
".X.XK m m m P .X.X.X.X.X.X.X.X.X.X.X.X.X.X.X.X.X.X.X.X.X.X.X.X.X.X.X.X.X.X.X.X.X.X.X.X.X.X.X.X.X.X.X.X.X.X.X.X.X.X.X.X.X",
".X.XG m m m n T .X.X.X.X.X.X.X.X.X.X.X.X.X.X.X.X.X.X.X.X.X.X.X.X.X.X.X.X.X.X.X.X.X.X.X.X.X.X.X.X.X.X.X.X.X.X.X.X.X.X.X.X",
".X.XG m m m b C .X.X.X.X.X.X.X.X.X.X.X.X.X.X.X.X.X.X.X.X.X.X.X.X.X.X.X.X.X.X.X.X.X.X.X.X.X.X.X.X.X.X.X.X.X.X.X.X.X.X.X.X",
".X.XH m m m b N .X.X.X.X.X.X.X.X.X.X.X.X.X.X.X.X.X.X.X.X.X.X.X.X.X.X.X.X.X.X.X.X.X.X.X.X.X.X.X.X.X.X.X.X.X.X.X.X.X.X.X.X",
".X.XH m m m b z T .X.X.X.X.X.X.X.X.X.X.X.X.X.X.X.X.X.X.X.X.X.X.X.X.X.X.X.X.X.X.X.X.X.X.X.X.X.X.X.X.X.X.X.X.X.X.X.X.X.X.X",
".X.X.XK m m v x C .X.X.X.X.X.X.X.X.X.X.X.X.X.X.X.X.X.X.X.X.X.X.X.X.X.X.X.X.X.X.X.X.X.X.X.X.X.X.X.X.X.X.X.X.X.X.X.X.X.X.X",
".X.X.XB n m c x N .X.X.X.X.X.X.X.X.X.X.X.X.X.X.X.X.X.X.X.X.X.X.X.X.X.X.X.X.X.X.X.X.X.X.X.X.X.X.X.X.X.X.X.X.X.X.X.X.X.X.X",
".X.X.X* M m c x z Y .X.X.X.X.X.X.X.X.X.X.X.X.X.X.X.X.X.X.X.X.X.X.X.X.X.X.X.X.X.X.X.X.X.X.X.X.X.X.X.X.X.X.X.X.X.X.X.X.X.X",
".X.X.X- * N x x x U .X.X.X.X.X.X.X.X.X.X.X.X.X.X.X.X.X.X.X.X.X.X.X.X.X.X.X.X.X.X.X.X.X.X.X.X.X.X.X.X.X.X.X.X.X.X.X.X.X.X",
".X.X.X- % @ k x x y .X.X.X.X.X.X.X.X.X.X.X.X.X.X.X.X.X.X.X.X.X.X.X.X.X.X.X.X.X.X.X.X.X.X.X.X.X.X.X.X.X.X.X.X.X.X.X.X.X.X",
".X.X.X; % = B x x q ! .X.X.X.X.X.X.X.X.X.X.X.X.X.X.X.X.X.X.X.X.X.X.X.X.X.X.X.X.X.X.X.X.X.X.X.X.X.X.X.X.X.X.X.X.X.X.X.X.X",
".X.X.Xu * - 8 x x 9 s .X.X.X.X.X.X.X.X.X.X.X.X.X.X.X.X.X.X.X.X.X.X.X.X.X.X.X.X.X.X.X.X.X.X.X.X.X.X.X.X.X.X.X.X.X.X.X.X.X",
".X.X.XJ w % 0 x x 9 4 .X.X.X.X.X.X.X.X.X.X.X.X.X.X.X.X.X.X.X.X.X.X.X.X.X.X.X.X.X.X.X.X.X.X.X.X.X.X.X.X.X.X.X.X.X.X.X.X.X",
".X.X.X.XF 5 5 z x 0 2 / .X.X.X.X.X.X.X.X.X.X.X.X.X.X.X.X.X.X.X.X.X.X.X.X.X.X.X.X.X.X.X.X.X.X.X.X.X.X.X.X.X.X.X.X.X.X.X.X",
".X.X.X.XL q @ z x 0 = f .X.X.X.X.X.X.X.X.X.X.X.X.X.X.X.X.X.X.X.X.X.X.X.X.X.X.X.X.X.X.X.X.X.X.X.X.X.X.X.X.X.X.X.X.X.X.X.X",
".X.X.X.XK w # k x 8 % 4 .X.X.X.X.X.X.X.X.X.X.X.X.X.X.X.X.X.X.X.X.X.X.X.X.X.X.X.X.X.X.X.X.X.X.X.X.X.X.X.X.X.X.X.X.X.X.X.X",
".X.X.X.XF h + h x 8 = 2 ( .X.X.X.X.X.X.X.X.X.X.X.X.X.X.X.X.X.X.X.X.X.X.X.X.X.X.X.X.X.X.X.X.X.X.X.X.X.X.X.X.X.X.X.X.X.X.X",
".X.X.X.XH l +   x 8 % % ~ .X.X.X.X.X.X.X.X.X.X.X.X.X.X.X.X.X.X.X.X.X.X.X.X.X.X.X.X.X.X.X.X.X.X.X.X.X.X.X.X.X.X.X.X.X.X.X",
".X.X.X.XZ z o 7 x h = X a D.'..X.X.X.X.X.X.X.X.X.X.X.X.X.X.X.X.X.X.X.X.X.X.X.X.X.X.X.X.X.X.X.X.X.X.X.X.X.X.X.X.X.X.X.X.X",
".X.X.X.XC x 5 5 x 8 = % - 4.{._..X.X.X.X.X.X.X.X.X.X.X.X.X.X.X.X.X.X.X.X.X.X.X.X.X.X.X.X.X.X.X.X.X.X.X.X.X.X.X.X.X.X.X.X",
".X.X.X.XV x 6 O l O $ % X / '.{.'..X.X.X.X.X.X.X.X.X.X.X.X.X.X.X.X.X.X.X.X.X.X.X.X.X.X.X.X.X.X.X.X.X.X.X.X.X.X.X.X.X.X.X",
".X.X.X.X.Xz 8 # 5 X $ $ & p T.{.'.(..X.X.X.X.X.X.X.X.X.X.X.X.X.X.X.X.X.X.X.X.X.X.X.X.X.X.X.X.X.X.X.X.X.X.X.X.X.X.X.X.X.X",
".X1..X.X.XV i 1 1 < < < < d 0.~.~.~.!.~.~.~.~.~.~.~.!.~.~.~.~.~.~.~.~.!.!.!.~.~.~.~.!.^.W.W.W.W..X.X.X.X.X.X.X.X.X.X.X.X",
".X1.9.v.S.b.v.b.b.C.A.A.A.A.W.'._.'.'.{.'.'.'.'.'.{.'.'.'._.'.{.'.'.'.'.'.(.'.{.'.'.'.'.'.'.(._.~.~.~..X.X.X.X.X.X.X.X.X",
".X.X3.0.j.S.Q.'.{.|.|.|.}.|.}.|.|.|.|.|.|.|.W.M.^.|.|.|.|.|.|.|.|.|.|.|.|.|.|.|.|.|.|.|.|.|.|.|.|.{.(._.!..X.X.X.X.X.X.X",
".X.X6.7.q.s.B.R.Q.|.|.|.}.'.[.|.|.|.|.|.|.|.f...K.^.~.'.|.|.|.|.|.|.|.|.|.|.|.|.|.|.|.|.|.|.|.|.|.|.'.{.}.~..X.X.X.X.X.X",
".X.X.X9.9.w.s.b.F.[.|.|.|.[.|.|.|.|.|.|.|.|.n...G.A.m.z.W.|.|.|.|.|.|.|.|.|.|.|.|.|.|.|.|.|.|.|.|.}.}.}.|.|.'..X.X.X.X.X",
".X.X.X9.9.0.s.z.D.'.[.[.}.|.|.|.].}.|.}.|.|.G.r.V.L.W.A.W.[.|.|.|.}.|.|.|.}.|.|.|.|.|.|.|.|.|.|.|.}.}.}.|.|.'.A..X.X.X.X",
".X.X.X1.9.q.w.z.Y.'.|.|.].}.'.{.'.{.{.{.{. X(.~._.'.'.'.'.'.'.{.{.'.'.{. X{.{.{.{.|.|.|.E.`.}.|.|. X(.(.{.'.A.B..X.X.X.X",
".X.X.X| 9.0.w.z.!.|.|.|.|.~.~.D.S.D.D.F.D.D.D.A.S.A.A.S.S.A.D.F.R.D.D.S.D.B.!.!.C.S.A.A.:.[ j.A.A.~.`.{.|.{.<.@.6..X.X.X",
".X.X.X.X5.9.0.n._.[.|.|.[.Q.~.z.z.z.g.z.j.z.5.0.g.a.q.q.q.a.g.j.v.z.s.s.s.q.F.R.a.s.s.w.' _ a.g.a.Q.}.}.|.}.g.%.v..X.X.X",
".X.X.X.X9.9.0.b.[.|.|.|.}.'.{.~.Q.!.!.~.!.^.v.x.v.C.T.Q.!.W.~.~.~.!.~.!.~.Q.'.'.!.!.!.M.x.l.!.~.~.'.|.{.|.|.[.!.'.!..X.X",
".X.X.X.X.X9.0.c.W._.|.|.|.}.'.{.'.'.].{.{.'.~.b.g.g.B.E.~.}.|.|.|.}.|.|.|.|.'.].{.|.U.H.}.}.|.|.|.}.|.{.{.'.|.}.|.}.'..X",
".X.X.X.X.X.Xq.z.A.F.Q.~.'.|.'.|.|.}.|.}.|.|.|.^.v.q.q.g.C.Q.{.|.{.'.}.|.|.|.|.[.}.(.H.(.|.`.{.|.T.y.p._.|.}.'.|.|.|.|..X",
".X.X.X.X.X.X.Xz.v.A.F.Y.W.!._.].'.(.`.'.`.(.`.`.Y.g.0.6.0.g.C.Q._._.(.'.'._._._._.K.I.'.Z.y.b.P.N.$.t.E.|.|.'.|.|.}.{.{.",
".X.X.X.X.X.X.X.X.Xb.m.S.A.v.D.!.~.~.`.(.'.'.'.~.B.w.0.0.6.6.a.z.D.!.~.~.~.'.{._.'.I.'.!.d.i.n.K.E.p.l.Q.}. X'.|.|.[.].'.",
".X.X.X.X.X.X.X.X.X.Xb.b.B.m.S.F.Y.W.Q.~._.`.'.`.Y.S.j.6.6.6.6.9.s.b.C.A.Y.~.[.'.^.U.[.Z.k.p.i.d.y.t.k.-.u.h.&.k._.^.W.F.",
".X.X.X.X.X.X.X.X.X.X.Xv.c.b.b.A.A.F.F.Y.W.W.W.Q.W.Y.z.6.3.1.2.3.9.s.b.Y.[.|.|.|.L.G.~.i.N.;.u.t.u.t.y.$.y.&.$.u.Y.D.A..X",
".X.X.X.X.X.X.X.X.X.X.X.Xz.z.c.b.b.A.A.D.D.F.F.F.D.A.s.7.1.1.<.1.5.w.D.[.|.|.|.|.W.M.F.;.n.$.i.u.j.u.t.d.d.#.;.t.A.A.m..X",
".X.X.X.X.X.X.X.X.X.X.X.X.Xz.z.z.n.b.b.b.C.C.C.C.B.A.B.0.1.%.<.<.1.0.Y.|.|.].|.|.W.A.A.&.d.#.t.;.c.t.;.4.;.$.-.:.b.b..X.X",
".X.X.X.X.X.X.X.X.X.X.X.X.X.X.Xz.z.z.c.v.b.b.b.b.v.c.B.B.1.+.} } | 5.Y.|.[.Y.].|.E.B.b.#.>.] &.=.c.-.-.=.#.' O.=.b..X.X.X",
".X.X.X.X.X.X.X.X.X.X.X.X.X.X.X.X.Xz.z.z.x.x.c.c.z.s.9.9.%.} } } | 2.L.|.|.).|.|.F.v.v.` o.] O.>.z.o.' O.` ) ' X..X.X.X.X",
".X.X.X.X.X.X.X.X.X.X.X.X.X.X.X.X.X.X.Xz.z.z.c.s.z.s.0.2.<.} {  . .9.L.[.[.].|.|.S.n.z.q.s.a.s.z.z.q.q.a.a.q.7..X.X.X.X.X",
".X.X.X.X.X.X.X.X.X.X.X.X.X.X.X.X.X.X.X.X.X.X.X.X.Xs.w.9.1..X.Xg Q 5.F.[.}.(.[.'.A.z.z.z.z.z.z..Xg..X.X.X.X.X.X.X.X.X.X.X",
".X.X.X.X.X.X.X.X.X.X.X.X.X.X.X.X.X.X.X.X.X.X.X.X.X.X.X.X.X.X.X.X.X,.b.W.W.F.L.F.A..X.X.X.X.X.X.X.X.X.X.X.X.X.X.X.X.X.X.X",
".X.X.X.X.X.X.X.X.X.X.X.X.X.X.X.X.X.X.X.X.X.X.X.X.X.X.X.X.X.X.X.X.X.Xz.m.A.m.m.b.b..X.X.X.X.X.X.X.X.X.X.X.X.X.X.X.X.X.X.X",
".X.X.X.X.X.X.X.X.X.X.X.X.X.X.X.X.X.X.X.X.X.X.X.X.X.X.X.X.X.X.X.X.X.Xz.x.b.x.b.b..X.X.X.X.X.X.X.X.X.X.X.X.X.X.X.X.X.X.X.X",
".X.X.X.X.X.X.X.X.X.X.X.X.X.X.X.X.X.X.X.X.X.X.X.X.X.X.X.X.X.X.X.X.X.X.X.X.X.X.X.X.X.X.X.X.X.X.X.X.X.X.X.X.X.X.X.X.X.X.X.X",
".X.X.X.X.X.X.X.X.X.X.X.X.X.X.X.X.X.X.X.X.X.X.X.X.X.X.X.X.X.X.X.X.X.X.X.X.X.X.X.X.X.X.X.X.X.X.X.X.X.X.X.X.X.X.X.X.X.X.X.X"
};
