/* XPM */
static char *WhatsApp_Image_2024_04_28_at_14_54_03__1_1714312626[] = {
/* columns rows colors chars-per-pixel */
"60 60 256 2 ",
"   c #080A0A",
".  c #170C07",
"X  c #02130D",
"o  c #041908",
"O  c #1B140E",
"+  c #18170C",
"@  c #061918",
"#  c #1D1611",
"$  c #1E1913",
"%  c #151C17",
"&  c #10081E",
"*  c #23160C",
"=  c #251414",
"-  c #221B15",
";  c #251E19",
":  c #2B1D1A",
">  c #2A1A12",
",  c #341B1B",
"<  c #361B18",
"1  c #2D0712",
"2  c #0B221E",
"3  c #062719",
"4  c #1D2416",
"5  c #12231C",
"6  c #1C231D",
"7  c #192C17",
"8  c #033218",
"9  c #16351B",
"0  c #002E0E",
"q  c #23220E",
"w  c #242413",
"e  c #2B2415",
"r  c #26211A",
"t  c #2A231D",
"y  c #242B1C",
"u  c #2B2B1C",
"i  c #262B14",
"p  c #34241C",
"a  c #3B241C",
"s  c #332A1A",
"d  c #26321C",
"f  c #32331E",
"g  c #061925",
"h  c #191925",
"j  c #011830",
"k  c #171C36",
"l  c #000F23",
"z  c #2A1925",
"x  c #3C1D23",
"c  c #361A29",
"v  c #371B34",
"b  c #301331",
"n  c #052627",
"m  c #182926",
"M  c #04332A",
"N  c #18332B",
"B  c #012C3C",
"V  c #052738",
"C  c #172836",
"Z  c #03333D",
"A  c #063735",
"S  c #1B3334",
"D  c #163A35",
"F  c #2D2621",
"G  c #262D24",
"H  c #2E2822",
"J  c #2D232C",
"K  c #232D2B",
"L  c #2B2C2C",
"P  c #242624",
"I  c #332324",
"U  c #3B2324",
"Y  c #322B25",
"T  c #352E29",
"R  c #3C2C2B",
"E  c #3A2727",
"W  c #233423",
"Q  c #2B3222",
"!  c #27352A",
"~  c #37302A",
"^  c #39322C",
"/  c #343624",
"(  c #282735",
")  c #362835",
"_  c #273733",
"`  c #383534",
"'  c #4A000B",
"]  c #500A18",
"[  c #441A2B",
"{  c #442429",
"}  c #432633",
"|  c #433736",
" . c #522A32",
".. c #034338",
"X. c #16463E",
"o. c #00422E",
"O. c #2D412C",
"+. c #2F1D44",
"@. c #172848",
"#. c #033945",
"$. c #173A47",
"%. c #0A354B",
"&. c #2C2845",
"*. c #3C2A44",
"=. c #283746",
"-. c #383447",
";. c #2F3152",
":. c #411F42",
">. c #482549",
",. c #074648",
"<. c #014A54",
"1. c #044959",
"2. c #095758",
"3. c #14555B",
"4. c #0F4A4B",
"5. c #284944",
"6. c #245658",
"7. c #304C51",
"8. c #02665D",
"9. c #00664F",
"0. c #035765",
"q. c #185B63",
"w. c #075C77",
"e. c #0F4C6D",
"r. c #2A5267",
"t. c #036469",
"y. c #166A6A",
"u. c #176C79",
"i. c #0C7A78",
"p. c #1D737A",
"a. c #09706E",
"s. c #276667",
"d. c #256872",
"f. c #3A7377",
"g. c #336B74",
"h. c #3D6251",
"j. c #466F76",
"k. c #435961",
"l. c #0F8D7F",
"z. c #34807A",
"x. c #258A7E",
"c. c #50837C",
"v. c #0D7486",
"b. c #327588",
"n. c #13878B",
"m. c #1D9993",
"M. c #0A8F8D",
"N. c #258487",
"B. c #368B88",
"V. c #398997",
"C. c #289697",
"Z. c #359699",
"A. c #289191",
"S. c #0FA59D",
"D. c #2DA09D",
"F. c #1496A3",
"G. c #399CA3",
"H. c #278DA6",
"J. c #18BBA9",
"K. c #18B1B4",
"L. c #31B3B0",
"P. c #498A96",
"I. c #49999B",
"U. c #589B9A",
"Y. c #518A89",
"T. c #709999",
"R. c #5299A5",
"E. c #45B6B7",
"W. c #58B8BA",
"Q. c #4EAAAF",
"!. c #70B1B5",
"~. c #799BA4",
"^. c #36C5BB",
"/. c #2BC2BD",
"(. c #1BD6BB",
"). c #46C5B9",
"_. c #43C4AE",
"`. c #3BB9C6",
"'. c #4EBAC7",
"]. c #73BDD0",
"[. c #4D9CC3",
"{. c #3AC8C2",
"}. c #30D2CF",
"|. c #3AE8D9",
" X c #33E3D0",
".X c #23F7E5",
"XX c #36F9EC",
"oX c #27FFF6",
"OX c #39FDF8",
"+X c #29ECE4",
"@X c #2CEAEB",
"#X c #49D9D8",
"$X c #5DDDDF",
"%X c #4ECDCC",
"&X c #73C5CA",
"*X c #65D8D6",
"=X c #73D1D4",
"-X c #46E5DA",
";X c #58E7DA",
":X c #6CE8DB",
">X c #4DD7E3",
",X c #5BD0E8",
"<X c #71D4EB",
"1X c #59E9E9",
"2X c #49F8EA",
"3X c #57F5EB",
"4X c #49FDF8",
"5X c #57FDF9",
"6X c #54EDF2",
"7X c #67EAEC",
"8X c #75E7EA",
"9X c #65F9EB",
"0X c #77F7EA",
"qX c #68EBF7",
"wX c #78E8F8",
"eX c #6DFEF3",
"rX c #62FFFD",
"tX c #6BFEFF",
"yX c #68F4F6",
"uX c #75FEFF",
"iX c #7CFFFE",
"pX c #78F7F9",
"aX c #8BBBB5",
"sX c #95D2CE",
"dX c #94D8D6",
"fX c #8ACBCD",
"gX c #A2D9D5",
"hX c #A7E1DC",
"jX c #87DBF0",
"kX c #96E5E4",
"lX c #97F3EB",
"zX c #84EDFE",
"xX c #89ECF9",
"cX c #92ECFE",
"vX c #99EDF6",
"bX c #84F3FD",
"nX c #8CF4FD",
"mX c #84FEFD",
"MX c #8CFDFD",
"NX c #87F6F5",
"BX c #9CFBF5",
"VX c #93F4FD",
"CX c #94FEFD",
"ZX c #9BFDFC",
"AX c #97F5F5",
"SX c #8CEEEB",
"DX c #AAF3EE",
"FX c #B5F3ED",
"GX c #A2FBF6",
"HX c #A3FDFC",
"JX c #ABFDFE",
"KX c #A8F5F6",
"LX c #B2FEFD",
"PX c #BAF9FC",
"IX c #A7EBF2",
"UX c #D2FFFF",
/* pixels */
"# - ; - - - - O Y F t F Y Y F $ 5._ P u / O.f a 1 ) V #.p.q.j & % # # ; Y Y t - - # O # r r - - r - - - r - - O - * w H ",
"t T T Y Y Y Y r T Y F H T T F P ( K ; w i d e > [ } V 2.G.V.$.k L H z t H I r - T H t F T T Y r ^ T Y Y ~ Y p t | ~ Y ~ ",
"t Y T H Y T F r t r ; r F F ; $ K L F e i i i : | ( #.p.).E.r.C ` T r ; r r - * ^ T Y T ^ ~ Y r T T Y T T Y H t Y - O O ",
"; F Y t r t r - t ; - - t t - $ ) ) E a f i u Y } k #.C.%X%Xg.V L F ; ; t t r - Y t r r H I r - Y t t t H F t - ` ~ Y ^ ",
"t Y T H I Y Y ; Y F F F Y T P : J c , < e q w P ) k 2.G.{.).B.n K Y I T ` ^ Y t ; - - - t t t - T Y Y Y Y Y H t t - ; Y ",
"t Y Y H u Y Y ; T F t F Y Y F : J , < < q i w % -.C d.G.J.L.I.A K F u Y ^ ~ t - t r ; r Y T Y t T Y Y Y Y Y F r ^ T ^ | ",
"r u Y t t F t - F r ; : H F r - R E < < f f u z ` k q.i.8.m.P.@ P ; - ; t r - O T u t Y T ^ Y t Y F F F Y u r ; - # O # ",
"t Y Y I F Y F ; T F F F Y T F ; ^ I > < s / u ; v & #.#.3 t.j.  P ; * - r t t - T I t Y Y T t - T Y F Y Y Y I r Y ; - t ",
"t I Y H t Y F - - * # # - $ # + ~ t > > i y r : v *.j B w.#.&.( ` ^ R Y T ^ ^ H T Y T T T T Y t t t H F F t t t ^ ^ ^ ~ ",
"- t F r r r r - T Y Y Y T Y H t / Y s s f Q F z >.>.@.%.b.$.*.v E Y T F F T F ; - - - - - - - O Y Y T Y Y H F F F Y H Y ",
"Y ^ ^ ~ T ^ ~ t ~ Y Y Y ~ T H F y 6 e f d ! G z >.+.@.r.P.$.) c I Y Y t F Y t - - - - - r r - - F F F F H F t t F t t F ",
"; Y Y t t Y t - H F t F H H t r % + + q d W m z +.b ;.b.R.$.v 1 I Y Y H Y ~ Y - ^ T Y T T T Y t F F t Y F t t t Y Y Y Y ",
"t Y Y Y H Y H r Y Y F Y Y Y F t y 4 q q 7 d W ( *.+.r.P.Q.4.-.z t Y Y H Y ^ Y t Y Y t Y T Y t t Y Y Y Y Y Y H t Y Y Y Y ",
"F Y T Y Y Y Y r Y H H Y Y Y u t Q u q q 7 7 5 m +.;.b.Q.I.,.5.h Y / Y t F Y Y t t t r t t t t - ; r t t r ; ; - Y Y Y H ",
". # # O O # O . Y F F F Y Y t t f e > q 9 8 2 g &.r.R.%Xm.o.X.@ | | ^ H t Y F ; Y F p H Y Y F : - - ; - ; - - $ Y Y Y Y ",
"H T ^ Y Y T Y r T T Y T ~ T Y t p e p f O.O.D V r.b.=X*Xm.o.4.@ k.7.5.N J E Y r G y u H Y I F ; Y Y T Y Y Y p F Y T Y T ",
"t ` t Y Y r ~ - - # ; - . - r . U , e p d N A ..v.,XbX'.0.8 o o $.V.i.A g : U   9 9 / s p Y E p Y T Y Y t t r ; ; ; - # ",
"t ^ t I t - H O t r H F $ t Y $ p * * s 9 3 o.0.L.wXpX[.3.N i 7 1.L.S.t.C b { - 0 8 q * * > : = Y Y F F t t ; ; Y t r r ",
"t ^ t F t - t O T F T Y r Y ~ r Y O + d 9 3 4.V.<XbX<Xb.%.m s d 1.'./.n.=.b  .; 8 9 e > - r : : I I F t t ; ; ; T Y t t ",
"t ^ t u t - Y = T t T Y ; H ~ ; T G y d M X.P.=XVXcX].v.%.m U y ,.%X#XC.7.v [ z 9 d f a s Y I t I u F t t r ; ; Y t t r ",
"r ^ r Y Y r T - Y t T Y ; F T ; G O._ 3 M f.].vXcXjX[.e.@.( E h 1.%X1XQ.g.v v , y d a p e p H r Y H H H F t t t t t r ; ",
"r ^ r Y Y t ^ r Y F T Y ; Y ^ r m _ S n X.U.jXcXxX<XH.e.V C J h u.$XyX%Xj.) E : t Y U < t H G r H Y Y H F F F F Y Y t r ",
"- ^ r p Y ; ^ - T t T Y ; Y ^ r K S M A g.].vXVXwX,Xv.e.V V C M G.tXwXW.j.k ) c I E { , p Y G r F H t F t F t t Y H t t ",
"r ^ r H t - Y # t r Y Y - t T % ` N N 6.U.SXZXCXxX,XH.1.B #.,.<.E.iXqXQ.d.k k z x U { < : u y 4 r t t t t t t t H p r ; ",
"- O O - r - # . ; - - - ; - - O ! K V j.fXcXCXpXwX,X`.D.M.i.A.L.7XyXmXZ.Z n @ z c [ { p u H W 4 # . # ; t # . . - - - ; ",
"^ T Y ~ ^ ~ t r ^ ^ T ^ ^ ^ ~ L ` ( A Y.jXnXMXiXiX5X#X{.K.L.^.$XtXpX<Xp.<.3.A m ) } E I Y ~ G w Q F H ~ ^ T t t ~ ~ ^ ^ ",
"Y I t H T T u ; u F t t Y F t r ` m $.R.jXbXCXuXuXrX1X;X#X-X-XrXuXyXQ.<.2.Z.q.n z c z ; ; p w + ~ F u T ~ H F F t t t t ",
"r - - t Y Y F r Y Y Y H Y Y F t P @ $.!.cXzXMXuXiXuXeX9X3X5X5XrXtX,Xv.V a.^.B.A ` } ` L T ^ ~ i Y t r F H t r t H Y H Y ",
"^ Y H Y T ^ T t Y Y F I Y Y u r 4 3 D !.cXbXmXuXmXmXMX0XiXuXtXrX1X`.0.#.l.%XE.9.C b P m r t t + ^ T Y T ~ Y Y ~ Y Y Y Y ",
"^ Y t r t t - = t t r t t F r $ 7 D #.R.cXMXmXmXmXMXNXNXNXiXrX6X>Xm.%.0.S. X).y.g h @ X + * * . ~ t r t F t r F I u Y H ",
"Y r - - - r - O T T Y T ^ T / u W h.A p.<XbXpXMXNXlXlXlXAXmXqX#X}.t.B B.J.(.^.a.$.) _ K ~ ^ U e t - # ; r - # - ^ ^ ^ ^ ",
"T Y t H ^ ^ ^ ~ - # # # - - + % X.z.Z <.<XxXwXCXmXCXBXlXZXCXwX>X%X,.j Z.J.J.^.<.N L ! m p a p > ~ Y F T ^ Y F F - - # # ",
"r - - ; t H r - Y T Y t Y T Y n 0.>XF.%.e.].ZXzXiXiXCXBXKXxX6X#X`.0.0.A.L.L.x.o.W Y p a a a e q e - - t F r ; r Y Y t t ",
"^ T Y Y T Y F ; Y T T F Y Y Y n v.@XK.w.v.b.=XNX9XrXuXNXVXpX2X+X>Xv.0.n.W.B.X.N ! t p a a a e e ^ Y H T T Y r t ^ ~ ~ T ",
"Y p r t Y Y t ; F T Y t F Y t n v.@X/.F.v.%.v.$X3X2XrXeXiXtXXX.XoXK.0.0.V.r.l K H y u u s s s e Y t t Y T t r t Y Y I u ",
"r - - r Y T Y t t Y t t t Y t 3 i.K./.`.v.%.0.D.-X2X5XrXuXrX4X.X.X+XM.,.#.$.( P Y J P y f i e > r - - t Y t t T Y I F t ",
"t r ; t T ^ T F F H F t t H t n 1.A.L.).C.<.,.<.J.-X2X5XrXtX5XOXoXoX Xn.#.k >.z ) H F y d u y w u - ; H T Y Y Y ~ ~ Y Y ",
"Y t ; t H F t - F T H t F Y I % V d.v.Z.B.q.$.j l.J.|.2X5XuXtX5XOX.X5X;Xp.%.=.& ) I F I u u y w H r r I Y t ; ; T Y Y Y ",
"H t ; ; t t - O Y T Y F F Y Y : b ;.4.y.6.$.;.j ..D.-X2X1XuXmXuX5X6X2XyX%Xx.,.@ J c x U a u 7 7 H r ; t t ; - - H t t t ",
"Y H t Y T ^ Y t Y T T F I T H : [ v n Z j l +.k 4.Z.;X1X7XwXMXNXiXMX3X#XpX*Xy.M S J x x U Y y w Y t t T T Y u H ~ T T Y ",
"t Y Y F Y Y Y - O ; ; # O # - =  .b j 6.$.l ;.k P.E.#X1X7X8XzXCXnXCXmXeX9X;X).Z.A n | R 1 a  .* Y H u Y F t - - r - - # ",
"t Y Y F p T Y - t Y Y t t F t z } z 7.I.f.#.@.%.G.{.-X2X1X7XzXCXxXCXMXuXeX9X:X_.y.A N O.I {  .< { T T T ^ T I r T Y t r ",
"- r r - r t r O H T T F F Y Y F G N I.=XW.y.<.t.`. XXXXX6XqXpXmXbXVXVXNXmXmX0X;X^.9.8 o.^ { ] ' , t t F F F r - T Y t r ",
"- ; r - - r - O F Y H t t Y Y 6 M 9.&X0X*XW.C.L.+X.XXXOX6X7XtXuXmXMXCXNXnXMX0X9X:Xl.o.o.F [ ' ' < - - - ; ; - O Y I t - ",
"F Y Y Y Y T Y - Y Y Y t F T Y m A x.0X:X:XqX#X6X.XoXoX4XyXyXtXuXiXMXMXNXNXAXNX0X0X_.9.M 2 U ] 1 x t t H Y Y t ; ~ Y F ; ",
"Y T T Y T ^ Y ; t t r - t F r @ o.E.mX7X8XmX6XXXoXoXOX5XwXxXiXiXmXmXMXMXMXMXMXMXSX:XB.M 2 ` { [ Y H Y Y ~ Y I r u t ; - ",
"t F t t t Y t - r r - O - t r @ 2.=XMXNXVXbXtX4XoXOX5XpXvXKXMXMXMXMXNXmXiXiXMXCXkXIXT.S m ! f Q H H F F u F ; - ; - - O ",
"t Y Y H Y T F - Y Y r r H ~ p 2 B.8XxXnXHXxXmX5X4X4XrXwXvXJXZXMXBXCXMXmXiXiXpXnXKXFX~.$.m 9 3 7 H Y F F Y F ; - t t - - ",
"; Y T H t F t - T ^ ; Y ~ t ~ % I.8XCXMXCXCXMXmXmXmXMXCXCXCXCXCXBXGXZXCXMXMXMXCXHXkXfXM 3 5 5 $ H H p Y ~ ~ Y H T Y t t ",
"; F Y F t Y t - Y ^ - Y T t ~ n Z.8XCXVXVXCXVXCXZXCXCXCXCXCXMXCXBXGXZXBXZXCXCXZXBXDXsXX.N ! Q p Y Y Y Y ~ ~ Y H T Y t t ",
"t T T Y Y T T r F T - Y T t Y @ I.8XZXVXVXCXAXZXZXZXZXCXCXCXCXCXZXGXZXCXCXCXCXCXSXkXaXM 3 K G - r r - r t t r - F t r ; ",
"t Y Y t t Y F - Y T - H T t T 2 U.8XHXVXAXAXCXZXZXZXZXZXCXCXCXZXGXZXZXZXCXCXZXZXGXDX!.X.5 ~ ~ ; r r - r r r - - Y Y t r ",
"- r - - - r - O H T - Y T t Y m Y.=XHXHXZXVXAXHXZXZXZXZXCXZXZXZXZXBXCXBXBXCXZXGXLXFXY.N @ P p = T Y Y Y ~ T Y r T T Y p ",
"u I r - t Y F - F T $ H T F T 5 s.].KXHXHXHXZXHXZXZXZXZXZXZXZXZXZXBXCXCXCXBXGXGXFXsX7.n   = = . T T T Y T T Y t ; ; - r ",
"^ T Y t Y ^ T t r F O t H ; H % X.U.kXIXJXJXHXHXZXHXZXHXHXHXGXHXCXCXCXBXBXGXGXDXFXaXS _ T ^ I , Y I F F p t r - ; ; r r ",
"Y Y r - t T Y - ; r . ; F - F % @ Y.sXhXPXJXHXHXHXZXHXHXHXHXJXGXBXCXCXZXBXGXGXFXgXT.X K ` { , < E Y H H Y Y t r T ^ ^ ^ ",
"F I H r Y T Y r ^ ^ ~ ~ ^ ^ Y G N M j.hXUXLXvXLXHXHXJXHXGXGXDXlXlXZXZXlXkXlXFXFXc.5.7 y ) { U x ~ Y Y Y Y Y t r Y Y t Y ",
"F Y Y r t T Y r ^ T Y Y T T H r % X N Y.dXUXLXJXvXAXZXHXGXJXLXLXCXNXlXBXPXPXhXaX7.N 6 L | E , z E Y H Y Y Y t t Y Y Y Y ",
"t Y t t t T T t Y Y p H H H t r ` ! m X.Y.sXKXBXLXJXJXvXkXdXdXdXBXZXZXGXDXfXc.X.N % % T E z 1 : T Y H Y Y Y I r Y Y F Y ",
"t Y Y r t T Y r Y H F H H F r - G ! P X n s.R.&X=X&XW.B.s.2.4.4.y.Z.W.!.U.s.M X N m % $ = . O = T Y H Y Y T t r t F Y H "
};
