/* XPM */
static char *result[] = {
/* columns rows colors chars-per-pixel */
"60 60 256 2 ",
"   c black",
".  c #010101",
"X  c #020202",
"o  c gray1",
"O  c #040404",
"+  c gray2",
"@  c #060606",
"#  c #070707",
"$  c gray3",
"%  c #090909",
"&  c gray4",
"*  c #0B0B0B",
"=  c #0C0C0C",
"-  c gray5",
";  c #0E0E0E",
":  c gray6",
">  c #101010",
",  c #111111",
"<  c gray7",
"1  c #131313",
"2  c gray8",
"3  c #151515",
"4  c #161616",
"5  c gray9",
"6  c #181818",
"7  c #191919",
"8  c gray10",
"9  c #1B1B1B",
"0  c gray11",
"q  c #1D1D1D",
"w  c #1E1E1E",
"e  c gray12",
"r  c #202020",
"t  c gray13",
"y  c #222222",
"u  c #232323",
"i  c gray14",
"p  c #252525",
"a  c gray15",
"s  c #272727",
"d  c #282828",
"f  c gray16",
"g  c #2A2A2A",
"h  c gray17",
"j  c #2C2C2C",
"k  c #2D2D2D",
"l  c gray18",
"z  c #2F2F2F",
"x  c gray19",
"c  c #313131",
"v  c #323232",
"b  c gray20",
"n  c #343434",
"m  c #353535",
"M  c gray21",
"N  c #373737",
"B  c gray22",
"V  c #393939",
"C  c #3A3A3A",
"Z  c gray23",
"A  c #3C3C3C",
"S  c gray24",
"D  c #3E3E3E",
"F  c #3F3F3F",
"G  c gray25",
"H  c #414141",
"J  c gray26",
"K  c #434343",
"L  c #444444",
"P  c gray27",
"I  c #464646",
"U  c gray28",
"Y  c #484848",
"T  c #494949",
"R  c gray29",
"E  c #4B4B4B",
"W  c #4C4C4C",
"Q  c gray30",
"!  c #4E4E4E",
"~  c gray31",
"^  c #505050",
"/  c #515151",
"(  c gray32",
")  c #535353",
"_  c gray33",
"`  c #555555",
"'  c #565656",
"]  c gray34",
"[  c #585858",
"{  c gray35",
"}  c #5A5A5A",
"|  c #5B5B5B",
" . c gray36",
".. c #5D5D5D",
"X. c gray37",
"o. c #5F5F5F",
"O. c #606060",
"+. c gray38",
"@. c #626262",
"#. c gray39",
"$. c #646464",
"%. c #656565",
"&. c gray40",
"*. c #676767",
"=. c #686868",
"-. c DimGray",
";. c #6A6A6A",
":. c gray42",
">. c #6C6C6C",
",. c #6D6D6D",
"<. c gray43",
"1. c #6F6F6F",
"2. c gray44",
"3. c #717171",
"4. c #727272",
"5. c gray45",
"6. c #747474",
"7. c gray46",
"8. c #767676",
"9. c #777777",
"0. c gray47",
"q. c #797979",
"w. c gray48",
"e. c #7B7B7B",
"r. c #7C7C7C",
"t. c gray49",
"y. c #7E7E7E",
"u. c gray50",
"i. c #808080",
"p. c #818181",
"a. c gray51",
"s. c #838383",
"d. c #848484",
"f. c gray52",
"g. c #868686",
"h. c gray53",
"j. c #888888",
"k. c #898989",
"l. c gray54",
"z. c #8B8B8B",
"x. c gray55",
"c. c #8D8D8D",
"v. c #8E8E8E",
"b. c gray56",
"n. c #909090",
"m. c gray57",
"M. c #929292",
"N. c #939393",
"B. c gray58",
"V. c #959595",
"C. c gray59",
"Z. c #979797",
"A. c #989898",
"S. c gray60",
"D. c #9A9A9A",
"F. c #9B9B9B",
"G. c gray61",
"H. c #9D9D9D",
"J. c gray62",
"K. c #9F9F9F",
"L. c #A0A0A0",
"P. c gray63",
"I. c #A2A2A2",
"U. c gray64",
"Y. c #A4A4A4",
"T. c #A5A5A5",
"R. c gray65",
"E. c #A7A7A7",
"W. c gray66",
"Q. c #A9A9A9",
"!. c #AAAAAA",
"~. c gray67",
"^. c #ACACAC",
"/. c gray68",
"(. c #AEAEAE",
"). c #AFAFAF",
"_. c gray69",
"`. c #B1B1B1",
"'. c #B2B2B2",
"]. c gray70",
"[. c #B4B4B4",
"{. c gray71",
"}. c #B6B6B6",
"|. c #B7B7B7",
" X c gray72",
".X c #B9B9B9",
"XX c gray73",
"oX c #BBBBBB",
"OX c #BCBCBC",
"+X c gray74",
"@X c gray",
"#X c gray75",
"$X c #C0C0C0",
"%X c #C1C1C1",
"&X c gray76",
"*X c #C3C3C3",
"=X c gray77",
"-X c #C5C5C5",
";X c #C6C6C6",
":X c gray78",
">X c #C8C8C8",
",X c gray79",
"<X c #CACACA",
"1X c #CBCBCB",
"2X c gray80",
"3X c #CDCDCD",
"4X c #CECECE",
"5X c gray81",
"6X c #D0D0D0",
"7X c gray82",
"8X c #D2D2D2",
"9X c LightGray",
"0X c gray83",
"qX c #D5D5D5",
"wX c gray84",
"eX c #D7D7D7",
"rX c #D8D8D8",
"tX c gray85",
"yX c #DADADA",
"uX c gray86",
"iX c gainsboro",
"pX c #DDDDDD",
"aX c gray87",
"sX c #DFDFDF",
"dX c gray88",
"fX c #E1E1E1",
"gX c #E2E2E2",
"hX c gray89",
"jX c #E4E4E4",
"kX c gray90",
"lX c #E6E6E6",
"zX c #E7E7E7",
"xX c gray91",
"cX c #E9E9E9",
"vX c #EAEAEA",
"bX c gray92",
"nX c #ECECEC",
"mX c gray93",
"MX c #EEEEEE",
"NX c #EFEFEF",
"BX c gray94",
"VX c #F1F1F1",
"CX c gray95",
"ZX c #F3F3F3",
"AX c #F4F4F4",
"SX c gray96",
"DX c #F6F6F6",
"FX c gray97",
"GX c #F8F8F8",
"HX c #F9F9F9",
"JX c gray98",
"KX c #FBFBFB",
"LX c gray99",
"PX c #FDFDFD",
"IX c #FEFEFE",
"UX c white",
/* pixels */
"i t q l G G H I U U R ~ ) ~ z u Z ` ] ' { I g S { _ R H h 9 q p N G K I Y S f N ( ! ^ S N T ` / E H f a M I L J D S C b ",
"A k u s K ! / _ ] ) T U L n f n ` O.X.+.) M Z ..O.{ ) I f a m s l N D H S c N ~ ] ' ..P V E ~ Q I A v N [ ..X.o.X...} ! ",
"Y b a d l n D K K V g a p i z U { ....( v N } #. .' ` C u n Q K c k x l z C G G T } } B z N C Z D I C D ..X.X.X... .| ( ",
"R b i u f h x c z z m B v a B ~ /  .' v z / @.+.{ ' ( z i J ( [ T l f s S ! ] ] U U P m m v c N K U C N  .@... .X.{ [ ] ",
"P j r s Z L I U T ^ _ _ U h V R / ` M s D [ ' ^ ~ ( T f g R ' E L ^ ) D V Q [ } ] H z Z F M c k h k z k I | O.@.+.+.*.o.",
"g u y B W { X...| } { { / k b B N z i g U ' _ ` ~ L V s z I R ^  . .| [ G L {  .[ T c H [ ] W H K P D v k D Y Q ` ] W S ",
"9 r j P | $.#. .[ | o.o.Q f p M J a y j T [ { } } ~ j p j U [ } } |  .{ W G ' +.{ K b T ..o.o.) / ' ^ B l h z x v b n a ",
"5 y c ! X.+.{ ' } X.@.} N z v m N u y a G ` ..o.| W l d F ` ' ] [ }  .} Q D ) @.` G N _ O.+.+.] / ` { K b c K S h a i 9 ",
"5 t c E ] ! _ ] { o.X.G z G L h p m Z a z G P U H M k Z / ' ] ' [ [  .} T S _ +.( C F O.%.&.@. .( ` ] ( C z E } R m f 0 ",
"j l j J ( Q [ ` }  .J v J W Y k j T ] S g k v N N z M E [ ' ` ] [ } X.] Y Z ) ..E n Y +.$.%.@.X._ ` ] ` S g E o.$...Q M ",
"! R b B Q } [ ] [ K b I ! ~ L j m / ) J j N E ' ] D M K ] [ } } |  .` J C b T ..E b Y ..o.O.+...' [ ] T c j I &.&.-.;.{ ",
"_ ] F c Y } [ { P l F ~ ^ T x g A ) ~ Z g D ^ _  .^ m C U ` { ` ~ H z g z c M J H k S [ }  .O.{ ' ` Y v b N Z %.>.,.%.} ",
"]  .I x A / { T k f J ~ Y v c l S ! Q b s S ^ / ' { K c n N A v g a j C E ' / J Z c k G `  .| ' ( P x M / R N o.>.;.=...",
"[ X.P z n G C d t u l M c M P z G / T g i Z Q ( [ ) J D ! P M C n z D )  . .| [ ` Q M f m I W Q J n D _ } _ B { =.*.&.o.",
"[ O.J z s g s g x M v b f b Z j V R Z i a m W ' [ P M _ { [ E m k N E } } { | ' _ _ U c h M Z M v P |  .[ ' Z ' &.$.$.| ",
"` | D z t j C L Q L T D g n C M c b f l A N C W W M I } ' ' Q f f V ^ ] [ { | ' ' ) ^ C l E I M W X.O.| [ / C / #.#.+.` ",
"^ ( Z j f I _ / ~ W _ C z G R W L m s B W Q K C v B ' { | ' G i j Y ) _ [  . ._ ~ ( ) S k D m Y  .O.X.| ..' Z Y o.o.o._ ",
"E E N d N { [ _ ~ ' ^ b V I ! R E E Z n U ! ) W b U | | | ( z u v I W / ' } [ / ( ` _ F j g C ] } .... .o._ C S [  . .^ ",
"l m h a G | ] ' ]  .H z D U / ^ E Q Y x m P Y F v Q [ { { P i a H ^ ) ]  ...} ' ' ' ( C z c F [ | +.+.+.@.~ V v G P S c ",
"z A Z k G { ' ` } [ N v L T ~ ! T E ! Z f m V b b E { ' ) v r l E ) ' { X.o.X.} ] [ E c Z V V ` } +.#.%.+.R v s p d k f ",
"R ( R M M ! / ' ..) c z U ! E Y ~ | } U D / ' ` H B W [ ~ d r n ^ ] {  .o.O.+.{ ` ^ N h C M n ! ..+.#.&.} A l v p j I D ",
"W { ` J c K }  .O.R k m ~ { ' } X.o.[ K !  .|  .} C v F K p r z I ' { ..o...} / L v h m B b z F ) X.X.X.I c H H s x Q J ",
"E [ } ( m V _ ..{ D f V R ` { } [ ' W A ] ..| }  .P T F x u i s x A I Y Y K D V j g G Q ! E S b A L I L v v D A d p J L ",
"~ ] { { H x H R Z j N H H A V Z C S V H X.O...X.O.P U ~ n v V v h j l z N A G M g I { ' ` _ ! C v z n D m j B b i e k J ",
"/ } ] | R c c x g V ' { { Q x C E E C ~ @.+.X.#.&.T z M U ^ ( ~ W U H c D ~ J l P  . .} { ` E ! G c I E v D ^ W l w t j ",
"G { ' [ R m N h b / ` ' { [ N N ' I M ' $...O.%.$.T g D | ] ] ` ' ' _ F z V k L |  . .{ { ! ^ ) J M Y C Z ^ / / H r 0 q ",
"f U / [ U k g c ~ { ` [ }  .Z k F J B F W _ O.$.X.K j Y ..' ' _ _ ' ] E l f J  .| X. .{ ( / } ' H v m D W ( ) ) P t q 3 ",
"s c m M c a f Y  .] } | X...C z Q X.{ E H F P ` _ B k E  .} ' ` ' ' { / x b ] | { ....' )  .@.( C v H I T ' [ [ D p t 0 ",
"S L H A n s n [  .| ..X.o.( b K }  ...o.X.` S B Z m c ) [ | ] ' [ [ } Y g C ' } | ..X.[ O.O._ Z x D G B /  .....C v p f ",
"L Q ! ) R f F  .| | +.o.} A M | O.X. .X.} ..Y x C Y b ! [ ' } [ }  ._ n f v S R ] X.| o.+.! N h x b N E X.o.+.[ S J f k ",
"U / / ' R s J { ' X.%.#.E b / X.| ..o.X.| X.U v Y [ A A ] { } | } ) D F Y E P C G ] O.X.E m z j N Q } +.+.+.$.~ E Y h h ",
"K ' ` ] P s S ) | o.%.X.A C  .| } }  .o. ._ Z x ! o.^ z I ' { ( P B I X.' ) ` Q N A Q U M A A j ~ +.&.&.$.%.O.T { W j f ",
"b G H L m p c H ' } [ L f z T ] { | X.{ Q Z z l Q O.( c z S P S b Y X. .| ` ' ] ( V b c C / H h ` O.@.%.%.#.~ _ o.Y h 0 ",
"g C A B k g m m m n M x j g N I ' | ] T V C J A H  .` M k v v k c / ..} ( ` | | | W j s V ! A k ] #.&.&.&._ / X.o.J s 0 ",
"P {  ._ C Z ) ! H z M Y E T A N W ` P v P [ [ ! A ~ ~ N B Q Y N z I o.} R  .| } { T V L m n n x ' O.#.+.^ ( o.&.' b d k ",
"_  .o.| P U | _ R N A _ ) ) ~ C A Y v k ( ] [ ' B C Z c G | { W M B _ ) ^ } ..X.( F ( ] R b f x Q +.] W _ #.-.+.J s n E ",
"~  .%.#.~ K Y N c g z Q ' ( ~ G k k d k E } } E M H L I A ` O.o.Q b J K { ..O...K E O.} ' J l k Z U U ' $.$._ D l f Z ~ ",
"/ o.=.*.T M m v Z A c z K ( / V r t d g F { ) N G ` |  .K F / ( E z k J X.....Y G ..$.O...( G h z b L W E T E R G h B W ",
"` @.=.| B B L _ | { ~ B k H J p f A P N v ~ T h A _ } o.^ B S H D n a K  .} ( m Y @.#.$.@...U m R ` { | | O.O. .' n b D ",
"P  ...L C Y o.@... .X./ n N c m ^ } { ' Z m B s M ~ { X.W A R ) / C d H [ { D b ~ o.+.#.@.@.T K +...X.@.+...} } ' D h j ",
"k D C N U +.=.#.O.| .. .Z l B { o.X...| ) N f p g J { / D H ` { ) B g Z Q W l c Q ..X.+.#.X.P ! { _ } o.+.o.| ' L G m q ",
"g c V W X.%.$.@...{  . .m z ( +.$.@.@.X.{ / b s p z G Z c V T Q L l f b n x f c E  .X.@.} R B L ] { { [ ] ' Q I ^ ' K w ",
"a B ^ { } ....} } | X.Y k Z  .@.*.$.O.X. .` T N s p N I W T U P S c A ~ ~ P v l F / ' R Z A K H G m m B B x H { { [ A f ",
"f v G E ) ] | |  .[ L c z P ..X.@.@.o.| ) Y E E N f U [ { ' ` } / B K ' ' ) A m L G N n T O.X.{ L V ! ( R A S { | T S I ",
"U S n Z K I T P S n z c x K } | O.o.o.[ ) { O. .G f A / _ ` [ | ! N U ] / _ H J ` T b P o.@.X./ H ] ..X./ Y V U W B / ^ ",
"! [ ~ S n c j f h l V J Z S `  .O.o. .' } o.+.| D d N ^ }  ..._ D z H ` [ ' P L ' C J X.+.o.| R { { [ } ] I A k c J ' ! ",
"` X.| ' Q m d x Z B C Q R N E [  .O.O...X.+.o.^ v a v Y ! W L S A D C L { ' U G U V `  ...@.{ |  .| { [ { G z g N _ } _ ",
"! ` ` ` ` F c C ! ! F V S x M V A H Y ^ ^ W J x f z m b g M W ] @.O.' G S K Z l l D Q _ X.#.#.O.+..... .W z m A M ! ../ ",
"x Z B V G S x A }  ./ W G h s V G J F B v k j k F _ ! D j K X.+.@.......P c n C l U ~ ! | +.O.#.X.O.+.[ V l E ! b V F k ",
"D T L V l l a N ` ] [ | ) K x I [ O.O.` m h v H ^ ] _ S k R | +.+.X.o.X.| P V G z Q ! E ` X.+.o.+.@.O.T k B ' ' F g n N ",
"! } ^ m n J b V ] { { _ ^ ! Z A | @.+.R C x z Q [ [ ( N j T ] +.X.X.O.X.{ ) S l d U W E E {  ...+.#._ n g m H U Z k L W ",
"T [ S z I ( C Z I S Z A C S V n _ @.) T .._ c U  . ./ x z W _ X.@.$.@...' ) Q b t C Q E L ) {  .X.' N h x V V B N m m Z ",
"v G x B / ^ n x l B R / ( ^ K c H T ~ X.{ ..C G } { ! k M Q ` o. .W U K G G I M e s J E K ^ [ ] ! B g h H ] [ { { Q C d ",
"t s z J _ I s a J { O.#.@.o.` N N Q { } [ ` m D ] [ P g C ~ ( U M C ! ' / J n s h k j V A H A M x k g x Q | X.@.#. .T M ",
"i s m U ) M u B ` ' } | { { ` M I  .{ W J C l x S F M j m F M x G } %.O.{ ] G f M L g d g s b J U U A x Y  .o.@.@.' ! I ",
"s g C Q D i z ~ ) ] [ ] [ { U h T  .K n S P K v V H P Y V j m ! O.&.&.O.} ` Y b n T c M A v M ^ ] ` I x Z [ ..X. .! _ ~ ",
"p d G C i d Y / _ ' ' [ [ W V b H G N / _ ' / V U ] { } T n / o.#.&.$.O.| ( ^ n z U c B Q W B N ^ ) T b x ^ { | { R | Y ",
"0 s z i f H Q ~ ^ ^ ^ Q T U ( A v b ^ | ] } ' V K ' | o.T N ' } X.o.o.X.| [ ^ c l Y b M Q ] / C N U T m f I ' [ Y R @.F ",
"3 e p j S K K I Q E T ^ ] { ` M j K | } { | [ N z F R R B z R [ [ { { } } { ~ l j G c c E X.o.' F v b g p M F S B E W x ",
"< 4 a b C N Z H F H E ~ ` ' E d f T ( ~ ) _ I d c H G A k e h U E R E W Q ! Z y n U K x A _ ] ) ! A e 4 0 e r u p a i q "
};
