/* XPM */
static char *ad9c3d36e3c7449bcd07ed66684571a7HSdjdD6IqoWbZkbq[] = {
/* columns rows colors chars-per-pixel */
"60 60 179 2 ",
"   c #0D2F00",
".  c #0E3500",
"X  c #153B00",
"o  c #193F00",
"O  c #1D4300",
"+  c #1F4B00",
"@  c #214600",
"#  c #244B01",
"$  c #294E02",
"%  c #294E08",
"&  c #265001",
"*  c #2C5302",
"=  c #2E5904",
"-  c #2E540A",
";  c #2F5809",
":  c #315603",
">  c #335B04",
",  c #385E06",
"<  c #31560B",
"1  c #345B0C",
"2  c #395E0D",
"3  c #2F5411",
"4  c #315611",
"5  c #365B12",
"6  c #395E13",
"7  c #395E18",
"8  c #366006",
"9  c #3A6205",
"0  c #36610B",
"q  c #3B620D",
"w  c #3E690E",
"e  c #376111",
"r  c #3C6314",
"t  c #3D6913",
"y  c #3D631A",
"u  c #3E6819",
"i  c #426B0E",
"p  c #416614",
"a  c #436B14",
"s  c #486D16",
"d  c #41661B",
"f  c #456B1B",
"g  c #496E1C",
"h  c #457015",
"j  c #4A7217",
"k  c #45711C",
"l  c #4B731D",
"z  c #4E781D",
"x  c #50771E",
"c  c #51791F",
"v  c #416620",
"b  c #456B22",
"n  c #496E22",
"m  c #496E29",
"M  c #467121",
"N  c #4C7324",
"B  c #4E7923",
"V  c #4E732A",
"C  c #4F782A",
"Z  c #517624",
"A  c #537A24",
"S  c #587E27",
"D  c #51772A",
"F  c #547B2C",
"G  c #597E2C",
"H  c #527731",
"J  c #567C32",
"K  c #5B7D31",
"L  c #5C7E31",
"P  c #5B7C35",
"I  c #5D7F35",
"U  c #587F32",
"Y  c #5A7F39",
"T  c #568025",
"R  c #5A8327",
"E  c #56812B",
"W  c #5C8029",
"Q  c #5D812A",
"!  c #5E822B",
"~  c #5D802C",
"^  c #5F832C",
"/  c #5E812F",
"(  c #5D832E",
")  c #5C822F",
"_  c #5E852C",
"`  c #5F852E",
"'  c #5B832C",
"]  c #5F892C",
"[  c #558031",
"{  c #5E8033",
"}  c #5F8333",
"|  c #5D8234",
" . c #5C8334",
".. c #5E8933",
"X. c #5F8039",
"o. c #5E843A",
"O. c #60872C",
"+. c #60862F",
"@. c #61882F",
"#. c #61892F",
"$. c #608331",
"%. c #608631",
"&. c #608633",
"*. c #608235",
"=. c #618337",
"-. c #618434",
";. c #638636",
":. c #608734",
">. c #628833",
",. c #668A33",
"<. c #638934",
"1. c #638936",
"2. c #668937",
"3. c #658B36",
"4. c #668C37",
"5. c #638B34",
"6. c #6A8E37",
"7. c #688F36",
"8. c #628438",
"9. c #628739",
"0. c #65873B",
"q. c #64863A",
"w. c #60863B",
"e. c #63883A",
"r. c #658B38",
"t. c #67893D",
"y. c #658A3D",
"u. c #648B3B",
"i. c #6A8D3B",
"p. c #688A3D",
"a. c #688F3C",
"s. c #669035",
"d. c #6A9136",
"f. c #699235",
"g. c #67923B",
"h. c #6B9239",
"j. c #6C9039",
"k. c #6A923C",
"l. c #6E983E",
"z. c #71983D",
"x. c #739D3F",
"c. c #628741",
"v. c #668A42",
"b. c #658B41",
"n. c #6B8D41",
"m. c #698F42",
"M. c #6B8F49",
"N. c #679041",
"B. c #6B9042",
"V. c #6E9441",
"C. c #6C9343",
"Z. c #6F9A40",
"A. c #6E944A",
"S. c #719346",
"D. c #719743",
"F. c #739A41",
"G. c #769945",
"H. c #739B43",
"J. c #729448",
"K. c #71974B",
"L. c #759A4A",
"P. c #749B4B",
"I. c #799F4D",
"U. c #769C52",
"Y. c #789E52",
"T. c #7A9F5A",
"R. c #78A144",
"E. c #76A04E",
"W. c #7BA24C",
"Q. c #7FA84C",
"!. c #7DA453",
"~. c #7EA45C",
"^. c #80A756",
"/. c #82AB51",
"(. c #81A75A",
"). c #84AB5B",
"_. c #8DB55C",
"`. c #81A660",
"'. c #94BC63",
/* pixels */
"j > z.O.@.x S O 2 f L.r B.| V D 1.l f 2 n.t.@ P n 6 p p Z Q G Z r I Z 8.Z f : D 1 Z ( g * A s 6.A 2 =.G : p p.6 S.Z a Z ",
"d.i O A w h.S a r.2 F f 6 9.2 D f a f : J.D 6 5 V K 0.@ p $ : , g f K < @ : $ :.g > s q s O @ $ : p g $ Z $ 5 $ n 2 Z G.",
"A F.` : w @ s 4.a a a V.# 1 N r a.G l f =.G o o.b < n L p Z s : @ 5   $ p.p { G a.( l p a s <.( s q r $ G 2 g 0.Z $ # # ",
"` @.s z j z <.p q 2 ( <.q F F # * p l g * G % d n @ $ p :.Z p N D r 6 Z L 2 p n g $.G p : Q j.G l p Z f Z K p 0.f 1 6 2 ",
"q z # :.Z Z t j a l :.j a Z :.p 1.a 1 { r O v.D - < * f g l q N f * N y.6 r f g * * A a l ( ( :.q 1.A * < r @ * 6 6 f 9.",
"a.q a ( A l l.p q } a j p : W a.A a.s Z F d b # X m 6 | $ { G p u d f 2 6 B.@ r a.G ( N s S : s S 4.A Z g $ K n K.d O r ",
"g q q q r g A j S p s s z z * <.1.Z 2 p G K # o.7 K.y $ N * f g * !.* * r p p e.2 N r r r A # : q $ a a.N $ D d Y.F 6 f ",
":.q g Z A g l N W W <.>.O.: : x 6.> Z g f 6 D b Y M.7 9.9.X r F g F G 9.< 6 r  .6 Z N 2 r.g s Z N A a.S p F < N * N P 1 ",
"r.r q a N * 1.D.1.>.q S s j l.G S s Z N F F 7 4 d < - D N @ : r.N * a.f G D N 1 F n n.1 2 r N f G k.2 > p f < @ 6 6 N < ",
"~ l g a 2 2 1.<.Z S a a.( q a Q l j g p G | 5 # - v % 5 P.b.N N N K G N Z  .n N Z B.N g 1 f f < u a f $ :.2 G P.9.f V m ",
"S : , G.h.W S N G , ~ a # a * S W O * F V D V v # V P y m N a.} d 6 r 6 V 6  . .D u n  .n } $ F u D. .< r e.d 2 d d V y ",
"> , l W.A W z w q ` l > w l : s j z a r 2 m b b 7 5 v 7 H J C.f D u f e.- r f $ @ 2 N n N F } f < b D N < f * 2 r N D 5 ",
":.x j :.q Z l s A : A G s S < Z S z } :.O # y - y H H 4 b * d J B.N f f o  .B.D V $ f D G d e.D | r N | 1 b f D e.F b b ",
"F.q * z W >.l l 2 a * A { 2 : Z O : w B.J d v A.o.H y O - - n f f < f D y.K d 6 y.6 F 6 - 9.G y K.w.o.D - e.y.< V D v V ",
"> , j q x S s q a $ f F g K r 2 g 4.>.a.d J V % v 3 - 5 5 V b.r $ $ X K 9.} d V J d @ d r - 6 r 5 < | d V 6 n.V u V d b ",
"_ s Z q W i , a W.Z a f N K.:.} G W.A N f B.D % v V 7 5 d V J D G D r d N N A.y D n N d N r @ N 7 b y K D N F o.b.n o - ",
").N > >., z a >.' q 0 S ~ A p < ).).n.n V n 1 b J d y J H * e.y O d b.6 r 5 D d d f V d 6 K N D 6 K 1 6 N r n.b c.7 v v ",
"* <.l s z 4.a : j x Z a r.r p <.K.D N K n e.J 9.$ r f b.m P U.7 - v b V $ O r n.* * 9.b d y.F V 1 N | 6 1 r @ o.~.P % < ",
"r e.7.S g S 4., , >.h.* q > Z a.f * r u r D < $ 9.V y - v.V J b 4 ~.U.U.d D y # * < n n N V  .d D V < - 2 D V e.D J O # ",
"t u g l A 4.R.h.z s s q * S r.< $ $  .N e.1 $ o.F y O < V b y U.b J < d 5 b d * D 6 D N K e.2 f G } r D 6 d Y.m - J P D ",
"G $ g A k G.h., z * Z F.t q G l r } E.2 V G V D r 5 | M.4 7 m P 7 - X D F V d b @ o.6 d F B.F n y.V e.G f D B.9.r 7 9.m ",
"< 2 t * S h.8 _ W.s s j { p V N ~ > r e.e.e.9.P.D < b 5 # % v - b H y V $ N b | e. .r V f u . e.d * 2 * e.} r  .9.* n n ",
"f q g * a , * A W.h.Z * Z q g :.a t q } r : r N J b O y 7 o.Y A.| P P D r D D Y.d n.r r 1 F | e.< | D N I.| < l D 2 r G ",
"d r F 2 h.z Z s h.] s j S g d k.~ 7.q q G N V N < n b.K.v 4 m b J d v.7 D 9.w.v.D 6 - V n f d n V P.D $ * V 2 l d e.f } ",
"D e.A z } s : s >.z W 8 <.k.:.l a w r ~ l V F N f f 5 B.J H m $ b - d * b # | 5 < * K b.f | (.e.e.d u f l 2 > k.F V g > ",
"d f !.Z 4.Z * @.8 * j ` s G V r  .S g C.B. .a.D 9.| 6 b r o.J y * D V V V < | P r D D N D P.!.u N u  .V <.2 * r f : q q ",
"2 * t W !.a a >.4.W >.h.q g 2 $ } !.~  . .$ 6 f <  .} f o.6 # J @ V v.7 d N X O u r F 1 D ).D K  .d g q Z u Z k.e.N G <.",
"g g t w l >.q : Z h.>.w q t < > u F f l } d G F r r d $ D I.V # y 5 V X d | - N d f a.$ r !.r G d r r G D g * < D V u V ",
"f e.N a * s j a x 4.z * > g ~ V.@ 2 P.B.N d | G d V g N g  .@ D | o.| w.J @ 1 b D  .N D D G N  .e.~ a N d N r < N | O @ ",
"f V q A s @ ] 5.W.4.a z t F e.n.d V | d n f $ * 2 2 V.{ t A A a b o.D J $ @ d J * r 1 n 6 r < f D G l < r A } 2 N A.b b ",
"} 2 A a g 4.j i z a q ' G l f r d V 5 $ d n r } r * l l r.z A I.* r V b y | b r u b.B.r < V.r u 7.7.S g g ~ P.G D D P V ",
"l.: > >.4._.l , , W W t G * N k.P.1 O d 1 V e.d a.:.u C.N 7.2 V u 1 * r A.F J d B.n.2 n B.Y.N e.N N t 7.N  .e.y.9.@ b b ",
"8 x R l.] l.z A h.a h.* * @ g I.2 f J r } J  .2 r f V d f | D f e.$ < n y F N D f } D d 1 2 F r u t N g g S N u N 6 A.w.",
"R.z ] x.> x.H.j : * ` S q } F 7.2 f B.V } r N N X d | D r N 1 @ N <  .u V V } N D V.D G u B.Y.G N | G n D l  .r b 1 o.V ",
"9 > f.] > a x Z j z j s } g N V.* n G a.V r * u f N y.D | N r $ N C.D 1 d G u G G V 1 B.r u u n * K y | K 1 N F y 1 V 7 ",
"i i z i l R q @.S l.z N E.$ a 2 G V a.G Y.N N d r r @ b 1 y.6 u N # D e.$ < e.2 a.f G u d O N r # e.- 7 T.m V m.V b H 4 ",
"A i q A i /.@.>.j >.g.H.} N V.@ f d f V V 6 r K f J V V.N P.N  .d B.N V V 1 < e.K N J y.K b K J y 7 c.5 4 r `.b H V m # ",
"c c d.a $ 9 l * z a S , > f :.a } $ r 2 (.b F N n - D } y.* $ d D (.O < u n * | 1 r f U.n d 6 v.@ y V 7 @ m m b 7 v y 3 ",
"i j z @ a 9 >.j ` >.A q A a Z ~ u b K G K d m P N $ < P.C.N 2 a.G d * r n.G Y.n r N e.@ r $ N V D 7 O H y A.6 7 5 v y v ",
"z s.z z.>.W z a a W.: ` q s A > D J N $ y D V < - $ r D G Z a N u * o 2 f $ D 6 D V d 6  . .u 6 U.D N N 7 6 y r m b $ $ ",
"A >.s /.s W >.F.L.a A $ l w g.d A y.< | d o.m P o.@ V V. .A N B.d 6 m y J n | o.D y V D | N X r P.d r u * * r J u $ V | ",
"z j >.a >.Z l.h.s j W.7.> j * t g P.~  .e.V 7 b 6 4 D | P.Z 7.G D D y J D N P o.b 1 J D 6 K 1 J N * }  .| u < t X l <.N ",
"q Z j 4.> q >.A A 7.s t >.W z * l l.A 2 !.D % @ v D # o 6 a.G < N P * r 1 d o.o.F @ b d D 1 V r N l g g N f } F d V A ` ",
"S ~ <.B j a 2 l.2 w >.> W S <.~ j 4.S q V.N * 5 - 5 y V 6 K 6 9.V b 1 - < @ 1 - b # * $ V o.- N e.r 2 V f :.f B.V > @ z ",
"C.a * 2 N q ~ q V.A Z A t h.k.j l.5.w j r.V.b b b b T.o.7 * 1 | d @ r m H - o # P y - b X D U.# d } r | N V n 6 < V 2 t ",
"} A 2 q D !.> q 4.W.> A g Z Z j T 5.S >.q D d o.@ - b v.| m m r y % y r b J y V v.V V - y P N @ r N | 7 y f r r J V.} D ",
"N g g a N l g 2 $ * * s ` ' * l _ #.z a > D y v Y m 5 o.V - * J o.m b @ 6 V J P b N @ D m D V - 6 5 < V w.@ 7 V A.V J N ",
"<.z S * j q l G.s , w /.a q ' j d.H.4.> r F b v V M.T.- d y * 6 b.5 b 6 n.< V D 6 r V d y 1 | r * y 4 r M b v r N C } u ",
"h q ' z a A l...A 0 8 s.* A ' 0 q s ~ { r b d V # y b D d D < D r J d o.r u f 2 A ..E.A e V @ r [ 1 u [ .. ., E 1 r E t ",
"w ' ] z 9 0 h.Q./.] 8 s.> 5.T t * O * } b r o.6 b * y f I.D g N y * b V k > k f E , B E , t y 1 1 e ..k t k + g.T k N 0 ",
"T s * ....q j B H.a w Z A T s.t N } u N  .N | J F < 1 K 1 g { f U.d * f u.0 A O = l.N # C C ; 1 O = A q + B t q k 0 r 1 ",
"q 0 @ q > B l.T l A 9 # ] 8 8 z B } V.D : D D 2 2 } D p V r l S e - D u # = # A ~ l l = * , N t f N.e t A T B > 0 u C M ",
"N B 0 q l h.l > + a a z.h.] h Z q Z A 2 o V f * * g S N H.s Z z 0 t ; 2 q A , g.s ' k.B H.g.N G ..l * 5.A a l.' * k D & ",
"B ~ a t 5.B > Z.Z.h.A @.i a h w >.W., : z } } N N 1 a.7.S R '.>.~ V.# a ..> z T a B A * k 7.D B N A t l t > = k t ~ N.e ",
"G } a u h.' q * x l.a $ ' a 9 z W.5.Z ( >.A F.s q > 1.$ a : 6._ ` r q * a q : j Z a a S l g f l q > q k > l ' B N B a.G ",
"<.r * a q : 7.z ` z l ` j s.Q.s.#.A @.: A , Z 4.s q Z z.j s * a >.a ~ t : S j S w W k S a r l f P...> z 9 & k A ~ r V J ",
"} p Z S ~ 2 W ` a s , l.* j l z R i i W h.p :.G G.N G Z 6.a * z j a A <.: W a h.` w z } { r * * j z ` /.~ 2 t q $ q d < ",
"1 N N N E.l : q O j Z s W W j j F.` W s ( 1 2 S A p A a <.S x 4.z N 5.h.a Z * l z a A a r 1 y f S q s h.S N :.* A g p * ",
"Z 2 l 1.Z Z ( # 2 S 7., <.O.l x S s j * C.G $ F f f S * l l l Z g l G l q p $ Z w r A r 1 < d f q t S N t * G 1 1.l A ( ",
"( 7., > A ` N ( :.q S g > l t p z a g * I.r.O 6 Z F :.@ 2 > > : q t a * : , : 1.l : n f n $ $ < 2 z a O N $ u * g $ p >."
};
