/* XPM */
static char *bce7c18fe44046b9e008aa4414d34eebFKLBO8ODyrxaXr7r[] = {
/* columns rows colors chars-per-pixel */
"60 60 127 2 ",
"   c #130C06",
".  c #160E09",
"X  c #190F0A",
"o  c #17100A",
"O  c #1B130E",
"+  c #1E1611",
"@  c #1F1812",
"#  c #201712",
"$  c #231B15",
"%  c #261E19",
"&  c #291E1A",
"*  c #27201A",
"=  c #2B231D",
"-  c #30261F",
";  c #2E2621",
":  c #2F2820",
">  c #2D2822",
",  c #2F2822",
"<  c #2E2923",
"1  c #2D2824",
"2  c #2F2A24",
"3  c #2F2822",
"4  c #302521",
"5  c #322421",
"6  c #302720",
"7  c #332522",
"8  c #312622",
"9  c #302722",
"0  c #322723",
"q  c #342623",
"w  c #352724",
"e  c #312721",
"r  c #312821",
"t  c #302921",
"y  c #322920",
"u  c #332A21",
"i  c #312823",
"p  c #302923",
"a  c #322922",
"s  c #312A22",
"d  c #332A23",
"f  c #322B23",
"g  c #302825",
"h  c #332824",
"j  c #322924",
"k  c #312A24",
"l  c #302B25",
"z  c #332A25",
"x  c #322B25",
"c  c #312926",
"v  c #322A27",
"b  c #342925",
"n  c #362825",
"m  c #342B24",
"M  c #372926",
"N  c #352A26",
"B  c #342B26",
"V  c #362B27",
"C  c #332C24",
"Z  c #312C26",
"A  c #332C26",
"S  c #322D27",
"D  c #342D25",
"F  c #352C27",
"G  c #342D27",
"H  c #362D26",
"J  c #352E26",
"K  c #372E27",
"L  c #362F27",
"P  c #322A24",
"I  c #382D27",
"U  c #332B28",
"Y  c #312C28",
"T  c #332E28",
"R  c #332E2A",
"E  c #342C29",
"W  c #372C28",
"Q  c #362D28",
"!  c #352E28",
"~  c #342F29",
"^  c #372E29",
"/  c #362F29",
"(  c #352D2A",
")  c #362E2B",
"_  c #372F2C",
"`  c #362E28",
"'  c #382D29",
"]  c #3A2C29",
"[  c #3B2D2A",
"{  c #392E2A",
"}  c #382F2A",
"|  c #392F2D",
" . c #382F2A",
".. c #373028",
"X. c #35302A",
"o. c #37302A",
"O. c #36312B",
"+. c #37322C",
"@. c #37302A",
"#. c #383129",
"$. c #39302B",
"%. c #38312B",
"&. c #3A312A",
"*. c #39322A",
"=. c #3B302C",
"-. c #3A312C",
";. c #39322C",
":. c #3B322D",
">. c #3A332D",
",. c #3B312F",
"<. c #38332F",
"1. c #3A322F",
"2. c #3C312D",
"3. c #3D322E",
"4. c #3C332E",
"5. c #3E332F",
"6. c #3B342E",
"7. c #3D342F",
"8. c #3C352F",
"9. c #3A322C",
"0. c #3B3330",
"q. c #3E3530",
"w. c #3E3633",
"e. c #3E3530",
"r. c #3F3832",
"t. c #413833",
"y. c #423B35",
/* pixels */
"o % $ $ # + $ o ; k 4 b 4 7 b $ q./ p -.t.q.} $ O # $ * % $ $   O # @ = G k p % O + O # $ % * . $ % % + O # + . O + % p ",
"; +.O.O./ G / = p b 4 b 7 w b $ p = % ; b b b $ / } / 7.2.} -.= -.O.; k G p > % O.$.G O.O.$.-.= / $.$.G G / k = 7.b k G ",
"= A k k k k k % = = * = ; 4 4 # $.G = p p ; ; $ b k ; k 4 4 b % k ; @ $ % $ $ o A G k A k p k $ b b k b G k ; = k $ O # ",
"* p = = ; ; ; $ # + O # $ % & . ; = = k k p G = b p = ; 4 4 4 $ G k = p / G A * > p ; k p p A % k ; = 4 p ; = & q.; ; $.",
"b } 4 4 k G / = } b ; G } $.-.= k p = k p 4 / ; G k ; b k 4 b $ k p = p / k p % # # + $ % % * O } k ; p k p ; = k % & / ",
"4 b 4 = 4 p k & / p = > k > p $ A = $ $ + O $ O k k ; b b 4 b $ b k * ; k 4 p * 4 = & 4 p 4 k % G p ; ; 4 4 = & $.; ; $.",
"- M 4 4 4 4 k % G ; * > p ; > $ $.k = p b G -.; b G k / b b / = % & # % * % = % $.k = k / G / & k b k 4 k b = $ & # $ % ",
"& b w b b k k % k ; * p 2 > A * k ; = A / G k $ # # O # O O $ X % * $ = = % * $ / = % ; k p p $ ; k k ; k b = O = % * = ",
"& } 7 4 4 = k # + O O + O @ @ . / k % = p 4 4 % p ; 4 ; ; b b & 7.$.$.-.$.-.} ; k k ; k k k b % k k k p 4 ; ; ; 2.$.} -.",
"& } 4 4 4 ; b $ } G / / G / T = / k * = b k k = / G G b b } } = k ; ; ; ; 4 = $ % % # % % % & O p 4 4 p p p 4 ; 4 = = ; ",
"& b = 4 k ; G $ G p k k p k p * > > * ; k ; = $ b k k p 4 b b & b 4 4 k 4 b 4 % & & $ & & & & O p 4 4 p k p ; = k p ; p ",
"& / 4 k b p G $ ; = = = = ; ; % O @ @ = b k k * 4 ; 4 = = 4 ; $ b 4 4 4 4 4 ; $ 2.2.} 2.2.2.2.4 b k k k k p = * b p 4 p ",
"& G = p k = k $ k 4 p k p b b = k k ; A } G / = k p k p 4 k 4 $ b 4 4 4 4 4 4 $ 4 ; = 4 ; = 4 # k p 4 4 4 ; = % k 4 ; 4 ",
"= $.k / G ; G & b 4 p p 4 4 4 % / k $ $ $ # # X k p k p 4 k 4 $ } b b b k b 4 & b k ; k 4 4 k $ k k b b k k 4 4 G k p k ",
"  $ O @ + o +   / k k k 4 w 7 & b > % = k k G = p ; 4 4 ; 4 4 $ b 4 4 4 4 k 4 $ k 4 = 4 4 4 4 $ O O + + O O O + k ; ; ; ",
"* O.A O./ ; / ; G p k b k b b = b k = A 2.} k % b k b b k G b & } k b G b / b & b k ; k 4 4 k $ b G } / k 4 p b / A k A ",
"; / = ; = * k $ + + % $ o + % O G p = > > > k $ @ $ $ @ + $ # . + $ + O + * $ o / p b A ; k b % p p d p % G = $ $ + + + ",
"= / ; k ; = / % k k O.k * ; k * * * % = = = = + > p k ; = 1 ; $ p k p * > / A % = * ; ; % = ; % $.= * = * G * $ T ; * % ",
"* k = ; * $ = o G k / k % = k % + # @ % $ # $ o G G / k 1 / / = G k / % A k G % $ # * % O + % O G = - p # * % ; 0.T ; = ",
"= / > k = % ; + k ; k ; % ; k * $.$./ 6.$./ $.= > ; ; ; = U U = G > / $ G ; G % -.O.7.$.; k $.k p - p p @ % % p T 2 = * ",
"= A ; k = = $.= k ; p ; * p / * G p = p p p k $ ; ; ; = & k k % k = p # k = k $ G > k ; % = k * K p - = % O.= % 2 ; * % ",
"* k = > = = O.= A > k ; * p A % G p = > p k A % / / E g 1 / E & k = ; $ p ; k % / ; ; ; = k G * d d d p * $.> * U 2 ; ; ",
"; $.k G = = / % O.k A k = G G % p p = p p > k $ + O + O O @ +   O.A p = A / / ; / ; > > = k / * = - C p $ > = = A > ; = ",
"$ ; = ; % $ ; @ ; = = = % ; ; + p A p A > = ; # ; = ; ; 1 / E % p ; * % = > = % / > k p = > k % A * % = % ; % * k ; & % ",
"@ @ O $ * $ @   # # % % $ $ # o A p > k k A ; = / / ; k U / _ % + + $ % $ $ @ . A k k > ; / k % O o o % @ $ O O $ # $ % ",
"O./ ; / 7.-.$.; $./ -.6.$.-./ = G A p k k G > = k ; & ; ; ; k $ / / $.-.O.-.O.> k p > ; = A p $ O.A A y.7.7.k ; 7.-.| 2.",
"; ; % = k ; ; $ k > p k p k ; $ A p p ; A A k = / ; & 1 k 1 U & k ; > p ; k k = k > ; = = k p $ k = % p = ; * % k 4 4 p ",
"= ; = p A > > * k ; ; ; ; p = $ * % % @ * * % + / = % 1 k ; k = k ; ; ; = ; ; % G k k = = k k % / ; = G ; A p p 4 = = ; ",
"= p ; k k > G p G > ; p > A > % = * = @ = = = @ O.> = U / k / 1 / k k k > k > % k k p = = k k % k ; ; -.k A ; ; / k 4 k ",
"$.O.; ; = * ; = G > > p > A p * O.A / * $./ $.= k ; = k U k / ; / p k k p k ; $ $ $ $ + O # # . _ 1 = k * ; = ; b p 4 4 ",
"; = O + $ + @ . / k k A k G G ; G = k # G > / $ $ $ @ % % % = + O.k k A A / k * O.O.$./ k O.O.= / = + % $ & % % b 4 4 4 ",
"A p * A r.r.-.= # + @ + O @ # O G = k # G ; A $ $ % % & & = 1 @ $ O O + + $ @ . k k G p ; k k % / ; = 0.0.q.4 % $ # # # ",
"; ; * b 4 = G $ ; ; 4 ; ; / b $ = * k + G ; ; % O.O.-./ 6.G 6.* ; = k b p k 4 & b ; 4 4 4 b 4 % A = * 2 = ; = % b k ; = ",
"b ; % ; ; = G $ / / / k p / k $ -.A O.% / > k * k k k ; A ; A # b k b G k G b = b 4 4 4 7 M w & A ; * / k / = * / G k k ",
"/ k % 4 k ; / $ k k k 4 ; G k % k = p % k = p % k > ; ; k ; A $ / k k p ; k b = / 4 4 4 4 b b = O.= % > = p = * b k 4 ; ",
"& = $ p / k / & 4 = ; = = k 4 $ O O $ + % + $ . # @ O + $ $ * O G 4 ; ; = 4 4 & / 4 4 4 4 b 7 & k = % T > A > > k 4 = = ",
"O % + = k = p % / k p 4 ; 4 = $ G / / / A = / = k p = k k / $.= G p p p 4 k 4 % b 4 k b 4 4 4 $ # + $ O.p p = = b k p p ",
"/ 7.; k / ; k = / p p p 4 k 4 % / G > A = % O.= G k * k > A k * G p k k k b 4 % k 4 b b 4 4 4 % } ; = -.> > = k b k p p ",
"= k + # % O O . k ; ; 4 p b b = A p * G = % O.* k > $ k = p ; $ G > > k p b 4 % k 4 b b 4 4 4 * -.* O % + # + $ G k ; ; ",
"4 } % 4 q./ / ; -.k k b k b k = G p * O.= % ; . / A * O.k O.k = / k p k k / k * k 4 4 4 4 k b = $.= % -.O.O.; = G k k k ",
"; 4 * ; G k ; $ O # $ # O + # O / ; / p % $ k o @ + O @ @ @ $   + # = + o # + O } = b = b k } $ -.% % b k k = O + + * O ",
"k k = 4 b b G = p k b ; = k b & A = G k = = 6.% k p = k k p A % p > / ; = / p & G = b ; 4 4 b $ $.= = b p ; = # A ; / % ",
"# $ + $ % % % + G b k = = / G $ / ; k p = = $.% / / k / / / O.= G p A = = -.k % / 4 } k p k / % p ; 4 b k 4 ; p -.A O.% ",
"# * % = = = = # / G k * = / G $ / p > p = * k # p > = p > ; p $ / > k = = $.p % # + $ $ O + $   O O + $ $ # + $ k = > + ",
"4 -.} -.-.} } = k k p * & k k $ ; = * p = ; k $ k p = p > ; p $ > ; p * % k = $ > ; k k & ; 4 % 4 b k b / 4 = = $.k / % ",
"; / k p p p k & b k k ; = k b * + + o $ $ $ $ . A k ; k k p k % A k / ; = O.k = G k b / = k b = b b b / / b = % A = k $ ",
"= k ; = ; 4 4 $ # O O + + # # o -.-.; -.O.-.G = A k ; k k p k % $ @ $ O O = % O G k 4 b % k k = 4 = ; k ; 4 ; $ % + $   ",
"= b p k b b p # k * * ; p k 4 = p p $ p ; k = * G A > A k k A % ; * ; * = -./ = A > = 4 $ p ; % / = 4 k * = = + A = > @ ",
"= G = / = 4 = % } / = / k $.G * $.> % ; k k k $ $ * = % $ % % $ -.p / % k 6.k * k p k A + $ % % G > p = p A = p O./ p = ",
"= G = G ; b b ; b 4 $ k = p ; % ; ; ; / / p k % % * = % @ % = $ / > G % ; A = $ k p p / * k G > G p G p p A = p k p = * ",
"= b = k ; k 4 & } p % G 4 k 4 * / A = p = = ; $ -./ 6.$.= G 7.; ; = > $ ; k ; % k p ; k % G A % = * = * = = * * A p = $ ",
"= / p G b b p $ / 4 $ b ; ; ; * G = O @ $ $ % o k * p ; @ = k # ; = = % p k k * G k ; > % k ; @ O O $ # # $ O @ p ; * % ",
"O $ + + $ % & o / k & / p k k = O.p = G -.6.-.= $.; / A % p $.% -./ k = O.A A % p > ; k * / k % G G :.K G $.d p $.b ; = ",
"p b = % ; p } * p p & G ; k k = ; = = > ; ; A = G ; k > * > A $ ; = * % > * = + + O O % o $ $ o d p G - = p * % 4 = % % ",
"} $.k & k k } % $ % + * $ = = O $.A = ; = = k = A k k > = A k $ + $ @ + % O % O / ; ; -.> / k = p - p * = p % # $ + # % ",
"= 4 ; % G k / + $ = % = % p 4 # / ; % p G A k # k k p ; > G > % G 6.-.O.-.= O.> k % % O.p / p = G p p = p $.= % q.-.$.2.",
"; p 4 $ k k 4 % -.b -.G $./ $.; = = $ G ; A > % / k ; k % k k = k = > ; = % k % / p = O.; p k = G 4 d p 4 4 * = b 4 ; ; ",
"; p 4 $ k k p % b ; k ; k 4 k % @ $ + > ; k > % G k ; k % k k * O.k A k > * A % ; = * O.; > ; % d = p 4 4 p = 4 b p ; 4 ",
"; p 4 % k k p * k = k = k ; p % k A = A k G k = A p ; A % k p % k = ; = * @ = + O.G = -.k k p * d - d 4 4 d = - b k 4 4 ",
"4 p p % b k k = / 4 b ; b p k % A p + O O O o   A p ; G * A p % / p A k = $ > $ > * . O . o o . K 4 d 4 4 4 & = b b 4 4 "
};
