/* XPM */
static char *result[] = {
/* columns rows colors chars-per-pixel */
"60 60 231 2 ",
"   c #020204",
".  c #05040C",
"X  c #0A050A",
"o  c #070A0B",
"O  c #090D0F",
"+  c #130E0B",
"@  c #16110E",
"#  c #19130F",
"$  c #0A0C13",
"%  c #080815",
"&  c #14081A",
"*  c #0E1312",
"=  c #0F1719",
"-  c #171411",
";  c #1B1512",
":  c #1D1915",
">  c #14161A",
",  c #1A141A",
"<  c #111A19",
"1  c #1D1B1A",
"2  c #2C0A19",
"3  c #211A15",
"4  c #251816",
"5  c #231D1A",
"6  c #281F19",
"7  c #1B201D",
"8  c #26211D",
"9  c #2B221D",
"0  c #31261F",
"q  c #32281F",
"w  c #0B0922",
"e  c #19092A",
"r  c #1D1B22",
"t  c #181827",
"y  c #0B0638",
"u  c #170C37",
"i  c #1A1836",
"p  c #200E2F",
"a  c #2B0C2A",
"s  c #3C0D27",
"d  c #221C23",
"f  c #23192A",
"g  c #310D37",
"h  c #271735",
"j  c #1B2324",
"k  c #1D2237",
"l  c #242224",
"z  c #2B2622",
"x  c #2E2925",
"c  c #22242B",
"v  c #2B252C",
"b  c #242A2C",
"n  c #2C2B2C",
"m  c #322721",
"M  c #332924",
"N  c #362A2A",
"B  c #352E2A",
"V  c #382F2B",
"C  c #36302C",
"Z  c #39312D",
"A  c #252333",
"S  c #2B2536",
"D  c #252A36",
"F  c #2B2C32",
"G  c #23263A",
"H  c #2A253C",
"J  c #2D2A3B",
"K  c #322C32",
"L  c #322B3D",
"P  c #382938",
"I  c #2B3330",
"U  c #2A323B",
"Y  c #343433",
"T  c #3B3432",
"R  c #363835",
"E  c #34333C",
"W  c #3B353A",
"Q  c #3F3B3E",
"!  c #441032",
"~  c #4F303B",
"^  c #0E0547",
"/  c #170A4B",
"(  c #1A1646",
")  c #190B5B",
"_  c #181759",
"`  c #2A0C43",
"'  c #271D4B",
"]  c #270F57",
"[  c #211456",
"{  c #26185A",
"}  c #331B5C",
"|  c #1E2148",
" . c #2B2646",
".. c #2D2C44",
"X. c #282449",
"o. c #362C48",
"O. c #2F3941",
"+. c #343445",
"@. c #3A3544",
"#. c #3A3A43",
"$. c #35334B",
"%. c #373A48",
"&. c #2C2456",
"*. c #272558",
"=. c #342957",
"-. c #38385C",
";. c #1C0363",
":. c #151963",
">. c #1C1965",
",. c #260767",
"<. c #220E64",
"1. c #231563",
"2. c #251C62",
"3. c #281967",
"4. c #25146C",
"5. c #2B1A6B",
"6. c #331A68",
"7. c #270D73",
"8. c #281677",
"9. c #241C72",
"0. c #2C1973",
"q. c #331C7A",
"w. c #1F2263",
"e. c #252566",
"r. c #2A236B",
"t. c #392966",
"y. c #333669",
"u. c #2C2478",
"i. c #38257A",
"p. c #3E3872",
"a. c #431649",
"s. c #4A1C55",
"d. c #4E2A4F",
"f. c #473E45",
"g. c #413D4C",
"h. c #443D55",
"j. c #672C44",
"k. c #712058",
"l. c #50167D",
"z. c #651770",
"x. c #462D6A",
"c. c #752961",
"v. c #3B4544",
"b. c #3B424D",
"n. c #3D4656",
"m. c #43454C",
"M. c #4B444D",
"N. c #454848",
"B. c #524B4F",
"V. c #454353",
"C. c #464856",
"Z. c #4B4A54",
"A. c #49455A",
"S. c #454A5B",
"D. c #4D4D5B",
"F. c #514F52",
"G. c #4B5459",
"H. c #565659",
"J. c #54545B",
"K. c #6F4D59",
"L. c #454364",
"P. c #4C4B64",
"I. c #53536B",
"U. c #575768",
"Y. c #4B4973",
"T. c #6B5974",
"R. c #5F6765",
"E. c #5C646A",
"W. c #646768",
"Q. c #666773",
"!. c #6E7371",
"~. c #74747B",
"^. c #935474",
"/. c #827C7E",
"(. c #2F1985",
"). c #371A87",
"_. c #3A1F98",
"`. c #29258A",
"'. c #3E2484",
"]. c #382988",
"[. c #2D2493",
"{. c #3C2995",
"}. c #411896",
"|. c #432B86",
" X c #422A8A",
".X c #4A3989",
"XX c #44249C",
"oX c #462A98",
"OX c #512F9A",
"+X c #523A98",
"@X c #73379A",
"#X c #492AA4",
"$X c #4939A3",
"%X c #5133AE",
"&X c #4C28B1",
"*X c #5939B7",
"=X c #424588",
"-X c #5C4D90",
";X c #665C8E",
":X c #765599",
">X c #777C81",
",X c #5844A8",
"<X c #644DA9",
"1X c #6754AA",
"2X c #694BB5",
"3X c #7759BA",
"4X c #5C36C7",
"5X c #7039C7",
"6X c #6947CD",
"7X c #744BD5",
"8X c #7859D4",
"9X c #7961D2",
"0X c #847C8A",
"qX c #9352CE",
"wX c #9372C6",
"eX c #9A7BD7",
"rX c #8354EF",
"tX c #8E6AED",
"yX c #9876EC",
"uX c #7B8688",
"iX c #898B92",
"pX c #888897",
"aX c #93959A",
"sX c #989CA3",
"dX c #A096A6",
"fX c #B0A5BA",
"gX c #AFB3BB",
"hX c #ACB2C2",
"jX c #B8BDC7",
"kX c #A883F5",
"lX c #BAC1C6",
/* pixels */
"m m m m m m m m 0 3 x T Z Z : T T T T T M M + ; ; ; ; ; z - - - # - O @ @ ; @ 8 B m m m m m # # ; @ # ; - ; - # z ; @ + ",
"m m 0 m m m m m 0 3 x M m q ; Z m m M M 0 8 5 Z Z B V Z V C Z C M B ; Z M C 9 l B m m m m m # V V M V V V V C V V Z 5 z ",
"0 9 0 0 z z m 0 z : x M 0 m ; V 0 M q m m 9 5 Z m m m m m m m m 0 0 : C 0 m 6 ; ; 3 8 ; ; ; O B M m m m 0 m m m 0 m 3 z ",
"; ; + ; ; ; 6 3 ; + x M 9 m 3 Z 0 m m m 0 9 8 M 0 6 6 m m m m 9 0 x ; Z 0 m 3 8 T Z T m V Z ; B m m 0 0 0 0 m 0 m m : x ",
"C M 8 T Z Z ~ C Z 3 x M 8 m z Z m m M q M M N M m M B m m m z 6 m m : C 0 m 6 z M m z m m m # 5 4 3 3 3 3 3 3 9 5 3 3 M ",
"q 9 3 V m m 0 q 0 3 x M M m + : # ; # ; ; # z M m m m m m m m B m m - C 0 0 3 l N m m m m m # z 8 z z ; x z x B B z 3 z ",
"q 9 1 Z x m 0 0 m : M M m m ; B V B B B V 9 8 V m m M m m m m m m m @ N 8 6 : 5 z 8 9 z 6 8 6 T M M M : T M m M M M : x ",
"0 9 3 C q m m 0 m 3 x M m m ; Z m m m M 0 9 ; 8 5 5 6 f :.:.:._ f 3 + 3 5 5 5 3 3 3 3 5 3 5 ; B M m 9 : B m m m m m 3 z ",
"# @ @ ; ; # # # # @ x m q m ; Z 0 4 m m m 9 : z z v [ 8.{.).8.:.| x : T C C V Z Z B V V B V : B m 0 9 3 C 0 m m m 0 4 x ",
"B B C B B V B C C 1 x M m m ; B 0 V m m m 8 5 Z N { _.4X7X&X(.>.S m 9 C m m m m m m m m m m ; z 9 9 9 ; x 9 9 9 8 9 : 9 ",
"M M m m M m M m M : x M m q - N m m m m m 6 5 V ' |.7XrX6X4X#X<.' z : C m m 8 9 m m m m m M ; : 1 3 1 3 3 3 1 1 1 3 # 8 ",
"0 9 6 M m m 0 0 q 3 : : : ; - C m m m m m 6 5 ..} @XqX5X&X&X&X8.3.D # M m m m z m m m m m m ; C Z Z B B V Z C C C C 5 z ",
"0 m M 0 m m 0 4 q 9 x z B C ; C m m 0 m 0 0 x L g z.z.l.,.7.#XoX4.e., B m m M M m m m m 3 m # B m 0 0 9 m q m 0 q 0 3 z ",
"m m M m m m 0 V q 3 x M x 0 # z 5 9 6 6 5 3 8 P ! k.c.a.g ' i.OX).3. .C m m m m m m m m V m # m m m q 8 m m m m 9 0 3 z ",
"m m m m m m m m q 3 x M q m @ 8 8 M 6 5 z 5 5 @.T.^.j.~ 0X0Xp.OXoX3.*.W m m m m m m m m 0 0 # B m m m M m m q m 9 m 3 : ",
"m m M 0 M 0 m m q 3 x m 0 m ; T M V N M M z A h d.K.4 Z !.G.^ r.<Xu.4.$.m m m m M m m m x q # C m m m m m m q m M M 3 5 ",
"9 9 9 9 6 9 6 9 8 ; x M m z ; C m m m m q 9 A t > T 6 J.U.h y 3.9X'.4.*.z 8 9 6 6 9 5 9 9 9 @ B m m m m m m m m 0 0 1 x ",
"5 M 5 8 5 @ 5 5 6 ; M M M m : C m M q M q 9 t w * H.~.dXfXh.y 1.1X].4.*.v 8 5 3 + 5 8 M 8 8 @ C M M m 0 M M m m m q 9 M ",
"B V M B x : Z B B 3 ; ; ; ; @ ; # # ; ; # @ l i O b F.U.0X-.y 9.,X9.r.@.M M B M ; T N M M B ; ; ; # 8 3 ; ; # ; : - # x ",
"0 0 m q 9 # M m m 3 9 T N.D.D.D.Q C B Z C x 8 P t % f @.o.( { i.9.u.$.T 0 0 0 z # Z m M m m # N C Z C C C N ; C C C 5 z ",
"0 m m m 0 : V m M K Z.B.Y 7 j D S.W x m q 8 5 ..e a & w y [ 3.) >.=X1 M m m m 0 ; B m m m m # B m M m 0 0 0 ; B x m 3 z ",
"m m m m 9 : V m W g.f & X   < < D U.~ M m 9 D u g k.! u u / |.i.9.=Xr M 4 8 0 m ; M m m m m ; V m m 0 M m 0 # B 0 0 9 B ",
"m m m m 9 5 B 0 Z.D . X X   I N.n V.P.W m 8 S h p ! s.x.6.3.i.2.) w.y.+.M m m z ; V m M K K d V m M m m m z ; Z m m 6 z ",
"m m m m 0 z V 0 N.I o f Q n I W.W.J ..P.L H =.t.x.:XwXeX3Xx.y ^ r._ 2.y.=.o.M m ; T L &.5.r.{ $.M m m m m m ; T m m 3 z ",
"; 3 ; 8 3 @ 3 : l G.j R Z.~.J.N./.J.+.T.x._ p.' } -X1X3X+X] / ) ].|.].oX[.`.r.e.w.e.u.].,X<X,X'.o.M m m m m 8 Z q 0 6 ; ",
"B B B Z V B B N #.b.7 N.R.G.b Y /.Z...;X1X2.X.' u [ x.i.4.] 6.(.(.#X%XoX$X$X{.`.`.].,X9XyXkXyX2Xi.H m m m z 5 Z M m 3 8 ",
"m m m m m m m m Z.k o 7 R.W.R.W.iXR.n.L.=X{ J L e 6.3X,X<.5.XXXX).(.].1.0.'.{.'.]. X+X7X8XtXtX9X].X.N m m 9 ; Z q q : x ",
"m 4 z m m m m m Z.D     * : j r b G.S.E ' i d S & o.kX<X1.0.}.XX{.8.) 3.>.;.;.,.,.,.7.q.(.#X,X,Xq.X.M m m 0 ; Z q q : 9 ",
"m M m m m m 6 9 T %.t j @., X . o n.v.8 1 ; 5 K 2 s :X2X6.] q.oXXX(.0.,X+X] 8._.}.).6.] [ ] 1.2._ H m m m 0 9 Z q q 4 x ",
"m m m m m m N M M K V.V.M.%.5 l m.C.R C B M v a s j.j.x.s.} ` }.XX).5.=.=.&.+X2X4X*XoX3.] &.t h f d 6 6 6 6 ; z 8 8 # 0 ",
"m m m m m 0 0 0 m 8 Y B M Q D.m.W V 0 0 0 9 v P s ! s a g a p 6.|.|.x.V.U.I.;X,X6X%X).4.&.K # 5 z x 8 8 z 8 3 8 8 9 : x ",
"9 m 0 9 0 0 z 9 0 3 M m m m m 5 8 M m q M E %.Q.M.& h @.f.~ e ` t.A.M.n.v.C.S.-.-X].9._ S 9 # C V M B B M M M M M M 1 0 ",
": 3 : ; : : : : 3 @ x m 9 m m 5 5 M m M E I.pXaXI.t $.pXsXT.G  .V., * W.!.>X>Xg.P.Y.e.X.r 1 @ M M 0 m m m m M q M m 4 9 ",
"V V Z M V V Z V Z 5 x M 9 m m 6 z M m E J.aXpXU.$.U U.jXhXI.H Z.S.* Y W.W.P M.B., H Y.V.Z Z : C m m m m m m m m 0 0 3 8 ",
"m m m m m 0 m 0 m 4 z M M 0 m 6 z M x +.>X~.A.@.U v.E.lXsXn.L V P.G j 7 E.P Q m.X % -.S.0 0 8 Z M m q 0 m m m m m q 3 x ",
"m m m z 0 m m m m 4 l 9 8 9 9 3 8 z 9 E %.A.D.U.b.k E.lXuXD N M P....   W.Q.Z.Z.. . $.D.m 0 : C m m 0 4 m m m m m 0 9 C ",
"m m m 8 0 m q q m 4 : 5 5 3 3 z z 5 @ 8 b k F #.U R R.gX~.j c #.S.>   1 H.Z.>XU . = n.Q m m ; C m m m V m m m m m m 3 3 ",
"m 0 q N M m q 4 9 3 x Z V M M N V M : Z C C B Y F I N.aX~.i i g.Z..   r l v.v.$ $ b.N.m 6 9 # C m m m m m m m m m m 3 7 ",
"m m m m m m m N m 3 x M 0 0 m m z 9 ; M 0 9 8 B m n U aXaXG u %.S.+ o > * 7 O   < I.Z m M m # B M m m 0 m m 0 z m m 3 9 ",
"m m m m m m m m m z C m m 0 9 m m 9 : Z m 9 8 B 0 M E pXjXQ.k F m.O.U G.R * o = U S.M m m m # x m m m M m m 9 9 m m 8 M ",
"0 m m m z m 0 z 0 3 x M m m x m m 9 # : : # 1 B z m 5 I.hXhXS.v M m.b.~ N.+.o.Z.Z.B 0 0 0 0 ; x q m m m m m M M q q 8 x ",
"; 3 8 ; @ ; ; ; ; + x M m m M m m 9 ; C x x @ : ; ; - +.uXlXI.1 ; ; * ; ; F @.K ; - ; ; - ; + C M m m m m m 0 0 0 q : x ",
"C Z Z Z # Z C Z Z 5 x m m q m m m 0 : C m 8 5 T Z C Z T P.uXU.U Y Z ; Y Z B Z Z N : T C C C ; C m m m m M q m q m q 3 x ",
"m m q 9 # Z m 0 m : x M m m m m m 9 : Z m 9 8 M m m m x +.L.L.i H z ; C 0 m 0 m 9 - C 0 q q # C M M M m m M M M M m 3 8 ",
"m m 0 m @ Z q m m : x M m M m m q 9 1 C q 9 3 M m m 4 9 M  .| ^ _ J ; Z m m m 0 9 ; Z q m m # : ; # # 3 5 @ @ ; # # + + ",
"m m 0 m @ Z q m m 3 8 8 6 5 6 6 9 5 # 0 6 1 5 M m 0 M m m v ( t.[ _ r C 0 m m m 9 : Z 0 m m # B C M B Z Z B - T Z C 6 z ",
"m q m x # V m 0 m 3 : 8 5 4 # 5 N z 8 8 3 : 5 B 0 M M M m h ( 1.7.{ ( K z m m m 9 : Z 0 q m # C m m m m m 9 # M m m : z ",
"# @ @ # O ; # # # + M Z M M : T M B B B M 9 5 V 0 m m q M M h q.OX.X_ r # @ # @ @ + # 9 ; # 1 C m m m m m q # V m m 5 z ",
"Z x 5 T Z Z Z T Z 8 M M m m ; C 0 m m m m 6 5 Z m 0 m 0 q q F 6.2X.X' T C Z B B : Y V T Z T : C x 9 3 0 q 9 # m 8 9 9 M ",
"M 8 3 Z 0 m M m q : x M m m : Z 0 m m m 0 9 ; 5 3 5 9 3 3 3 3 } 2Xi. .Z m m 0 z ; Z m m m m # C m m V m m 0 @ 8 8 8 3 M ",
"m 9 4 B 0 3 m m m 3 x M m m 9 Z z m m m 0 9 ; M z B B x x : 5 2.$Xu.X.B 0 m 0 z ; V 0 m m m ; B m M m m m z ; T B B 5 z ",
"m 9 5 V m N m m m 3 x M m m : x 9 9 9 9 8 5 5 Z M M M M m : n >.[.r.t M 9 m 0 m # M m m m m ; N m m m m m z ; Z 0 0 3 8 ",
"0 9 3 Z m m m m m 6 B M m m @ : 3 3 1 3 3 : 5 B m m m m q ; z H w.=.; Z 6 0 m m ; Z m m m m ; B m m m m m m ; Z m m 6 ; ",
"m 9 3 Z m m m z m 5 N m 6 6 ; T B B B B V z 5 B m m m m M ; x M x m ; C M M 0 z ; C m m m z ; B m m 0 m 0 9 ; V 9 0 : z ",
"m 9 3 Z M m m m m 4 x M M M : V m 9 m m q 9 x B 0 m m m 0 # N M q 0 # M 9 8 6 9 : N 9 8 9 9 ; ; ; ; + ; 8 3 - : ; ; @ z ",
"4 3 ; 8 4 6 5 9 5 ; M M m m ; V m 5 m m m 9 5 V m m m m 0 6 B m q z + 1 3 4 : 3 z 3 ; ; 3 3 + B N M ; T T Z Z Z M C 5 x ",
"5 z z z z x z C z : x M m 0 # m m V m m m 9 5 V m m m m m 6 B m q m ; T Z C M Z V Z 3 B T V : B m m - C m m m m m 0 8 M ",
"M M M M M M M M M 5 x z z 9 ; V m m m m m 8 9 M m m m m M ; B M m m : C m m q q q q 3 8 m m ; B m m - C m m m m m m 5 M ",
"m m M m m q q m m 9 1 ; : : - C 0 m m 0 m 9 M M m m m m m ; N M m m 9 C m m 9 9 0 M ; m M m # C m 0 3 Y 0 m m m 9 q 3 x ",
"m m m 0 q m m m m 3 M M C B : Z m m m m m 8 5 N m m m m m 5 C M M m # C m m 9 0 m q 3 1 3 : @ B m 0 5 Z m m m m m 0 3 z "
};
