/* XPM */
static char *result[] = {
/* columns rows colors chars-per-pixel */
"60 60 229 2 ",
"   c #030303",
".  c #04040A",
"X  c #09060B",
"o  c #0B0E0E",
"O  c #130E0B",
"+  c #0D100D",
"@  c #16110E",
"#  c #19130F",
"$  c #0D0713",
"%  c #0B0B14",
"&  c #160916",
"*  c #0C1116",
"=  c #151313",
"-  c #1B1512",
";  c #1D1915",
":  c #14151A",
">  c #15191C",
",  c #1E1B1A",
"<  c #2F0C1C",
"1  c #231715",
"2  c #211A15",
"3  c #231D1A",
"4  c #281F1A",
"5  c #1B211C",
"6  c #26211D",
"7  c #2C221D",
"8  c #31261F",
"9  c #32281F",
"0  c #0A0926",
"q  c #170825",
"w  c #191927",
"e  c #0B0635",
"r  c #170A38",
"t  c #1A1638",
"y  c #1C1D3A",
"u  c #270C27",
"i  c #3B0D26",
"p  c #221E23",
"a  c #251D2D",
"s  c #3A192B",
"d  c #280A33",
"f  c #231833",
"g  c #231D3C",
"h  c #3D1539",
"j  c #1B2324",
"k  c #1B242B",
"l  c #192130",
"z  c #2C2622",
"x  c #2E2925",
"c  c #262629",
"v  c #24242C",
"b  c #2B2A2B",
"n  c #322721",
"m  c #332924",
"M  c #36272B",
"N  c #352D2A",
"B  c #392F2B",
"V  c #36302C",
"C  c #39312D",
"Z  c #242433",
"A  c #2C2534",
"S  c #272C35",
"D  c #2D2B34",
"F  c #25213B",
"G  c #2B253B",
"H  c #2D2A3E",
"J  c #332B33",
"K  c #302837",
"L  c #27303D",
"P  c #2E333B",
"I  c #333134",
"U  c #3A3432",
"Y  c #34333B",
"T  c #3A333A",
"R  c #3B3A3A",
"E  c #481434",
"W  c #512734",
"Q  c #43383A",
"!  c #41413C",
"~  c #0C0443",
"^  c #180949",
"/  c #18164A",
"(  c #1C0C57",
")  c #1B1455",
"_  c #1A135C",
"`  c #1B1859",
"'  c #260844",
"]  c #231A49",
"[  c #200F58",
"{  c #23145B",
"}  c #271658",
"|  c #231B5D",
" . c #321855",
".. c #272546",
"X. c #2C2B43",
"o. c #322B42",
"O. c #332845",
"+. c #2D3741",
"@. c #353444",
"#. c #353747",
"$. c #3A3544",
"%. c #3C3A44",
"&. c #2B2453",
"*. c #29255C",
"=. c #342758",
"-. c #3B3756",
";. c #180661",
":. c #1C1564",
">. c #15186E",
",. c #250669",
"<. c #221264",
"1. c #281966",
"2. c #25146D",
"3. c #2A146C",
"4. c #241B6B",
"5. c #2C1972",
"6. c #281977",
"7. c #361B79",
"8. c #1D2073",
"9. c #2C2263",
"0. c #2B266D",
"q. c #362967",
"w. c #393769",
"e. c #2D2273",
"r. c #2A2877",
"t. c #36267A",
"y. c #353272",
"u. c #44184B",
"i. c #610F54",
"p. c #413C42",
"a. c #44394A",
"s. c #492257",
"d. c #5A2850",
"f. c #483D5A",
"g. c #692943",
"h. c #7A315D",
"j. c #4C0F60",
"k. c #6D1D6B",
"l. c #4A3A69",
"z. c #493274",
"x. c #3D444A",
"c. c #3E4657",
"v. c #424244",
"b. c #44434B",
"n. c #474B4B",
"m. c #54424B",
"M. c #4A524F",
"N. c #434453",
"B. c #464657",
"V. c #444B53",
"C. c #4A4A53",
"Z. c #4B4C5B",
"A. c #514F5D",
"S. c #43505D",
"D. c #555859",
"F. c #5D625D",
"G. c #494C65",
"H. c #4E5664",
"J. c #565B64",
"K. c #565769",
"L. c #544D76",
"P. c #6B5C70",
"I. c #596365",
"U. c #67696B",
"Y. c #6E6D6D",
"T. c #686977",
"R. c #766D7D",
"E. c #697279",
"W. c #76767B",
"Q. c #2C1782",
"!. c #381D87",
"~. c #3C1B94",
"^. c #392687",
"/. c #382794",
"(. c #342F90",
"). c #441C97",
"_. c #452C89",
"`. c #54298D",
"'. c #483587",
"]. c #57388C",
"[. c #452996",
"{. c #43249C",
"}. c #493598",
"|. c #523799",
" X c #702A85",
".X c #4527A4",
"XX c #4F35AE",
"oX c #5339A7",
"OX c #5738B9",
"+X c #6234A9",
"@X c #51518A",
"#X c #584599",
"$X c #6C4684",
"%X c #6B5E8A",
"&X c #7C7984",
"*X c #5943AA",
"=X c #5F50AE",
"-X c #5B44B0",
";X c #6B4AAD",
":X c #6D5AAD",
">X c #6449B8",
",X c #7963B9",
"<X c #5A35C4",
"1X c #765AC5",
"2X c #7052CD",
"3X c #744AE2",
"4X c #843BAC",
"5X c #8369AD",
"6X c #8C55D7",
"7X c #9172CB",
"8X c #8767DF",
"9X c #8450E7",
"0X c #8F6EEB",
"qX c #A57FF6",
"wX c #7D8091",
"eX c #858789",
"rX c #918D89",
"tX c #858495",
"yX c #8C8E9A",
"uX c #8B9299",
"iX c #929597",
"pX c #9797A1",
"aX c #A09EA9",
"sX c #9DA7AB",
"dX c #ADADB9",
"fX c #A7ACC0",
"gX c #B6BBC4",
"hX c #A783F0",
"jX c #BAC1CF",
/* pixels */
"n n n n n n n n m 2 x U V V ; U U U Q C m m O - - - - ; z - = = @ = O @ @ - @ z m n n n n n # # - @ # - - = # # 7 ; O O ",
"n n 8 n n n n n 9 2 x m n 9 - C n n n n 8 6 3 C C N B V B N V V N m - V N N 6 z m m m n n n # C C m B M B B V V V B 4 x ",
"8 7 8 8 z z n 8 z - x m 9 n - B n n n n n 7 6 N n n n n 8 8 n n m n - V 8 n 2 - ; ; 4 - - - o N n 8 9 n 8 8 m 8 8 m 2 z ",
"- - O - - - 4 1 - O x m 7 9 1 C m n n n n 7 3 N 8 4 4 n n m n 7 n n - V n n 3 6 J N U m N C - N m 8 9 9 8 m 8 8 n 9 2 z ",
"N N 4 U C C C U C 2 x m 4 n 7 U m 9 n n n m m m 8 B M n n n n 4 8 n - V n n ; z m m n n n n # 3 2 2 1 2 2 1 2 4 3 1 1 x ",
"8 7 3 B n n 9 n 8 1 x m m n @ ; # # # # 2 # 7 B 8 n n n n n m m m m - V n n 2 x m n n z n n = z z 6 z - x x z N N z - N ",
"n 7 2 B n n n n m ; x m n n - N V B N N m x 6 m 9 n n n n n n m n m - x 7 4 ; 3 n z 7 7 7 z 4 U m m m ; C m m m m m ; z ",
"8 7 3 B 9 n 9 m n 2 x m n n - V 9 n m m n 7 ; 6 1 p y y y g 1 3 2 1 O , 3 1 , 1 3 1 ; 3 ; 1 @ N n n 8 ; N n n m n 9 2 z ",
"# @ O - - # # # # @ x m 8 n - V m 1 n n 8 6 - x x / >.>.6.6.) y x z - C B B B B B N B B N B ; N n n 8 ; N n n n n n 1 z ",
"N N V N N C N V V , x m 8 m - B 8 m n n n 7 3 C M ..:.!..XOX.X6.K n z V n n n n n n n n m n # x 7 7 4 - m 7 7 7 7 z - z ",
"n n m m n n n 9 9 2 x m n n - N 8 n n n n 4 3 N z g <.~.<X3X3XXX5.A - V n n z 7 n n n n n n - ; ; 3 1 , 3 ; 3 ; , , @ 6 ",
"n 7 4 n n n n 8 9 ; ; ; - - = V n n n n n 7 3 B A | 6.OX<X<X9X6X`.} > N n n z n n n n n n m - N C N V V B V N B V V 4 z ",
"n n B 9 n n 9 1 8 7 x x N N - V n n 8 8 8 7 N N *.,.~.XX~.~.+X4X X .f N n n m m n n n n 2 m # N n 8 8 7 9 9 8 8 8 8 2 z ",
"n n n n n n 9 C 9 2 x m x 9 # z 3 8 4 4 3 2 6 @.4.7.}.!.( ^ j.k.i.i u V n n n n m n n n N n # n n m m 3 m n n n 7 8 ; x ",
"n n n n n n n n 9 2 x n 8 n @ 6 6 N 4 3 7 , 5 q.2.[.|.z.l.a.E h.h.g.G N n n n n n n n n 8 n # N n n n m 7 8 8 8 7 n 2 ; ",
"n n n n n n n n n 2 x m 9 n - U m M m m m z X.9.5.oXt.w.iXrXW E 5XP.f U n m n n n n n n n x # V n n n n m m 8 m m m 2 3 ",
"7 7 4 7 7 6 4 7 4 - x m n m - V m n n n n z *.2._.:X_ e +.D.U 1 m.M 0 H 7 6 7 7 3 7 3 7 4 7 @ N m m n n n n n n 9 9 ; z ",
"3 m 6 6 2 @ 3 4 4 - x m m n - C m 9 n n m D ) 6.}.,X) e X.&XR.p.! * 0 S 6 3 1 2 O 3 6 m z 4 @ V n n n n n n n n m 9 7 N ",
"m B m B m ; U m N 3 - - # - @ ; # # - - - , | 6.[.=X_ e P.aX&XY.n.o 0 $.m m N m - U m B m N - - - # z - - - # - - = # x ",
"8 n 9 m 7 = m n n 1 z V V N N V V V V C N x v r.6.(.e.r =.R.P.a.: * v U 8 9 8 n - U m m m n # N V V C V V N - C N V 6 z ",
"m n n n 7 2 V n n 4 m m n n n n m n n n n 7 1 -.r.:.e.1.^ g a & q w a m n n n z - p.S.Z.Z.n.x U m n n n n 8 - N m n 2 7 ",
"8 n n n 7 2 B 8 n 3 N N 8 n n n m 8 n n 8 7 3 U @X_ <.3.) e 0 u h u g J 1 7 8 n D B.k * + ; p.Z.a.B n n n 8 @ N 8 m 7 N ",
"n n n n 7 3 N 8 m ; x m m 8 2 8 8 n n n 8 4 2 -.(.>._.t.^ d r E g.d r #.m m n a.K.P > j .     $ o.b.n n n 8 - C n 8 2 x ",
"n n n n 8 z V m m ; D O.O.K N n n n n 7 7 z F y._ ( { { q.].].z.u.' ] $.m m p.Z.X.J D.b . o & . > A.n n n z - U n m 2 x ",
"- 1 - 7 1 @ ; - ; w 9.4.e.0.*.D m z x S 0.r.r.} 9.0.~ ~ z.6XhXaX5Xz.q.-.] ..L.H %.Y.Y.x.R x.Y o b v.n n n 8 7 C n n 1 - ",
"N N N C N N N N G e.oX,X1X-X(.^.r.r.r.^.(./.}.[.}.6.{ ^ ,.].+X|.z.] ..w.:.z.%X$.C.W.! n.E.F.I j M.R 8 m n 8 2 C 9 8 3 6 ",
"n n 8 n n n n m 9.oX8XqXhX0X1X}.^.(./.[.XX/./.-X/.Q.!.5.( 1.[._.| r ....9.:X%X#.b.eX! j x.Y.M.5 L N.m n n 8 - V 9 9 ; z ",
"n 3 z n n n m J 2.*X8X0X3X2X>X_.t.7.7.^.t.<.` ^.Q.~.{.[.5.1.>X,X .q Z H ` y.-.c.I.W.U.I.I.U.c   : G.m z m z - V m 9 2 z ",
"n m m n n n 4 A ` '.|.|.Q.3.3.,.,.,.,.;.;.5.4.;.7.{.{.).3.6.2X7XK & s x Z ] @.V.D.j : : ; = .   > G.n n 8 8 7 C 9 9 1 z ",
"n n n n n n M M / ) 1._ [ { } 7.).).~.7.1.#X#X6.!.{.).7.} j.:X$XE < s b n m m Q S.* . . & %.Y w #.T 4 4 4 3 - z 6 6 # 9 ",
"n n n n n n 9 8 b a K O. .<.t.XX<X<X-X'.] s. .7.~./.7.' u. .s.d.g.< u U n n n B v.V.b z %.v.P c.%.N 6 6 7 6 2 4 6 7 ; z ",
"7 8 7 8 8 7 8 7 n 1 m m O.| 6./.<X=X#X%XK.A.C.z._.^.{ u u i u E E s Y Y z z 7 7 8 V N.Z.%.m # C m N m N N m m N N m 2 x ",
"; 2 ; - - ; ; ; ; @ x n 7 &.:.e.#XL.&.H.V.b.x.b.f.q.d d $.a.a.d q Z.T.x.S , ; ; - ; ; ; ; ; O N n n n n n n m 9 n m 1 9 ",
"C C V m B B C C C 3 x m 7 D *.y.L.o.J.eXW.W.n.o j B.O.y T.sXtX@.w K.yXyXK.#.U C m B B B C C ; N n n n n n n n n n n 2 6 ",
"n 8 n 9 n 8 8 8 n 1 x m N m G.-.w = Y.T R U.F.c : G.b.F T.gXgXJ.+.#.K.tXiXJ.Y n n n n n 8 n p U n n n 9 n n n n m 9 2 z ",
"n n n n 8 n n m n 1 z 7 7 c H.... X P.c N.C.z k X.G.m X.G.sXgXI.+.H $.B.R.wX#.x 7 n n n n n - B n n 9 2 m n n n 8 9 7 V ",
"n n n 7 n n n n n ; ; 3 3 3 G.l . % T.V.W.b.. % -.B.- x L uXjXF.k x.D.A.V.N.$.m 4 n 8 m n n - V m n n B n n n n n m 2 ; ",
"n 8 n m n n n 1 n 1 x C N N B.+.. o J.E.C.n.X . w H.D D S eXdXI.P #.%.P v D M m m 8 m 7 1 n # V n n n n n n n n 8 8 2 3 ",
"n n n n n n n B n 2 x m n n C V.L   > M.R b =   : A.H y Z &XuXv.b b j R N m m n m n n m m n # V n n n n n n 8 z n m 2 7 ",
"n n n n n n n n n 7 N m n n 7 v.c.o . * 5 + *   > A.H t L pXiXP b m ; V z m n n n n n n m n # m n n n n n n 7 4 8 n 3 m ",
"z n 8 n n 8 z 8 n 2 x N 7 m 7 R B.k X . : x.b.k #.b.w y E.gXtX$.n 8 - V 8 n n n m 8 9 9 8 9 # x n n n n n m n B 9 9 7 x ",
"- 2 4 - @ - - - - O x m m 8 n n R H.#.L #.R P c.Y > w H.fXfXG.3 - - o - - - 1 3 - O - # # - @ V m n n n n 8 n n m 9 ; 7 ",
"C C C C - V V V C 4 x m n n n n 9 m $.A.p.7 1 U C U b E.jXtXN.B C B - U V V C C N ; C V V V ; N n n n n n n n n 8 8 2 x ",
"n 8 8 z # V n 8 n - x m n n n n m 7 ; V n 7 3 N 9 m S %XyXZ.m n n n - V n n 8 n 7 - C x 8 8 # V m 9 m m m 9 n n 9 m 2 6 ",
"n n 8 n # V m m n ; x m n n n n 8 7 ; V 7 7 ; m x F ..K.Z.Y n n z n - V n n n n 7 ; C n m n # - - # # 2 3 @ @ - # # O @ ",
"n n 8 n @ V 9 8 n - z 6 7 4 4 4 7 3 - z 7 ; 3 N X./ / ..X.m n 7 4 n - N n n n n 7 - C 9 8 n # N V m N C V N - V V V 4 z ",
"n m n n @ V n n n 1 ; 4 3 3 @ 4 N z 6 7 2 ; 3 J ) ` *./ A n 8 m m n - V n n n 8 8 - V 8 n z - N 8 8 n n m 7 # N n n ; x ",
"# # @ @ O - = # @ O m B m m ; U m N N N m 7 p &._ 2.{ / c n 8 n n z @ - @ # @ # @ O # 7 - # 3 V m 8 n m n 8 # N n n 1 z ",
"V x , U C C U C C 6 m m m 8 - V 9 n n n n 7 g 1.'._.3.g m n n n n n # C C V N N - U U C U C ; N m z 2 8 8 8 # m 6 7 7 x ",
"n 7 1 C n n m m 8 ; x m n n - V 9 n n n n 4 , 9.|.;X .p 2 2 2 2 1 3 3 V m m 9 7 - B z n n n - N n m B n n 7 O 3 6 6 2 N ",
"n 7 1 N 8 1 n n 9 2 x m n m 6 V n n n n 8 7 ; =.|.>X=.x z - 6 x x x 2 V n n 8 n - B n n n m - N m n 8 n n 8 - U N N 3 z ",
"n 7 3 V m N n n m 2 x m n 8 - N 4 7 7 7 7 3 6 9.^.-X} m m ; N m n N # m 7 8 8 z - m 8 n n n # N 8 n n n n z - U n 8 2 6 ",
"n 4 3 B 8 n n n n 4 N m m n # ; , 1 2 ; ; ; 3 &.r./.` z n - z m n n - V 4 8 n n - C n n n n = V n n n n n 7 - U m 8 2 - ",
"n 7 3 B 8 n n n 8 7 m m 3 7 - C N N N N N z 6 V 0.8.F m n - m m n n - V m m n n - C n n n n # N n 8 8 z n 7 - B n 7 2 z ",
"n 7 ; B n n n n n 1 x n n m - V n 7 n n m 7 x V K A m n n - x m 9 n - x 7 7 4 7 - x 7 7 7 7 @ - - - @ - 7 1 = ; - - @ z ",
"3 1 - 7 4 3 3 7 3 - x m 8 m 2 C m 3 8 m 8 7 6 m n n n n n 1 N m 8 n @ 1 ; ; - 2 x 3 - - ; 2 @ N N m - C U C C C m V 3 z ",
"3 7 z z x z z N x ; x m n 8 # n 8 B n n n 4 4 N n n n n n 4 B m 9 z - C V B m B B C 3 N U B ; N m n @ V n n n n n 8 4 N ",
"m m m m m m m m N 2 z z 7 7 - M 8 n n n n 7 4 N n n m n n - N m m n ; C n n 8 9 8 n ; 7 n n - N n n @ U 9 n n n n n 3 m ",
"n n n n 8 8 9 z n 7 2 - 2 ; = C n n n 8 n 7 m B n n n n n - N m m n 7 V 8 n 7 7 n n # m m n # V m 8 ; U n n 8 8 m 9 2 z ",
"n n m n 8 m 8 n n 2 x N V N ; V n 8 n n z 4 3 m n n n n n 3 N m 9 8 ; V 8 m z 7 n n 2 ; 2 1 @ V n n 3 V n z n n 8 7 1 z "
};
