/* XPM */
static char *WhatsApp_Image_2024_04_28_at_14_54_44__1_1714312641[] = {
/* columns rows colors chars-per-pixel */
"60 60 239 2 ",
"   c #010102",
".  c #0A0403",
"X  c #0C0B03",
"o  c #04020A",
"O  c #0B030C",
"+  c #0B0A0B",
"@  c #070904",
"#  c #130E04",
"$  c #140E0B",
"%  c #16080A",
"&  c #0C140E",
"*  c #16130C",
"=  c #1C140D",
"-  c #1D180B",
";  c #1B1604",
":  c #090417",
">  c #140B17",
",  c #141414",
"<  c #1D1512",
"1  c #1E1913",
"2  c #1C141A",
"3  c #1C1B1B",
"4  c #151618",
"5  c #0D1813",
"6  c #211B0D",
"7  c #221E03",
"8  c #231C15",
"9  c #2C1E16",
"0  c #21171A",
"q  c #251D1A",
"w  c #2B1D1C",
"e  c #231413",
"r  c #301D17",
"t  c #1C2017",
"y  c #252205",
"u  c #27220E",
"i  c #2B270A",
"p  c #262114",
"a  c #2A2415",
"s  c #26211B",
"d  c #2A231D",
"f  c #2E281C",
"g  c #28291B",
"h  c #33231D",
"j  c #39241F",
"k  c #322C1D",
"l  c #322D15",
"z  c #343113",
"x  c #39341B",
"c  c #0A0525",
"v  c #160927",
"b  c #1D1425",
"n  c #1B1B22",
"m  c #1D1B2B",
"M  c #191628",
"N  c #0D003A",
"B  c #1B0C35",
"V  c #1C0C3B",
"C  c #140339",
"Z  c #1E1535",
"A  c #211523",
"S  c #241B23",
"D  c #2A1E23",
"F  c #22152B",
"G  c #261B2B",
"H  c #2B1D2C",
"J  c #2C1429",
"K  c #311C24",
"L  c #231535",
"P  c #251A33",
"I  c #2B1D34",
"U  c #23143B",
"Y  c #251B3B",
"T  c #2A1C39",
"R  c #2A1438",
"E  c #311A39",
"W  c #220C32",
"Q  c #1E2526",
"!  c #1C2230",
"~  c #252425",
"^  c #2D2622",
"/  c #2F2923",
"(  c #2D242B",
")  c #2C2B2C",
"_  c #242429",
"`  c #322522",
"'  c #382622",
"]  c #322B25",
"[  c #31262B",
"{  c #342C2A",
"}  c #3A2E2B",
"|  c #392A27",
" . c #353125",
".. c #393325",
"X. c #36302A",
"o. c #3A322C",
"O. c #3B392E",
"+. c #2E2332",
"@. c #2C2C3D",
"#. c #292537",
"$. c #312432",
"%. c #342A32",
"&. c #392E34",
"*. c #32243B",
"=. c #352B3B",
"-. c #3A2C3C",
";. c #2D3234",
":. c #353332",
">. c #3B3433",
",. c #34333A",
"<. c #3C333B",
"1. c #3B3B38",
"2. c #2E3126",
"3. c #423A33",
"4. c #43393C",
"5. c #413B2F",
"6. c #3C403A",
"7. c #46433B",
"8. c #190747",
"9. c #190456",
"0. c #06004E",
"q. c #220F48",
"w. c #231442",
"e. c #2B1C42",
"r. c #24124B",
"t. c #2D1D4B",
"y. c #291845",
"u. c #220D57",
"i. c #251254",
"p. c #2C195A",
"a. c #2A1756",
"s. c #301E5A",
"d. c #361C49",
"f. c #2D2244",
"g. c #2F2648",
"h. c #322543",
"j. c #362A44",
"k. c #3A2D44",
"l. c #34254C",
"z. c #3B2E48",
"x. c #3D3343",
"c. c #383746",
"v. c #322252",
"b. c #35235D",
"n. c #3E2E5D",
"m. c #362B55",
"M. c #3D3554",
"N. c #1C0468",
"B. c #230C65",
"V. c #2B1667",
"C. c #311D66",
"Z. c #2B1374",
"A. c #321B79",
"S. c #230A70",
"D. c #3A2768",
"F. c #3C2678",
"G. c #453848",
"H. c #473758",
"J. c #4D334D",
"K. c #483766",
"L. c #523C66",
"P. c #412D75",
"I. c #4A3777",
"U. c #50346C",
"Y. c #3D4749",
"T. c #45434C",
"R. c #4A4647",
"E. c #484758",
"W. c #564D56",
"Q. c #4C5357",
"!. c #57585A",
"~. c #59544B",
"^. c #625D57",
"/. c #5B615D",
"(. c #4E4A64",
"). c #564968",
"_. c #585666",
"`. c #574777",
"'. c #5D5573",
"]. c #4F5563",
"[. c #625B69",
"{. c #685C74",
"}. c #654F76",
"|. c #5B6565",
" X c #5F6573",
".X c #63646A",
"XX c #6A6976",
"oX c #6C7676",
"OX c #727274",
"+X c #170081",
"@X c #26098B",
"#X c #2E128D",
"$X c #371B95",
"%X c #3D2489",
"&X c #3F239A",
"*X c #442E85",
"=X c #432998",
"-X c #4D3598",
";X c #4E398B",
":X c #4D32A8",
">X c #5338AB",
",X c #4D2FB3",
"<X c #594685",
"1X c #584296",
"2X c #6B5A87",
"3X c #685596",
"4X c #6D558F",
"5X c #74618C",
"6X c #7A7788",
"7X c #5D45A8",
"8X c #6248B2",
"9X c #6A52B1",
"0X c #7B65AF",
"qX c #6548C8",
"wX c #6F54C3",
"eX c #7F67C9",
"rX c #7A5CE0",
"tX c #887D9A",
"yX c #8875AD",
"uX c #8C73D6",
"iX c #8A74CF",
"pX c #977EE5",
"aX c #7D8789",
"sX c #918998",
"dX c #96949C",
"fX c #8A868D",
"gX c #A19C96",
"hX c #958EA0",
"jX c #9A8EB1",
"kX c #A59CB3",
"lX c #A5A3AE",
"zX c #BAB1BB",
"xX c #9EA9AB",
"cX c #C0B8B6",
"vX c #B0AAC9",
"bX c #A990F4",
"nX c #A997CB",
"mX c #C1BBCA",
"MX c #CBC7DA",
/* pixels */
"< 8 p 8 8 q 8 * ] / d ^ ] { ^ q 4.&.( [ >.5.x i y ; y 6 < > V V m t 3 ~ 2.O.g - 6 6 ; e r K w e w w q q 8 q e - p 8 8 ] ",
"f { { ] / ] ` d { ] f ^ {  .^ d { ~ q S ^ ] a 7 z i k ] b V t.8.h.) ~ t ~ g p 6 ] k h r | } K K } { ] ] X.] ^ d >.{ ] X.",
"d ] { / ] ] / s ^ s 8 q f ^ q 8 ] f ^ d ^ f d p ..] >.j.V C.*XC.f.) ) ^ s 8 8 8 o.] ` ' } } ` ^ { { ] ] { ] ^ d ` 8 = = ",
"q ^ ] d d d d 8 d q 8 q d d 8 =  .] ] ` k ] k / X.G k.v.9.;XwX-Xw.M G $.,.) d q k d 9 d ^ ] D 8 ] f f ~ ^ f d 8 1.X.] o.",
"d ] { / ^ ] / q { f d f ] { f 9 a a a a a a d D *.Y a.p.Z.>XrXwXP.J W I -.&.] w w 6 1 1 d g d 3 { ] ] / { ] f d d 8 q ] ",
"d ] { ^ / ] / s ] / ^ ^ { ] d 8 f i i u a d w S j.v.a.Z.%X,XqXwXyXL.R J *.[ H d ^ s s s ) 2./ g { ] ] ] ] ] ^ d O.{ } 3.",
"p ^ ] d d f d 8 ^ d 8 s / f d 1 ..f u a l  .] G f.b.u.Z.-X&X#X>X4XU.E R E J S H { ( d /  .2.2.~ / / f ^ / ^ d 8 8 = * 8 ",
"d ] { ^ ^ ] ] 8 { ^ f / ] { ^ q o.f 8 u x  .^ F B v.8.B.1XA.0.F.U.y.W d.*.G 0 H { / g g 2.2.t t { ] ] ] ] / ^ d ] s 8 s ",
"d / ] ^ f / ^ q 8 < - 8 8 8 = = { ^ 8 p a d d S j.B C <X;XN N U L.d.d.d.j.G.D [ X.] / 2. .2.2.~ d / / ^ ^ f d s o.o.o.X.",
"8 d f d d d q 1 { ] ^ ] { { / d =.%.] ] x k f D z.t.8.v.K.'.{.F }.2XJ.E E J H 0 q 1 1 t t t , * / ] ] ] ] / ^ ^ / ] / ] ",
"] o.o.{ { o.{ f { ] ] ] { { ] ^ H H w f x x g q I T v.H.H.sXcXW.J.yXL.I E H &.2 w 3 p t s t 3 1 ^ d / / ^ d s w ^ d ^ d ",
"q / ] ^ d / d 8 ] ^ f ^ ] ^ d w b b 1 u l l f D h.V I.2X> 2 ^.a > {.G F -.D 3.e X.] / ]  . .] ^ ^ ^ f / / d ^ d ] ] ] ] ",
"d ] { ] f ] ` s ] / / ] ] ] ` ~ +.G 8 u z z l ( e.C <X0X: o ~.4.q z.o > %.< { < ] k h ] ] ] K w / ] ] ] ] ^ / f ] ] ] ] ",
"f { { ] ] ] ^ d ] ] ^ ] ] ] ^ ~ =.[ q y i i p A V C ;X3X8.z.cXgX.Xc.o ~ X.<  .d d d a d ' K D q d s d d d q q 8 ] ] ] ] ",
"$ < 8 = = 1 * # / k ^ f ] ] f w $.^ p y i i 8 b D.9.%X-XN d.hXOXOX( 5 o.) g O.p ] f h h | ' K w q 8 q q q 8 8 < ] ] ] ] ",
"f { { ] ] { ] d { { ] { {  .] ^ ( ^ f z x x  .+.n.8.F.1X9.8.5X{.T.  $ ,.q X.o.# k h d ' [ | K K ] ] ] ] ] ] f ^ ] { ] { ",
"d O.d ] / w { 8 8 < 8 8 # 6 p $ [ ( g l z z z f F L r.p.p.i.r.y.> J . 3.J >   < 7.* ^ <.S ( I [ { ] ] / f d d s s 8 8 = ",
"d o.d ` ^ 0 ] < f q k f 6 a k 6 D D 8 u i y 7 6 %.F B r.p.i.8.C v R O A K &.<.,.3     O F $.$.> { ] / ^ d d 8 s / ^ d q ",
"d O.d f d 1 ^ * ] ^ { k a k  .s q q 8 u u u 8 1 x.Y V r.D.s.8.c J.J.E > *.%.<.+   _ @ o O O $.A ^ ^ ^ d w q q 8 { ] ^ d ",
"d o.d ` ~ 8 ] = ] ^ { ] p ^ X.q ( ( ` { ..X.{ ( T V 8.a.C.p.r.q.d.R W v z.%.W.n   Q.3 O o   %.( ^ ] / d d s q q ] f d s ",
"8 o.d ] ` s X.8 ] f ] ] q / X.q -.%.$.{ { $.*.e.w.8.i.i.8.i.U.2X).w.B L g.m Q.;.Q !.@ o 4 + =.3 [ ] / ^ ^ f d d ^ f q q ",
"q } d / ] d o.d ] / X.[ w ] X.D -.*.I G P Y y.r.;X*XF.u.9.i.3XnXvX5XK.H.g.v Y.! .XoX1.Y.,.5 ) _ ] / ] / ` d ^ ^ ] ^ d d ",
"q } q ` f q ..8 ] ~ { ] w ( &.G g.t.w.Y t.b.D.*X9X8X=X#XN.B.<XyX0X`.g.K.g.E. Xc.aX|.|.oXQ.5 3 :.( ^ f ^ ~ f d d ] / d d ",
"w :.s f d 8 k - h d ] ] 0 ( %.L v.v.p.b.P.1X9X9XqX>X:X%XS.9.u.s.a.8.c m.w. X XM oX5 Q |.Q.;.4 t d d d d d d d d / d d 8 ",
"2 < < 8 p 8 - # 6 9 < 1 ( F > v r.B.1X0XeXuXuX,X,XqX,X$X&XN.9.I.<XC d.v g.6X].Y.xXQ.6.oX/.~ 4 ) = * < s d 8 $ # 8 8 q 8 ",
"&.{ [ { X. .k p o.3.o.<.G.x.+.n.P.7XiXbXiX8X=X@X+X@X@X$X:X#XV.3XyXC y.Y v (.|.Q.gXoX|.|.6.4 , t { d ^ o.o.] d d { X.o.o.",
"{ ( ^ ] ] { a 8 d ] d G -.( Z t.7XuXbXbXeX%XN.@X@X@X@X&X=XZ.V.1XiX> v G.: M ].Y.5 5 5 & @ t :./  .( g ] { / d ^ d d d d ",
"D S 0 s k k l u f ] ^ ( =.I L K.iXbXpX9X-XB.9.A.8X&X$X&X%XB.C.3X5Xv : G.M 5 c.t t @     @ 6.<.* { s d f / d w f / ] / ] ",
"&.[ ^ ] .. .l k  ...] %.k.I g.`.bXbX9XZ.u.p.i.C.1XF.D.%XD.V.D.2XJ.d.e E <.{ 2.t 6.5 @ @ , ^ [ $ >.{ ] { X.] ] X.{ { ] ] ",
"<.[ ~ d d a 6 ; d k w +.*.Z Y <XbXpX1Xp.b.`.`.K.`.D.F.D.a.q.t.t.E J.J > %.4.3 s t @ @ - $ < D D } d s f ^ d d ^ ^ / k ^ ",
"$.D 0 0 9 6 6 ;  .] ( %.=.L v.3XuX7XF.D.K.).[.'.).E.L.D.V U y.: J K J.D q } * t O. .6.O.w w ( q d 8 < q q 8 < 8 o.o.o.o.",
"%.[ d k  .5... .8 0 1 S F v Z 2XyXD.u.H.g.M -.G.G.z.H.g.v M.`.z.K % .XW.0 { # 1 g d g f | R.4.e } / / { X.] f / < 8 1 < ",
"a p 8 p k k 9 8 ] ^ $.%.+.G k.(.`.g.r.N c ].jXhXXXm #.Y.c c.kXaXg.Q sXxX<.) ,.$ / ^ ` ` ' ' r r w 8 8 d / d q q ] ] ^ d ",
"..l f k k ] f 0 [ ( [ %.$.H %.H.m.Y c.! c ]._._.6XE.M.M.c M.vXvXg.! 6XxX6Xx.b <.[ ` ` h ' j r r o.` ` { { f d d X.X.X.] ",
"l l a a k ] d q ] ( ( $.%.+.%.j.Z Z M.#.: ].! c._.T.c.@.c c.vXMXE.@.#.(.dXXX2 <.[ ` ` ' j r r r ] ^ d ] { ^ d d ] ] ] ^ ",
"p 6 6 p k ] ] ~ [ ^ ~ [ %.$.( G M Z Y.c o XX_ |.n 4 : ! M ! 6XMXE.Y.! ! OX6X_ > [ ` ` K j 5.' r q 1 8 f ] f d ] ] ^ f d ",
"a p 6 f ] ..{ / [ [ ^ ( %.+.( b _ P E.:   OXR.fX4     @.,.M XXMXc.c.'._.R.R._ < [ ^ ` ` j 5.r r d q q ^ { ] ] { X.{ ] ] ",
"k d 8 d h k s 8 [ [ [ G ( %.( n #.#.!.O + !./.OX;.@   ,.,.> [.mX_.n T.Q.4 , q ) [ ` ` h j K r r ] d w f ] d 8 q { { ] ] ",
"k a 8 a d d q < [ o.{ ^ ( %.[ G ;._ ^.+ @ ^ ~.R.^ * @ ,.n : .XlX X& 4 n > 3 ( ( ] ` ` ` ' ` r r ] q q d ^ 8 1 8 f / f d ",
"] d d k X.X.[ d ] :.%.~ D [ { ( %.D ^.      ~.8 X # 0 >.> 4 OXsX4 3 ,.( ) T.^ * [ ^ ` ` ` | r r ] d f ] o.] f ] X.{ ] ] ",
"f / ] ^ / { ^ q 0 8 0 < 2 q 0 < :.{ s * X . X #   * ) q # . gXlX2 3 2 , < 1 1 $ ` w ] X.h h h = { ] f ] / f 8 8 s q 1 < ",
"~ ] ] ^ / { ` 0 ^ ] ] D D [ [ 0 / ] X.] g - # . X s { w > J.zXtX) { / ^ ( [ ) w } ^ { >.k ] | q X.{ ] { X.[ ^ q ] ] d w ",
"e w q q w ~ q < [ { ] ^ ^ { [ ~ 8 d f h d 7 #   - ] [ D 0 dXMXW.%.o.{ / / { ] s ] q d ] d d f < d d d ^ / / d 8 { ] d q ",
"3 w d 0 0 d q , ] [ ^ ~ ^ ] ] w o. .] k k f a a a ] ^ [ D zXmX$.] { / s d f d 8 d < q d 1 8 w $ 8 8 8 8 s 8 8 = ] / d 8 ",
"^ { { ( [ } [ w [ ] ] d ^ { [ w { d 6 = 6 9 a 9 } d D 4.H kXsXA ] ] k w d h d 8 { s / ) q d / 8 d d f ^ ] ] d q X.] ^ s ",
"[ { { [ [ &.] s w ^ ~ q q ^ ~ 8 e = ; e 8 8 = # 3.^ %.%.G.OX).J ~ h d 9 d h f 8 ..f /  .d / { s ] ] ] [ { ] ^ d f d q 8 ",
"D ( ( ^ ^ [ ~ 8 q w 0 1 8 d q = } ] ' o.3.5.X.f &.D 4.2 G.L.*.G q 9 6 6 8 d a 8 o.p d / t d / 3 ] ^ f ^ / f q 8 q 8 1 = ",
"^ ] [ ( ] { ] 8 ( / ^ w d ] ` 8 { f 8 a k | ` w ( H G.O j.G.F F q d a e a ] ` 9 o.d ^ / s d / q ] / ] ^ / ^ q 1 f d q 8 ",
"q ] { ] ^ ^ ^ q X./ ^ / { { ^ s ) ^ s d ] { ] H P B l.Z l.B I b | ] f d / o.] q ] d d f < 1 d 8 ] / ^ ] { o.] ]  .] / d ",
"q ^ ] f d ^ d 8  ./ d ^ ] ] ^ q } [ ^ ` ] { ( I *.V t.8.l.L *.A { ] d s / X.] 8 >.] o.o.d ] o.] ] ] / ]  .{ ] f [ ] f d ",
"f { X.] ] ] ] w ] d d ^ ] ] f q [ ^ q 8 d d S b l.V t.w.e.Y j.G ^ ^ w q d ] ^ 8 ] q d ^ 8 8 ^ 8 s q 8 d d d q 8 f d d 8 ",
"~ ` ] d d ] ^ 8 / ^ s d ]  .^ w ^ ~ 8 q p w A b l.y.n.K.w.P j.( ( ] f w d ] / 8 o.d ] ] d ^ { d s q 8 d d s q 8 ] / d d ",
"8 q 8 1 8 d q = ] f d ^ { { ` ~ { ^ d d ] { [ ( h.d.).`.Y P =.D ` { ] d ^ { ] d ] 8 d ] d ^ ] 8 { { ] ] { { k d { { ] ^ ",
"/ / d 8 d ] ^ 1 ^ d w d ] ] / w [ d s d ] { ) I h.e.`.2XL T -.S q s d 8 8 q q - 8 * = 8 = 8 8 #  .{ ] { { { ] d 8 s p s ",
"o.X./ d ] o.{ d d q 8 q f ] d q ^ ~ s p d h w S h.Y H.{.B =.<.2 1 q d 1 8 8 8 1 o.d ] o.{ O.>.d ] / f ^ ^ f d 8 8 q q d ",
"] ] d q d ] / 8 8 1 = 8 d d q 8 } { d f k ` ~ S k.v t.'.v <.4.< [ o.o.] ] { { ] { 8 d ] ] } { 8 { ] ^ / ] / d q { o.o.o.",
"f ] ^ d ^ { ] d o.o.X.X.o...] ^ q q e d ] ] / D =.T f.T b ( } d X.d ] ] q d f 8 d d d / o.{ d 8 { ] k ] ] ] d d / / ] ^ ",
"^ ^ ^ d f { ] d X.] ] ] { { / d ^ ~ a l x  .] ~ =.T T I F ( { 8 X.d ] { 8 s ^ 8 ] ^ ^ ] { X.] p { ] / ] ] ] / s / ] ] ] ",
"^ ] ^ d ^ ] ] s ] ] / / ] ^ d q { ^ w p f l f D =.T *.T A ^ o.p  .d ] ] q d ^ 8 o.] d d / / d q { ] ] ] ] ] d d ] ] ^ ] ",
"^ ^ f d f { ] d ] ] ^ ^ / ^ d 8 { f 6 - 6 8 e 2 =.+.*.+.S ]  .6  .d ] ] 8 s ^ 8 { d 8 = 1 8 < = { ] ^ ] ] ] ^ a f ^ ] / "
};
