/* XPM */
static char *c8b6c9d3c3954243e9c47e24fe549fefRz4uZLdpJ1JOobCt[] = {
/* columns rows colors chars-per-pixel */
"60 60 228 2 ",
"   c None",
".  c #010203",
"X  c #0B0002",
"o  c #000905",
"O  c #01030B",
"+  c #0A030B",
"@  c #050A09",
"#  c #110002",
"$  c #180109",
"%  c #010114",
"&  c #0B0014",
"*  c #01011B",
"=  c #0D001B",
"-  c #020B16",
";  c #180014",
":  c #2E0009",
">  c #000123",
",  c #0D0023",
"<  c #01012C",
"1  c #0A012B",
"2  c #030A25",
"3  c #170024",
"4  c #020033",
"5  c #0C0133",
"6  c #01003B",
"7  c #0A003C",
"8  c #000938",
"9  c #160F37",
"0  c #240026",
"q  c #341034",
"w  c #29253E",
"e  c #67111E",
"r  c #53201F",
"t  c #500F33",
"y  c #690D26",
"u  c #020044",
"i  c #0A0043",
"p  c #00004B",
"a  c #0B004B",
"s  c #000D46",
"d  c #160747",
"f  c #010054",
"g  c #0D0052",
"h  c #00005B",
"j  c #0F0A5E",
"k  c #12055D",
"l  c #181859",
"z  c #0A1555",
"x  c #25194D",
"c  c #240058",
"v  c #29195A",
"b  c #330B54",
"n  c #1D2353",
"m  c #3D335D",
"M  c #2E2354",
"N  c #000063",
"B  c #00006B",
"V  c #0E0D6A",
"C  c #070669",
"Z  c #170567",
"A  c #060478",
"S  c #11047C",
"D  c #121967",
"F  c #291966",
"G  c #321767",
"H  c #350F7D",
"J  c #291976",
"K  c #331679",
"L  c #260970",
"P  c #1C2060",
"I  c #262363",
"U  c #363566",
"Y  c #3B2973",
"T  c #30266C",
"R  c #51094F",
"E  c #473756",
"W  c #44205D",
"Q  c #7D2E5B",
"!  c #41187E",
"~  c #6C1F71",
"^  c #432B76",
"/  c #43337A",
"(  c #413567",
")  c #773261",
"_  c #3B4B77",
"`  c #4D4D5B",
"'  c #464C57",
"]  c #485158",
"[  c #4A4850",
"{  c #6B4654",
"}  c #474D67",
"|  c #445363",
" . c #4B4D77",
".. c #514F6E",
"X. c #737B7E",
"o. c #85333F",
"O. c #902E4E",
"+. c #992B68",
"@. c #7C847D",
"#. c #180587",
"$. c #361785",
"%. c #2F1B8D",
"&. c #3B2B89",
"*. c #3C368A",
"=. c #3B2A98",
"-. c #342F8B",
";. c #3E1DA8",
":. c #3625A3",
">. c #461C9B",
",. c #411A8D",
"<. c #601993",
"1. c #462A8A",
"2. c #4A3386",
"3. c #4B2493",
"4. c #462C94",
"5. c #44249C",
"6. c #482798",
"7. c #453197",
"8. c #461EA6",
"9. c #461DB7",
"0. c #4C24AC",
"q. c #4926A5",
"w. c #4924B5",
"e. c #5622A0",
"r. c #673AB9",
"t. c #633FAD",
"y. c #344885",
"u. c #574686",
"i. c #594B9A",
"p. c #5C5195",
"a. c #664A95",
"s. c #797C9A",
"d. c #6B7191",
"f. c #5C44AB",
"g. c #5B4CA6",
"h. c #5E53A7",
"j. c #5B47B4",
"k. c #544DAF",
"l. c #664AAD",
"z. c #6245BC",
"x. c #6648B7",
"c. c #7941AC",
"v. c #6B7EB7",
"b. c #727EB9",
"n. c #6D7CA4",
"m. c #5B3ECC",
"M. c #733CCA",
"N. c #6B39D4",
"B. c #6E3BD1",
"V. c #6939E5",
"C. c #5846C4",
"Z. c #6647C6",
"A. c #6B41D4",
"S. c #6753CF",
"D. c #5E6DCD",
"F. c #6B7EC8",
"G. c #6169D8",
"H. c #847EAC",
"J. c #817CA4",
"K. c #867BB7",
"L. c #8A79C8",
"P. c #967CCB",
"I. c #8979D4",
"U. c #967AD9",
"Y. c #A07BD8",
"T. c #967BE4",
"R. c #9776EB",
"E. c #9876F5",
"W. c #986EFE",
"Q. c #A471FA",
"!. c #7C8688",
"~. c #7B8599",
"^. c #7B8BA3",
"/. c #7787A8",
"(. c #7C85B5",
"). c #7787B7",
"_. c #6C80BA",
"`. c #6E87CA",
"'. c #7384CA",
"]. c #7886C6",
"[. c #768CD1",
"{. c #84878E",
"}. c #898B8C",
"|. c #87888B",
" X c #858A93",
".X c #83849C",
"XX c #898699",
"oX c #879098",
"OX c #9E819D",
"+X c #8589A7",
"@X c #8688B4",
"#X c #9FB6AE",
"$X c #B5BBAE",
"%X c #AEB5BA",
"&X c #ACBABC",
"*X c #AAB8B5",
"=X c #B2B3B5",
"-X c #B4B4BB",
";X c #BAB4BC",
":X c #B4BABE",
">X c #B8BAB9",
",X c #BAAEB8",
"<X c #E68694",
"1X c #D893BF",
"2X c #EC80A2",
"3X c #CAAEBD",
"4X c #9287C9",
"5X c #ADB8C4",
"6X c #B4B6C2",
"7X c #BAB6C5",
"8X c #B4BAC2",
"9X c #B8BAC6",
"0X c #A7B5D4",
"qX c #B1BCD2",
"wX c #9885E6",
"eX c #CE9FFF",
"rX c #E09FFF",
"tX c #C4AEFF",
"yX c #CEAAFB",
"uX c #D5AAFF",
"iX c #C9B6FE",
"pX c #CFB1F1",
"aX c #B4C3C5",
"sX c #C3C2C0",
"dX c #EDF6FB",
"fX c #F4FCFD",
"gX c #F7FAFD",
"hX c #FFE7F7",
/* pixels */
"                                                6 I K 6.8.q.N B                                                         ",
"                                                  4 J 0.w.W.Z.=.B                                                       ",
"                                                  6 $.9.V.V.W.Z.:.A                                                     ",
"                                                6 F 0.V.V.V.B.eXZ.q.B                                                   ",
"                                                u J 9.V.w.8.B.M.rXc.6.B                                                 ",
"                                              f J 7.m.;.Z Z e.<.R ~ c                                                   ",
"                                              p %.5.j.Z < , b R +.t 0 j                                                 ",
"                                            p J 5.j.*.4 * & R Q 2XO.q l                                                 ",
"                                            f H 3.U.i 0XdX:XX $ o.: hXd                                                 ",
"                                          f $.3.U.a 4 > qXdX$XX r hX3X> A                                               ",
"                                          u $.3.tX7 5 > * & . X X X X > V                                               ",
"                                        u P =.6.tX4 4 1 , XX-X. . }.+ * V                                               ",
"                                        p I &.6.wX7 1 * .XfXfX*X&X!.O > V                                               ",
"                                          p J 1.U.a 5 * .X8X. @ &XO * 4 C                                               ",
"                                            p F 4.f.a 4 > .X6X!.O % > z                                                 ",
"                                              u f 4.g.i < * % & ; & 9                       F.).'.'.F.                  ",
"                                              D.u 4 i / m * * = : q , 4                   b.* O * * * ^./.].            ",
"                                              D.4 ( u.7 5 x M 3 ) 1X& U u               b.2 . . . O . o . * ].          ",
"                                              4 n U 4X/ i i i 5 t t & > u             )..XO . -X@ . . . o O % ).        ",
"                                            6 < 4 4 4 6 4.l.l.a.3 ; = U D           /.% O + 7XO . . . . . . o /.        ",
"          f f h N                       N f i / i.u 4 x x.R.iXtXyXpXa.7 I.V C     (.* O O %X;XO O O . $X. . O ).        ",
"        h g.h.g.k.h h G.        G.N h f k.g.u I.Z Z < < K x.U.4XP.P.a.7 1.tXf u 4 +XO !.&XaX+ ;X;X%X:X. . . .X          ",
"      h C.T.U.U.T.x.j.N N h f h N C.C.S.j.k wXZ $.K G F i Y v 7 7 5 , > u -.p i.@XH.` O @ #X. . @ -XO O >X. +X          ",
"    N k.R.E.uXuXyXR.R.x.f.l.g.i.j.z.C.=.g T.j.Z H 3.3.K 6 v 2.a.a.9 w >   p u p.4XH.% . *XaX. . . . 7X7X. O * ).        ",
"    h j.R.Q.Q.M.B.A.r.3.1.^ ^ Y Y ^ ^ i 1.l.Z K 5.0.8.q.F 6 4.T.L.1 w >     6 U p.4 .X[ !.&X8X%X:X=X=X@ . . . (.        ",
"    f g.t.r.r.0.0.8.6.g a i i 6 5 5 5 7 i g c $.0.;.w.>.F i j.R.iX* & <     p 6 p   > oX` O O . . . . . . . - n.        ",
"    u / 2.1.2.i i a g K K K J J v 6 4.x.a.i ! >.8.w.;.$.G i z.R.pX; ; 1               /.% + @ . . . . O O % > ].        ",
"    p 6 u u u l T F K ,.6.5.:.=./ 6 f.T.P.d H q.q.5.K F 5 ^ l.Y.0 : { ,               '.< & . . . O +X@X* > b.          ",
"              u l T 6.M.N.N.A.z.i.5 4 4 4 F $.q.6.1.v , OX; ..3 O.<X$ % u               F.(.% + % /.    `.'.            ",
"                p F $.8.N.A.z.L.K.J..X+XM v J 4.1.G = X # { = ; y e # ] >                   4X/.).                      ",
"                  u K H 5.f.K.> ` + [ O ~.@XH.v G W $ { $ + & E ; $ O oX` >                                             ",
"                  f J F 2.K.* . |.@.. {.O % % +Xv , & # |.{.XX% E % ] !.}.` 4                                           ",
"                    f I H..XO :X%X8X5X6X` + + O H.< d.*  X8X-X{.O . [ aX=X8X~.<                                         ",
"                      /.% O . =X. O O 6X,XX . % (.    < ~.%XgX X[ O O ` }.:X&X^.4                                       ",
"                    ).O . . . >X. . *XO @ >X. * '.    s ~.:XgXs.} s.d.% O ` ~.qX^.8                                     ",
"                    /.. . . . >X. . :X. . . . ^.        * X.gX.X} > > } ` . ..~.0X4                                     ",
"                    ).O . + O 7X. =X8XO . . . ^.        > oXgX{.' O '  X}.@.!.% 6                                       ",
"                    v.* . . % 7X;XO 7X. . . . * [.      > {.gX}.] ] | } * * * <                                         ",
"                      ].% . . O 6X. . sX. . . * ].  p d * {.:X!.' * < 6                                                 ",
"                        ~.. . . O -X. . . . . * ].  4 m %  X%X] >                                                       ",
"                        /.. . . . . . . . O . * '.  < 9 O 9XdX| 4                                                       ",
"                        v.- . o . O % +X^.* * ).    > O  XdXaX_                                                         ",
"                          [./.* % 2 ).    `.`.      > |.>XdX .                                                          ",
"                              ].)._.                > *XgX5Xy.                                                          ",
"                                                    > *XfX}                                                             ",
"                                                    > :X~._                                                             ",
"                                                  > ' .Xu.V                                                             ",
"                                                4 * }  .j                                                               ",
"                                              f *.4 > <                                                                 ",
"                                              p k h. .4                                                                 ",
"                                            f p 7.J 6 6                                                                 ",
"                                          N -.&.Z Z u                                                                   ",
"                                          N *.T.5.S.A                                                                   ",
"                                            f T.Z.S                                                                     ",
"                                            S z.R.#.                                                                    ",
"                                            N z.E.S                                                                     ",
"                                            N =.j.S                                                                     ",
"                                              h j.N                                                                     ",
"                                              N h                                                                       ",
"                                                                                                                        "
};
