/* XPM */
static char *d153759bbaef4212fcf658371252440ayEBwRdbGaG3h5IYh[] = {
/* columns rows colors chars-per-pixel */
"60 60 256 2 ",
"   c #030501",
".  c #140001",
"X  c #0E130F",
"o  c #290301",
"O  c #380003",
"+  c #370418",
"@  c #311210",
"#  c #193C00",
"$  c #12290F",
"%  c #2F2F0E",
"&  c #061838",
"*  c #0D0F2F",
"=  c #341530",
"-  c #0D2A30",
";  c #322C31",
":  c #50090B",
">  c #6B0719",
",  c #4D2F10",
"<  c #6A2D12",
"1  c #570636",
"2  c #4D0C2D",
"3  c #64033A",
"4  c #700E2F",
"5  c #4B322D",
"6  c #69332E",
"7  c #1B4502",
"8  c #174C0D",
"9  c #244B00",
"0  c #294903",
"q  c #374A06",
"w  c #2B5302",
"e  c #2B5A02",
"r  c #2E5B0B",
"t  c #285406",
"y  c #335503",
"u  c #335B03",
"i  c #32550B",
"p  c #345C0B",
"a  c #3A5E0C",
"s  c #3B5705",
"d  c #384917",
"f  c #2D5616",
"g  c #355C14",
"h  c #395D13",
"j  c #385817",
"k  c #2B4B18",
"l  c #366302",
"z  c #35620E",
"x  c #3B620D",
"c  c #3B6708",
"v  c #356312",
"b  c #3C6413",
"n  c #3C6A14",
"m  c #3C641A",
"M  c #3E6A1B",
"N  c #366519",
"B  c #3D7419",
"V  c #30680D",
"C  c #375726",
"Z  c #274B37",
"A  c #345539",
"S  c #2F4F2C",
"D  c #3D6824",
"F  c #386635",
"G  c #366924",
"H  c #424907",
"J  c #425907",
"K  c #454918",
"L  c #4A5A18",
"P  c #53581A",
"I  c #594809",
"U  c #44680B",
"Y  c #566905",
"T  c #47740C",
"R  c #426414",
"E  c #426A14",
"W  c #42651B",
"Q  c #446C1B",
"!  c #4B6D1C",
"~  c #4A6619",
"^  c #536A1C",
"/  c #4B7214",
"(  c #44731C",
")  c #4B731C",
"_  c #487719",
"`  c #54791C",
"'  c #59730B",
"]  c #657513",
"[  c #485A26",
"{  c #555928",
"}  c #495838",
"|  c #565835",
" . c #53472B",
".. c #64582A",
"X. c #6F4E33",
"o. c #446B23",
"O. c #4A6D24",
"+. c #466728",
"@. c #556927",
"#. c #457223",
"$. c #4C7423",
"%. c #4D7A24",
"&. c #4C732B",
"*. c #4D7A2A",
"=. c #447829",
"-. c #527424",
";. c #537B25",
":. c #52752B",
">. c #547B2B",
",. c #5A7D2C",
"<. c #597726",
"1. c #486835",
"2. c #586736",
"3. c #4C7736",
"4. c #547C33",
"5. c #5A7D33",
"6. c #567837",
"7. c #666A28",
"8. c #64762A",
"9. c #676A35",
"0. c #677835",
"q. c #757237",
"w. c #6C5411",
"e. c #07194A",
"r. c #161645",
"t. c #041A57",
"y. c #101253",
"u. c #361449",
"i. c #162649",
"p. c #012759",
"a. c #13275B",
"s. c #133550",
"d. c #2E314F",
"f. c #041963",
"g. c #051A77",
"h. c #10136E",
"j. c #152B66",
"k. c #102772",
"l. c #2A2D6D",
"z. c #241372",
"x. c #4D0E45",
"c. c #670645",
"v. c #760357",
"b. c #6E0F50",
"n. c #4E2D53",
"m. c #682E66",
"M. c #3A5A57",
"N. c #304E4C",
"B. c #37664A",
"V. c #314D6A",
"C. c #1D4271",
"Z. c #4E5650",
"A. c #71574E",
"S. c #576948",
"D. c #577947",
"F. c #597958",
"G. c #4B6D50",
"H. c #687A45",
"J. c #706E4A",
"K. c #4C5570",
"L. c #675479",
"P. c #4C6769",
"I. c #52706D",
"U. c #6F7771",
"Y. c #8B0A37",
"T. c #80313B",
"R. c #8B4936",
"E. c #977132",
"W. c #87034F",
"Q. c #8B374F",
"!. c #95524D",
"~. c #88784D",
"^. c #AE6858",
"/. c #B05375",
"(. c #B7746B",
"). c #9D5A5E",
"_. c #C57F75",
"`. c #58851D",
"'. c #4C8116",
"]. c #6A831A",
"[. c #4C8127",
"{. c #5B832D",
"}. c #588428",
"|. c #5C8433",
" X c #5B843B",
".X c #588737",
"XX c #588E30",
"oX c #648829",
"OX c #628633",
"+X c #648C34",
"@X c #62843C",
"#X c #648B3B",
"$X c #6A883B",
"%X c #6C943B",
"&X c #679438",
"*X c #729030",
"=X c #68A229",
"-X c #5B8347",
";X c #59854F",
":X c #648B42",
">X c #678745",
",X c #768845",
"<X c #6B9443",
"1X c #699547",
"2X c #749947",
"3X c #718D57",
"4X c #77A44E",
"5X c #748F70",
"6X c #8A942E",
"7X c #8A9A2B",
"8X c #88945B",
"9X c #8A8B53",
"0X c #87AA5A",
"qX c #9BAD59",
"wX c #A9B64D",
"eX c #969768",
"rX c #AD9370",
"tX c #94AA6C",
"yX c #ADAF75",
"uX c #B0975B",
"iX c #C1AD7A",
"pX c #DA9C78",
"aX c #A1C457",
"sX c #CAD15F",
"dX c #051B8A",
"fX c #10288B",
"gX c #1D319B",
"hX c #7277A8",
"jX c #585D8A",
"kX c #36358B",
"lX c #AF7796",
"zX c #B05784",
"xX c #C67287",
"cX c #6A8A84",
"vX c #8B8E85",
"bX c #A89397",
"nX c #B0B28E",
"mX c #9E9CB1",
"MX c #D29483",
"NX c #CDB58C",
"BX c #F0AC91",
"VX c #CEABB1",
"CX c #E4B2BB",
"ZX c #B3C48E",
"AX c #CAC891",
"SX c #CFD0AC",
"DX c #EFD3AB",
"FX c #EEE4B1",
"GX c #E1D09A",
"HX c #A7A0C1",
"JX c #F1D2CE",
"KX c #FAEED3",
"LX c #FDDAE7",
"PX c #FFE2E8",
"IX c #C9D2C1",
"UX c #D0BFD5",
/* pixels */
"Q $.$.#X#X{.>.7 b ;.$.$.#X{.Q |.$.>.%.# 1X>.9 #Xo.b &.g 4.M  X.XD .X|.5.,.s w }.c B B n b O.0.0.,.p ,.Q ) p {.x #X;.) ) ",
",.,.Q $.Q ! OXb $.,.$.Q Q Q b n {.%.Q w 2X:X9 M ,.Q $.g N g t r g D h h ~ y y {.e n B B z i q 0 R w R w p 9 x w $.i b <X",
"#X|.Q Q p b #X>.E Q -.Q a E Q p >.#.b M ,. Xw h $.b $.M g >.9 g g j q q ~ L E +X%X&X[.V w R 8.$XR Q ) a ;.E $.>.Q w 0 y ",
"|.{.Q $.E b ,.E i x ,.,.b $.,.p Q Q b *.9 M h >.b w R $.b 2Xp :.+.[ K P @.@.^ ;.c _ _ ( $.,.$X$XR ;.Q p $.E b >.p Q E 9 ",
">.$.b >.>.$.{.a Q Q |.,.x Q ,.b #.#.n |.9 z Q ;.y w a ! a $Xa @.2.{ ..9.9.7.P s u c ( ( %.,.<.<.! OX$.b b i 9 b b b R $.",
">.R w $.>.$.#XQ $.Q $.Q p b >.|.|.*.b |.$.) ) i y a s ! R ^ ^ @.9...A.J.....{ J @X|.[.B n / ^ ^ ! |.:.>.Q Q b $.2Xi # R ",
">.Q i $.$.Q OX$.$.$.! $.$.b Q <X X4.b #..Xn $.y x ,.R ^ <.s $X7...6 X.X., I q.q.s Q %.[.%.E y # i b W |.i Q W $.4X$.p Q ",
">.$.E ,.$.x >.Q ,.#X|.#X#Xp 9 -.%.{.n p >.7 >.$.>.2X^ ^ 8.# q.P , , , : o , ~.9XL ~ n c n ) ` ) $.&.,.2Xi Q Q b 9 >.@Xp ",
"|.b b y {.p >.2X|.,.>.>.$.$.|.<X$.%.*.$.#.Q b r Q i q ^ 7.P H , , O R.: < X., K @.@X,.z u ) ) s @X<Xg 0 >.g # N g N m g ",
"<XQ b b ! b >.<X-.$.>.>.$.Q $.,.>.) Q =.>.=.p 9 i i L 9.9.P % o X.!._.(.JXDX< ..H.@X5.#.n x R R w 5.o.w >.:X|.@XO.&.&.&.",
"Q w b <X,.,.>.$.Q Q $.$.b i a Q E w 9 n |..X*.O.0 j @.9.q..., o R.^.^._.JXDX6 ..2.+.&.4.&.a a ! Q @X XW j O.o.i o.O.O.o.",
"E w E 0X,.#X>.a $.) Q Q a i b $.+XQ z n M r r m j +.2.| 9.J.A.6 ).R.!.^.^.MXA. .K d D 4.|.:.O.-.:.g o.:.h i h g O.o.m g ",
"<XQ b <Xi $.>.E ) Q ) $.) Q Q $.) / ) %.b 9 t +.1.2.|  . .A.A.X.MXBXBXBXMXDXrXJ.| 1.+.+.5.:X@X:.@Xj o.5.m o.4.o.5.4.&.o.",
"|.b b >.R >.,.$.p p b $.>.) b x 7 u %.}.%.#.&.6.6.S.} 5 5 5 5 : < (.R.R.pXMX6 5 J.S.+.f j :.6.O.>X@X:X&.j 4.@Xi :.&.O.o.",
"b i E $.#X,.>.E Q a p Q >.-.Q x / }.+X}.*.*.D f 1.}  .5 5 + + O O R.< < (.R.,  .| [ C C j j j W j o.:.o.m  X1X&.O.W h j ",
"|.$.$.i |.R E x 2X>.R Q 5.@X@X{.+X&X`.U %.1XD.S B.N.; u.2 + + + O : R.!.!.O : ; $ $ Z F.G.d d @.j j O.6.:.o.&. X5.&.m g ",
"0X$.# 2Xa ) E oX! R s :.2X:.q Q aX=X*XJ c &.5XN.C.p.f.l.b.1 + . o O : : > 4 + n.d.i.s.N.M.U.U.9.{ 2.2.[ [ +.4.4..Xo.r r ",
"Q *.>.|.x {.<.0 <.<.^ ~ -.@.+.:.=Xc *X*X:X1.P.d.p.f.k.kXv.v.= X o O : : > 4 2 u.l.j.p.s.K.U.~.q. .{ { { [ +.+.o.tX=.9 N ",
"i >.<Xx x oX%Xy ~ ,.8.R w O.@X>.'.e L K Z.U.HXmXp.p.j.l.v.v.x.= + O : > 4 T.m.x.r.a.& * - Z.J.eXSXyX9.d d [ 6.>X>Xg 9 t ",
"Q b ,.b -.+X%X+Xa R ,.$.t O.>XO.7 i H.S.I.HXUXhXp.s.& * c.v.n.n.5 6 > 4 4 !.lXn.  d.s.- - $ , eXyXAXSXZX,X[ 2.3Xq 6.0.W ",
"b w b ;.|.2X/ {.%.x ) ,.M D 3.o.g 6.5XU.K.hXjX& - -   . 2 b.n.n.2 6 : : : 6 ).. X P.I.M.A $ X { @.H.eXnXAXnX8X9.q 9.,X@.",
"R a b w x <Xu / 4X%.n *.#.N o.6.>X2.Z.Z.* & r.& - -   . 2 c.u.n.+ 4 4 > > T.6 . F.5XG.B.G.[ K 9.0.j # d tXFXFXyX9.K q @.",
"-.R -.# p }.u _ 4XXXn ( =.N D >X[ } F.vXd.* - d.N.A X o > 1 u.L.m.)././.(.(.X.| 3X3.f f 1.6.H.,Xf 6.>X@.9.yXFXFXNXJ.P 0.",
"! 0 <X9 2X_ e [.XXXXB n *.o.m >XS.eXSXIXZ.Z.Z.G.B.B.@ o 3 3 m.HXlXzXxXxXxX!.% 9.2.g v D o.+.@.+.4.1X5.q @.yXDXAXFXNX9X9.",
"O.,X,.) |.c 7 _ %.( [.v :X:X1X@.J.SXSXtX2.H.1.D.F.N.= 2 3 b.n.m.zX/./.Q.6 : , P ~ 9 %..X>.@X>X>X4.M O.~ P eXAX~.iXGXeXH ",
"s OXOX,.&X_ l XX( n ( $. X:.&.{ NXGXtX%X8.8.-.3.G.Z.x.c.c.c.= = 1 4 4 4 2 ,  .9.q ( &Xc u 0X0XR {.M Q O.L 0.~...yXyX9XL ",
"q ^ ! -.&X;.c }._ %.;.@X~ L @.8XFXrX8./ ] Y ) F Z ; x.v.v.c.= = 4 Y.4 4 2 @ % d :.e T T _ #X5.&.$.v b :.<.L P 7.,X9X0.@.",
"! ! s x {.%.c n }.<XOX0.# P 9XFXNXq.;._ ] H &.F $ * x.v.W.b.2 2 4 4 4 4 2 = 5 } +.$.{.u l 2X#XM Q b a $.,.~ J @.8.0.@.@.",
"0.<.Q b Q n n ` {.2X-.L q 9XAXKXNX~.:X3.0.{ S.Z - = c.W.W.3 2 2 > > > 1 2 5 Z.F.1.*.{.c E {.=.*.>.;.E x ! ~ i y h W i # ",
"-.-.-.) p e ( XX+XOXL L H.GXFXGXGX9X3.F F.Z.N.- - = c.W.W.3 2 1 Y.Y.4 1 2 = d.Z.D.f p ` }.e 7 #X+XOX;.x n >.%.p 1X1X XO.",
"-.R Q -.) _ _ / {.^ ~ 7.yXDXDXiXNX9Xk Z K.K.i.e.i.= 4 Y.Y.3 x.b.4 > > 1 x.n.K.I.S D.|.9 c |.M N {.` }._ n XX4X[.=.N N M ",
"%XJ y ;.4X0X{.9 R s <.0.yXyXiXuXuXH.8 M.K.jXt.C.j.d.b.W.c.x.u.x.c.3 1 x.u.d.d.M.F.;X X( &X2Xo.|.,.U >.}.z =.1X.X.Xr N 4.",
"Y J *XoX}.<X%.#.1X6.>Xj 2.yXeXqXq a ;XB.K.a.k.g.dXdXz.z.h.y.y.l.z.z.z.h.f.t.s.M.G.-X.XN t b =.g i ;.Q $.p  X#.v &.5.-X:X",
"].' *XoX}.2X<X1Xg t o.j O.2X,X0Xa Q ;XG.P.j.fXdXdXgXgXdXg.k.j.k.dXdXdXg.g.p.s.N.B.3X.Xr =.2X:X4.$.>.>.5.O.$.W W f m :.6.",
"].Y ` U u / n v n z >.,.-.-.~ $Xa +.;XM.V.t.k.fXgXdXdXfXfXf.e.t.g.g.f.f.t.j.V.I.5XD.g =..X9 7 1XM b $.$.5.W &.5.g m +.&.",
"s y / / / }.+X}.}.XX%X&X;./ a ~ +.2.U.N.s.e.g.gXfXfXdXg.k.j.e.* f.g.k.k.a.r.* - S 2.>X&.r t r r r w &.b 5.Q  X@X:.&.o.j ",
":.:.>.{.` }.&X'.T oX}.` ) ;.;.L H.S.Z.d.K.l.kXg.g.gXfXy.a.jXV.* a.a.y.y.r.u.Z.A. .% 2.8X>.=..XB p Q |.i &.Q @X&.:.O.g t ",
"-X Xo.E e e T e c `.T c Q 4.>X[ S.; ; d.hXhXjXh.k.f.t.l.K.P.M.N.& r.r.u.K.mXJXPXJX% % 8X@Xt B 1Xw W Q 9 p O.4.m W m j j ",
"D +.N ) E T =X'.'.oXn o.1.1.F.Z.A.; = = L.jXjXa.l.* & jXcXA S F.X & d.jXVXLXJXCXPXVXJ.% 0 M B V v M i i i &.o.m M m m m ",
"3.:X>.&X}.U `.e }.{.N 3.G.Z P.Z.vXU.A.= = * r.i.* d.P.I.F.D.+.C $ X   ; (.CXJXCXVXPXbX| H. Xr B 1X|.h >.b &.p b o.N r w ",
">.{.|.+X}.`.}.%X<X-X1.A M.K.V.i.bXKXJXbXmXU.; d.Z.Z G.5X>X:.OX0.% Z % 5 5 NXJXPXLXPXVXU.F.1.t e 4X&.p W Q i p &.9 p &.|.",
"( }.{.` ` +X%X#Xj D.5XU.V.s.t.& bXKXKXJXKXnXS.S.} C 1.5.$.;.oX{.H.S.| J.X.rXVXCXbXlXL.Z.G.1.N =.M W $.|.:.p h :.w b &.>.",
"l c / U c x ! 5.D.F.G.N.i.e.a.i.% J.9XeXnX3Xd k 1.j i y U oXoXa H.[ d { K  .5 n.u.u.u.N.I.G.G =.M o.&.:.$.Q :.#X$.$.>.{.",
"oX}.oX*X` a -.8XS.} ; - - i.e.* X H H L H.@.0 f o.m b x U / / x &.j q L K % % X * r.r.d.P.G.F N  X$.M m &.|.|.,.x a x b ",
"`.T l s J L L K d ; $ X X * - - S.q.<.@.>X5.o.:.t O.:X<X&.w a #XD g M W +.} Z * l.l.j.a.N.P.D.G 3.O.Q &.5.5.Q w E b x x ",
"oXoXU 0 0.yX9X% % X   X % A Z.S.H.,X0.O.:.>.#.#.g N o. X:Xo.f 6.N t b t m F N.& t.k.kXl.V.I.F.k o.o.&.&.Q p i x +X|.{.;.",
"' T s J 9XZX9X$ X X % | 3X3X2.C 5.$X5.W m =.*.D &.D f C ;X6.k j  Xv B N =.F P.V.e.f.gXkXV.P.G.8 o.g b &.&.h b $.;.;.;.) ",
"].' ].qXAXyX,X7.q P H.>X@.j o.#X:X4X:XN t o.*.D D 3X1X+.D f k 3.1Xr N N [.f G.I.C.t.f.k.t.d.P.Z.K % s ,X0X$X~ x $.;.{.;.",
"H 7XsXsXwX].Y 6X] q R +Xa p #Xv w O.|.>.M b M M p p m &.:.O.W m M v [..XN f F B.cXN.& e.l.j.j.K.~.< uXGXI % 0.J p %.*.r ",
"Y 7XsXsXwX7X].*XqX`.c }.) %.&Xz e w p Q >.>.$.) p x Q |.|.>.O.Q $.e v %.M o.1.f A I.M.- & t.j.d.X.pXBXE.I , H $X$.#.M v ",
"] Y 7XwX].] *X' 7XoXu U ;.%.}.z ;.Q Q ;.|.>.$.) ) E b Q Q Q ! %.+X( E _ ( ) Q g f F.G.- - V.j.- X.pXE.@ w.7.q <.:.M v #.",
"Y q J Y J Y ] ' w / c / }.n ( %.$.+X#X;.b x E E Q E E Q Q E Q ) c l c c e 9 u M  XD.F Z Z - X $ ~.w., , q.*X^ s Q b N #.",
"' ' y s ] ] ' oX0 oX;.{.%X( / {.i ;.>.u 9 x / x p E ;.%X%X{.;.;.l l l l l l / +X) 4.-X;XG.- N.vX9XI I 6X8.^ <.) i #.=.r ",
"` oXU U %XoXU ` }.2X` / {./ Q E {.+X;.u x +X+Xx E E ) ;.{.{.+X2X+X`.l l `.`._ }.l ` >.&.D.;X5XZX7.7.7.^ ~ U ! |.p {..Xv ",
"}.) x E ;.` U x +X%Xx x ) ) ;.x 0X%X;._ ;.+X{.` / E E U x U ;.%X{.` w 9 T c w l / `.x 9 b &.D j @.7.J 0 J ~ Q >.( }..X>.",
"1Xz v Q e Q |.( $.|./ ) ;.OX2X%X%X` / ` Q u E +Xu U ;.+X;.c u u ) >.E l ) U U oXc ` ` $.>.O.Q 5.2X^ -.<.a p >.%.%.( #.{.",
"=.M .X#. XM >.*.Q ) ;.x E / u ;.;./ {.x +X) E %X2X) {./ +Xl 9 / Q >.&.>.b >.x 2X;.E ,.;.#Xp w 9 ! $.@X0X|.b #.e v r $.e ",
"D v 4.*.:XQ Q v 9 i ;.;.|.+X! {.+X;.{.x +XE w $.;.x ;.E %X>.;.2X:.@X>X:XO.&.9 $.-.b $.R &.w b o.&.$.>.2X>.b *.v #.p ) p ",
"=.N #.#. X#.M i p z |.{.|.OXQ $.>.Q $.p %X) w ! ) b ;.w ;.$.) |.o.6.5.5.O.O.0 :.O.b O.h W 0 W :.M v v #.M r %.z #XE {.+X",
":X=.m m *.*.>.$.{.Q {.$.b ! x b $.p E i 2X,.p ) ;.;.|.7 i i w i j j +.j i j j >XO.j &.W &.9 i j m v t t b 9 #.r ;.0 ~ $X"
};
