/* XPM */
static char *_43bbe2d87504e5dfeaddfe41f529897uM618vixU80mkVnr[] = {
/* columns rows colors chars-per-pixel */
"60 60 131 2 ",
"   c None",
".  c #131316",
"X  c #1D1411",
"o  c #15161A",
"O  c #17181B",
"+  c #191A1D",
"@  c #261C18",
"#  c #2C211C",
"$  c #1D1D21",
"%  c #201E22",
"&  c #1F2124",
"*  c #222225",
"=  c #2C2926",
"-  c #24252A",
";  c #27282B",
":  c #2A2A2D",
">  c #352822",
",  c #3A2E2C",
"<  c #39322E",
"1  c #2D2E33",
"2  c #2F3034",
"3  c #323334",
"4  c #393737",
"5  c #34353A",
"6  c #363839",
"7  c #38393D",
"8  c #4B342B",
"9  c #4C392F",
"0  c #4B3632",
"q  c #473E35",
"w  c #4D3E31",
"e  c #403C3F",
"r  c #523B35",
"t  c #5C3F33",
"y  c #573F38",
"u  c #5A4325",
"i  c #53412A",
"p  c #5C4B2F",
"a  c #47423A",
"s  c #564335",
"d  c #5C433B",
"f  c #544A3C",
"g  c #62482B",
"h  c #6C4C2E",
"j  c #65473C",
"k  c #68473B",
"l  c #695437",
"z  c #63523E",
"x  c #735A35",
"c  c #755C38",
"v  c #75603F",
"b  c #3C3D42",
"n  c #444344",
"m  c #464748",
"M  c #4B4C4D",
"N  c #504845",
"B  c #504C4F",
"V  c #4C4F50",
"C  c #514E50",
"Z  c #4F5155",
"A  c gray33",
"S  c #54565C",
"D  c #5B5A59",
"F  c #605445",
"G  c #67574F",
"H  c #6F554C",
"J  c #755045",
"K  c #74554A",
"L  c #78574C",
"P  c #7D5D4F",
"I  c #665A58",
"U  c #7A6347",
"Y  c #736149",
"T  c #67605D",
"R  c #7C655E",
"E  c #615E60",
"W  c #716460",
"Q  c #6C6D71",
"!  c #7D7774",
"~  c #73757A",
"^  c #81653E",
"/  c #855F4F",
"(  c #885D4E",
")  c #815E51",
"_  c #846940",
"`  c #8A734E",
"'  c #846256",
"]  c #87665B",
"[  c #8E6958",
"{  c #946F5F",
"}  c #8B7368",
"|  c #977160",
" . c #A47362",
".. c #A38555",
"X. c #A78A58",
"o. c #9D857B",
"O. c #B1846E",
"+. c #A9966A",
"@. c #A88170",
"#. c #B68874",
"$. c #A3987C",
"%. c #7E7F82",
"&. c #848482",
"*. c #838489",
"=. c #87888B",
"-. c #8C8B8A",
";. c #8D8D92",
":. c #8F9195",
">. c gray59",
",. c #95969A",
"<. c #A39F97",
"1. c #AA9C97",
"2. c #A1A09F",
"3. c #A1A3A5",
"4. c #A9ABAC",
"5. c #B2AFA8",
"6. c #B3B5B3",
"7. c #BAB9B3",
"8. c #B6B9BA",
"9. c #CB9B83",
"0. c #D2BE89",
"q. c #C7C9C8",
"w. c #CFD3D6",
"e. c #D7D8D7",
"r. c #E1E8EA",
"t. c #E9EAEB",
"y. c gray97",
"u. c #FEFEFD",
"i. c #FEFEFE",
"p. c white",
"a. c #F9FCFC",
/* pixels */
"                                                                                                                        ",
"                                                                                                                        ",
"                                                    @ X                                                                 ",
"                                                  > s 9 #                                                               ",
"                                                  P 9.@.9                                                               ",
"                                                  | [ K r                                                               ",
"                                                  O.#.) j                                                               ",
"                                                  / ( t 8                                                               ",
"                                                  d k 8                                                                 ",
"                                                  { t 8                                                                 ",
"                                                  1.} G E $                                                             ",
"                                                n %.A m Z $ *                                                           ",
"                                            b b b =.4.8.Q & 1 2 $                                                       ",
"                                          3 3 2 7 ,.p.p.:.; 1 - +                                                       ",
"                                          3 - ; 7 *.p.p.;.; ; $ O                                                       ",
"                                          1 * * 5 Q y.p.*.- & O + $                                                     ",
"                                          1 $ * 5 S t.a.~ $ $ O $ $                                                     ",
"                                        5 1 $ $ 1 b w.r.S O o o $ $ $                                                   ",
"                                        5 : + $ - 1 3.7.n O . o o $ $                                                   ",
"                                        5 ; O * * 3 $.` l f o + . + $                                                   ",
"                                        5 * o - * F 0.+.x ` = o   * : $                                                 ",
"                                        5 & . - - Y ..X._ v a o   5 * +                                                 ",
"                                        7 5 : : ; s h ^ c p < - 5 - +                                                   ",
"                                        1 b 5 1 1 q g u u i = 2 ; + o                                                   ",
"                                        ; 5 7 1 5 4 z U U w d I ; o                                                     ",
"                                          ; 2 C e b -.5.<.T J ' B                                                       ",
"                                            1 o.] Q q.e.6.-.H L                                                         ",
"                                              R  .! >.2.&.! P y                                                         ",
"                                              3 ' ] W D A N 0 *                                                         ",
"                                              3 = , < ; + + o O                                                         ",
"                                            1 1 - + * * + o o +                                                         ",
"                                              : $ + + + O + + +                                                         ",
"                                              3 - + $ - + + + +                                                         ",
"                                              7 : + + : & + + +                                                         ",
"                                              5 ; + o   * + + +                                                         ",
"                                              3 * o O   * + + +                                                         ",
"                                              5 & o O   * + O +                                                         ",
"                                              3 & O o   ; + + +                                                         ",
"                                              3 $ O     : * + +                                                         ",
"                                              3 $ O     3 ; + +                                                         ",
"                                              2 $ O     3 : $ +                                                         ",
"                                              1 + O     3 : $                                                           ",
"                                              : + O     3 : &                                                           ",
"                                              ; O O     3 : $                                                           ",
"                                              - O O     3 : &                                                           ",
"                                              * O O     3 : &                                                           ",
"                                              - O O     3 : & +                                                         ",
"                                              ; + o     3 1 & +                                                         ",
"                                              ; + o     3 2 & +                                                         ",
"                                              ; O o       1 & +                                                         ",
"                                              : + o       : * +                                                         ",
"                                              1 + o       : * O                                                         ",
"                                              : O O       2 * O                                                         ",
"                                              * $ +       : $ +                                                         ",
"                                              6 1 *       3 1                                                           ",
"                                              n : -       n 5                                                           ",
"                                              3 : :       D M                                                           ",
"                                            % % ;         M M V                                                         ",
"                                                                                                                        ",
"                                                                                                                        "
};
