/* XPM */
static char *result[] = {
/* columns rows colors chars-per-pixel */
"60 60 124 2 ",
"   c #000000",
".  c #090304",
"X  c #070708",
"o  c #070808",
"O  c #0A0B0C",
"+  c #120103",
"@  c #130F0C",
"#  c #16120E",
"$  c #19130F",
"%  c #0E0F11",
"&  c #0F1011",
"*  c #131314",
"=  c #1B1512",
"-  c #1D1915",
";  c #151619",
":  c #191518",
">  c #17181B",
",  c #1A1B1C",
"<  c #210206",
"1  c #211A15",
"2  c #231D1A",
"3  c #25211D",
"4  c #2C221D",
"5  c #32261F",
"6  c #32281F",
"7  c #1C1E21",
"8  c #211E23",
"9  c #1E2125",
"0  c #1F212A",
"q  c #222325",
"w  c #2C2622",
"e  c #2E2925",
"r  c #23252A",
"t  c #2A2529",
"y  c #25282C",
"u  c #2C2A2C",
"i  c #322721",
"p  c #322924",
"a  c #342D2A",
"s  c #392F2B",
"d  c #36302C",
"f  c #39312D",
"g  c #232630",
"h  c #262A32",
"j  c #2B2D33",
"k  c #2B2D38",
"l  c #312E32",
"z  c #2E3134",
"x  c #2E3139",
"c  c #323335",
"v  c #3B3532",
"b  c #3D3834",
"n  c #33343B",
"m  c #38363C",
"M  c #36393B",
"N  c #393C3E",
"B  c #55010D",
"V  c #41161C",
"C  c #5E131F",
"Z  c #53222A",
"A  c #472D31",
"S  c #4E3236",
"D  c #403638",
"F  c #6E2933",
"G  c #633038",
"H  c #343741",
"J  c #373940",
"K  c #3B3E41",
"L  c #3E4144",
"P  c #414446",
"I  c #434649",
"U  c #4B4348",
"Y  c #46494C",
"T  c #494C4F",
"R  c #4B4E52",
"E  c #5C4F54",
"W  c #4E5155",
"Q  c #505356",
"!  c #525659",
"~  c #59575B",
"^  c #555A5D",
"/  c #595B5E",
"(  c #575C60",
")  c #595E62",
"_  c #5D6266",
"`  c #5F6468",
"'  c #616464",
"]  c #61656A",
"[  c #6B666C",
"{  c #64696D",
"}  c #666C70",
"|  c #686D71",
" . c #6C7176",
".. c #6F7479",
"X. c #737476",
"o. c #71767B",
"O. c #73797E",
"+. c #92061A",
"@. c #D41D38",
"#. c #C0233C",
"$. c #953B4A",
"%. c #B23A4D",
"&. c #DC2B47",
"*. c #935F69",
"=. c #A55866",
"-. c #90757A",
";. c #C9465C",
":. c #DA6879",
">. c #767C81",
",. c #797E84",
"<. c #7B8186",
"1. c #7E848A",
"2. c #83898E",
"3. c #848A90",
"4. c #899096",
"5. c #8E959C",
"6. c #999093",
"7. c #92989E",
"8. c #B9858D",
"9. c #989FA7",
"0. c #A0A1A2",
"q. c #AAA9AA",
"w. c #D197A2",
"e. c #D2B1B6",
/* pixels */
"i i i i i i i i i 1 e v f s : b v v v v a p % = > 8 r r j r r r 0 9 > * = ; # 3 a i i i i i $ $ $ # $ = $ * $ $ 4 - # # ",
"i i 5 5 i 5 i i 5 1 e a 5 5 = f i i i p a u j J n h h h y g g y r r h n m m u u a i i i i i = f f p s s s s f s f f 3 w ",
"5 4 5 5 4 i i 5 5 = e p 5 6 = s i p l n K k 7 7 * X     X         X o , , 9 n H j 8 2 = = = O a i i i i i 5 i i i i 1 w ",
"= = @ = = - 2 1 = @ e p 4 6 1 f u c x 7 & o                               X % * h H n a f f = d i 5 5 6 5 i 5 5 5 5 1 4 ",
"d a 2 b v f f f f 1 e p 3 i t H k r o                                           . * k n c a = 2 1 1 1 1 1 1 1 2 2 1 = a ",
"5 4 1 s 5 i i i 5 1 e p a u g r o                                                     > h h : t w 3 w = e e e a a e 1 i ",
"5 4 1 f i i i i i 1 t a c h %                                                           X 7 x n p p i - f s i p p p 1 4 ",
"5 4 2 f i i i i i 1 u k > O                                                               . & 0 j i 5 = s i i i p 5 1 w ",
"$ $ @ = = $ $ # = : h ;                                 o * ; ; O                             o r j w - a 5 i i i 5 1 w ",
"a a d a s s s a j h >                               o 7 K ( ' / L O                             o 8 t - u w 4 4 4 4 = w ",
"5 5 i i i i i a k >                               X u W L u L L W q                               O 7 0 2 1 - - 2 1 $ 4 ",
"i 5 4 i i i t k ;                               X c P , O o 9 L W O                                 O g k s f a d a 2 w ",
"5 i p i i p k ;                               X d P V +   o > c W y                                   o g a i 5 5 i 1 t ",
"i i i i i l h O                               q W 2 B < * q , y Y I O                                   7 x a i 4 4 1 e ",
"i i i i a h %                                 a [ Z +.C U ^ M y z W q                                     0 j p 4 i 1 - ",
"i i i p n 7                                 . V =.%.@.#.$.G E Y c I I O                                   X k l p p 1 2 ",
"2 i 2 u k o                                 . S 8.:.&.;.w.e.6.! Q L ! 9                                     > H e i 1 w ",
"2 a 2 k 7                                   ; ^ [ 6.%.*.0.q.X.t ! ( T Y O                                   o x a 5 4 a ",
"s s n k o                                   > _ w D F S ' / q O W ` j R e                                     > k : $ e ",
"5 i c 7                                     > _ , ~ -.D Q { y O W ` ; I L                                     O k c 2 w ",
"i a H O                                     * W y e X.T c u O ; W ( L L :                                       9 n 2 w ",
"i l h o                                     . c ] I M ^ ' q # P _ ` Y >                                         > n e a ",
"p l :                                         j O.<./ q 7 7 ! >.>.] ,                                           o k r e ",
"a j *                                       & R { ! Y ` / ] 2.{ ) / ,                                           . c y e ",
", g %                                       & _ 5.` L ) M M | ..| 1.J O                                           h y - ",
"l 7                                         z ^ ..) L >     z ! L _ O.! y                                         * k q ",
"c 7                         y q o         O Q Y L q , &   & ! O.N u 2.7.o.W 7                                     o j u ",
"c 7                   & O o q Q u o       , Q T  ._ ) K * L ^ ` Y W ..Y W ..Q y %                                 O x u ",
"c 7                 O M N c K 1.<.N > & u _ L z ` z q 7 9 W q & ; ! O.I ( W _ ..Y u O                             O x j ",
"m 7                 9 c P } o.| 1.^ Y W Q O.W W ` #   o K L o     > T  .>.} 5.3.1.} I u *                         O z u ",
"m 7                 7 Y z Q ] L | z Y  .y !  ._ 1.I > o M L O       o 0 ^ 7.4.R  .>.^ ^ W ,                       o j u ",
"c 7                   3 R }  .] <.O.O.o.L ` ^ R 9.1.! c L ` q           M 7.3.J Q 3.| Q L I 7                     O z u ",
"j ,                     * , : : n _ ) P W _ P | 4./ N o.1.7.W O       X W <.>.5.O.{ Y M 7 q Y 7                   O j u ",
"m ,                               q q   o ; M I R { ] <.>.3...,         u y q <. .Y ! * . o N I o                 o h t ",
"a 0 X                                   O M M * * L o.W M _ ,.M *             I / _ ` >     , T 9                 & h e ",
"t j %                                 O N N &   * N } t   y >.{ Y c m c n u % & & , M L *   & W z                 h j d ",
"p k *                               o M L & o > L ) o.q   , ` z z W W Q ! W I P I c > K I & & W u               X x t 1 ",
"i l ;                               * ` W & c ! M ; ^ y   , _ >   o X o X * N Y Y Y W _ O.z & W z               o j q , ",
"i j h O                             o M ^ 9 q L N * c Y & , _ ,                   O z K { ! z W r               > c 1 w ",
"i a n O                               o u I M : I M q _ > , _ ,                         * u W c o               9 c w e ",
"i p k 7                                 X z  .! c R c W M , ) 7                           X & o               O h a 3 e ",
"= 1 u h O                                 X M  .W } ..<.) 9 ) 7                                               , c 5 1 w ",
"s f s x 7                                   X u !  .` 7.{ , W y                                             o x u 5 1 e ",
"i i 5 u h %                                   9 } N e 3.} O z W O                                           7 c i i 1 3 ",
"i i 5 p y 7                                   * ` L > L ! q u ^ O                                         o y , = $ # @ ",
"i i 5 i = j *                                 o L L O > Y L c ! O                                       X 0 7 f f d 2 w ",
"i i i w @ c j o                               & Y z & c Y ! W / O                                       7 j - a i i 1 w ",
"# # # $ @ ; r >                               y R , c L M o. .o.z                                     o r t = a 5 i 1 e ",
"f a 2 v f f c j > .                         & W Y K K ; P { Y  .! .                                 O 7 u w $ i 4 3 4 i ",
"i 3 1 s 5 i i p g >                         ; ) ] K * o L I z  .^                                 O 7 t i w @ 2 2 3 1 a ",
"i 4 1 s 5 1 p i e r > .                       ; , O   X j Q I ! Q X                             O 7 t i i w = v d d 2 4 ",
"i 4 2 s i a i i p 1 g ;                                 * ! u K W                             O r t i i i i = f i 5 1 4 ",
"i 5 2 s i 5 i i i 2 a u 7 %                             * ! y N W X                       X ; 7 t i i i i 5 = s i i 1 * ",
"i 2 1 s i i i i i 2 a p y r *                           O / W T K                       X 7 r u i 4 5 5 i w = s i 4 1 e ",
"i 2 2 s i i i i i 1 e p p t 0 q O X                     o L ^ L &                   X , r q * - = = # = 2 2 * - $ = # w ",
"2 1 = 4 1 2 2 4 2 = e p i i - c u 9 O X                   X o o                 O * y g 8 1 @ s a p * v A s f s p d 3 w ",
"2 i i w e w w f w - e p i 5 $ i w u j , ; O                               o * ; y j 8 u v s - a i i $ f i i i i i i 4 p ",
"p p p p p p p p p 2 6 w 5 4 = s i i w u l r 7 q > X X X . X X   X . O , , , z l a p 1 3 p i $ s i i # f 5 i i i i 5 2 e ",
"i i i i i i i i i 4 - = - = * f 5 i i i p w t a r q q r y q r q q 9 9 u e w e w i i 1 p p p = s 5 e - v 5 i i 5 5 5 1 e ",
"i i 5 i 5 i 5 i i 1 i a f d = f i i i i i 2 2 a 5 w e u t 8 a w 4 4 - f i i 4 4 i i 1 - 1 = @ s 5 i 2 f 5 e i i i 5 1 4 "
};
