/* XPM */
static char *result[] = {
/* columns rows colors chars-per-pixel */
"60 60 123 2 ",
"   c #000000",
".  c #090304",
"X  c #070708",
"o  c #070808",
"O  c #0B0B0C",
"+  c #130E0C",
"@  c #16120E",
"#  c #19130F",
"$  c #0E0F10",
"%  c #0F1011",
"&  c #131314",
"*  c #1B1512",
"=  c #1D1915",
"-  c #151619",
";  c #191718",
":  c #17181A",
">  c #1B1B1D",
",  c #200205",
"<  c #211A15",
"1  c #231D1A",
"2  c #2B1C1F",
"3  c #26211D",
"4  c #2C231D",
"5  c #32261F",
"6  c #32281F",
"7  c #1D1E22",
"8  c #211F22",
"9  c #1E2023",
"0  c #232325",
"q  c #2C2622",
"w  c #2E2925",
"e  c #24252A",
"r  c #29272A",
"t  c #26292C",
"y  c #2B2A2C",
"u  c #322721",
"i  c #322924",
"p  c #342D2A",
"a  c #392F2B",
"s  c #36302C",
"d  c #39312D",
"f  c #242730",
"g  c #272A32",
"h  c #2B2D33",
"j  c #2E2E39",
"k  c #312D32",
"l  c #2E3134",
"z  c #2E313A",
"x  c #323335",
"c  c #3C3532",
"v  c #3D3834",
"b  c #33343B",
"n  c #38363A",
"m  c #36393C",
"M  c #393B3E",
"N  c #51020C",
"B  c #55131E",
"V  c #471F24",
"C  c #4B1D26",
"Z  c #493033",
"A  c #483B3E",
"S  c #503235",
"D  c #5F3037",
"F  c #6F2933",
"G  c #343640",
"H  c #363840",
"J  c #3B3D42",
"K  c #3E3F48",
"L  c #3E4144",
"P  c #414346",
"I  c #434649",
"U  c #494549",
"Y  c #46494C",
"T  c #494C4F",
"R  c #4A4E51",
"E  c #574D51",
"W  c #4D5155",
"Q  c #505457",
"!  c #535559",
"~  c #55595D",
"^  c #585C5F",
"/  c #575C60",
"(  c #595D61",
")  c #5D6165",
"_  c #5E6368",
"`  c #62666A",
"'  c #64696D",
"]  c #676B71",
"[  c #6A6F74",
"{  c #6C7176",
"}  c #6E7479",
"|  c #72767B",
" . c #74797E",
".. c #8B0418",
"X. c #BB253D",
"o. c #D11A35",
"O. c #893644",
"+. c #BA2F46",
"@. c #DA2743",
"#. c #A45A68",
"$. c #99636E",
"%. c #8D7176",
"&. c #CA455B",
"*. c #DA6073",
"=. c #767B80",
"-. c #797E84",
";. c #7B8187",
":. c #7E848A",
">. c #81868D",
",. c #82888E",
"<. c #90888A",
"1. c #858B92",
"2. c #8A9197",
"3. c #90979E",
"4. c #91989F",
"5. c #BF878F",
"6. c #969CA3",
"7. c #99A0A7",
"8. c #9CA3AA",
"9. c #A9A6A8",
"0. c #AFADAF",
"q. c #CF909C",
"w. c #CBA7AC",
/* pixels */
"u u u u u u u u 5 < w c p a = c c c c c p i + * ; ; > 8 y > 7 7 > > % & # * @ 4 i u u u u u # # * @ # * # * & # 3 = @ @ ",
"u u u 5 u 5 u u 5 < w i u u * d u u u u w y h J j h h h h j h h h h h b n k 8 0 a u u u u u * a a i a a a a d a d d 3 4 ",
"5 4 5 5 q 4 u 5 q < w i u u * d u i p J K h e 0 & o o O X O o o O O - e t b H h < < 2 * * * + p u u u u 5 u 5 5 u u < q ",
"* * + * * * 2 < * + w i 4 6 < d y z G 7 - O X X                       X X % 7 9 G b x i p a ; a u u 5 5 5 6 u 5 6 u < q ",
"s p 1 v d d d d a = w u 2 i y H b 7 O                                         X & g z k p q # < 1 < < < < < < 2 3 < # i ",
"5 4 < a u u 6 i u < w p p y h e $                                                   & g h w * 0 3 3 q = w w q i p q < i ",
"5 4 < d 6 5 u i u < w p z f $                                                         X - G g k i i u = d i i i i i = q ",
"5 4 1 a 5 i u 6 u < t g : O                                                               $ 7 G u 6 4 = d u u i 6 6 < q ",
"# # + * & # # @ * - f &                             X O O O X                               X 7 j w 4 = p u u u u u < q ",
"p p p p a a a p h t &                             O l ! ( ~ m ; X                             X 7 h 2 * w q 4 4 4 4 * q ",
"6 6 u u u u i y g -                               - T Y T b L W y o                             X 7 e > < < < > > = # 2 ",
"6 5 2 i u i w f -                                 O I L t O O 0 P y                               . 7 b a a p a d s 1 q ",
"5 u i u u i h -                                   : W M > o   . V A t X                             X 7 j 4 u u 6 5 < q ",
"u u u u u k h                                   o m R y : > & , N 2 W 0                               $ b y u u 4 5 = q ",
"u u u u y g $                                   : ! M 0 x ~ U B ..C ` k                                 : j w u 4 u < = ",
"u u u i b -                                   o m W x P E D O.X.o.+.#.V .                                 e j u i u < 2 ",
"4 4 2 k t X                                   - Q P W W <.w.q.&.@.*.5.S o                                 % j y 6 q < w ",
"1 i 0 z -                                     L T W ^ e { 0.9.$.@.<.} Q -                                 X t j u 6 4 i ",
"i a x g X                                   ; R l W ) $ 9 ! ) Z F A 3 ~ >                                   $ j > = @ q ",
"u i j -                                     m T : ! ^ $ 9 ' Q Z %.! : ~ >                                   X t x s 3 q ",
"u k b O                                     & J L Q ~ > $ t x T | y e R -                                     : H u < q ",
"u k g X                                       & L ' ( L & 3 ) ^ m L ` m                                       O b y 4 p ",
"w H &                                           : ^ =.-.~ 7 > q ! -.| b                                         0 k < w ",
"p J &                                           & ~ ) ' :._ ~ ) R ~ ' Y +                                       7 x < w ",
"8 j O                                         o l :.} { [ m x ~ L ' 3.) %                                       : x > * ",
"b 7                                         9 W | _ L ~ x o o : L / { ~ l o                                     o e 0 2 ",
"b >                                     & T { 3.2.x x =./ : o O > 0 L R W %         o 0 e .                     X 0 e q ",
"b >                                 O 0 T } Q L } Q L _ ~ L & M ^ ) } W W : X     o l ! > X O $                 X e r w ",
"b >                             O 0 I { { Y ) I | ) : $ 7 W t : 9 y ) m Y ^ h & > L :.;.M m L l X               X 0 r q ",
"b >                         O 0 I _ :.>.6.}  .} R >     o m Y o   % ) ^ ! } W W T ^ :.` { ` J x ;               X e r w ",
"b >                       - Y ~ ~ | | Y ;.7.) e o       O M L o > Y ,.) | W t } Y m { L _ W m L -                 t h q ",
"b >                     - L J W ` >._ J  .7.I o       o 3 _ Y m ! :.8.W ) ` L | | -. ._ ' ' Y >                 X t y w ",
"h >                   & P h ; x M _ } 2.;.| ^ O       o R 3.,.| m ) 1.' L ~ R m ~ ^ y & : & $                   X e y 3 ",
"b >                 X y Y O   O Y W ` ;.y : t o       & { :.;.:.' ] R L M & o   9 >                               e y 3 ",
"h 0 X               & R t .   & W _ W Y X           & m  .^ x T | m & O m m %                                   O y 0 q ",
"p H O               - ( >   $ M M ; & $ o y L L L L Y _ ;.y   0 { Y >   O m M $                                 > x 3 s ",
"i H &               : ^ 9 o L I > m T T T T T T T T l 0 _ >   0 { ! I 7 o $ L L O                               7 b < < ",
"i b -               : ^ 9 7 } ' ! Y L J m & X X   X   - ) >   y Q : l ~ x % Q _ &                             X 0 h < < ",
"u h h X             & W L T ` L t O                   - ^ 7 $ W l > L m > 0 ~ l                               % b q < q ",
"u p j o               > I l &                         - ( > : ^ 9 L Y > I Y 0 o                               : b i 1 i ",
"q u h 7                 O X                           : ( 9 l W m W x ) [ t X                               X g y 6 3 w ",
"* = r e O                                             : ^ 0 W ,.-.{ W ' y X                                 & j i 6 < w ",
"d d a G :                                             y W : ^ 4.! ` ! e .                                 o g y u u < q ",
"5 u 5 k f O                                         O W l O ^ >.0 m { t                                   & j i i u < 3 ",
"u u 6 u e -                                         O ~ h 0 W x % Y ) %                                 X 9 9 * # # @ + ",
"u u u u - h &                                       O ! m L W : X L T                                   7 h = d d d 3 3 ",
"u u u q @ k t X                                     $ ( ! ) P M - l W &                               $ z 0 # i u u < q ",
"# @ # # + - 7 -                                     h =.| ;.L m L > R x                             o 0 y 4 # d u u < q ",
"d y 1 c d d a g : .                               X Y } L ~ W $ l L R ~ &                         o 7 y u u @ u 4 3 4 i ",
"u 4 < a 5 u i w e -                                 Y { M P W o O l ! W %                       o 9 y u u q + 8 1 3 < i ",
"u 4 < a 5 < u u q 8 - X                           X I W L ! y     o $ $                       o 7 r u u u u * c p s 1 q ",
"5 4 1 a u p u u u < 0 - X                         X I J y ( &                               o 9 h u i u u u * d u 6 < 3 ",
"u 4 1 a u u u u u 2 i e 7 $                       X P J y ( &                           X & 7 h u u u u u q * d u u < * ",
"u 4 < a u u u u u 1 p u e 0 & X                     y R ) _ O                         O : h > p u u 5 5 u 2 * a u 4 < q ",
"u 4 < a u u u u u < w i i w 0 t & X                 o t L y X                     $ : g 8 q @ ; * * + * 4 < & = * * @ q ",
"1 < * 4 < 1 1 4 1 * w i u u = k h 9 - X                 X X                   O : f 8 : 1 < + a p i * c d d d d i s 1 q ",
"1 q q q u w q s q = w u 5 5 # u q p j 9 0 O o X                     X o X - 9 0 h p < y c a = p u u # s u u u u u u 4 i ",
"u i i u i i i i i 3 q q 4 4 * a u u w k x 0 0 0 - O $ O O % % $ O % 7 y e y x i u u < 4 u u * p u u & s u u u u u 5 1 w ",
"u u u u 6 u u u u 4 < = < = & d 5 u u u 4 q w a 0 0 0 0 0 0 y h y 0 0 x i u 4 4 u u * i i u * s u u < d u u 6 u 5 6 < q ",
"u u u u u u u u u < w i d p = d u u u u q 2 1 p 5 u u i u 2 x i u u # d 5 u q q u u < = < < + a u u 1 d u u u u 5 6 < q "
};
